<?xml version="1.0" encoding="UTF-8"?>
<!DOCTYPE svg PUBLIC "-//W3C//DTD SVG 1.1//EN" "http://www.w3.org/Graphics/SVG/1.1/DTD/svg11.dtd">
<!-- Creator: CorelDRAW 2017 -->
<svg xmlns="http://www.w3.org/2000/svg" xml:space="preserve" width="34mm" height="34mm" version="1.1" style="shape-rendering:geometricPrecision; text-rendering:geometricPrecision; image-rendering:optimizeQuality; fill-rule:evenodd; clip-rule:evenodd"
viewBox="0 0 3400000 3400000"
 xmlns:xlink="http://www.w3.org/1999/xlink">
 <defs>
  <style type="text/css">
   <![CDATA[
    .fil0 {fill:#F4AFA7}
    .fil1 {fill:#F4F4F4}
   ]]>
  </style>
 </defs>
 <g id="Слой_x0020_1">
  <metadata id="CorelCorpID_0Corel-Layer"/>
  <g id="_2540712073760">
   <g>
    <path class="fil0" d="M2193030 2133700c19700,-11490 27460,-33280 31780,-47150 3140,-10070 4480,-15970 5310,-20730l-25190 -16320c-840,4640 -2190,10460 -5180,20040 -4330,13870 -12090,35660 -31780,47150 -19700,11490 -51330,12680 -74310,24920 -22060,11740 -36140,33670 -49910,56000l25410 16460c13660,-22140 27690,-43800 49570,-55450 22980,-12240 54610,-13430 74300,-24920z"/>
    <path class="fil1" d="M2218220 2150010c19700,-11490 27460,-33270 31790,-47150 3140,-10060 4470,-15970 5310,-20730l-25200 -16310c-840,4640 -2190,10450 -5180,20030 -4330,13880 -12090,35660 -31780,47150 -19700,11490 -51330,12690 -74300,24920 -22070,11750 -36150,33680 -49920,56010l25410 16450c13660,-22130 27690,-43800 49570,-55450 22980,-12230 54610,-13430 74300,-24920z"/>
    <path class="fil0" d="M2243420 2166330c19690,-11490 27450,-33270 31780,-47150 3140,-10060 4470,-15970 5310,-20730l-25190 -16320c-850,4650 -2200,10460 -5190,20040 -4330,13880 -12080,35660 -31780,47150 -19700,11490 -51330,12680 -74300,24920 -22070,11740 -36150,33670 -49920,56000l25410 16460c13660,-22140 27690,-43800 49570,-55450 22980,-12240 54610,-13430 74310,-24920z"/>
   </g>
   <g>
    <path class="fil0" d="M1905870 2582660c-22370,-4390 -42590,6840 -55000,14400 -9010,5480 -13910,9030 -17690,12050l8140 28890c3700,-2920 8550,-6390 17130,-11610 12410,-7560 32630,-18790 55000,-14400 22380,4390 46910,24390 72250,30380 24320,5760 49380,-1400 74460,-9070l-8200 -29140c-24880,7600 -49720,14590 -73840,8880 -25340,-5990 -49870,-25990 -72250,-30380z"/>
    <path class="fil1" d="M1897740 2553770c-22370,-4390 -42590,6840 -55010,14400 -9000,5480 -13900,9030 -17680,12050l8130 28890c3710,-2920 8560,-6400 17130,-11610 12420,-7560 32640,-18790 55010,-14400 22380,4380 46910,24380 72240,30380 24330,5760 49380,-1400 74470,-9070l-8200 -29140c-24880,7600 -49730,14590 -73850,8880 -25330,-6000 -49860,-26000 -72240,-30380z"/>
    <path class="fil0" d="M1889610 2524870c-22380,-4380 -42590,6850 -55010,14400 -9000,5490 -13910,9040 -17680,12060l8130 28890c3700,-2930 8560,-6400 17130,-11620 12420,-7550 32630,-18780 55010,-14400 22370,4390 46910,24390 72240,30390 24320,5750 49380,-1400 74470,-9070l-8200 -29140c-24880,7590 -49730,14590 -73850,8880 -25330,-6000 -49860,-26000 -72240,-30390z"/>
   </g>
   <g>
    <path class="fil0" d="M2442740 1885100c15860,16370 38870,18700 53380,19580 10520,640 16580,520 21400,200l9820 -28370c-4710,300 -10680,370 -20700,-240 -14510,-880 -37510,-3200 -53380,-19580 -15870,-16380 -24590,-46800 -41960,-66190 -16690,-18610 -41350,-27040 -66320,-35070l-9900 28610c24760,7960 49150,16410 65690,34870 17380,19380 26100,49810 41970,66190z"/>
    <path class="fil1" d="M2432920 1913460c15870,16380 38870,18700 53380,19580 10530,640 16580,530 21400,200l9820 -28360c-4710,290 -10680,370 -20700,-240 -14500,-890 -37510,-3210 -53380,-19590 -15860,-16370 -24590,-46800 -41960,-66180 -16690,-18620 -41340,-27050 -66320,-35080l-9900 28610c24760,7970 49150,16410 65690,34870 17380,19390 26100,49810 41970,66190z"/>
    <path class="fil0" d="M2423100 1941820c15870,16380 38870,18700 53380,19590 10530,640 16580,520 21400,190l9820 -28360c-4710,290 -10680,370 -20690,-240 -14510,-880 -37520,-3210 -53390,-19580 -15860,-16380 -24590,-46810 -41960,-66190 -16680,-18620 -41340,-27050 -66320,-35070l-9900 28600c24760,7970 49150,16410 65700,34880 17370,19380 26100,49810 41960,66180z"/>
   </g>
   <g>
    <path class="fil0" d="M2084310 1368890c18540,-13280 24230,-35690 27240,-49910 2180,-10320 2950,-16320 3340,-21140l-26600 -13890c-410,4700 -1210,10610 -3290,20430 -3010,14220 -8700,36640 -27230,49920 -18540,13280 -49920,17420 -71650,31750 -20870,13760 -32840,36910 -44460,60430l26830 14010c11530,-23320 23480,-46200 44170,-59840 21740,-14330 53120,-18480 71650,-31760z"/>
    <path class="fil1" d="M2110920 1382780c18530,-13280 24220,-35700 27230,-49920 2190,-10310 2960,-16310 3350,-21130l-26610 -13890c-400,4700 -1200,10610 -3280,20430 -3010,14220 -8700,36640 -27240,49920 -18530,13280 -49910,17420 -71650,31750 -20860,13760 -32840,36910 -44450,60430l26830 14010c11530,-23320 23480,-46200 44170,-59840 21730,-14340 53110,-18480 71650,-31760z"/>
    <path class="fil0" d="M2137530 1396670c18530,-13280 24220,-35700 27230,-49920 2190,-10310 2960,-16310 3350,-21130l-26610 -13890c-410,4700 -1210,10610 -3290,20430 -3010,14220 -8700,36640 -27230,49920 -18540,13280 -49920,17420 -71650,31750 -20870,13760 -32840,36910 -44460,60430l26840 14010c11530,-23320 23470,-46200 44170,-59850 21730,-14330 53110,-18470 71650,-31750z"/>
   </g>
   <g>
    <path class="fil0" d="M2100360 1004510c16510,15730 39590,17130 54120,17430 10550,220 16590,-140 21390,-660l8680 -28730c-4690,480 -10650,800 -20690,590 -14530,-310 -37610,-1710 -54120,-17440 -16510,-15720 -26440,-45780 -44580,-64450 -17410,-17930 -42390,-25370 -67670,-32390l-8750 28980c25060,6970 49770,14430 67040,32210 18140,18680 28070,48730 44580,64460z"/>
    <path class="fil1" d="M2091690 1033240c16500,15730 39590,17130 54120,17440 10540,210 16580,-150 21390,-660l8670 -28740c-4690,480 -10650,800 -20680,590 -14540,-300 -37620,-1710 -54130,-17430 -16510,-15730 -26440,-45780 -44580,-64460 -17410,-17930 -42390,-25370 -67660,-32390l-8750 28980c25060,6970 49770,14430 67040,32220 18130,18670 28070,48720 44580,64450z"/>
    <path class="fil0" d="M2083010 1061980c16510,15720 39590,17130 54120,17430 10540,220 16590,-140 21390,-660l8680 -28730c-4700,470 -10650,790 -20690,580 -14530,-300 -37610,-1700 -54120,-17430 -16510,-15730 -26440,-45780 -44580,-64460 -17420,-17930 -42390,-25360 -67670,-32390l-8750 28980c25060,6970 49770,14440 67040,32220 18140,18670 28070,48730 44580,64460z"/>
   </g>
   <g>
    <path class="fil0" d="M2408550 1175320c-11330,19790 -7170,42540 -3990,56720 2310,10290 4110,16070 5760,20620l29970 1550c-1580,-4450 -3320,-10160 -5520,-19950 -3180,-14180 -7330,-36930 3990,-56720 11320,-19790 38130,-36630 51920,-58700 13250,-21200 14500,-47230 15270,-73450l-30230 -1570c-780,26000 -2110,51780 -15250,72800 -13790,22080 -40600,38910 -51920,58700z"/>
    <path class="fil1" d="M2378570 1173770c-11320,19790 -7160,42540 -3980,56720 2310,10290 4100,16070 5750,20610l29980 1560c-1590,-4450 -3320,-10160 -5520,-19950 -3180,-14190 -7340,-36930 3980,-56720 11330,-19790 38130,-36630 51930,-58700 13250,-21200 14490,-47230 15270,-73450l-30240 -1570c-770,26000 -2110,51780 -15240,72800 -13800,22080 -40600,38910 -51930,58700z"/>
    <path class="fil0" d="M2348600 1172220c-11330,19790 -7170,42540 -3990,56720 2310,10290 4110,16070 5760,20610l29970 1550c-1580,-4440 -3320,-10150 -5510,-19940 -3180,-14190 -7340,-36930 3980,-56730 11320,-19790 38130,-36620 51920,-58700 13250,-21190 14500,-47220 15270,-73440l-30230 -1570c-770,26000 -2110,51780 -15250,72800 -13790,22070 -40600,38910 -51920,58700z"/>
   </g>
   <g>
    <path class="fil0" d="M1623040 1769010c7210,21630 26940,33690 39630,40770 9210,5130 14720,7650 19200,9440l21140 -21310c-4370,-1780 -9790,-4290 -18550,-9180 -12700,-7080 -32430,-19140 -39640,-40770 -7200,-21630 -1890,-52840 -9150,-77830 -6980,-24010 -25550,-42290 -44580,-60340l-21320 21500c18870,17900 37190,36080 44110,59880 7270,25000 1950,56200 9160,77840z"/>
    <path class="fil1" d="M1601900 1790320c7210,21630 26940,33690 39640,40770 9200,5140 14710,7650 19200,9450l21130 -21320c-4370,-1770 -9780,-4290 -18550,-9180 -12690,-7080 -32420,-19140 -39630,-40770 -7210,-21630 -1890,-52830 -9160,-77830 -6970,-24000 -25550,-42280 -44580,-60340l-21320 21500c18870,17910 37200,36080 44120,59880 7260,25000 1950,56210 9150,77840z"/>
    <path class="fil0" d="M1580770 1811630c7210,21630 26940,33690 39630,40770 9210,5140 14720,7650 19210,9450l21130 -21310c-4370,-1780 -9780,-4290 -18550,-9180 -12690,-7080 -32420,-19140 -39630,-40780 -7210,-21630 -1890,-52830 -9160,-77830 -6970,-24000 -25550,-42280 -44580,-60330l-21320 21490c18870,17910 37200,36080 44110,59890 7270,24990 1950,56200 9160,77830z"/>
   </g>
   <g>
    <path class="fil0" d="M1966390 1892050c-19900,11120 -28070,32760 -32650,46550 -3330,10000 -4770,15880 -5690,20630l24880 16780c930,-4630 2390,-10410 5550,-19940 4590,-13790 12750,-35430 32660,-46550 19900,-11120 51550,-11730 74750,-23530 22280,-11340 36760,-33000 50940,-55070l-25090 -16930c-14070,21880 -28500,43280 -50600,54520 -23200,11810 -54840,12420 -74750,23540z"/>
    <path class="fil1" d="M1941510 1875270c-19910,11120 -28070,32750 -32660,46550 -3320,10000 -4760,15880 -5690,20630l24890 16780c930,-4630 2380,-10410 5550,-19940 4580,-13790 12750,-35430 32650,-46550 19910,-11120 51550,-11730 74750,-23530 22280,-11340 36770,-33000 50950,-55070l-25100 -16930c-14070,21880 -28500,43280 -50590,54520 -23200,11810 -54850,12420 -74750,23540z"/>
    <path class="fil0" d="M1916620 1858480c-19900,11130 -28070,32760 -32650,46560 -3330,10000 -4770,15880 -5690,20630l24880 16780c930,-4630 2390,-10420 5550,-19940 4590,-13790 12750,-35430 32660,-46550 19900,-11120 51550,-11730 74750,-23540 22280,-11330 36770,-32990 50940,-55060l-25090 -16930c-14070,21880 -28500,43280 -50600,54520 -23200,11810 -54840,12410 -74750,23530z"/>
   </g>
   <g>
    <path class="fil0" d="M1712110 2135970c-15560,-16670 -38520,-19420 -53010,-20570 -10510,-840 -16560,-830 -21390,-600l-10340 28180c4710,-200 10680,-170 20680,620 14490,1160 37450,3910 53010,20570 15560,16670 23720,47260 40730,66960 16340,18920 40830,27810 65650,36300l10440 -28420c-24610,-8430 -48840,-17320 -65040,-36090 -17010,-19700 -25170,-50280 -40730,-66950z"/>
    <path class="fil1" d="M1722460 2107790c-15560,-16660 -38520,-19420 -53010,-20570 -10510,-840 -16570,-830 -21400,-590l-10340 28170c4710,-200 10680,-170 20690,630 14490,1150 37450,3900 53010,20570 15560,16670 23710,47250 40730,66960 16330,18920 40830,27800 65650,36290l10430 -28410c-24610,-8430 -48840,-17330 -65040,-36090 -17010,-19710 -25170,-50290 -40720,-66960z"/>
    <path class="fil0" d="M1732800 2079620c-15560,-16670 -38520,-19420 -53010,-20580 -10510,-830 -16570,-820 -21390,-590l-10350 28180c4720,-210 10680,-170 20690,620 14490,1150 37450,3910 53010,20570 15560,16670 23720,47260 40730,66960 16330,18920 40830,27810 65650,36300l10440 -28420c-24620,-8430 -48850,-17320 -65040,-36090 -17020,-19700 -25170,-50280 -40730,-66950z"/>
   </g>
   <g>
    <path class="fil0" d="M2585440 1552480c-980,22780 13150,41090 22490,52230 6770,8080 11020,12400 14570,15680l27340 -12380c-3450,-3220 -7600,-7500 -14050,-15190 -9330,-11140 -23470,-29450 -22490,-52230 990,-22780 17080,-50030 19210,-75980 2050,-24910 -8790,-48610 -20130,-72260l-27580 12470c11240,23460 21880,46980 19850,71680 -2130,25950 -18220,53200 -19210,75980z"/>
    <path class="fil1" d="M2558100 1564860c-980,22780 13150,41080 22480,52220 6770,8090 11020,12400 14570,15680l27350 -12370c-3450,-3220 -7610,-7500 -14060,-15200 -9330,-11140 -23460,-29440 -22480,-52220 980,-22790 17080,-50040 19210,-75980 2040,-24920 -8790,-48620 -20140,-72270l-27580 12480c11240,23460 21880,46970 19850,71680 -2120,25940 -18220,53200 -19200,75980z"/>
    <path class="fil0" d="M2530750 1577230c-980,22780 13150,41080 22490,52230 6770,8080 11020,12390 14570,15670l27340 -12370c-3450,-3220 -7610,-7500 -14050,-15190 -9340,-11150 -23470,-29450 -22490,-52230 990,-22780 17080,-50040 19210,-75980 2050,-24910 -8790,-48620 -20130,-72270l-27580 12480c11240,23460 21880,46970 19850,71680 -2130,25940 -18220,53200 -19210,75980z"/>
   </g>
   <g>
    <path class="fil0" d="M2316760 2394860c-14610,17510 -14480,40640 -13830,55160 480,10530 1240,16540 2070,21300l29240 6760c-780,-4650 -1490,-10580 -1950,-20600 -650,-14520 -780,-37650 13830,-55160 14610,-17510 43940,-29400 61380,-48730 16740,-18560 22520,-43970 27850,-69650l-29490 -6820c-5300,25460 -11120,50610 -27720,69010 -17440,19330 -46770,31230 -61380,48730z"/>
    <path class="fil1" d="M2287520 2388100c-14610,17510 -14490,40640 -13830,55160 480,10530 1240,16540 2070,21300l29240 6760c-790,-4650 -1500,-10580 -1950,-20600 -660,-14530 -780,-37650 13830,-55160 14600,-17510 43940,-29400 61370,-48730 16750,-18560 22520,-43970 27860,-69650l-29490 -6830c-5300,25470 -11120,50620 -27730,69020 -17430,19330 -46770,31220 -61370,48730z"/>
    <path class="fil0" d="M2258270 2381340c-14600,17510 -14480,40630 -13820,55150 470,10540 1230,16540 2070,21310l29240 6760c-790,-4660 -1500,-10580 -1950,-20610 -660,-14520 -780,-37640 13820,-55150 14610,-17510 43940,-29400 61380,-48730 16750,-18560 22520,-43970 27860,-69660l-29490 -6820c-5310,25470 -11120,50610 -27730,69020 -17440,19330 -46770,31220 -61380,48730z"/>
   </g>
   <g>
    <path class="fil0" d="M834470 1151050c640,-22790 -13770,-40880 -23270,-51880 -6890,-7980 -11200,-12230 -14800,-15460l-27160 12780c3500,3170 7720,7390 14280,14980 9500,11010 23910,29100 23270,51890 -640,22790 -16320,50280 -18060,76260 -1670,24940 9510,48470 21210,71950l27390 -12890c-11590,-23280 -22580,-46640 -20920,-71370 1740,-25970 17420,-53470 18060,-76260z"/>
    <path class="fil1" d="M861630 1138270c640,-22800 -13770,-40880 -23270,-51890 -6890,-7980 -11200,-12220 -14800,-15450l-27160 12780c3500,3170 7720,7390 14280,14980 9500,11000 23910,29090 23270,51890 -640,22790 -16330,50280 -18070,76260 -1670,24940 9520,48470 21220,71950l27390 -12890c-11590,-23290 -22580,-46640 -20930,-71370 1740,-25980 17430,-53470 18070,-76260z"/>
    <path class="fil0" d="M888780 1125490c640,-22800 -13760,-40890 -23260,-51890 -6890,-7980 -11210,-12230 -14810,-15450l-27150 12780c3490,3170 7720,7380 14280,14980 9500,11000 23900,29090 23260,51880 -640,22800 -16320,50290 -18060,76260 -1670,24940 9520,48480 21210,71960l27400 -12890c-11600,-23290 -22590,-46640 -20930,-71370 1740,-25980 17420,-53470 18060,-76260z"/>
   </g>
   <g>
    <path class="fil0" d="M1238880 2661210c15860,16370 38870,18700 53380,19580 10520,640 16580,520 21400,200l9820 -28370c-4710,300 -10680,370 -20700,-240 -14510,-880 -37510,-3200 -53380,-19580 -15870,-16380 -24590,-46800 -41960,-66190 -16690,-18610 -41350,-27040 -66320,-35070l-9900 28610c24760,7960 49150,16410 65690,34870 17380,19380 26100,49810 41970,66190z"/>
    <path class="fil1" d="M1229060 2689570c15870,16380 38870,18700 53380,19580 10530,640 16580,530 21400,200l9820 -28360c-4710,290 -10680,370 -20700,-240 -14500,-890 -37510,-3210 -53380,-19590 -15860,-16370 -24590,-46800 -41960,-66180 -16690,-18620 -41340,-27050 -66320,-35080l-9900 28610c24760,7970 49150,16410 65690,34870 17380,19390 26100,49810 41970,66190z"/>
    <path class="fil0" d="M1219240 2717930c15870,16380 38870,18700 53380,19590 10530,640 16580,520 21400,190l9820 -28360c-4710,290 -10680,370 -20690,-240 -14510,-880 -37520,-3210 -53390,-19580 -15860,-16380 -24590,-46810 -41960,-66190 -16680,-18620 -41340,-27050 -66320,-35070l-9900 28600c24760,7970 49150,16410 65700,34880 17370,19380 26100,49810 41960,66180z"/>
   </g>
   <g>
    <path class="fil0" d="M880450 2145000c18540,-13280 24230,-35690 27240,-49910 2180,-10320 2950,-16320 3340,-21140l-26600 -13890c-410,4700 -1210,10610 -3290,20430 -3010,14220 -8700,36640 -27230,49920 -18540,13280 -49920,17420 -71650,31750 -20870,13760 -32840,36910 -44460,60430l26830 14010c11530,-23320 23480,-46200 44170,-59840 21740,-14330 53120,-18480 71650,-31760z"/>
    <path class="fil1" d="M907060 2158890c18530,-13280 24220,-35700 27230,-49920 2190,-10310 2960,-16310 3350,-21130l-26610 -13890c-400,4700 -1200,10610 -3280,20430 -3010,14220 -8700,36640 -27240,49920 -18530,13280 -49910,17420 -71650,31750 -20860,13760 -32840,36910 -44450,60430l26830 14010c11530,-23320 23480,-46200 44170,-59840 21730,-14340 53110,-18480 71650,-31760z"/>
    <path class="fil0" d="M933670 2172780c18530,-13280 24220,-35700 27230,-49920 2190,-10310 2960,-16310 3350,-21130l-26610 -13890c-410,4700 -1210,10610 -3290,20430 -3010,14220 -8700,36640 -27230,49920 -18540,13280 -49920,17420 -71650,31750 -20870,13760 -32840,36910 -44460,60430l26840 14010c11530,-23320 23470,-46200 44170,-59850 21730,-14330 53110,-18470 71650,-31750z"/>
   </g>
   <g>
    <path class="fil0" d="M896500 1780620c16510,15730 39590,17130 54120,17430 10550,220 16590,-140 21390,-660l8680 -28730c-4690,480 -10650,800 -20690,590 -14530,-310 -37610,-1710 -54120,-17440 -16510,-15720 -26440,-45780 -44580,-64450 -17410,-17930 -42390,-25370 -67670,-32390l-8750 28980c25060,6970 49770,14430 67040,32210 18140,18680 28070,48730 44580,64460z"/>
    <path class="fil1" d="M887830 1809350c16500,15730 39590,17130 54120,17440 10540,210 16580,-150 21390,-660l8670 -28740c-4690,480 -10650,800 -20680,590 -14540,-300 -37620,-1710 -54130,-17430 -16510,-15730 -26440,-45780 -44580,-64460 -17410,-17930 -42390,-25370 -67660,-32390l-8750 28980c25060,6970 49770,14430 67040,32220 18130,18670 28070,48720 44580,64450z"/>
    <path class="fil0" d="M879150 1838090c16510,15720 39590,17130 54120,17430 10540,220 16590,-140 21390,-660l8680 -28730c-4700,470 -10650,790 -20690,580 -14530,-300 -37610,-1700 -54120,-17430 -16510,-15730 -26440,-45780 -44580,-64460 -17420,-17930 -42390,-25360 -67670,-32390l-8750 28980c25060,6970 49770,14440 67040,32220 18140,18670 28070,48730 44580,64460z"/>
   </g>
   <g>
    <path class="fil0" d="M1204690 1951430c-11330,19790 -7170,42540 -3990,56720 2310,10290 4110,16070 5760,20620l29970 1550c-1580,-4450 -3320,-10160 -5520,-19950 -3180,-14180 -7330,-36930 3990,-56720 11320,-19790 38130,-36630 51920,-58700 13250,-21200 14500,-47230 15270,-73450l-30230 -1570c-780,26000 -2110,51780 -15250,72800 -13790,22080 -40600,38910 -51920,58700z"/>
    <path class="fil1" d="M1174710 1949880c-11320,19790 -7160,42540 -3980,56720 2310,10290 4100,16070 5750,20610l29980 1560c-1590,-4450 -3320,-10160 -5520,-19950 -3180,-14190 -7340,-36930 3980,-56720 11330,-19790 38130,-36630 51930,-58700 13250,-21200 14490,-47230 15270,-73450l-30240 -1570c-770,26000 -2110,51780 -15240,72800 -13800,22080 -40600,38910 -51930,58700z"/>
    <path class="fil0" d="M1144740 1948330c-11330,19790 -7170,42540 -3990,56720 2310,10290 4110,16070 5760,20610l29970 1550c-1580,-4440 -3320,-10150 -5510,-19940 -3180,-14190 -7340,-36930 3980,-56730 11320,-19790 38130,-36620 51920,-58700 13250,-21190 14500,-47220 15270,-73440l-30230 -1570c-770,26000 -2110,51780 -15250,72800 -13790,22070 -40600,38910 -51920,58700z"/>
   </g>
   <g>
    <path class="fil0" d="M1771200 777700c-20150,10670 -28800,32120 -33690,45810 -3550,9930 -5120,15770 -6150,20500l24500 17330c1040,-4600 2620,-10360 6000,-19810 4890,-13690 13540,-35130 33690,-45810 20150,-10670 51800,-10570 75260,-21860 22520,-10830 37490,-32160 52160,-53910l-24710 -17480c-14560,21560 -29460,42630 -51800,53370 -23460,11290 -55110,11190 -75260,21860z"/>
    <path class="fil1" d="M1746690 760370c-20140,10670 -28790,32120 -33680,45810 -3550,9920 -5120,15770 -6150,20490l24500 17340c1030,-4610 2620,-10360 6000,-19810 4890,-13690 13530,-35140 33680,-45810 20150,-10680 51800,-10570 75260,-21860 22530,-10830 37500,-32170 52170,-53910l-24720 -17490c-14550,21560 -29460,42640 -51800,53380 -23450,11280 -55110,11180 -75260,21860z"/>
    <path class="fil0" d="M1722190 743030c-20150,10680 -28790,32130 -33680,45810 -3550,9930 -5120,15780 -6160,20500l24510 17330c1030,-4600 2620,-10350 6000,-19810 4890,-13680 13530,-35130 33680,-45810 20150,-10670 51800,-10570 75260,-21850 22530,-10840 37490,-32170 52160,-53920l-24710 -17480c-14550,21560 -29460,42630 -51800,53380 -23460,11280 -55110,11180 -75260,21850z"/>
   </g>
   <g>
    <path class="fil0" d="M1706410 1136630c-14250,-17800 -36930,-22280 -51290,-24530 -10420,-1630 -16460,-2090 -21290,-2220l-12450 27310c4720,160 10660,640 20580,2190 14360,2250 37050,6740 51300,24540 14250,17800 20060,48920 35530,69850 14850,20110 38600,30830 62700,41180l12570 -27550c-23910,-10260 -47390,-20970 -62120,-40910 -15470,-20940 -21280,-52050 -35530,-69860z"/>
    <path class="fil1" d="M1718860 1109320c-14250,-17800 -36930,-22280 -51290,-24530 -10420,-1630 -16450,-2090 -21290,-2220l-12450 27310c4720,160 10670,640 20580,2200 14360,2250 37050,6730 51300,24530 14250,17800 20060,48920 35530,69850 14850,20110 38600,30830 62710,41180l12560 -27540c-23900,-10270 -47390,-20980 -62120,-40920 -15460,-20940 -21280,-52050 -35530,-69860z"/>
    <path class="fil0" d="M1731320 1082010c-14250,-17800 -36940,-22280 -51300,-24530 -10420,-1630 -16450,-2080 -21290,-2220l-12450 27310c4720,160 10670,640 20580,2200 14360,2250 37050,6730 51300,24530 14250,17800 20060,48920 35530,69850 14850,20110 38600,30830 62710,41180l12560 -27540c-23900,-10270 -47390,-20980 -62110,-40920 -15470,-20940 -21280,-52050 -35530,-69860z"/>
   </g>
   <g>
    <path class="fil0" d="M1243130 886330c13870,-18090 12800,-41190 11550,-55670 -900,-10510 -1910,-16480 -2930,-21200l-29500 -5560c980,4620 1930,10510 2790,20510 1250,14480 2320,37580 -11550,55670 -13880,18100 -42700,31180 -59330,51210 -15970,19230 -20700,44850 -24990,70730l29750 5610c4260,-25660 9040,-51020 24880,-70090 16630,-20030 45450,-33110 59330,-51210z"/>
    <path class="fil1" d="M1272620 891890c13880,-18090 12810,-41190 11560,-55670 -910,-10510 -1910,-16480 -2940,-21200l-29490 -5560c970,4620 1920,10510 2790,20510 1250,14480 2320,37580 -11560,55670 -13880,18100 -42700,31180 -59330,51210 -15970,19220 -20700,44850 -24980,70730l29750 5610c4250,-25660 9030,-51030 24870,-70090 16630,-20030 45460,-33120 59330,-51210z"/>
    <path class="fil0" d="M1302120 897450c13870,-18090 12800,-41190 11550,-55670 -900,-10510 -1910,-16480 -2930,-21200l-29500 -5560c980,4620 1930,10510 2790,20510 1250,14480 2320,37580 -11550,55670 -13880,18090 -42700,31180 -59330,51210 -15970,19220 -20700,44850 -24990,70730l29750 5610c4260,-25660 9040,-51030 24880,-70090 16630,-20030 45450,-33120 59330,-51210z"/>
   </g>
   <g>
    <path class="fil0" d="M1381580 2328590c-980,22780 13150,41090 22490,52230 6770,8080 11020,12400 14570,15680l27340 -12380c-3450,-3220 -7600,-7500 -14050,-15190 -9330,-11140 -23470,-29450 -22490,-52230 990,-22780 17080,-50030 19210,-75980 2050,-24910 -8790,-48610 -20130,-72260l-27580 12470c11240,23460 21880,46980 19850,71680 -2130,25950 -18220,53200 -19210,75980z"/>
    <path class="fil1" d="M1354240 2340970c-980,22780 13150,41080 22480,52220 6770,8090 11020,12400 14570,15680l27350 -12370c-3450,-3220 -7610,-7500 -14060,-15200 -9330,-11140 -23460,-29440 -22480,-52220 980,-22790 17080,-50040 19210,-75980 2040,-24920 -8790,-48620 -20140,-72270l-27580 12480c11240,23460 21880,46970 19850,71680 -2120,25940 -18220,53200 -19200,75980z"/>
    <path class="fil0" d="M1326890 2353340c-980,22780 13150,41080 22490,52230 6770,8080 11020,12390 14570,15670l27340 -12370c-3450,-3220 -7610,-7500 -14050,-15190 -9340,-11150 -23470,-29450 -22490,-52230 990,-22780 17080,-50040 19210,-75980 2050,-24910 -8790,-48620 -20130,-72270l-27580 12480c11240,23460 21880,46970 19850,71680 -2130,25940 -18220,53200 -19210,75980z"/>
   </g>
   <g>
    <path class="fil0" d="M1300300 1415430c22790,-900 39870,-16490 50210,-26710 7490,-7410 11440,-12000 14420,-15810l-14580 -26230c-2930,3700 -6850,8200 -13990,15250 -10330,10220 -27410,25810 -50200,26710 -22780,890 -51270,-12910 -77300,-12890 -25000,10 -47730,12750 -70370,26000l14710 26460c22450,-13130 45010,-25670 69800,-25680 26030,-10 54520,13790 77300,12900z"/>
    <path class="fil1" d="M1314880 1441660c22790,-890 39870,-16480 50210,-26700 7490,-7410 11440,-12000 14420,-15810l-14580 -26240c-2930,3710 -6850,8200 -13990,15260 -10330,10220 -27410,25810 -50200,26700 -22780,900 -51270,-12900 -77300,-12890 -25000,10 -47730,12760 -70370,26010l14710 26460c22450,-13130 45010,-25670 69800,-25680 26030,-10 54520,13790 77300,12890z"/>
    <path class="fil0" d="M1329460 1467900c22790,-900 39870,-16490 50210,-26710 7490,-7410 11440,-12000 14420,-15810l-14580 -26230c-2930,3700 -6850,8200 -13990,15260 -10330,10210 -27410,25800 -50200,26700 -22780,890 -51270,-12910 -77300,-12890 -25000,10 -47730,12750 -70370,26000l14710 26460c22450,-13130 45010,-25660 69800,-25670 26030,-20 54520,13780 77300,12890z"/>
   </g>
  </g>
 </g>
</svg>
