<?xml version="1.0" encoding="UTF-8"?>
<!DOCTYPE svg PUBLIC "-//W3C//DTD SVG 1.1//EN" "http://www.w3.org/Graphics/SVG/1.1/DTD/svg11.dtd">
<!-- Creator: CorelDRAW 2017 -->
<svg xmlns="http://www.w3.org/2000/svg" xml:space="preserve" width="34mm" height="34mm" version="1.1" style="shape-rendering:geometricPrecision; text-rendering:geometricPrecision; image-rendering:optimizeQuality; fill-rule:evenodd; clip-rule:evenodd"
viewBox="0 0 3400000 3400000"
 xmlns:xlink="http://www.w3.org/1999/xlink">
 <defs>
  <style type="text/css">
   <![CDATA[
    .str0 {stroke:#78B23F;stroke-width:16930;stroke-miterlimit:22.9256}
    .fil0 {fill:#9FCD51}
   ]]>
  </style>
 </defs>
 <g id="Слой_x0020_1">
  <metadata id="CorelCorpID_0Corel-Layer"/>
  <g id="_2540775429168">
   <g>
    <path class="fil0 str0" d="M2333910 1123820c-6580,-6080 -11700,-13930 -14550,-23100 -8620,-27830 6950,-57380 34780,-66000 18820,-5830 38420,-600 51810,12010 2050,-930 4170,-1750 6380,-2430 27820,-8620 57370,6950 65990,34770 8620,27830 -6940,57380 -34770,66000 -2200,680 -4420,1210 -6630,1600 -3910,17970 -17130,33370 -35950,39200 -27820,8630 -57370,-6940 -65990,-34770 -2850,-9180 -3060,-18550 -1070,-27280z"/>
   </g>
   <g>
    <path class="fil0 str0" d="M2504760 2220460c-8760,-1900 -17150,-6070 -24250,-12540 -21540,-19610 -23100,-52980 -3490,-74510 13270,-14570 32820,-20000 50750,-15920 1290,-1840 2710,-3620 4270,-5330 19610,-21540 52970,-23100 74510,-3480 21540,19610 23100,52970 3490,74510 -1560,1710 -3200,3290 -4910,4740 5740,17480 2160,37450 -11110,52020 -19610,21540 -52980,23100 -74510,3490 -7110,-6470 -12040,-14440 -14750,-22980z"/>
   </g>
   <g>
    <path class="fil0 str0" d="M1432880 2700060c-4510,-7740 -7110,-16750 -7150,-26350 -100,-29130 23430,-52840 52560,-52940 19700,-70 36920,10670 46040,26650 2220,-300 4490,-460 6800,-470 29130,-100 52830,23430 52940,52560 100,29130 -23430,52830 -52560,52940 -2310,10 -4580,-140 -6810,-410 -9000,16040 -26140,26900 -45840,26970 -29130,110 -52840,-23430 -52940,-52560 -30,-9600 2500,-18630 6960,-26390z"/>
   </g>
   <g>
    <path class="fil0 str0" d="M748160 2289390c-6540,-6120 -11600,-14010 -14380,-23210 -8420,-27880 7360,-57320 35250,-65740 18860,-5700 38430,-320 51730,12380 2050,-910 4180,-1720 6390,-2380 27880,-8420 57320,7360 65740,35240 8420,27890 -7360,57330 -35240,65750 -2210,660 -4430,1180 -6650,1550 -4040,17940 -17360,33250 -36230,38940 -27880,8430 -57320,-7350 -65740,-35240 -2780,-9200 -2920,-18570 -870,-27290z"/>
   </g>
   <g>
    <path class="fil0 str0" d="M679550 1260640c840,-8910 3970,-17750 9540,-25570 16900,-23740 49830,-29290 73560,-12390 16060,11420 23790,30190 21890,48480 1980,1060 3920,2250 5800,3590 23730,16890 29280,49830 12380,73560 -16890,23730 -49820,29280 -73560,12390 -1880,-1340 -3640,-2780 -5290,-4300 -16660,7790 -36920,6630 -52970,-4800 -23740,-16890 -29280,-49830 -12390,-73560 5570,-7830 12890,-13680 21040,-17400z"/>
   </g>
   <g>
    <path class="fil0 str0" d="M1572650 692950c-8940,640 -18160,-1000 -26800,-5200 -26190,-12750 -37090,-44330 -24340,-70520 8630,-17710 25860,-28430 44220,-29570 720,-2120 1580,-4230 2590,-6310 12750,-26190 44320,-37080 70510,-24330 26190,12750 37090,44320 24340,70520 -1010,2070 -2140,4050 -3370,5930 10420,15140 12610,35320 3990,53040 -12750,26190 -44330,37080 -70520,24330 -8640,-4210 -15610,-10460 -20620,-17890z"/>
   </g>
   <g>
    <path class="fil0 str0" d="M1187190 1627650c-5260,-7260 -8730,-15960 -9710,-25520 -2980,-28980 18100,-54880 47080,-57860 19600,-2010 37800,6980 48440,21980 2190,-510 4430,-890 6730,-1130 28970,-2970 54880,18110 57850,47090 2980,28980 -18100,54880 -47080,57860 -2300,230 -4570,310 -6820,260 -7370,16850 -23360,29350 -42960,31360 -28980,2970 -54880,-18110 -57860,-47090 -980,-9550 660,-18780 4330,-26950z"/>
   </g>
   <g>
    <path class="fil0 str0" d="M1976780 2238590c-7490,-4900 -13850,-11790 -18170,-20370 -13120,-26010 -2670,-57730 23340,-70850 17590,-8880 37800,-6970 53090,3250 1860,-1260 3820,-2420 5880,-3460 26010,-13120 57730,-2660 70850,23340 13120,26010 2670,57740 -23340,70860 -2060,1030 -4160,1920 -6280,2670 -870,18370 -11350,35750 -28940,44630 -26010,13120 -57730,2660 -70850,-23350 -4330,-8570 -6090,-17780 -5580,-26720z"/>
   </g>
   <g>
    <path class="fil0 str0" d="M2151040 1651510c-8940,400 -18130,-1480 -26650,-5910 -25850,-13430 -35910,-45280 -22470,-71130 9090,-17480 26600,-27740 44980,-28390 770,-2110 1690,-4200 2750,-6250 13440,-25840 45280,-35900 71130,-22470 25850,13440 35910,45290 22470,71140 -1060,2040 -2240,3990 -3530,5840 10030,15410 11690,35640 2600,53120 -13440,25850 -45280,35910 -71130,22470 -8520,-4430 -15330,-10870 -20150,-18420z"/>
   </g>
  </g>
 </g>
</svg>
