<?xml version="1.0" encoding="UTF-8"?>
<!DOCTYPE svg PUBLIC "-//W3C//DTD SVG 1.1//EN" "http://www.w3.org/Graphics/SVG/1.1/DTD/svg11.dtd">
<!-- Creator: CorelDRAW 2017 -->
<svg xmlns="http://www.w3.org/2000/svg" xml:space="preserve" width="34mm" height="34mm" version="1.1" style="shape-rendering:geometricPrecision; text-rendering:geometricPrecision; image-rendering:optimizeQuality; fill-rule:evenodd; clip-rule:evenodd"
viewBox="0 0 3400000 3400000"
 xmlns:xlink="http://www.w3.org/1999/xlink">
 <defs>
  <style type="text/css">
   <![CDATA[
    .str0 {stroke:#78B23F;stroke-width:7620;stroke-miterlimit:22.9256}
    .fil0 {fill:#78B23F}
   ]]>
  </style>
 </defs>
 <g id="Слой_x0020_1">
  <metadata id="CorelCorpID_0Corel-Layer"/>
  <g id="_2540777611776">
   <path class="fil0 str0" d="M1591240 770540c-82420,-46190 -186690,-16820 -232880,65610 -46190,82420 -16820,186690 65610,232880l14300 -25510c-68340,-38300 -92690,-124740 -54390,-193070 38290,-68330 124730,-92690 193060,-54390l14300 -25520z"/>
   <path class="fil0 str0" d="M2432200 1502500c82060,-46850 110590,-151350 63740,-233400 -46850,-82050 -151350,-110590 -233400,-63740l14500 25400c68030,-38840 154660,-15180 193500,52840 38840,68030 15180,154660 -52840,193500l14500 25400z"/>
   <path class="fil0 str0" d="M2567140 2100530c-74830,-57680 -182260,-43780 -239950,31050 -57680,74830 -43790,182260 31050,239950l17860 -23170c-62040,-47820 -73560,-136890 -25740,-198920 47820,-62040 136890,-73560 198920,-25740l17860 -23170z"/>
   <path class="fil0 str0" d="M1889230 2599980c-13610,-93500 -100440,-158260 -193940,-144650 -93500,13610 -158270,100440 -144650,193940l28940 -4210c-11280,-77520 42410,-149500 119920,-160790 77520,-11280 149500,42410 160790,119920l28940 -4210z"/>
   <path class="fil0 str0" d="M1044740 2075980c-89160,31280 -136080,128920 -104800,218070 31280,89160 128910,136080 218070,104800l-9680 -27600c-73920,25930 -154860,-12970 -180790,-86880 -25930,-73920 12960,-154860 86880,-180790l-9680 -27600z"/>
   <path class="fil0 str0" d="M1693670 1547620c-74820,-57710 -182250,-43840 -239960,30980 -57710,74820 -43840,182250 30980,239950l17870 -23160c-62030,-47840 -73530,-136900 -25690,-198930 47840,-62020 136910,-73520 198930,-25680l17870 -23160z"/>
   <path class="fil0 str0" d="M682340 1431690c35440,87590 135170,129880 222760,94450 87590,-35440 129870,-135170 94440,-222760l-27110 10970c29370,72620 -5680,155300 -78300,184670 -72620,29370 -155300,-5680 -184670,-78300l-27120 10970z"/>
  </g>
 </g>
</svg>
