<?xml version="1.0" encoding="UTF-8"?>
<!DOCTYPE svg PUBLIC "-//W3C//DTD SVG 1.1//EN" "http://www.w3.org/Graphics/SVG/1.1/DTD/svg11.dtd">
<!-- Creator: CorelDRAW 2017 -->
<svg xmlns="http://www.w3.org/2000/svg" xml:space="preserve" width="34mm" height="34mm" version="1.1" style="shape-rendering:geometricPrecision; text-rendering:geometricPrecision; image-rendering:optimizeQuality; fill-rule:evenodd; clip-rule:evenodd"
viewBox="0 0 3400000 3400000"
 xmlns:xlink="http://www.w3.org/1999/xlink">
 <defs>
  <style type="text/css">
   <![CDATA[
    .fil0 {fill:#FAF7B4}
   ]]>
  </style>
 </defs>
 <g id="Слой_x0020_1">
  <metadata id="CorelCorpID_0Corel-Layer"/>
  <path class="fil0" d="M2169630 2414270c-5130,1700 -9900,4010 -14250,6790 -1300,-7670 -4530,-15130 -9780,-21600 -4630,-5710 -10330,-10040 -16570,-12940 380,-1300 720,-2600 1000,-3950 3040,-14740 -1240,-29300 -10340,-39900 13120,-5620 23530,-15250 30210,-26990 10820,2580 22240,2310 33060,-930 950,490 1920,960 2910,1390 2950,1280 5950,2230 8980,2860l280 1660c-22710,-1240 -43520,14270 -48250,37230 -4900,23780 9210,47050 31950,54060 -3080,540 -6150,1310 -9200,2320zm-1115760 378200c1690,19520 15610,36630 35700,41430 14910,3560 29860,-460 40800,-9580 1170,0 2320,-60 3470,-150 -3050,15860 6890,31460 22750,35250 16300,3890 32670,-6170 36570,-22470 3880,-16250 -6110,-32570 -22320,-36530 2140,-3830 3770,-8020 4790,-12510 2420,-10690 960,-21360 -3440,-30530 4880,1400 9940,1980 14970,1760l900 620c-6040,19340 1080,41120 18830,52860 21510,14250 50510,8350 64750,-13170 8750,-13200 9900,-29230 4510,-42930 1330,-6640 350,-13370 -2490,-19210 13030,18750 38200,25590 59230,15080 9500,-4740 16670,-12290 21020,-21140 4720,3730 10060,6840 15930,9180 32680,13000 69710,-2950 82710,-35630 4370,-10990 5480,-22480 3760,-33380 2090,100 4190,-30 6240,-360 8390,5170 18470,7740 29040,6700l2710 -340 -60 260c-13040,4870 -24580,14030 -32300,26890 -10860,18090 -11670,39410 -4070,57480 -16550,1620 -31720,12040 -38600,28450 -9980,23790 1220,51180 25020,61160 15360,6440 32220,4060 44920,-4850 8620,1390 17720,380 26290,-3420 19180,-8490 29820,-28330 27500,-48130 11320,-5160 21270,-13690 28160,-25170 3420,-5700 5860,-11720 7330,-17870 6150,-2290 11810,-5500 16850,-9440l2170 -320c-2040,3130 -3820,6500 -5320,10070 -6390,15220 -6410,31510 -1290,45930 -2720,5930 -4250,12530 -4250,19480 0,25800 20920,46720 46720,46720 19640,0 36450,-12130 43360,-29300 14330,-6360 26360,-17970 32900,-33570 3220,-7670 4820,-15610 4960,-23450 5000,4770 11650,7850 19090,8290 3330,200 6570,-140 9630,-960 4490,3910 9780,7010 15680,9000 1530,8280 5240,15840 10560,22010 -7980,11630 -10110,26090 -6380,39220 -620,-760 -1310,-1520 -2020,-2240 -11820,-11880 -31040,-11930 -42920,-120 -2800,2790 -4930,5980 -6420,9400 -25330,-4610 -52010,6510 -66040,29900 -18090,30150 -8310,69270 21850,87370 30150,18090 69270,8310 87370,-21850 5290,-8820 8200,-18400 8910,-28000 5930,160 11770,-1450 16770,-4530 -1650,2350 -3100,4880 -4330,7590 -10660,23490 -250,51190 23250,61850 23490,10660 51190,250 61850,-23250 10660,-23490 250,-51190 -23250,-61850 -16040,-7280 -34040,-4720 -47240,5100 510,-870 980,-1780 1410,-2720 3840,-8460 3470,-17760 -220,-25540 10850,3940 22870,3730 33600,-640 3310,4510 7500,8520 12500,11720 21730,13910 50630,7560 64540,-14180 8610,-13450 9460,-29660 3690,-43350 2980,-5490 4890,-11650 5450,-18210l1700 430c16350,3700 32600,-6550 36300,-22900 3700,-16350 -6550,-32600 -22900,-36300 -14230,-3220 -28390,4140 -34260,16880 -7300,-5290 -16220,-8540 -25920,-8840 -5860,-190 -11510,720 -16740,2530 -2190,-8200 -6570,-15560 -12500,-21370 2020,-1710 3960,-3560 5800,-5560 3820,-4160 6990,-8680 9500,-13450 3650,-6030 5930,-12860 6580,-19980 1180,-7730 930,-15630 -730,-23270 18680,3530 38400,-4620 48750,-21880l1330 -2370c2520,4340 5710,8280 9500,11640 -14760,13140 -20080,34780 -11640,53830 10440,23590 38040,34250 61640,23800 840,-370 1660,-780 2470,-1190 550,6990 2270,14000 5270,20770 14240,32160 51860,46690 84010,32450 19710,-8730 32780,-26230 36690,-45870 15720,10680 37060,11060 53430,-630 2440,-1740 4660,-3680 6650,-5760 1140,520 2310,1010 3500,1470 32840,12590 69660,-3840 82240,-36680 1060,-2770 1920,-5580 2580,-8390l250 360c14990,21000 44170,25870 65170,10870 21000,-14990 25870,-44170 10870,-65170 -2920,-4100 -6390,-7580 -10230,-10420 -790,-2340 -1860,-4580 -3200,-6670 2370,1610 4920,3020 7650,4200 1700,740 3420,1360 5160,1880 3000,10030 11120,18250 22040,20860 5230,1250 10470,1060 15300,-310 -9290,23060 1180,49590 24050,59970 23490,10660 51190,250 61850,-23250l1060 -2520c5060,4840 11000,8930 17740,11990 32030,14530 69770,350 84300,-31680 8900,-19630 7030,-41400 -3130,-58660 16250,-2140 30520,-12770 36990,-28230 19250,10950 44180,6920 58890,-10680 16560,-19790 13930,-49260 -5870,-65810 -18720,-15660 -46090,-14160 -63010,2810 -140,-16260 -6560,-31880 -17750,-43560l1930 -1880c13250,-13530 19240,-31470 18020,-48990 2430,-1860 4740,-3920 6920,-6160 3610,170 7220,-70 10750,-720 -1850,3520 -3260,7330 -4180,11390 -5700,25170 10090,50190 35250,55890 22840,5170 45550,-7350 53820,-28520 1600,870 3270,1650 5010,2340 23990,9520 51150,-2210 60670,-26190 6500,-16370 3100,-34210 -7330,-46920 880,450 1800,870 2750,1250 11290,4480 23660,1710 31970,-6090 1710,300 3460,500 5230,610 25750,1550 47890,-18080 49440,-43840 1060,-17590 -7770,-33490 -21680,-42300 1010,160 2030,280 3070,340 16730,1010 31110,-11740 32110,-28470 1010,-16730 -11740,-31110 -28470,-32110 -16730,-1010 -31110,11740 -32110,28470 -630,10490 4140,20040 11910,25970 -2790,-710 -5690,-1160 -8670,-1340 -6150,-370 -12100,470 -17600,2310 5610,-18530 -830,-39140 -16950,-51060 6080,-4980 10980,-11540 13990,-19400 4230,-11050 3990,-22700 170,-32980 -460,-17590 -10900,-34150 -28030,-41620 11270,-750 21490,-5520 29190,-12910 -4900,21690 6310,44430 27530,53330 8370,3510 17190,4400 25530,3040 14890,5260 31540,-1840 37910,-16560 3180,-7320 3250,-15210 780,-22190 220,-1360 370,-2730 470,-4080 1320,740 2690,1410 4110,2030 23680,10260 51190,-610 61460,-24280 10260,-23680 -610,-51190 -24280,-61460 -2380,-1030 -4810,-1840 -7250,-2460 2790,-14240 -1230,-29180 -11010,-40120 3770,-4990 6580,-10810 8130,-17270 5160,-21600 -5590,-43280 -24690,-52730 230,-3610 50,-7310 -600,-11030 -2240,-12880 -9560,-23620 -19530,-30490 -930,-9860 -4970,-19190 -11500,-26600 70,-9970 -2230,-20110 -7120,-29580 -10290,-19910 -29620,-32100 -50380,-34160 360,-10140 -2610,-19810 -8030,-27810 7390,-1630 14070,-5990 18490,-12400 1470,700 2980,1340 4520,1930 4480,1720 9020,2890 13580,3560l2360 860c-110,3170 100,6370 670,9610 4420,25430 28610,42450 54030,38030 25430,-4420 42450,-28610 38030,-54030 -2740,-15740 -13040,-28260 -26530,-34460l100 -250c1020,-2670 1850,-5370 2500,-8070 810,1320 1690,2600 2650,3850 15660,20500 44990,24420 65490,8750 20500,-15660 24420,-44990 8750,-65490l-1570 -1940c3730,-340 7480,-1130 11180,-2420 22510,-7830 35230,-31160 30350,-53880 1220,-1890 2320,-3900 3280,-6020 9800,-21590 1800,-46730 -17800,-58930 110,-3590 -430,-7260 -1680,-10850 -5500,-15830 -22800,-24200 -38630,-18690 -15520,5390 -23880,22130 -19000,37710 -3200,3520 -5920,7590 -7990,12160 -4290,9460 -5160,19610 -3140,29050 -2780,4320 -4850,9080 -6090,14080 -11870,-360 -23350,6310 -28570,17800 -6040,13330 -1650,28730 9720,37040 -4930,4850 -8580,10610 -10910,16790 -6670,-14730 -18920,-26940 -35220,-33180 -32840,-12590 -69660,3840 -82240,36680 -4380,11430 -5250,23320 -3130,34530 -7990,2900 -14750,9120 -18030,17680 -2570,6710 -2600,13770 -560,20120 -1100,-80 -2200,-120 -3290,-120 -160,-20760 -10460,-41030 -29230,-53100 -6750,-4340 -14010,-7240 -21420,-8790l1150 -2330c22340,6350 47370,200 64220,-18020 8210,-8880 13410,-19480 15650,-30530 1810,-1260 3520,-2740 5080,-4430 7120,-7730 9450,-18160 7170,-27660 1720,2310 3670,4490 5870,6510 18990,17470 48550,16230 66020,-2760 17470,-18990 16230,-48550 -2760,-66020 -18990,-17470 -48550,-16230 -66020,2760 -11920,12960 -15120,30850 -9920,46450 -660,-750 -1390,-1470 -2140,-2160 -4050,-3730 -8850,-6150 -13860,-7270 -320,-4110 -1030,-8260 -2190,-12380 -410,-1480 -880,-2920 -1390,-4350 22960,-10340 33670,-37160 23910,-60560 -990,-2370 -2150,-4620 -3460,-6730 1310,-830 2570,-1720 3780,-2660 4160,5380 10150,9410 17310,11030 16350,3700 32600,-6550 36300,-22900 3700,-16350 -6550,-32600 -22900,-36300 -4800,-1090 -9590,-970 -14060,150 -5010,-20410 -23420,-35550 -45370,-35550 -16970,0 -31830,9060 -40010,22600 -10710,1160 -20970,6010 -28740,14150 -7240,-10 -14600,1670 -21480,5220 -13070,6750 -21610,18820 -24340,32200 -7440,1890 -14190,5560 -19740,10560 -1130,-550 -2280,-1060 -3450,-1530 3250,-2340 6100,-5360 8290,-9020 8620,-14370 3960,-33010 -10410,-41630 -14370,-8620 -33010,-3960 -41630,10410 -8270,13780 -4320,31490 8690,40520l-1890 830c-22720,1950 -41170,20310 -42580,43750l-20 380c-6780,-2420 -13770,-3170 -20510,-2470l-420 -30c-3970,-240 -7880,-100 -11690,370 -1560,-1310 -3240,-2550 -5010,-3670 -3360,-5070 -7780,-9550 -13170,-13110l-1270 -810c-13770,-15040 -34510,-23220 -56210,-20050 -7470,1090 -14440,3440 -20740,6790 -4740,-6930 -10930,-13020 -18470,-17780 -1400,-3990 -3590,-7560 -6370,-10550 3020,-3930 5630,-8270 7720,-13000 14610,-7660 26180,-20920 31320,-37640 10730,28540 40770,46030 71710,40040 3480,-680 6840,-1630 10060,-2820 15760,5590 33680,5020 49820,-3060 22310,-11170 35210,-33690 35180,-57060 12150,2520 25090,-2630 31970,-13800 7680,-12440 5270,-28270 -4950,-37940 3970,-1040 7860,-2610 11530,-4740 510,1220 1060,2430 1680,3630 3900,7560 9570,13600 16260,17880 1340,5850 3850,11540 7560,16730 15020,20980 44210,25810 65190,10790 20980,-15020 25810,-44210 10790,-65190 -530,-750 -1100,-1460 -1660,-2170 6730,-1950 13250,-5070 19270,-9380 17860,-12790 27140,-33130 26590,-53550l680 -1100c18090,-30150 8310,-69270 -21850,-87370 -7430,-4460 -15400,-7210 -23470,-8400 5920,-2150 11620,-5230 16890,-9260 20770,-15880 29050,-42040 23160,-65900 27970,-7390 48210,-33260 47330,-63410 -1010,-35150 -30340,-62830 -65490,-61810 -3980,110 -7870,600 -11630,1410 -4720,-7980 -11830,-14650 -20910,-18770 -830,-380 -1670,-720 -2520,-1050 4850,-5060 8940,-11010 12000,-17760 14530,-32020 350,-69770 -31680,-84300 -19630,-8910 -41410,-7010 -58670,3150l-40 -340c3060,-10020 2770,-21130 -1580,-31560 -9920,-23820 -37280,-35090 -61100,-25160 -4330,1800 -8240,4180 -11690,7010 900,-10700 -3920,-21560 -13520,-27900 -13980,-9230 -32810,-5380 -42040,8600 -9240,13990 -5390,32810 8600,42050 8750,5780 19410,6430 28430,2680 -2000,2060 -3840,4330 -5480,6810 -10910,16520 -9960,37440 810,52700 1060,11590 6420,22790 15900,31020 15050,13080 36090,14790 52690,5910 4860,17550 17190,32910 35070,41020 5200,2360 10550,3960 15930,4850 -1090,1750 -2080,3590 -2960,5520 -1240,2730 -2180,5520 -2870,8330 -10490,1650 -20490,6870 -27990,15520l-1020 1220c-18940,-14440 -46110,-12370 -62610,5470 -1360,1470 -2590,2990 -3730,4580l-110 -20c-3000,-4880 -6710,-9420 -11130,-13490 -1930,-1780 -3950,-3400 -6030,-4900 -2770,-12670 -9420,-24620 -19840,-33900 -11960,-10650 -26830,-15960 -41680,-16120 -3100,-3520 -6790,-6630 -11030,-9170 -10570,-6340 -22630,-8020 -33800,-5630 1650,-8930 730,-18430 -3230,-27360 -9010,-20370 -30820,-31090 -51790,-26930 2200,-2360 4190,-4980 5920,-7860 13270,-22120 6100,-50830 -16030,-64100 -22130,-13280 -50830,-6100 -64110,16020 -1920,3200 -3400,6550 -4490,9960 -4800,410 -9510,1560 -13950,3400 -1700,-4690 -4590,-9020 -8620,-12520 -7250,-6290 -16630,-8520 -25390,-6920 -1790,-3480 -4000,-6670 -6550,-9540 24530,-8230 42550,-31020 43410,-58400 1020,-32960 -23170,-60850 -55170,-65110 1470,-9360 -1460,-19270 -8750,-26400 -7500,-7350 -17850,-10010 -27410,-8030 2360,-1650 4600,-3530 6690,-5660 18060,-18430 17750,-48020 -690,-66070 -18360,-17990 -47790,-17750 -65860,470 -2820,-10450 -8310,-20250 -16330,-28290 5650,-19380 2020,-41130 -11660,-58000 -22040,-27170 -61840,-31450 -89150,-9680 -9490,-450 -18290,3560 -24220,10310 880,-2720 1520,-5570 1900,-8510 3270,-25590 -14830,-49000 -40430,-52270 -25590,-3270 -49000,14830 -52270,40430 -3270,25590 14830,49000 40430,52270 17460,2230 33900,-5500 43630,-18750 -220,970 -400,1970 -530,2980 -1170,9100 1830,17780 7510,24120 160,13840 4810,27730 14210,39320 1370,1680 2800,3280 4300,4790 -7020,23980 570,50800 21030,67370 -22540,-6660 -46980,4570 -56280,26750 -410,980 -770,1960 -1110,2940 -7750,-16610 -24880,-27600 -43970,-26930 220,-7120 -1200,-14210 -4130,-20710l-10 -120c-1200,-12280 -5820,-23390 -12820,-32510 -3500,-8940 -11180,-16080 -21220,-18480 -770,-180 -1540,-340 -2310,-460 -6680,-3140 -13960,-5140 -21570,-5790 2870,-23300 -12150,-45540 -35520,-51120 -1250,-300 -2500,-530 -3750,-730 8870,-3850 16620,-10480 21830,-19490 12900,-22350 5240,-50920 -17110,-63830 -11070,-6390 -23670,-7730 -35140,-4740 -7940,-3090 -16800,-4040 -25780,-2300 -17290,3350 -30490,15840 -35570,31480 -90,-990 -240,-2010 -430,-3010 -3190,-16450 -19110,-27210 -35570,-24020 -16450,3190 -27200,19120 -24010,35570 3190,16450 19110,27210 35570,24020 10300,-2000 18370,-8990 22170,-17980 10,2870 290,5780 860,8700 4910,25330 29430,41890 54760,36980 980,-190 1950,-410 2900,-660 3190,1240 6460,2110 9750,2620 -7220,3150 -13600,8100 -18450,14420 -7700,-110 -15350,1190 -22570,3790 -2570,-1410 -5250,-2670 -8070,-3750 -32840,-12590 -69660,3840 -82240,36680 -440,1140 -840,2280 -1210,3430 -4480,450 -8970,1550 -13340,3370 -5300,2210 -9970,5280 -13930,8980 -11510,-15360 -31860,-22610 -51240,-16590 -24650,7650 -38420,33830 -30770,58470 450,1440 960,2830 1520,4200 -930,-1100 -1910,-2160 -2960,-3190 -10000,-9800 -23300,-14180 -36250,-13200 -460,-12020 -4330,-24060 -11860,-34570 -2200,-3070 -4620,-5890 -7220,-8440 23870,-5640 39500,-28990 35240,-53470 -4420,-25420 -28610,-42450 -54030,-38030 -11170,1940 -20730,7710 -27550,15720 -11430,-3920 -24370,-3430 -36040,2400 -15760,7880 -25120,23470 -25800,39910 -360,-950 -770,-1890 -1230,-2810 -7490,-14990 -25720,-21070 -40710,-13570 -14990,7490 -21070,25720 -13570,40710 7490,14990 25720,21070 40710,13580 1600,-800 3100,-1730 4500,-2760 -4100,7450 -6010,15750 -5750,23980 -11750,-5870 -25410,-8180 -39350,-5760 -12070,2100 -22760,7480 -31300,15050 2040,-6230 3170,-12880 3180,-19800 60,-35170 -28400,-63730 -63570,-63790 -34490,-60 -62630,27330 -63750,61550 -4230,-2040 -8820,-3470 -13660,-4170 12340,-9040 16120,-26120 8280,-39660 -8410,-14500 -26980,-19440 -41480,-11040 -9080,5260 -14410,14510 -15060,24240 -960,-2700 -2170,-5350 -3660,-7920 -12940,-22330 -41540,-29940 -63860,-17000 -22330,12940 -29940,41530 -17000,63860 12940,22320 41540,29930 63860,16990 15240,-8830 23620,-24940 23300,-41380 410,910 870,1800 1380,2680 3890,6710 9960,11370 16800,13610 -14700,7310 -25110,22170 -25910,39740 -430,9440 1970,18340 6450,25900 -2500,-2080 -5190,-4000 -8070,-5730 -30150,-18090 -69270,-8310 -87370,21840 -18090,30160 -8310,69280 21850,87370 17920,10760 39020,11660 56980,4290l570 980c4220,7070 10020,12630 16670,16480 -2280,2410 -4400,5030 -6340,7860 -3210,4680 -5700,9640 -7510,14750 -6630,6640 -10090,16250 -8510,26220 1070,6710 4250,12540 8770,16950l150 390c-4380,-190 -8720,240 -12920,1250 -4310,-11420 -13050,-21140 -25120,-26370 -23680,-10270 -51190,610 -61460,24280 -3940,9090 -4750,18750 -2940,27770l-570 160c-1910,540 -3750,1180 -5530,1930 -3530,-1290 -7180,-2150 -10870,-2560 10090,-21710 2090,-47910 -19030,-60110 -5540,-3200 -11460,-5130 -17420,-5890 -9020,-30070 -39120,-49580 -70980,-44520 -34730,5520 -58410,38160 -52890,72890 2360,14880 9710,27730 20060,37120 -1460,1320 -2870,2710 -4230,4190 -14590,15860 -19610,37130 -15350,56700 -18680,-3530 -38390,4640 -48740,21890 -13280,22120 -6100,50830 16020,64100 22130,13280 50830,6100 64110,-16020 4630,-7720 6760,-16240 6650,-24630 23950,9830 52500,4350 71050,-15810 3790,-4130 6940,-8610 9450,-13350 1830,9170 6370,17430 12790,23850l40 260c-5800,4700 -10560,10860 -13650,18230 -410,970 -770,1960 -1110,2940 -27070,6320 -47770,29980 -49100,59110 -130,2910 -60,5780 180,8600 -8520,-420 -17190,1480 -24990,5830 -5790,-12590 -17080,-22500 -31600,-25970 -25100,-5990 -50310,9490 -56310,34590 -3000,12540 -620,25120 5640,35310 -3620,2780 -6980,5980 -10000,9580 -10170,2930 -18520,11100 -21160,22130 -1970,8270 -360,16560 3850,23230l-270 840c-18490,-9300 -41130,-9430 -60410,1660 -30490,17530 -40990,56460 -23460,86950 17530,30480 56460,40980 86950,23450 10040,-5780 17920,-13870 23330,-23230 -380,1270 -700,2550 -970,3860 -2280,11060 -450,22010 4460,31270 -10540,-2800 -22240,200 -30140,8780 -7100,7720 -9440,18140 -7170,27630 -1720,-2300 -3670,-4480 -5860,-6490 -18440,-16960 -46840,-16290 -64470,1150 -6680,-1590 -13740,-2130 -20960,-1420 -35000,3430 -60590,34590 -57160,69590 3410,34770 34180,60270 68900,57230 2360,12310 9590,22960 19640,29800 -4720,650 -9370,2420 -13520,5390 -8530,6110 -12950,15820 -12670,25580 -1210,-2600 -2670,-5120 -4400,-7540 -15020,-20980 -44210,-25810 -65190,-10790 -6600,4730 -11610,10850 -14900,17690 -2270,-2400 -4740,-4640 -7420,-6700 5250,-12930 1000,-28230 -10990,-36440 -3820,-2620 -8030,-4230 -12320,-4920 580,-1750 1080,-3560 1460,-5420 5210,-25270 -11050,-49980 -36320,-55190 -10930,-2250 -21750,-490 -30940,4280 1680,-4660 2240,-9800 1410,-15040 -2630,-16550 -18190,-27830 -34740,-25200 -16550,2630 -27830,18180 -25200,34740 2630,16550 18180,27830 34730,25200 1560,-250 3080,-610 4540,-1080 -2290,4090 -4000,8590 -5000,13430 -3560,17260 2900,34250 15400,44950 -960,-310 -1950,-560 -2960,-770 -16420,-3390 -32470,7180 -35850,23590 -1350,6580 -470,13100 2130,18770 -4880,18550 2060,38980 18800,50440 6230,4260 13120,6800 20120,7750 5380,10700 13810,20010 24940,26460 17160,9950 37040,10980 54270,4540 2480,10420 8440,19480 16590,25900 160,7510 3110,14960 8830,20710 3220,3230 6990,5590 11000,7070 1200,10560 7910,20190 18420,24590 4530,1900 9260,2620 13840,2300 210,2730 590,5430 1150,8110 -8610,15830 -7160,34920 2830,49150 -5160,1260 -10010,3400 -14360,6240 -13870,-8450 -32070,-4470 -41090,9200 -9240,13980 -5390,32810 8600,42040 4480,2960 9460,4580 14470,4950 1390,3550 3210,6890 5390,9970 -2000,4120 -3330,8420 -4040,12780 -7930,-3220 -17170,-3090 -25370,1150 -7240,3740 -12330,10000 -14780,17150 -10970,-3710 -22340,-4260 -33050,-2060l-820 -190c-9320,-2110 -18620,-2050 -27380,-170 -350,-3280 -1040,-6570 -2120,-9830 -8130,-24490 -34570,-37760 -59060,-29640 -24490,8130 -37760,34570 -29640,59060 5550,16710 19630,28200 35790,31230 -980,220 -1950,490 -2920,810 -15910,5270 -24530,22450 -19250,38360 5270,15900 22450,24520 38360,19240 2220,-730 4290,-1700 6210,-2860 8340,8710 19250,15160 31890,18020 9110,2060 18210,2050 26800,290 17250,4160 35040,820 49370,-8390 13340,21040 41030,27990 62800,15410 7190,-4150 12860,-9920 16810,-16590 -1200,3130 -2160,6390 -2870,9780 -6430,30760 10510,60970 38750,72190 -2230,1400 -4370,2940 -6420,4610 -7800,-6490 -18680,-8940 -29020,-5510 -15900,5290 -24510,22470 -19220,38370 3310,9960 11280,17050 20680,19670 -2840,380 -5690,1040 -8510,1980 -1320,440 -2610,940 -3860,1480 -13100,1420 -25520,8330 -33540,20050 -14580,21290 -9130,50370 12160,64950l2300 1480c-5650,4150 -10720,9290 -14900,15400 -19870,29020 -12450,68650 16560,88520 4570,3130 9410,5580 14390,7380 -7920,4710 -14530,11810 -18630,20840 -10670,23490 -260,51190 23240,61850 23500,10660 51200,250 61860,-23250 2290,-5050 3610,-10290 4030,-15510l2040 920c5140,2150 10430,3320 15700,3590 -9890,10510 -11130,26900 -2220,38880 10000,13450 29010,16240 42460,6240 13450,-10000 16240,-29010 6240,-42460 -4340,-5850 -10380,-9680 -16930,-11320 6830,-4870 12440,-11650 15920,-19950 5490,-13080 4560,-27240 -1330,-39010 -1510,-4130 -3640,-8130 -6400,-11840 -3600,-4840 -7950,-8790 -12770,-11790 660,-7910 -150,-16090 -2650,-24140 -1650,-5300 -3930,-10240 -6730,-14750 15790,380 31400,-7260 40540,-21540 7150,-11180 8940,-24250 6040,-36200 3400,-410 6720,-1190 9910,-2310l2010 1360c1330,10630 8250,20230 18900,24470 9750,3870 20310,2350 28370,-3160 -1530,2420 -2870,5020 -3960,7780 -7720,19400 -1530,40900 13830,53450 -13690,18880 -11410,45460 6150,61690 710,660 1440,1290 2190,1900l-430 810c-2600,-3040 -5640,-5790 -9100,-8160 -21290,-14580 -50380,-9140 -64960,12150 -14580,21290 -9130,50370 12160,64950l2300 1480c-5650,4140 -10720,9290 -14900,15400 -880,1290 -1720,2610 -2490,3940 -8210,990 -16260,4170 -23230,9660 -20280,15970 -23780,45340 -7820,65620 13760,17490 37510,22500 56790,13310 8440,4380 17530,6700 26600,7080 160,14390 5230,28270 14170,39340 -160,9650 2650,19420 8690,27880 3730,5220 8320,9440 13460,12600 -180,1180 -310,2360 -400,3530 -7810,-11920 -20970,-20140 -36300,-21060 -17580,-1060 -33470,7750 -42280,21650 160,-990 270,-2000 330,-3030 1010,-16730 -11740,-31110 -28470,-32110 -16730,-1010 -31110,11740 -32110,28470 -1010,16730 11740,31110 28470,32110 10480,630 20030,-4130 25960,-11890 -700,2780 -1160,5670 -1340,8640 -1550,25750 18080,47890 43840,49440 25560,1540 47550,-17780 49400,-43250 6300,9650 16150,16990 28240,19880 17130,4090 34310,-1820 45400,-13970 -330,950 -610,1920 -850,2920 -3890,16300 6160,32670 22460,36570 4640,1110 9290,1070 13660,100 4350,5170 9880,9490 16450,12470 830,380 1670,730 2510,1050 -4850,5060 -8930,11010 -11990,17750 -14530,32030 -350,69770 31680,84300 9360,4250 19200,6030 28810,5650zm1359050 -50380c-14370,-8620 -33010,-3960 -41630,10410 -8620,14370 -3960,33010 10410,41630 14370,8620 33010,3960 41630,-10410 8620,-14370 3960,-33010 -10410,-41630zm-165950 -163980c-1080,-300 -2160,-550 -3250,-790 -250,-2970 -940,-5890 -2030,-8660 2310,-1800 4360,-3910 6070,-6300 -630,2810 -1000,5720 -1090,8700 -80,2390 20,4750 300,7050zm46000 50470c-560,-3200 -1360,-6360 -2400,-9440l240 20c1610,4080 3780,7930 6480,11420 -880,-490 -1790,-950 -2740,-1360l-1580 -640zm-205300 191730c-5990,25100 9490,50310 34590,56310 4880,1160 9760,1510 14500,1140 8340,8700 19240,15140 31870,18000 3310,750 6620,1220 9900,1440 3140,2280 6750,3980 10750,4940 15950,3810 31960,-5740 36300,-21420 9320,-8470 16230,-19790 19220,-33010 7760,-34300 -13750,-68400 -48050,-76170 -20340,-4600 -40610,1090 -55370,13640 -24220,-4370 -47920,10900 -53710,35130zm-186450 -862810c-230,1280 -390,2550 -510,3830 -800,780 -1580,1590 -2350,2420 -3220,3500 -5980,7270 -8270,11220 -4430,940 -8760,2360 -12900,4210 -19730,-11120 -44620,-6410 -58930,10950 -2780,370 -5560,930 -8320,1680 -3110,-3370 -6620,-6450 -10540,-9160 7170,-6380 12990,-14470 16780,-23990 6610,-16620 5730,-34360 -1030,-49500 7100,-370 14170,-1910 20920,-4700 -650,16810 7820,33390 23410,42350 14190,8180 30900,8040 44490,1130 -1230,3020 -2160,6220 -2750,9560zm366760 232880l-160 -1380c15920,-3160 26610,-18380 24040,-34540 -2630,-16550 -18190,-27830 -34740,-25200 -11520,1830 -20480,9930 -23980,20260 -2700,-690 -5440,-1130 -8200,-1340 -1610,-2170 -3360,-4250 -5240,-6210 4670,-14240 2090,-29310 -5880,-40960l1110 70c7800,470 15370,-490 22430,-2650 1800,1020 3690,1920 5670,2710 16360,6500 34200,3120 46930,-7310 -460,890 -880,1810 -1260,2760 -6190,15570 1410,33220 16980,39420 15570,6190 33220,-1410 39420,-16980 6190,-15570 -1410,-33220 -16980,-39420 -9750,-3870 -20310,-2350 -28360,3150 1530,-2420 2860,-5010 3960,-7770 3110,-7830 3950,-16000 2850,-23790 7610,-8120 11880,-18510 12510,-29180 14500,1360 29430,-4050 39700,-15890 1910,-2200 3580,-4510 5000,-6940 9000,12280 22410,21390 38490,24710 4060,840 8110,1260 12110,1310 -7220,6690 -12400,15710 -14250,26160 -1650,9370 -390,18590 3150,26710 -21310,10070 -32050,34800 -24130,57570 560,1600 1200,3150 1910,4650l-700 490c-1130,810 -2240,1650 -3300,2520l-1860 -780c-32680,-13000 -69710,2950 -82710,35630 -13000,32680 2950,69710 35630,82710 3510,1400 7070,2460 10640,3200 200,3020 850,5950 1890,8720 -11000,4730 -20190,13670 -24960,25680 -7880,19850 -1200,41860 14910,54260 -1350,-180 -2720,-310 -4100,-370 -7100,-320 -13910,960 -20060,3520 -940,-1460 -1960,-2890 -3080,-4270 -6040,-7450 -13900,-12550 -22420,-15190 6910,-11330 8980,-25500 4470,-39070 -5200,-15630 -17860,-26690 -32720,-30520 -300,-2030 -730,-4030 -1290,-5980 7030,-6340 12750,-14360 16480,-23760 6190,-15620 5770,-32210 100,-46710zm-356220 -38650c-1300,-2530 -2950,-4900 -4950,-7010 8390,-6200 15350,-14550 19960,-24660 1760,790 3550,1480 5340,2100 -7360,7710 -12130,17960 -12820,29430 -60,920 -70,1830 -80,2740 -2410,-1010 -4890,-1880 -7450,-2600zm811320 226410c-2420,-1530 -5020,-2870 -7780,-3960 -23990,-9520 -51150,2210 -60670,26190l-70 180c-3670,-1980 -7660,-3500 -11930,-4470 -6380,-1440 -12750,-1510 -18800,-390 4700,-8940 6230,-18840 4880,-28280 7690,-7810 13310,-17540 16190,-28230 19730,3490 40290,-2520 55040,-16580 10490,4220 21920,4390 32240,940 -1030,3410 -1690,7000 -1910,10720l-80 2210c-4470,3260 -8100,7780 -10300,13310 -3870,9750 -2330,20300 3190,28360zm-325880 -89510l-1240 -1670c1510,230 3020,350 4530,350 -1110,410 -2210,860 -3290,1320zm-5470 350410c-4940,-5400 -9010,-11730 -11920,-18870l-2220 -630 -450 1060 -1020 2190c3520,6020 4990,13250 3700,20570 3760,-1970 7760,-3430 11910,-4320zm25710 -102950c8990,-3200 18240,-4250 27170,-3420 -1910,-10940 -980,-22530 3290,-33660 3560,-9300 9070,-17280 15880,-23660 -4640,-4840 -8370,-10230 -11190,-15950l-1860 2010c-15450,15780 -39350,18280 -57480,7350 -1660,6070 -4240,11990 -7810,17560 -18950,29620 -58340,38270 -87960,19320 -6240,-3990 -11550,-8890 -15860,-14410l-1400 2350c-4090,6400 -9480,11460 -15610,15070 -790,4860 -2160,9700 -4150,14440 -2130,5070 -4830,9720 -8010,13910 720,2750 1060,5650 970,8630 -30,1030 -100,2040 -240,3040 8410,-14140 24030,-23410 41640,-22860 19230,600 35380,12720 42020,29530 3750,210 7510,870 11220,2020 8510,-21100 31390,-33360 54180,-27920 5580,1340 10690,3620 15200,6650zm293840 -585900c-830,8430 50,16850 2460,24750 -4310,-3180 -9100,-5870 -14310,-7940 -10150,-4040 -20720,-5280 -30860,-4100 550,-4080 550,-8160 30,-12150 2840,2750 6280,4980 10200,6480 11610,4440 24270,1280 32480,-7040zm25540 57470c1470,1090 3010,2120 4600,3090 -950,1810 -1830,3680 -2610,5590 -460,-2940 -1120,-5850 -1990,-8680zm-681500 -1166930c7490,-170 14550,-3120 19900,-8070 3090,14440 12970,27170 27620,33320 1610,680 3240,1250 4870,1740 5240,6090 11560,11090 18570,14780 -530,16870 5640,33670 17760,46230 -5870,-5530 -13250,-9610 -21680,-11520 -8740,-1980 -17450,-1360 -25350,1330 540,-13500 -4740,-27150 -15630,-36830 -15810,-14070 -38530,-15430 -55650,-4830 -520,-4940 -2240,-9720 -5050,-13880 9310,-2750 17460,-8330 23390,-15800 3850,-1710 7590,-3850 11150,-6390l100 -80zm47800 960290l1980 -420 10 240c-1030,1170 -2020,2370 -2970,3620 360,-1140 690,-2290 980,-3440zm51630 -63870c-330,-15560 -6390,-30540 -16960,-41960 -1640,-30090 -24550,-55660 -55520,-59620 -2350,-300 -4700,-470 -7010,-510 1890,-3970 3420,-8190 4490,-12620 10770,470 21750,-2770 30890,-9960 2830,-2230 5320,-4710 7490,-7400 3030,5030 6810,9720 11340,13910 16060,14850 37700,19850 57530,15300 30,3740 510,7430 1410,11010 -2590,1700 -5050,3700 -7330,5970 -2210,2190 -4140,4550 -5820,7040 -9320,1820 -17660,7960 -21880,17260 -6920,15260 -160,33250 15100,40180 4400,1990 9020,2850 13550,2700l870 790c-6330,3020 -12270,7130 -17520,12350 -1440,1430 -2790,2910 -4060,4440 -2230,260 -4410,640 -6570,1120zm-427760 419230c-940,-3600 -2330,-7090 -4120,-10400 13470,-12210 19120,-31740 12770,-50000 -490,-1390 -1030,-2740 -1630,-4060l470 -60c14380,7260 30530,8580 45300,4580 7930,8610 17980,14730 28910,17940 1130,3250 2510,6410 4150,9450 -11630,14760 -13620,35750 -3410,52850 5630,9430 14060,16160 23590,19760 -1100,4100 -1810,8380 -2070,12780 -310,5210 10,10310 900,15220l-1680 620c-3850,-12210 -12670,-22790 -25250,-28500 -9200,-4180 -19040,-5120 -28250,-3310 -4080,-5110 -9270,-9420 -15400,-12510 -1790,-9360 -7940,-17740 -17280,-21980 -5530,-2510 -11410,-3220 -17000,-2380zm-87050 134700c3430,6050 7880,11620 13330,16400 -4070,6370 -7070,13580 -8690,21430 -7100,34450 15070,68130 49510,75230 5600,1150 11180,1530 16620,1210 -680,1950 -1240,3960 -1670,6040 -360,1750 -620,3510 -780,5250l-620 -380c-22130,-13270 -50830,-6100 -64110,16030 -1500,2500 -2730,5070 -3720,7710 -17560,-7170 -38470,-3150 -52070,11630 -1790,1950 -3370,4010 -4780,6150 -5650,-7130 -12890,-13130 -21460,-17390 5070,1010 10410,1190 15820,410 6420,-930 12340,-3120 17560,-6280 4980,-840 9820,-2940 14020,-6350 3510,-2840 6210,-6300 8090,-10100 1370,-840 2700,-1760 4000,-2750 20500,-15660 24420,-44990 8750,-65490 -15230,-19940 -43380,-24190 -63780,-9990l-30 -20c12050,-10600 18310,-27120 15040,-44010 -1880,-9690 -6630,-18090 -13190,-24500 9110,-23820 -2590,-50640 -26370,-60100 -5520,-2190 -11200,-3260 -16800,-3310 6850,-4260 12860,-9780 17670,-16280 5890,-510 11700,-2140 17070,-4860 1540,3160 3360,6240 5470,9200 2680,3760 5700,7130 8980,10120 -10160,28060 590,60300 27150,76240 12190,7320 25850,10070 38990,8760zm169500 42640c1950,-7050 2150,-14260 830,-21120 1390,-5110 1410,-10480 100,-15570 1750,2280 3740,4420 5970,6400 6530,5810 14230,9450 22240,10970 1290,690 2620,1330 4000,1910 2250,940 4540,1710 6830,2280 -3930,6650 -6240,14340 -6430,22580 -10410,-5580 -22040,-8070 -33540,-7450zm92970 62450c-1050,-530 -2120,-1050 -3230,-1510 -1990,-840 -4020,-1520 -6050,-2070l1580 0c5830,-100 11390,-1260 16500,-3290 -3260,1970 -6200,4280 -8800,6870zm-406360 -178870l0 -40 50 0 -50 40zm-77250 -726700l40 -180 2090 -1510c5490,3310 11560,5850 18130,7420l240 50c-4730,1510 -9310,3590 -13650,6230 -2610,-2540 -5420,-4830 -8400,-6860 610,-1670 1130,-3380 1550,-5150zm-90830 -21980l-70 260c-700,2950 -1110,5890 -1240,8810 -1040,-3340 -2330,-6580 -3880,-9670 1720,300 3450,500 5190,600zm1500 27200c1240,3370 2850,6560 4810,9550 -1910,2080 -3660,4290 -5260,6590 -270,-860 -550,-1720 -870,-2570 620,-2970 1020,-6020 1210,-9130 90,-1490 130,-2960 110,-4440zm143830 -770l3000 -1050c2050,1460 4210,2820 6470,4060 -3090,-1260 -6250,-2260 -9470,-3010zm313780 -11190c3600,5350 8370,10030 14210,13640 1730,1070 3500,2020 5300,2830 4180,4180 9120,7550 14580,9900 -1010,0 -2020,50 -3050,150 -16680,1630 -28880,16480 -27240,33160 1630,16680 16480,28880 33160,27240 8230,-800 15370,-4830 20290,-10700 510,3220 1260,6390 2250,9480 -3750,3610 -7090,7750 -9950,12380 -3600,5820 -6130,12000 -7680,18300 -2420,-500 -4920,-800 -7460,-910 -140,-1270 -330,-2540 -580,-3810 -4760,-24580 -27980,-40890 -52480,-37370 -8950,-9660 -21150,-14730 -33490,-14940 5900,-13800 6990,-29730 1880,-45100 -1070,-3230 -2380,-6310 -3890,-9240 5250,600 10610,330 15870,-900 3740,1230 7690,2000 11800,2250 9630,580 18750,-1800 26480,-6360zm69250 -61530c-1830,-1570 -3820,-3040 -5940,-4350l-2410 -1390c-2140,-3380 -4990,-6400 -8500,-8800 -1990,-1360 -4090,-2460 -6240,-3290 2100,-3380 3910,-7010 5390,-10870l580 -1580c2550,1870 5330,3500 8330,4860 23490,10660 51190,250 61850,-23250 3240,-7130 4530,-14650 4110,-21960 3560,9580 10290,18070 19740,23740 2780,1670 5670,3010 8610,4050 250,7530 3290,14990 9100,20680 1230,1210 2550,2280 3920,3240 -1330,3310 -2360,6710 -3110,10130 -19960,-18980 -50770,-23430 -75800,-8920 -7970,4620 -14560,10700 -19630,17710zm-13660 91600c-170,1760 -190,3530 -50,5280 -2110,-2130 -4530,-3940 -7170,-5360 2370,220 4770,240 7220,80zm-590850 123300c14590,460 27840,-5830 36730,-16050 5580,480 11260,-40 16750,-1600 -3790,10940 -4410,22260 -2340,32920 -2840,2810 -5470,5930 -7810,9350 -1360,1980 -2590,4020 -3690,6090 -8860,-10930 -22530,-17750 -37670,-17320 -9520,280 -18280,3390 -25530,8500 3750,-8850 4570,-18450 2720,-27520 6210,3380 13290,5400 20840,5630zm-39030 -70030c-3730,6460 -5960,13900 -6210,21870 -120,3710 210,7340 920,10820 -10060,-5480 -21420,-6900 -32020,-4640 -1350,-3350 -3120,-6590 -5310,-9650 -2670,-3740 -5790,-6970 -9230,-9660l-180 -1930c3390,-4480 6240,-9480 8420,-14960 550,-1390 1050,-2790 1500,-4200 13260,-4080 24570,-13990 29920,-27950 2040,-5330 3040,-10820 3100,-16210 600,2620 1360,5190 2280,7680l-520 2870c-5690,6550 -8540,15460 -7080,24690 1470,9230 6960,16820 14410,21270zm1086230 163240c10270,4660 21540,5320 31840,2440 1890,1480 3870,2860 5960,4150 23630,14560 53040,11820 73460,-4690 -2540,12550 60,26080 8300,37160 10510,14140 27490,20620 43790,18420 -860,510 -1710,1090 -2530,1700 -11500,8550 -15210,23690 -9790,36310 -6250,810 -12130,2870 -17370,5910 -7730,-19750 -28280,-32340 -50180,-29180 -18840,2720 -33420,16330 -38300,33530 -4610,-2040 -9620,-2870 -14540,-2500 3000,-2650 5700,-5740 8010,-9240 12690,-19210 9330,-44350 -6830,-59650 -720,-770 -1480,-1510 -2270,-2240 -11820,-10870 -27730,-14490 -42270,-11100 7060,-4920 11630,-12630 12720,-21020zm-634470 -20950l-920 2030 -1620 -1040c620,-820 1200,-1650 1760,-2490l780 1500zm22210 80830c1350,890 2750,1740 4190,2540 -8560,7160 -13950,16820 -15900,27100 -6320,5150 -11390,12010 -14380,20230 -1040,2870 -1790,5770 -2250,8680 -3750,-1570 -7710,-2810 -11840,-3660 -15870,-3270 -31580,-320 -44590,7170 710,-12050 -2050,-23760 -7540,-33930 15570,9830 35250,12870 54090,6620 17770,-5890 31210,-18870 38220,-34750zm93260 -79110c-680,-1530 -1420,-3030 -2220,-4500 4050,-8380 6310,-17700 6360,-27360l1100 -1610c6490,7010 15120,12020 24860,14020 -620,1810 -1120,3680 -1520,5600 -970,4700 -1190,9370 -760,13910 -410,1930 -730,3850 -950,5780 -1810,-1010 -3690,-1920 -5660,-2700 -6970,-2770 -14210,-3750 -21210,-3140zm-86630 226740c-1070,-330 -2140,-610 -3220,-850 1300,-2480 2430,-5060 3410,-7740 -260,2880 -320,5740 -190,8590zm-58280 58030c360,1210 760,2410 1220,3600 -700,-710 -1440,-1400 -2230,-2060l-770 -620 590 -1100 1190 180zm361700 908030c4480,-25410 -12490,-49640 -37910,-54130 -25410,-4480 -49640,12490 -54130,37910 -4480,25410 12490,49640 37910,54130 25410,4480 49640,-12490 54130,-37910zm-1133320 -1319110c-4800,2500 -9000,6320 -11990,11300 -1610,2680 -2750,5500 -3460,8380 -5400,-50 -10680,830 -15640,2540 7280,-9890 10670,-22630 8400,-35690 -190,-1100 -420,-2180 -680,-3240l880 1150c6010,7600 13910,12840 22490,15560zm810380 -603870c-14730,6260 -27120,18040 -33800,33960 -980,2330 -1810,4690 -2490,7060 -3340,-4290 -7480,-8070 -12380,-11090 -14990,-9240 -33160,-8990 -47490,-920 610,-800 1180,-1630 1710,-2500 7540,-12230 5360,-27710 -4400,-37420 -2920,-7730 -7200,-14590 -12490,-20370 860,-910 1670,-1880 2420,-2900 5000,6210 11660,11220 19640,14280 24100,9240 51120,-2820 60350,-26910 2280,-5960 3270,-12110 3080,-18120 2890,-1780 5630,-3790 8200,-5990 5640,400 11280,50 16790,-1030 -2370,2910 -4320,6030 -5880,9270 -13900,18910 -11690,45650 5950,61960l790 720zm739850 144670l-2310 -1480c1420,-1050 2820,-2160 4170,-3330 2200,1430 4520,2680 6940,3720 -1000,0 -2010,50 -3030,150 -1920,190 -3780,550 -5570,1080l-200 -140zm-172720 107800c3200,-2780 5870,-6270 7720,-10370 2080,22680 16320,43510 38790,52940 10630,4460 21780,5810 32460,4480 -6050,15760 -3000,32820 6640,45310 2130,7930 7320,14390 14040,18310 -1610,1200 -3120,2580 -4510,4140 -1560,1760 -2880,3650 -3970,5630 -2420,290 -4830,780 -7220,1460 -4680,-9890 -12820,-18190 -23640,-22890 -23680,-10260 -51190,610 -61460,24280 -1840,4250 -2990,8630 -3520,13000 -3680,4110 -6650,8900 -8710,14250 -3970,-5870 -8910,-11040 -14580,-15300 16430,-9540 26030,-28610 22580,-48420 -3100,-17830 -15910,-31520 -32060,-36590 17820,-3540 32700,-17380 36650,-36290 980,-4700 1210,-9390 790,-13940zm284670 -18290c-370,21450 14150,41030 35870,46220 1450,350 2890,610 4340,820 -8730,2750 -16420,8010 -22140,14980l-1080 -760c-15290,-10470 -34600,-10620 -49670,-1970 9860,-23930 4070,-50640 -12970,-68380 9340,920 18890,-990 27270,-5650 4690,6300 10980,11430 18380,14740zm60740 45350c7860,-2480 14970,-7000 20530,-13100 -330,940 -610,1910 -850,2910 -1560,6560 -870,13130 1580,18890 -6090,-4510 -13340,-7590 -21260,-8700zm20870 -75670c-2380,-2670 -5070,-5080 -8040,-7170 9300,-3250 17660,-9450 23510,-18300 1540,-2330 2850,-4740 3920,-7220 1430,4630 3410,9160 5960,13470 -7580,2350 -14660,6660 -20430,12910 -1850,2000 -3480,4100 -4920,6310zm-1191640 1716950c300,-12970 -4780,-26010 -15080,-35490 -7080,-6510 -15620,-10410 -24460,-11780 690,-1370 1310,-2790 1870,-4260 9230,-24100 -2820,-51120 -26910,-60350 -24100,-9230 -51120,2820 -60350,26910 -1780,4630 -2760,9380 -3030,14080 -3720,-2040 -7780,-3590 -12120,-4570 -25170,-5700 -50190,10090 -55890,35250 -5700,25170 10090,50190 35250,55890 25170,5700 50190,-10090 55890,-35250 580,-2570 930,-5150 1080,-7700 1820,1000 3740,1890 5730,2650 3150,1210 6350,2050 9550,2550 -9130,18170 -5580,40900 10130,55360 13000,11960 30970,15140 46610,9870 4620,9600 14150,16480 25540,17160 10480,630 20030,-4130 25960,-11890 -700,2780 -1160,5670 -1340,8640 -1550,25750 18080,47890 43840,49440 13400,810 25820,-4120 34870,-12660 7630,3270 16230,4550 25050,3280 25540,-3690 43260,-27380 39580,-52920 -3690,-25540 -27380,-43260 -52920,-39580 -9910,1430 -18650,5880 -25410,12270 -4810,-2060 -10050,-3340 -15570,-3670 -17580,-1060 -33470,7750 -42280,21650 160,-990 270,-2000 330,-3030 960,-15870 -10460,-29630 -25920,-31850zm484470 -290640c-2560,-2500 -5440,-4750 -8640,-6670 -1210,-720 -2440,-1390 -3680,-1990 7630,-7760 12600,-18220 13310,-29940 160,-2610 100,-5190 -170,-7710 2410,-2730 4640,-5690 6620,-8900 13850,-22440 12110,-50100 -2240,-70330 10850,3090 22990,-20 31000,-9000l560 -660c2780,-90 5570,-410 8340,-1010 -7690,1740 -14700,6440 -19160,13670 -8810,14260 -4380,32960 9880,41760 14260,8810 32960,4380 41760,-9880 2110,-3430 3470,-7120 4100,-10850 3440,2830 7140,5280 11050,7320 -4590,690 -9090,2440 -13120,5320 -13630,9740 -16800,28700 -7060,42340 9740,13630 28700,16800 42340,7060 13630,-9740 16800,-28700 7060,-42340 -610,-850 -1250,-1660 -1930,-2430 3760,1670 7740,3020 11910,3960 18600,4210 37140,-180 51450,-10560 6800,3470 14380,5230 22030,5110 2710,4740 6060,9170 10010,13150 -25750,-1550 -47890,18080 -49440,43840 -830,13800 4420,26570 13450,35680 -790,-680 -1630,-1320 -2510,-1920 -13830,-9470 -32720,-5930 -42190,7890 -1540,2250 -2740,4630 -3600,7090 -5220,-230 -10480,400 -15520,1910 770,-650 1520,-1340 2240,-2070 11730,-11970 11530,-31180 -450,-42910 -11970,-11730 -31180,-11530 -42910,450 -2490,2540 -4440,5400 -5850,8450 -3570,-880 -7300,-1340 -11140,-1340 -2310,0 -4570,170 -6790,500l-2540 -20c-2410,-1940 -5160,-3540 -8200,-4710 -15650,-5990 -33200,1830 -39200,17480 -290,750 -540,1500 -770,2260zm-66020 660l-1140 1190 340 -1590 800 400zm-732280 -370040c-1120,990 -2160,2080 -3130,3240 -50,-2650 -450,-5290 -1190,-7840 1320,1610 2760,3160 4320,4600zm-10120 23250c260,11830 7470,22930 19160,27580 1050,420 2110,770 3170,1060 -3170,4700 -5740,9850 -7580,15350 -6550,-7670 -16780,-11910 -27490,-10350 -16590,2420 -28070,17830 -25650,34410 1180,8090 5460,14960 11440,19600 -6880,5990 -12010,13980 -14460,23120 -1110,-1760 -2360,-3460 -3740,-5100 -11350,-13480 -28700,-18920 -44840,-15740 830,-570 1650,-1190 2440,-1860 6410,-5400 10030,-12890 10690,-20640 6610,-1910 12700,-5240 17830,-9720 19050,-8650 32650,-26250 36320,-46750 8460,-180 16790,-3880 22640,-10870l70 -90zm508050 351290c1460,-1480 2820,-3070 4090,-4760 6550,13440 19330,23210 34470,25670 -3460,4100 -6360,8570 -8640,13290 -4620,-12520 -13190,-23710 -25280,-31490 -1520,-980 -3080,-1880 -4640,-2710zm-51620 -180870c-13980,-3410 -28300,-1890 -40840,3660 -22230,30 -41920,15970 -45910,38620 -2560,14630 1950,28840 11090,39140 410,1260 850,2490 1330,3720l160 1390c-5450,-510 -11100,460 -16350,3090 -7320,3670 -12510,9890 -15040,17050 -1590,-1280 -3260,-2450 -4980,-3500l-80 -350c6090,-16060 5700,-34530 -2600,-51100 -8960,-17910 -25230,-29750 -43390,-33710 -1100,-4090 -2760,-8020 -4920,-11670 3120,-270 6180,-850 9160,-1720 1130,540 2290,1030 3480,1490 24100,9230 51120,-2820 60350,-26910 1660,-4320 2620,-8740 2960,-13140 9150,-13530 10940,-31460 3120,-47110l-1300 -2410c6950,-870 13880,-2920 20500,-6230 5610,-2810 10620,-6330 14990,-10410 2800,3210 6040,6010 9570,8340 -5530,4850 -9730,10850 -12420,17450 -11770,1980 -21750,10860 -24550,23230 -3700,16350 6550,32600 22900,36300 840,190 1680,340 2520,460 9860,11110 26360,13430 38870,5530 3320,3490 7170,6460 11380,8790zm-266800 -9990c1820,2210 3870,4290 6150,6190 1670,1400 3410,2660 5210,3790 -3890,1370 -7600,3260 -11010,5600 1240,-5150 1100,-10530 -350,-15580zm33540 183400c-3480,-1570 -7210,-2740 -11140,-3430 -25410,-4480 -49640,12490 -54130,37910 -3330,18900 5210,37130 20250,47090 -2720,5690 -4270,11910 -4530,18250 -360,-950 -770,-1880 -1230,-2810 -2910,-5810 -7420,-10280 -12750,-13140 -5100,-6780 -12100,-12250 -20600,-15510l-620 -230c-5080,-8730 -13010,-15900 -23130,-19910l-370 -140c-1370,-19400 -11560,-37930 -29200,-49210l-1960 -1210c10410,240 20680,-4910 26540,-14420 3010,-4870 4470,-10260 4520,-15600 360,-1040 660,-2110 910,-3200 610,-2680 830,-5370 720,-7990 11740,9650 26760,14970 42320,14520 7800,3080 16340,4670 25250,4410 10510,-300 20350,-3140 28950,-7900 -3550,11760 380,24750 10200,32520zm-143050 -110700c7150,-2320 13950,-5910 20030,-10770 -7220,14240 -9120,31190 -4020,47650l1130 3320c-1420,-560 -2900,-1010 -4430,-1360 -4480,-1010 -8950,-980 -13160,-60 5910,-12540 5770,-26690 450,-38780zm-500220 -714750c10780,-2640 20680,-9100 27440,-18980l250 -370c5800,-1660 11380,-4140 16540,-7400 1310,3560 3030,6890 5100,9950 -1880,1730 -3570,3730 -5010,5980 -5500,8600 -6120,18920 -2580,27720 -510,9690 1180,19630 5380,29100l970 2090c-11830,1820 -21950,10590 -24900,22950 -3900,16300 6160,32670 22460,36570 4690,1120 9390,1070 13790,70 -1350,5500 -1190,11440 810,17190 450,1290 970,2520 1570,3710 -4220,-2250 -8870,-3890 -13840,-4770 -25420,-4480 -49650,12490 -54130,37910 -530,2980 -760,5940 -710,8860 -6420,5090 -11890,11430 -15990,18760 4380,-12420 3510,-26620 -3590,-38920 -10880,-18840 -32890,-27250 -52920,-21690 -510,-1880 -1100,-3730 -1780,-5550 1100,-420 2180,-900 3250,-1450 5610,-2900 9930,-7300 12730,-12470 1600,1410 3320,2730 5150,3940 21540,14220 50520,8290 64740,-13240 10930,-16550 9960,-37510 -860,-52770 2580,-5330 4170,-11240 4550,-17520 660,-10990 -2530,-21310 -8420,-29670zm307860 826360l-590 1480c-7370,220 -14320,3150 -19620,8020 1170,-2620 2120,-5380 2810,-8270 4800,-20120 -4190,-40310 -20880,-50620l170 -1240c6810,-6380 12330,-14370 15890,-23670 11710,-30560 -1710,-64560 -30080,-79270 3740,-5950 6560,-12610 8200,-19850 3910,-17300 380,-34530 -8480,-48380 2930,-2050 5660,-4460 8140,-7240 17170,-19260 15470,-48800 -3790,-65970l-1570 -1330c1850,-3360 3240,-6890 4200,-10520 8020,5160 16870,8320 25910,9530 -7740,11000 -7440,26230 1620,37000 6760,8030 16800,11680 26510,10620 -2500,1410 -4900,3070 -7180,4990 -8960,7540 -14370,17730 -16060,28450 -1780,1640 -3390,3520 -4780,5630 -2450,3700 -3970,7740 -4640,11850 -8310,15410 -10270,34160 -3840,51920 6880,19010 21870,32740 39660,38700 2920,4570 6680,8680 11220,12100 -3970,1820 -7600,4530 -10590,8100 -7550,9030 -8950,21150 -4670,31290 -3330,7270 -4850,15480 -4010,24010 650,6690 2690,12910 5800,18410 -3860,4020 -7060,8810 -9350,14260zm-46940 -492530c5930,8850 14890,15700 25830,18860 1230,2230 2640,4360 4230,6370 -10980,4270 -20370,12670 -25620,24250 -1840,4060 -3060,8250 -3680,12450 -6830,4400 -12920,10190 -17830,17280 -4710,-5340 -10710,-9680 -17770,-12490 -16360,-6510 -34210,-3110 -46930,7320 470,-890 880,-1820 1260,-2770 440,-1110 810,-2230 1120,-3350 2140,-1460 4130,-3200 5910,-5250 7390,-8510 9190,-19970 5730,-29910 1770,-9750 430,-19930 -3990,-28950 21510,13060 49650,12610 71080,-3320l660 -490zm92840 -231360c1800,230 3590,370 5370,400 -3290,9550 -4360,20030 -2670,30710 610,3840 1550,7540 2790,11080 -2090,2170 -4010,4570 -5700,7200 -4870,7570 -7270,16010 -7420,24390 -12300,-5490 -25960,-6880 -38940,-4200 -11700,-5630 -26160,-3270 -35430,6760 -6570,7100 -9090,16490 -7690,25350l-1180 2300c-9980,2650 -19180,7690 -26760,14620 -17450,-3880 -36410,-460 -51880,11040 -3400,2530 -6470,5340 -9210,8350 -1160,-3470 -2940,-6660 -5200,-9450 19570,-7830 32020,-28260 28870,-50050 -2320,-16070 -12550,-29040 -26180,-35540 8000,-4850 14640,-12120 18640,-21360 10270,-23680 -610,-51190 -24280,-61460 -1450,-630 -2920,-1180 -4400,-1650 -310,-3110 -920,-6180 -1830,-9170 3410,-5970 5820,-12470 7160,-19220 980,670 1990,1300 3020,1880 3220,10390 9130,20100 17710,27990 15860,14590 37130,19610 56700,15350 -3530,18680 4630,38400 21880,48750 22130,13270 50830,6100 64110,-16030l1280 -2280c7440,-200 14730,-2190 21240,-5760zm148510 -76880c1790,-7500 2180,-15000 1320,-22230 1670,880 3410,1680 5220,2370 22930,8780 48510,-1700 58890,-23490 -470,18680 10380,36600 28650,44260 1360,570 2730,1070 4110,1510 -10600,25110 -4160,55210 17840,73600 4890,4090 10220,7310 15790,9700 -10070,4130 -18680,11760 -23880,22000 -7740,-5080 -16740,-7670 -25790,-7640 -5500,-6240 -12140,-11300 -19510,-14950 750,-980 1470,-2000 2150,-3060 11460,-17820 9280,-40500 -3880,-55780 -12630,-20800 -39410,-28570 -61370,-17220 -1100,570 -2160,1170 -3200,1810 1520,-3450 2750,-7080 3660,-10880zm-23430 -65530c-6830,-5200 -14830,-9090 -23710,-11210l-2390 -520c-3520,-4340 -7660,-8290 -12410,-11690 15340,-60 30340,-7660 39230,-21550 3900,-6090 6210,-12740 7030,-19470l620 430c16550,11330 37780,10560 53280,-330 -1210,2860 -2150,5880 -2770,9000 -1840,3670 -3170,7500 -3970,11380 -21650,-3900 -43700,8000 -51850,29280 -1850,4830 -2850,9780 -3060,14680zm-69990 -264340l-1980 -560c-1320,-2400 -2880,-4710 -4660,-6910 -5390,-6650 -12230,-11430 -19690,-14250 -2310,-2620 -4880,-4920 -7610,-6890 -2440,-4670 -6130,-8750 -10930,-11710 -14260,-8810 -32960,-4380 -41760,9880l-480 810c-860,570 -1700,1170 -2530,1800 -740,560 -1450,1140 -2140,1740l-1220 -750c8230,-5970 14820,-13790 19340,-22680 7380,-600 14610,-2470 21360,-5540 7600,14340 22470,24310 39850,24850 16030,500 30440,-7140 39230,-19190 12250,12900 31350,18180 49240,11960 870,-300 1720,-630 2560,-980 -30,7010 1110,14140 3550,21140l730 1990c-13130,-1800 -26250,2120 -36180,10350 -16060,-4490 -32690,-2390 -46680,4940zm-371220 22250c14600,380 27840,-5980 36680,-16270l-40 920c-470,14960 4260,28870 12560,40000 -14280,1620 -27120,9790 -34620,22060 -18740,-280 -35990,10800 -43490,28040 -9990,-3450 -20920,-3410 -30890,100 9760,-10200 14190,-24130 12610,-37700 500,870 1050,1710 1640,2540 9760,13630 28710,16770 42340,7020 13630,-9760 16770,-28720 7010,-42340 -1150,-1600 -2420,-3060 -3800,-4370zm845880 -718990c-2600,5020 -4230,10410 -4880,15880 -3300,-2190 -6850,-4100 -10630,-5680 -19510,-8190 -40790,-5920 -57610,4240 -3950,-4060 -8610,-7370 -13750,-9780 340,-3430 310,-6900 -110,-10350 25130,9380 52750,1830 69790,-17320 1430,4190 3490,8250 6200,12040 3120,4370 6850,8030 10990,10970zm80060 -4950c-1960,-2850 -4270,-5520 -6920,-7960 -1480,-1360 -3020,-2590 -4610,-3730 570,-1110 1100,-2240 1580,-3380 4730,4870 10170,8880 16080,11980 -2100,920 -4150,1950 -6130,3090zm-442260 315220c-1270,-1500 -2650,-2950 -4140,-4320l-320 -280c-2560,-16240 -13640,-30640 -30180,-36660l-760 -270c-870,-9310 -4540,-18170 -10470,-25380 890,470 1830,890 2790,1270 2880,1140 5830,1810 8760,2050l610 1990c6210,18710 23110,30870 41670,31950 -100,1080 -150,2190 -130,3310 170,10500 5650,19670 13840,24980 -2830,-490 -5740,-730 -8720,-680 -4510,80 -8850,780 -12950,2040zm-191830 28670l-10 370 -1530 -480 1220 90 320 20zm82690 62530c8770,-2740 17040,-7410 24140,-13980 1060,4300 2580,8490 4530,12520 -370,1110 -720,2230 -1030,3370 -8890,2160 -17180,6210 -24310,11780l-420 -2770c-660,-3790 -1640,-7430 -2910,-10920zm-197780 57600c-5380,-3220 -11140,-5240 -16980,-6130 -170,-970 -380,-1940 -620,-2910 4310,-8120 6830,-17100 7360,-26310 5230,5220 11480,9590 18600,12820 19630,8900 41390,7030 58660,-3140 2120,16120 12620,30310 27910,36850 14050,12860 33710,19300 53930,15790 10720,-1870 20340,-6310 28340,-12580 1590,12260 6730,23700 14550,32960 -10530,-5460 -23150,-6950 -35370,-3150 -3540,1100 -6850,2580 -9920,4390 -6220,-6640 -14250,-11330 -23060,-13490 -1550,-2470 -3490,-4770 -5810,-6780 -5090,-4420 -11230,-6840 -17470,-7330 -6120,-5210 -13640,-8900 -22120,-10400 -25410,-4480 -49650,12490 -54130,37910 -410,2330 -640,4650 -700,6950l-1760 -1150 -790 -470c6190,-20070 -1800,-42530 -20620,-53830zm425420 -307120c10060,-21410 7190,-46170 -6200,-64550 10740,450 21390,-4840 27310,-14710 6700,-11170 5380,-24910 -2290,-34530l1070 -620c4700,5720 10600,10090 17090,12970 6020,5860 13300,10620 21640,13810 12010,4600 24560,5340 36250,2790 8570,17990 28100,29130 48860,26140l920 -150c3860,9390 9950,17860 17910,24560 -1780,13670 2580,26860 11050,36630 -13290,7220 -23240,18770 -28650,32240 -1170,-910 -2390,-1790 -3670,-2610 -6180,-3950 -12920,-6270 -19750,-7060 -1840,-3180 -3980,-6240 -6430,-9140 -22650,-26910 -62820,-30350 -89730,-7700l-280 240c-7530,-4410 -16030,-7310 -25100,-8310zm23210 333850c1390,-2260 2600,-4670 3610,-7220 1620,-4080 2630,-8260 3060,-12430 2790,1910 5840,3550 9120,4850 23970,9530 51150,-2170 60690,-26150 1060,-2680 1860,-5380 2410,-8110 9520,-2980 18030,-8980 24020,-17350 4760,3770 10150,6920 16090,9280 10060,3990 20530,5230 30580,4100 -1740,9590 -500,19800 4190,29180 10790,21600 36070,31180 58190,22860 2520,3470 5410,6700 8630,9630 -16670,-3540 -33910,2350 -44940,15030 -3540,-2750 -7550,-5030 -11960,-6720 -24100,-9230 -51120,2820 -60350,26910 -2110,5500 -3110,11140 -3110,16690 -630,4920 -450,9830 450,14560 -21780,-4750 -44980,2280 -60420,19080 1650,-6790 2220,-13960 1500,-21310 -2040,-20820 -13900,-38310 -30540,-48340 -1260,-9170 -5210,-17700 -11220,-24540zm9140 -111440c-11650,430 -22530,7600 -27120,19140 -1130,2840 -1800,5770 -2040,8660 -1750,4020 -2960,8330 -3520,12830 -7350,-6210 -16240,-10850 -26240,-13240 -17550,-4190 -35140,-680 -49220,8360 -870,-5320 -2420,-10470 -4560,-15340 13600,-8360 22550,-23460 22270,-40570 -20,-1170 -70,-2330 -180,-3470 2270,1350 4670,2520 7220,3500 18960,7260 39730,1340 52220,-13240 -450,12470 6880,24440 19150,29320 4020,1590 8170,2270 12230,2130l-210 1920zm380840 181250c-810,-23640 -14830,-45760 -37580,-55950 5210,-18550 -1530,-38950 -17730,-50570 12430,-9000 21680,-22490 25020,-38700 1100,-5350 1500,-10680 1250,-15890 11270,1200 23010,-1670 32820,-8970l870 -660c1730,3580 3800,7020 6210,10250 -10820,6290 -19100,16900 -22080,30070 -5700,25170 10090,50190 35250,55890 1570,350 3120,630 4690,820 -700,10420 2080,21130 8630,30280 3760,5250 8400,9490 13580,12650 -20670,1200 -39970,12500 -50930,30780zm157380 -165870c4930,1210 10010,1600 15020,1180 -1400,1550 -2640,3270 -3720,5150 -5230,9100 -5210,19770 -910,28540 -2180,-1860 -4570,-3560 -7150,-5040l-530 -300c-1610,-2300 -3360,-4470 -5230,-6510 2230,-7430 3090,-15240 2520,-23020zm40200 -8780c2430,-1930 4710,-4150 6780,-6630 3390,-4050 5980,-8520 7780,-13190 4680,6690 11050,12080 18490,15570 -3800,17550 70,35890 10330,50370 -9930,8450 -17380,20020 -20640,33670 -1660,6970 -2100,13940 -1480,20700 -13460,-1190 -27320,3450 -37510,13860 -670,680 -1310,1380 -1930,2100 -140,-4540 -750,-9080 -1870,-13540l300 -510c8780,-15260 7980,-33420 -530,-47490 820,590 1670,1130 2560,1640 14530,8350 33080,3350 41440,-11180 8350,-14530 3350,-33080 -11180,-41440 -3980,-2290 -8250,-3570 -12540,-3930zm-129280 -238790c4550,2600 9620,4480 15080,5440 4280,760 8530,900 12660,500 2390,3810 5210,7420 8470,10740 -21040,4550 -36800,23260 -36800,45660 0,2570 210,5090 610,7550 -4270,-2730 -9070,-4790 -14280,-6040l-2040 -440c3170,-6780 3860,-14740 1310,-22410 -3500,-10560 -12260,-17910 -22410,-20110 1200,-8030 280,-16280 -2650,-23870 710,720 1450,1410 2240,2070 11070,9250 26790,9270 37810,910zm306950 208790c2650,-2270 5130,-4780 7440,-7540l1320 -1640c-450,3800 -560,7580 -340,11290 -1950,-680 -3970,-1250 -6050,-1680l-2370 -430zm-59890 1254570c-1200,120 -2390,270 -3580,460 930,-1110 1830,-2260 2690,-3440 260,1000 560,2000 890,2980zm-107950 -9470c-350,1410 -630,2840 -840,4260 -4400,400 -8790,1430 -13060,3130 4660,-2820 8790,-6420 12200,-10640 530,1100 1100,2180 1700,3250zm382660 -489580c12260,8500 29220,6870 39600,-4410 720,-780 1390,-1590 2010,-2420 3040,3020 6490,5610 10240,7690 80,2480 350,4990 840,7510 1130,5830 3300,11200 6280,15950 -8410,7210 -14990,16660 -18750,27660l-750 -670c-12870,-11180 -30130,-14060 -45230,-9110 -3450,-4450 -7760,-8340 -12880,-11410 -4640,-2780 -9550,-4650 -14560,-5690 2040,-380 4070,-910 6090,-1580 12290,-4080 21760,-12780 27110,-23520zm-239350 89960c-1770,-2390 -3780,-4670 -6050,-6760 -5270,-4850 -11370,-8260 -17780,-10240 1210,-11170 -1710,-22280 -7870,-31340 870,-1220 1720,-2470 2520,-3770l1580 -2720c21150,3880 43760,-3040 59110,-20270 2230,-2510 4230,-5150 6000,-7880 590,-640 1160,-1330 1700,-2040 3660,2760 7680,5170 12030,7140 14600,6630 30400,7280 44630,3000 -10880,10960 -17670,25740 -18480,41660 -3140,1610 -6190,3480 -9120,5660 -28220,20990 -34080,60880 -13100,89100 810,1100 1660,2160 2530,3190 -1510,940 -2990,1960 -4420,3090 -5920,4680 -10390,10500 -13380,16900 -5940,7310 -9730,16490 -10340,26610 -180,2920 -80,5790 270,8590 -9390,-1170 -19190,-260 -28740,3060 -5700,1980 -10930,4690 -15640,7990 -4340,-2270 -8990,-4080 -13930,-5330 7910,-9250 12050,-21410 11120,-33860 4420,670 9010,710 13660,40 25540,-3690 43260,-27380 39580,-52920 -2840,-19690 -17580,-34730 -35880,-38900zm-59850 -251670c-11550,5130 -21690,13750 -28690,25410 -690,1160 -1340,2320 -1950,3510 -4790,620 -9500,2390 -13700,5390 -3000,2140 -5490,4730 -7450,7610 -4430,-16260 -15230,-30320 -30100,-38720l230 -3180 1440 910c8830,5440 18470,8470 28150,9260 13630,4440 29140,2560 41690,-6430 3760,-2690 6990,-5840 9690,-9310 410,1060 850,2120 1320,3160l-630 2390zm542130 519560l70 -180c6500,-16370 3100,-34220 -7340,-46930 890,450 1810,880 2760,1260 7200,2860 14840,2760 21590,300l780 780c-7990,7490 -11630,19070 -8460,30350 1760,6270 5360,11540 10060,15350 -6420,-1710 -13060,-1980 -19460,-930zm-18340 -56890c-2420,-1530 -5020,-2870 -7780,-3960 -17990,-7140 -37760,-2330 -50540,10630 880,-14090 -2900,-28560 -11740,-40940 -2270,-3180 -4780,-6090 -7490,-8720 2550,-3690 4550,-7730 5960,-11980 8790,13080 22220,22510 37550,26320 8210,9120 18500,15330 29540,18520 870,3620 2400,7060 4500,10130zm45440 -260950l-1370 1950 -860 -1990 2230 40zm-5710 45450c1360,3330 3100,6510 5200,9450 -2800,2130 -5290,4520 -7460,7110 -4400,-1610 -9120,-2180 -13770,-1670 2510,-1410 4920,-3080 7200,-5000 3490,-2930 6430,-6280 8830,-9890zm-608900 -434500c-1280,-7700 -3960,-15100 -7880,-21820 9170,-1100 17750,-6370 22710,-15000 3160,-5500 4410,-11560 3950,-17440 2520,1080 5080,1990 7670,2730 4910,13760 14550,25920 28210,33780 13310,7650 28220,9970 42260,7610l1190 470 1270 470c-5880,1600 -11530,4370 -16620,8370 -3750,2950 -6910,6360 -9500,10090 -3620,-1570 -7440,-2850 -11430,-3750 -14920,-3380 -29800,-1210 -42490,5130 -1580,0 -3150,130 -4700,380 -4060,-4550 -9020,-8320 -14640,-11020zm-365800 -242810c1170,1610 2450,3130 3840,4590 -4530,1400 -8790,3890 -12380,7460 -1630,1620 -3040,3400 -4230,5260 -1320,-7390 -4410,-14380 -9010,-20350 880,490 1790,940 2730,1350 6240,2710 12900,3150 19050,1690zm-500940 73040c-3430,-3630 -7450,-6690 -11900,-9070 5670,-6520 9460,-14520 10880,-23080 5510,5240 12340,9220 20150,11290l-80 130c-1440,2330 -2650,4740 -3630,7200 -6210,3380 -11430,8040 -15420,13530zm546110 84360c780,1660 1660,3290 2590,4890 -8500,3510 -15880,8710 -21890,15050 -1230,-1370 -2530,-2680 -3900,-3950 8900,-3560 16810,-9060 23200,-15990zm-113550 210940c2560,3010 5530,5730 8850,8040 -3970,230 -7980,980 -11940,2300 -13300,4420 -23290,14230 -28350,26210 -6920,-2300 -13970,-3350 -20920,-3250 2950,-9090 2980,-18780 340,-27710l0 -920c-260,-16220 -13190,-29260 -29210,-29840 -8310,-2940 -17160,-3410 -25520,-1590 -50,-1820 -180,-3640 -390,-5440 2260,-5100 3530,-10440 3880,-15800 9730,10030 23560,15220 37520,14020 10730,20880 32640,35020 57710,34610 2720,-40 5400,-260 8030,-630zm-41870 -162500l-690 680c-1310,-850 -2630,-1640 -3970,-2380 1550,630 3090,1200 4660,1700zm-34100 321150c1830,2220 3880,4300 6170,6210 3060,2560 6350,4660 9790,6310 -2570,13220 -820,26330 4280,37850 -3150,1390 -6190,3150 -9020,5260 -1210,-4680 -3520,-9070 -6840,-12740 -1550,-3520 -3580,-6920 -6080,-10090 -1330,-1690 -2760,-3250 -4270,-4710l120 -140c6730,-8060 8570,-18570 5850,-27950zm1011480 -522180c-3270,11160 -2210,23100 2740,33410l-140 320c-620,-500 -1260,-970 -1920,-1430 -8120,-5560 -17990,-6640 -26680,-3770 -3300,-4920 -8070,-8930 -13990,-11280l-420 -160c-390,-1750 -870,-3480 -1450,-5170 14990,1070 29820,-3230 41860,-11920zm-241520 -364450l-2300 -1480c5650,-4140 10710,-9280 14890,-15390l1300 -1990c3980,7620 10110,14240 18120,18850 6180,3550 12820,5540 19490,6070 -160,4140 230,8260 1140,12260 -2440,-2080 -5070,-4000 -7880,-5730 -12540,-7740 -26710,-10610 -40300,-9130 -1400,-1230 -2890,-2380 -4460,-3460zm-61080 7240c-1380,1530 -2670,3170 -3870,4920 -2770,4040 -4820,8370 -6170,12820 -80,-12060 -4870,-23430 -12950,-31900 2490,2390 5200,4600 8140,6610 4710,3230 9710,5740 14850,7550zm-52540 -168270c-5940,600 -11710,2340 -16970,5080 -2690,-11030 -11500,-20100 -23360,-22540l-1750 -310c-1240,-2270 -2620,-4490 -4160,-6640 -6850,-9610 -15900,-16730 -25950,-21190 1200,-1970 2260,-4040 3180,-6230 7820,-18650 2630,-39510 -11440,-52460 17070,6170 35970,4690 51790,-3800 10490,2210 21620,-1300 28930,-9540 910,1070 1860,2100 2880,3100 3890,3810 8270,6790 12940,8970 -15180,7330 -25860,22640 -26420,40650 -580,18460 9640,34750 24960,42820 -90,4200 690,8420 2360,12390 -6270,2390 -11970,5690 -16990,9700zm17020 444880c710,-3770 940,-7530 740,-11210 360,-2980 450,-6000 240,-8990 1920,-3720 3380,-7760 4270,-12060 190,-900 340,-1790 470,-2690 6010,3610 12720,6280 19970,7780 5460,1130 10890,1510 16210,1230 -13100,5950 -23300,17850 -26460,33010 -3010,14420 990,28670 9660,39230 -5800,-250 -11290,1150 -16030,3780 -1870,-4310 -4240,-8460 -7100,-12350 4490,-11790 4230,-25350 -1860,-37530l-110 -200zm478080 374380c1810,890 3680,1660 5610,2310 -1300,7150 -1390,14600 -110,22070 -2890,-2750 -6090,-5260 -9570,-7490 -4520,-2890 -9260,-5140 -14130,-6770 6920,-2000 13090,-5520 18200,-10120zm-337620 -42420c-2260,11300 -1350,22910 2390,33600 -5210,2450 -9950,5860 -13950,10040 -2770,-2130 -5840,-3970 -9160,-5480 -5990,-2720 -12250,-4060 -18430,-4170 3910,-16180 1360,-33560 -7470,-48070 690,-2030 1240,-4090 1650,-6170 9620,14290 26800,22680 44970,20250zm-1133660 1171790c730,2610 1690,5190 2880,7670l-2590 -670c-8780,-1990 -17550,-1360 -25480,1370 370,-5140 120,-10250 -740,-15250 8260,4220 17110,6480 25930,6880zm526740 -175630l790 -1290c25750,6880 53770,-3070 69150,-25830 2560,6320 6110,12150 10470,17290 -5800,2320 -11340,5530 -16440,9670 -10750,8720 -17910,20220 -21300,32630 -5970,1190 -11710,3220 -17040,6000 -1180,-16920 -11340,-31260 -25630,-38470zm-342710 -298800c-15020,6450 -27570,18630 -34070,35020 -3870,9740 -5160,19870 -4210,29630 -16350,2060 -31110,12730 -37620,29130 -340,850 -650,1710 -930,2570l-1040 -880c-3050,-9220 -8740,-16890 -15980,-22420 -610,-6880 -2310,-13470 -4960,-19570 8380,-4080 15820,-9970 21730,-17280l1620 -10c16750,-480 29940,-14450 29450,-31210 -100,-3290 -720,-6430 -1770,-9370 15140,4010 31420,100 43100,-10360 960,5150 2550,10090 4680,14750zm-173070 -86360c-3890,-1570 -7940,-2580 -12030,-3060 580,-7870 -290,-15890 -2730,-23660 6480,940 13210,880 20000,-300 6500,-1130 12590,-3210 18170,-6070 20860,-70 39620,-14190 45010,-34950 2010,-670 3960,-1470 5860,-2410 4710,2290 9770,4050 15130,5150 26650,5490 52840,-6530 66620,-28210 1750,7900 5520,15340 11130,21460l-1360 690c-20690,10700 -33050,31160 -34350,52840 -14010,-18670 -40080,-24330 -60770,-12340 -3280,1900 -6240,4150 -8860,6650 -5400,-1120 -11100,-1320 -16880,-400 -12270,1950 -22650,8520 -29680,17640 -3680,550 -7320,1790 -10740,3770 -1630,940 -3130,2020 -4520,3200zm-62760 54700c470,1880 1040,3720 1750,5540 -700,-710 -1440,-1400 -2230,-2060 -1230,-1030 -2520,-1940 -3850,-2750 1450,-190 2890,-440 4330,-730zm-10090 276790c2070,2130 4340,4080 6800,5800 -4830,13640 -2960,28630 4570,40560 -780,1030 -1530,2100 -2240,3210 -3520,5500 -5740,11470 -6750,17530 -1820,-250 -3650,-430 -5490,-520 -3340,-14890 -13670,-26830 -27090,-32630 1000,0 2010,-50 3030,-150 16680,-1630 28880,-16480 27240,-33160l-70 -640zm-577650 -986070c-1330,-790 -2690,-1510 -4060,-2160 3800,160 7530,-140 11140,-860l10 250c-2410,780 -4780,1710 -7090,2770zm190420 700810l-2050 -1470c-2670,-1830 -5440,-3420 -8270,-4800 3430,-2520 6460,-5480 9040,-8760 280,5290 1450,10510 3470,15420l-2190 -390zm-62270 -560700l-780 -340 290 -280 490 620zm181230 -26130c-3600,4890 -6300,10560 -7800,16830 -590,2480 -970,4960 -1160,7430 -19330,-9030 -42120,-7770 -60350,3470 -2570,-3870 -5530,-7420 -8810,-10590 12900,-2440 24310,-10260 31200,-21550 2240,30 4480,-80 6670,-370 9480,6040 21150,8690 33090,6610 2470,-430 4860,-1040 7160,-1830zm139420 -77700c-2100,-730 -4250,-1370 -6460,-1900 -6230,-1490 -12460,-2000 -18540,-1650 470,-10800 -2790,-21810 -10010,-30960 -4910,-6210 -11080,-10840 -17860,-13810 -800,-7870 -3570,-15310 -7930,-21680 7660,6690 17540,10930 28380,11460 -960,8800 570,17990 4940,26450 6890,13340 19310,21960 33010,24500 -2050,2410 -3890,4950 -5530,7590zm-384390 -306180c-3840,-5510 -8860,-10180 -14690,-13610 8520,-4860 13850,-13300 15040,-22460 780,2750 1840,5480 3170,8140 4980,9950 13030,17360 22430,21630 -9170,-480 -18180,1780 -25950,6300zm-51010 -18290c-19110,5370 -33380,22640 -34040,43530 -750,24270 17140,44800 40750,47800 950,15120 9220,29490 23340,37610 22370,12870 50940,5160 63800,-17210 2440,-4240 4140,-8710 5140,-13260 8270,-5080 15050,-12760 18930,-22460 990,-2480 1770,-4990 2310,-7520 6960,-2210 13150,-6950 17080,-13790 8360,-14530 3360,-33080 -11170,-41440 -2290,-1310 -4670,-2300 -7100,-2960 21750,-12070 30310,-39260 19080,-61720 -11540,-23080 -39610,-32440 -62690,-20900 -15750,7870 -25100,23440 -25790,39880 -350,-940 -770,-1870 -1230,-2790 -7500,-14990 -25720,-21070 -40720,-13570 -14990,7490 -21060,25720 -13570,40710 1540,3090 3540,5800 5880,8090zm871650 -643850c-1390,1000 -2730,2080 -4020,3240 1150,-2630 1910,-5410 2280,-8260 480,1690 1060,3370 1740,5020zm-739020 481200c-3250,2980 -6150,6470 -8530,10450 -12110,20180 -7200,45810 10520,60250 2510,3540 5410,6860 8720,9920 25820,23870 66110,22290 89990,-3530 15640,-16920 20350,-40050 14480,-60700l380 -940c4890,-12770 590,-26800 -9660,-34790 4290,-12360 3390,-26470 -3670,-38690 -12900,-22350 -41480,-30010 -63830,-17100 -19970,11530 -28190,35560 -20520,56490 -3830,2630 -7420,5720 -10700,9270 -2730,2950 -5110,6090 -7180,9370zm486090 -350480c-1500,-8710 -4790,-17070 -9730,-24510 7250,5440 16150,8840 25890,9280 17600,810 33360,-8230 41970,-22250 -150,990 -240,2000 -290,3030 -760,16740 12200,30930 28940,31700 16740,760 30930,-12190 31700,-28940 130,-2890 -150,-5690 -780,-8370 10090,-2510 19230,-7430 26770,-14120 -3180,9620 -4100,20140 -2240,30830 3090,17750 13250,32500 27080,41850 -430,2230 -710,4480 -810,6730 -6240,810 -12110,2870 -17360,5920 -1810,-2890 -3970,-5620 -6480,-8140 -18200,-18300 -47790,-18380 -66080,-180 -3230,3210 -5870,6780 -7970,10570 -7680,1050 -15190,3500 -22120,7330 -790,-6180 -2830,-12310 -6230,-18000 -9130,-15290 -25630,-23480 -42260,-22730zm3330 307710c-2430,-1540 -5030,-2870 -7800,-3970 -10470,-4150 -21540,-4260 -31490,-1070l60 -1070c520,-16750 -12630,-30750 -29390,-31270 -4390,-140 -8570,660 -12390,2220 -3760,-4150 -8250,-7630 -13300,-10220 -310,-1350 -670,-2670 -1090,-3970 6120,-6130 10430,-13880 12420,-22320 180,980 400,1970 680,2960 4530,16130 21280,25550 37420,21020 8530,-2390 15180,-8200 18880,-15520 12610,-4000 23450,-13310 28970,-26470 2810,-6690 3930,-13670 3580,-20460 2860,550 5790,830 8800,830 5720,0 11200,-1040 16270,-2920 1510,10550 6630,20660 15210,28300 4810,4280 10270,7380 16010,9330 -4830,5050 -8900,10990 -11950,17710 -2330,5140 -3920,10420 -4820,15740l-1460 790c-2440,-2070 -5270,-3780 -8410,-5030 -15570,-6180 -33210,1430 -39400,17010 -3870,9760 -2320,20330 3200,28380zm571430 -124210l-1940 120 1400 -1430 540 1310zm-121200 -204190c-600,3400 -800,6770 -670,10080 -10510,-770 -21340,1970 -30580,8570l-1670 1260 -390 -2300c7800,-12830 8840,-28590 3180,-42190 8120,9540 19830,15480 32370,16360 -970,2620 -1740,5370 -2240,8220zm351590 201500c-1870,-15540 -9420,-30430 -22370,-41260 -2020,-1690 -4120,-3230 -6280,-4630 1970,-6850 2390,-14250 940,-21730 -170,-900 -370,-1780 -600,-2660 6930,1020 14140,910 21410,-500l1230 -250c1320,250 2660,440 4040,520 8480,510 16360,-2520 22200,-7810 690,1900 1490,3780 2370,5630 -580,15440 6440,29490 17770,38430 -3560,2410 -6650,5600 -9000,9520 -2920,4870 -4320,10240 -4330,15540 -8650,2630 -16230,7700 -21950,14410 -1660,-1880 -3480,-3610 -5430,-5210zm-900600 1173270c15070,-15400 20750,-36490 17110,-56180 18560,4110 38520,-3450 49410,-20360 2920,-4540 4960,-9390 6150,-14360 12620,670 25030,-2460 35700,-8730 350,1880 780,3770 1310,5650l930 3020c-11980,80 -23290,7310 -28000,19130 -2360,5940 -2720,12170 -1390,17960l-470 940c-5670,4220 -10470,9780 -13830,16460 -16590,14130 -25500,36410 -21500,59440 490,2790 1140,5490 1960,8120 -13460,-1950 -27630,380 -40360,7560 -2260,-8170 -6730,-15670 -12990,-21570 -300,-3420 -970,-6830 -2030,-10160 2810,-2050 5490,-4360 8000,-6920zm370910 -16560c-1790,1030 -3540,2180 -5220,3470 -1460,1120 -2840,2300 -4130,3550l-370 -1950c2320,-2470 4360,-5180 6090,-8080 1180,1060 2390,2050 3630,3010zm-50580 -148620c-910,2160 -1640,4360 -2200,6610 -1680,-1570 -3480,-3020 -5400,-4340 2600,-540 5140,-1300 7600,-2270zm190400 -129980l100 -430c4710,-50 9470,-820 14180,-2380 880,-290 1730,-620 2580,-950 -130,7010 910,14160 3240,21190 1180,3560 2650,6960 4360,10150 -5960,-3770 -12660,-6610 -19940,-8260 -2870,-650 -5740,-1090 -8590,-1340 2280,-5920 3620,-11960 4070,-17980zm407450 523620c7930,-15680 6340,-34680 -4160,-48850 3890,-7590 6300,-16100 6850,-25160 340,-5700 -80,-11280 -1170,-16620 2020,400 4100,660 6210,790 4800,290 9480,-150 13920,-1240 5510,8890 13190,16420 22480,21730 -16140,13770 -21300,37300 -11140,56970 980,1900 2080,3720 3270,5420 -12610,-820 -24830,2150 -35350,8090l-910 -1130zm-267020 -710130c-1050,5240 -1190,10640 -420,15950l-700 680c-320,-5620 -1620,-10970 -3750,-15890 1620,-180 3240,-430 4870,-740zm962790 254670c9340,1250 18810,400 27700,-2410 4030,12390 13160,22770 25330,28210 -4740,12670 -5450,26800 -1470,40290l-2210 -950c-13670,-5230 -28780,70 -36390,11930 -3090,-3600 -7070,-6520 -11780,-8400 -9750,-3870 -20310,-2350 -28360,3150 1530,-2420 2860,-5010 3960,-7770 7970,-20040 1090,-42310 -15380,-54660 14000,1110 27410,-2430 38600,-9390zm-236620 448480c2930,-1520 5660,-3540 8010,-6020 310,1870 740,3720 1280,5540 -3110,-70 -6220,100 -9290,480zm-859950 -1240980c-1180,6990 -740,14110 1200,20810 -1830,1390 -3560,2910 -5170,4560 -4600,-3550 -9770,-6540 -15440,-8800 -4100,-1630 -8270,-2810 -12450,-3550 4270,-490 8560,-1430 12800,-2840 7090,-2360 13490,-5840 19060,-10180zm-274430 370560c1790,-850 3540,-1780 5250,-2800 -1090,4360 -1530,8820 -1340,13230 -360,-1290 -760,-2570 -1210,-3850 -790,-2270 -1690,-4460 -2700,-6580zm1096040 -693090c-380,2730 -520,5450 -430,8140 -960,2970 -1640,6030 -1990,9160 -4560,-3790 -10140,-6130 -15960,-6800 2740,-830 5460,-1910 8100,-3280 3830,-1980 7270,-4430 10280,-7220zm90730 20910c500,-1580 930,-3190 1280,-4850 4300,-20590 -5680,-40850 -23190,-50490 6080,-7850 8200,-18510 4690,-28590 -5500,-15830 -22800,-24200 -38630,-18700 -15830,5510 -24200,22810 -18690,38640 1280,3690 3210,6980 5610,9780 -2610,1600 -5030,3460 -7290,5540 1310,-9280 -150,-19040 -4790,-28000 -2320,-4470 -5250,-8410 -8650,-11760 540,-2400 890,-4880 1040,-7410 1550,-25760 -18080,-47900 -43840,-49450 -17580,-1050 -33470,7770 -42280,21660 160,-1000 270,-2010 330,-3040 1010,-16730 -11740,-31100 -28470,-32110 -16730,-1000 -31110,11740 -32110,28470 -1010,16730 11740,31110 28470,32120 10480,630 20030,-4140 25960,-11900 -700,2780 -1160,5670 -1340,8640 -840,13990 4570,26910 13810,36050 -2330,10350 -1170,21560 4100,31720 8100,15640 23820,24770 40260,25220 -930,370 -1850,790 -2760,1260 -14880,7710 -20690,26030 -12990,40910 7710,14880 26030,20690 40910,12980 7120,-3690 12160,-9810 14640,-16810 2160,2840 4610,5400 7310,7640 -4520,24520 11100,48450 35630,54010 25170,5700 50190,-10090 55890,-35250 4010,-17700 -2610,-35340 -15650,-46220 610,-3290 870,-6660 750,-10060zm166740 358030c-3080,4880 -5440,10110 -7090,15540 -3490,-7960 -9230,-15040 -17010,-20190l-350 -220 1700 -1740c700,-760 1360,-1540 2000,-2320 6260,4780 13400,7740 20750,8930zm281600 299400c5380,-6200 9350,-13140 11930,-20430 4770,-5930 8150,-13100 9560,-21120 4270,-24300 -11050,-47510 -34600,-53420 -14020,-9240 -30720,-12290 -46470,-9410 16970,-8120 30200,-23640 34680,-43410 7760,-34300 -13750,-68400 -48050,-76170 -34300,-7760 -68400,13750 -76170,48050 -7760,34300 13750,68400 48050,76170 8630,1960 17260,2050 25450,560 -7640,3650 -14660,8880 -20560,15680 -22810,26290 -20270,65950 5530,89120 -580,1620 -1030,3300 -1340,5040 -2900,16510 8120,32250 24620,35160 16510,2900 32250,-8120 35160,-24620l200 -1340c12010,-3130 23250,-9780 32010,-19860zm-484030 302320l700 560 -1080 670 380 -1230zm110900 200810l-2780 -50c-1800,-6820 -5130,-13130 -9670,-18460 2780,-430 5520,-1240 8110,-2440 -200,7290 1340,14460 4340,20950zm73920 220720c260,-4170 110,-8360 -450,-12510 4570,740 9330,810 14160,120 14240,-2060 26050,-10330 33070,-21670 6690,1410 13430,1700 19990,970 -820,3250 -1310,6630 -1420,10120 -620,19650 10990,36840 27970,44270 -17050,1190 -32820,11710 -39880,28550 -1480,3520 -2490,7120 -3070,10740 -2480,280 -4980,750 -7460,1450 -2880,810 -5620,1870 -8210,3160 2640,-5850 4090,-12330 4090,-19150 0,-23100 -16770,-42280 -38790,-46050zm-1537830 -416690c850,880 1730,1720 2660,2540 -1320,-120 -2650,-210 -3970,-250l1310 -2290zm207990 -269800l10 40 -10 0 0 -40zm-481300 -107600c2650,1090 5450,1950 8360,2550 2090,430 4170,700 6240,850 -2620,3500 -4840,7240 -6660,11120 -1250,-5500 -4030,-10530 -7940,-14520zm1336560 -4540l1500 850c-170,2280 -170,4590 0,6930 -1470,-510 -2970,-960 -4520,-1330l-440 -100c1280,-2060 2440,-4180 3460,-6350zm-440560 580990c-1140,2130 -2170,4350 -3090,6650l-700 1860c310,-3230 350,-6450 160,-9620 1180,410 2390,790 3630,1110zm253500 -82630c4000,-5720 7120,-12190 9090,-19230l540 780c920,1290 1920,2490 3000,3590 -2460,8940 -2990,18440 -1350,27820 -11180,5040 -21020,13360 -27940,24580 -2390,3870 -4320,7900 -5800,12020 -3930,-2060 -8380,-3280 -13110,-3430 -2660,-80 -5250,180 -7730,750 -1590,-1220 -3290,-2340 -5070,-3370 -6080,-3490 -12610,-5470 -19170,-6050 -560,-4280 -2030,-8410 -4290,-12080 2360,1650 4890,3110 7600,4340 23490,10660 51190,250 61850,-23250 970,-2130 1760,-4290 2380,-6470zm-115850 -39250c-70,1580 -90,3150 -40,4720 -1040,-480 -2100,-940 -3170,-1360 1160,-1040 2230,-2170 3210,-3360zm272450 -349020c-5390,-8960 -13080,-16720 -22790,-22310 -1420,-820 -2870,-1580 -4320,-2270 820,-5370 680,-10700 -290,-15770l740 -110c4820,11740 14340,21360 26800,26020 -10,5060 570,9980 1680,14710l-1820 -270zm-392770 -758590l670 -20c11570,15040 31700,22080 50880,16120 8600,-2660 15870,-7580 21370,-13910 5340,10990 13730,20120 23950,26420 -1330,3920 -2300,7960 -2860,12080 -11400,-6770 -25220,-8370 -37840,-4420 -10570,-4600 -22800,-5300 -34330,-1190 -2040,-780 -4110,-1400 -6210,-1880 -830,-5540 -2400,-11050 -4780,-16410 -2790,-6300 -6480,-11920 -10850,-16790zm180620 295700c900,190 1800,340 2690,470 -570,950 -1120,1930 -1640,2910 -5120,570 -10160,1990 -14900,4250 -1170,-6640 -3750,-12790 -7410,-18150 5860,5120 13090,8830 21260,10520zm240990 89320c-750,5330 -560,10710 510,15900 -4920,2800 -9470,6250 -13500,10270 4390,-10850 4420,-22690 640,-33250 3730,2970 7880,5360 12350,7080zm800800 781690c-25540,3690 -43260,27380 -39580,52920 3690,25540 27380,43260 52920,39580 25540,-3690 43260,-27380 39580,-52920 -3690,-25540 -27380,-43260 -52920,-39580zm-207780 212420c710,-1430 1370,-2900 1980,-4400 250,1610 560,3210 930,4790 -960,-160 -1930,-290 -2910,-390zm-620400 577410c2000,6730 6340,12800 12720,16880 3730,2390 7780,3850 11890,4460 -2890,3010 -5500,6340 -7780,9950 -5080,-3270 -10570,-5420 -16160,-6530l20 -210c630,-10490 -4140,-20040 -11920,-25970 2790,700 5690,1160 8670,1340l2560 80zm407390 -327300c370,1420 820,2830 1320,4210 -390,1750 -710,3520 -950,5320 -9810,2260 -19100,6810 -26990,13530 -3370,-370 -6770,-380 -10140,-20 -1300,-4080 -3020,-8040 -5120,-11800 7040,-1450 13680,-4500 19360,-8910 7720,1110 15430,240 22520,-2330zm-2126090 -566540c-5420,25020 10320,49790 35340,55460 25170,5700 50200,-10090 55890,-35250 3600,-15900 -1370,-31750 -11870,-42690 690,-3220 1060,-6550 1050,-9970 -30,-17610 -9800,-32920 -24210,-40860 1000,90 2010,140 3040,140 16760,-30 30320,-13640 30290,-30400 -30,-16760 -13640,-30330 -30400,-30300 -16750,30 -30320,13640 -30290,30400 20,10490 5350,19730 13450,25170 -2810,-520 -5720,-800 -8690,-790 -25800,40 -46680,20990 -46640,46800 20,12540 4990,23920 13040,32290zm112710 454730c2890,-420 5680,-1090 8340,-1990 10430,5240 22820,6600 34840,2870 24640,-7640 38420,-33830 30770,-58470 -7650,-24650 -33830,-38420 -58480,-30770l-1140 370c-8250,-4170 -17820,-5930 -27670,-4510 -25540,3690 -43260,27380 -39580,52920 3690,25540 27380,43260 52920,39580zm723960 -1096670l80 1050 -2030 -1150 1950 100zm344190 50470l2690 470c-3610,6010 -6290,12710 -7780,19960 -430,2070 -740,4130 -960,6190 -5190,2700 -10010,6110 -14320,10180 -5410,-3250 -11420,-5380 -17650,-6250 14090,-6020 26030,-17070 32860,-31920 1670,550 3390,1010 5160,1370zm687680 -44460c-830,14400 3280,28620 11460,40290 -2310,2160 -4230,4630 -5730,7320 -5790,-14460 -18450,-24940 -33350,-28220 -1300,-8070 -4140,-15720 -8270,-22600 3260,1610 6760,2870 10460,3710 4120,930 8220,1280 12250,1120 3920,380 7980,20 11980,-1220l1200 -400zm-211420 1238210c-480,-4340 -1410,-8590 -2750,-12680 2640,2810 5530,5360 8610,7630 -2080,1510 -4050,3200 -5860,5050zm143460 -1785170c480,16760 14450,29950 31210,29460 16750,-480 29940,-14460 29450,-31210 -480,-16750 -14450,-29940 -31210,-29460 -16750,490 -29940,14460 -29450,31210zm-82300 475620l580 1740 -960 -740 380 -1000zm117920 855840c-7860,-1730 -16170,-1990 -24590,-530 -2520,440 -4970,1020 -7360,1730 3110,-3130 5930,-6620 8380,-10440 6830,110 13640,-890 20140,-2920 390,2760 1020,5510 1930,8240 450,1340 950,2640 1500,3920zm-553830 180490c-870,300 -1720,640 -2550,980 10,-4360 -420,-8770 -1340,-13170 4090,-2970 7360,-6920 9530,-11450 -120,2860 20,5780 450,8710 660,4490 1930,8730 3720,12660 -3280,390 -6560,1140 -9810,2270zm-843860 -515600l-1010 -1330 720 60 290 1270zm1608200 -423180c1160,1870 2410,3690 3760,5430 -2170,-2230 -4680,-4130 -7420,-5610 1210,110 2430,170 3660,180zm-1131350 -650290c10550,13010 29660,15010 42680,4450 13020,-10550 15020,-29660 4460,-42680 -10550,-13020 -29660,-15010 -42680,-4460 -13020,10560 -15020,29670 -4460,42690zm332390 37730c14220,-21530 8290,-50520 -13240,-64740 -14700,-9710 -32870,-10020 -47450,-2400 630,-780 1230,-1590 1800,-2450 9240,-13990 5390,-32810 -8600,-42050 -13980,-9230 -32810,-5380 -42040,8600 -9240,13990 -5390,32820 8600,42050 8750,5780 19410,6440 28430,2680 -2000,2060 -3840,4330 -5480,6810 -14220,21540 -8290,50520 13240,64740 21530,14220 50520,8290 64740,-13240zm-680250 134740c-19280,-17150 -48820,-15420 -65970,3860 -11710,13160 -14610,31100 -9140,46620 -680,-740 -1410,-1450 -2180,-2130 -12520,-11140 -31700,-10020 -42840,2510 -11140,12520 -10010,31700 2510,42840 12520,11140 31710,10010 42840,-2510 6970,-7830 9150,-18290 6720,-27740 1750,2270 3740,4410 5960,6380 19280,17150 48810,15420 65960,-3870 17150,-19280 15420,-48810 -3860,-65960zm-260110 222420c-17510,18950 -16360,48510 2590,66030 18950,17520 48510,16360 66030,-2590 17520,-18950 16360,-48510 -2590,-66030 -18940,-17520 -48510,-16360 -66030,2590zm1640630 1211470c10550,13020 29660,15020 42680,4460 13020,-10550 15020,-29670 4460,-42680 -10550,-13020 -29660,-15020 -42680,-4460 -13020,10550 -15020,29670 -4460,42680zm-384950 386300c820,-420 1620,-870 2400,-1340 290,2010 670,4020 1150,6020 -4800,-1410 -9800,-1570 -14560,-610 3740,-870 7440,-2220 11010,-4070zm-154040 -188250l520 1540 -1230 -1260 710 -280zm230960 21070l170 -10 100 290 -270 -280zm-263790 566510l-440 -80 -130 -740 570 820zm311900 -249760c1840,1610 3800,3080 5880,4400 -860,-140 -1730,-240 -2610,-310 -950,-1440 -2040,-2810 -3270,-4090zm-811210 112050c-1310,-1750 -2810,-3370 -4500,-4820 390,-1390 680,-2810 860,-4250 780,2760 1840,5490 3170,8150l470 920zm-216640 -1803330l140 280 -90 270 -50 -550zm142390 -271880l0 10 0 -10z"/>
 </g>
</svg>
