<?xml version="1.0" encoding="UTF-8"?>
<!DOCTYPE svg PUBLIC "-//W3C//DTD SVG 1.1//EN" "http://www.w3.org/Graphics/SVG/1.1/DTD/svg11.dtd">
<!-- Creator: CorelDRAW 2017 -->
<svg xmlns="http://www.w3.org/2000/svg" xml:space="preserve" width="34mm" height="34mm" version="1.1" style="shape-rendering:geometricPrecision; text-rendering:geometricPrecision; image-rendering:optimizeQuality; fill-rule:evenodd; clip-rule:evenodd"
viewBox="0 0 3400000 3400000"
 xmlns:xlink="http://www.w3.org/1999/xlink">
 <defs>
  <style type="text/css">
   <![CDATA[
    .fil0 {fill:#BCAB77}
   ]]>
  </style>
 </defs>
 <g id="Слой_x0020_1">
  <metadata id="CorelCorpID_0Corel-Layer"/>
  <g id="_2540744081856">
   <path class="fil0" d="M1889900 1369350c-26370,-26610 -96710,-50520 -160030,-44570 -63330,5950 -113990,36280 -142550,65650 -27510,33040 -29730,57250 -22240,81910 7490,24670 21820,39780 45740,42310 23910,2530 48220,-7200 65610,-24120 5780,-5620 10790,-12040 15510,-18620l46990 111940 82000 -22830 -25390 -137480c25670,5790 54780,16170 77550,9370 25590,-7630 43180,-36950 16810,-63560z"/>
   <path class="fil0" d="M1109790 1779780c-50790,-6550 -146710,26740 -209990,86330 -63280,59590 -92450,134840 -98570,190500 -1910,58720 16020,86690 44800,107000 28790,20300 56930,24560 84840,7200 27920,-17350 45960,-48260 50500,-81100 1520,-10910 1530,-22040 1090,-33100l144670 81240 69240 -93480 -142820 -126920c32540,-15310 72640,-28560 91490,-55010 21170,-29720 15530,-76110 -35250,-82660z"/>
   <path class="fil0" d="M2138720 2200940c15560,31570 71080,73840 129260,87420 58180,13580 112350,1670 146540,-15980 34350,-21230 43550,-42130 44240,-66330 680,-24200 -7580,-41930 -28130,-51310 -20550,-9390 -45100,-7970 -65630,1910 -6830,3280 -13210,7510 -19370,11960l-8480 -113710 -79840 -4120 -18380 130030c-21140,-12810 -43970,-30730 -66280,-31470 -25070,-830 -49480,20040 -33930,51600z"/>
   <path class="fil0" d="M1621920 2362680c-24960,40140 -33750,133460 -7940,209440 25810,75980 77840,129300 122240,155760 48580,24100 78950,19760 107030,3360 28080,-16390 42430,-38400 38550,-68500 -3880,-30090 -22930,-57080 -48770,-73480 -8580,-5450 -17930,-9720 -27380,-13590l123650 -90380 -51990 -93980 -161310 71340c-390,-33190 3840,-71950 -11160,-97910 -16850,-29170 -57970,-42210 -82920,-2060z"/>
   <path class="fil0" d="M2498820 1744060c37880,-23160 84640,-97780 95040,-172430 10400,-74660 -10770,-141370 -36870,-182320 -30610,-40730 -57920,-49900 -88410,-47980 -30490,1910 -51820,14320 -61260,41220 -9450,26890 -4850,57580 9920,82250 4910,8200 10950,15730 17250,22960l-141920 23690 3980 100800 165490 8200c-13680,28020 -33580,58770 -31950,86890 1830,31590 30840,59880 68730,36720z"/>
   <path class="fil0" d="M1976440 955680c16370,-37390 12360,-118240 -19080,-179990 -31450,-61750 -82500,-100900 -123720,-118040 -44510,-14600 -69920,-7140 -91900,10350 -21970,17480 -31530,38060 -24490,63310 7030,25240 26650,45960 50760,56780 8010,3600 16530,6100 25090,8230l-94530 92530 56040 73900 129070 -80900c4430,28320 5600,61970 21630,82310 18000,22860 54760,28910 71130,-8480z"/>
   <path class="fil0" d="M1036720 1364710c39640,9770 118620,-7930 174130,-49410 55510,-41490 85410,-98460 95280,-141990 6820,-46340 -4850,-70120 -25820,-88800 -20970,-18680 -42870,-24600 -66550,-13370 -23680,11220 -40760,34070 -47330,59680 -2180,8500 -3200,17320 -3840,26110l-107260 -77410 -63290 67790 101660 113430c-27150,9190 -60110,16060 -77430,35310 -19460,21630 -19180,58880 20450,68660z"/>
   <path class="fil0" d="M1927390 2051320c3530,-28820 -15690,-83100 -49720,-118770 -34020,-35670 -76800,-51930 -108380,-55200 -33310,-880 -49110,9390 -60520,25790 -11410,16400 -13720,32370 -3780,48140 9950,15770 27540,25890 46180,28340 6190,820 12500,790 18770,500l-45540 82330 53260 38930 71460 -81450c8790,18400 16460,41090 31520,51680 16940,11900 43220,8530 46750,-20290z"/>
  </g>
 </g>
</svg>
