<?xml version="1.0" encoding="UTF-8"?>
<!DOCTYPE svg PUBLIC "-//W3C//DTD SVG 1.1//EN" "http://www.w3.org/Graphics/SVG/1.1/DTD/svg11.dtd">
<!-- Creator: CorelDRAW 2017 -->
<svg xmlns="http://www.w3.org/2000/svg" xml:space="preserve" width="34mm" height="34mm" version="1.1" style="shape-rendering:geometricPrecision; text-rendering:geometricPrecision; image-rendering:optimizeQuality; fill-rule:evenodd; clip-rule:evenodd"
viewBox="0 0 3400000 3400000"
 xmlns:xlink="http://www.w3.org/1999/xlink">
 <defs>
  <style type="text/css">
   <![CDATA[
    .str0 {stroke:#DBC56B;stroke-width:7620;stroke-miterlimit:22.9256}
    .fil1 {fill:none}
    .fil0 {fill:#DBC56B}
   ]]>
  </style>
 </defs>
 <g id="Слой_x0020_1">
  <metadata id="CorelCorpID_0Corel-Layer"/>
  <g id="_2540783109968">
   <path class="fil0 str0" d="M2493590 2151960c36310,22360 74860,60870 104230,46850 75590,42520 -73470,58940 -139190,46850 -25870,-9650 -39020,-38460 -29370,-64330 9650,-25870 38460,-39020 64330,-29370z"/>
  </g>
  <path class="fil1" d="M2476110 2198810c23630,8820 125950,53660 121710,0"/>
  <g id="_2540783107984">
   <path class="fil0 str0" d="M2721710 1689910c-18220,47800 -43700,90960 -97440,53820 14360,-69150 10990,-17770 -2180,-62600 2420,-27510 26690,-47840 54200,-45420 27510,2420 47840,26690 45420,54200z"/>
  </g>
  <path class="fil1" d="M2671900 1685520c-3210,36340 -10780,45480 -47630,58210"/>
  <g id="_2540783107792">
   <path class="fil0 str0" d="M2594900 1177520c0,0 -32330,105240 -44690,82630 -14750,-3250 -4290,-1280 -31770,-3260 -5860,-29940 -11470,-28570 9870,-48010 -3420,-410 -18410,11310 -19290,11910l-14120 -43270c0,-27610 22390,-50000 50000,-50000 27610,0 50000,22390 50000,50000z"/>
  </g>
  <path class="fil1" d="M2544900 1177520c0,88960 4280,34440 -26460,79370"/>
  <g id="_2540783107280">
   <path class="fil0 str0" d="M2256200 856350c-24890,47340 13520,20680 -39380,77750 -42370,-27860 -45950,-31780 -60560,-80990 890,-27600 23990,-49240 51590,-48350 27600,890 49240,23990 48350,51590z"/>
  </g>
  <path class="fil1" d="M2206230 854730c-820,25290 10590,47510 10590,79370"/>
  <g id="_2540783105360">
   <path class="fil0 str0" d="M1691580 655360c37520,30430 74070,72140 22530,109410 -57020,-31180 -11860,-16630 -62130,-17590 -25360,-10940 -37050,-40350 -26110,-65710 10940,-25360 40350,-37050 65710,-26110z"/>
  </g>
  <path class="fil1" d="M1671780 701270c34700,14970 42330,29090 42330,63500"/>
  <g id="_2540783104656">
   <path class="fil0 str0" d="M1202600 805200c24350,38930 67870,14630 54650,80500 -47370,5680 -50470,20390 -104090,6420 -24000,-13650 -32390,-44180 -18740,-68180 13650,-24000 44180,-32390 68180,-18740z"/>
  </g>
  <path class="fil1" d="M1177880 848660c36020,20480 54250,320 79370,37040"/>
  <g id="_2540783105776">
   <path class="fil0 str0" d="M834700 1050410c58370,27190 29000,9000 85660,58320 -70950,40250 -32580,27520 -115420,37140 -26360,-8220 -41070,-36250 -32850,-62610 8220,-26360 36250,-41070 62610,-32850z"/>
  </g>
  <path class="fil1" d="M819820 1098140c3400,1060 100340,10610 100540,10590"/>
  <g id="_2540783104240">
   <path class="fil0 str0" d="M639900 1577310c43350,13060 58410,8730 89960,34130 -20150,50020 -37150,48260 -89960,65870 -27610,0 -50000,-22390 -50000,-50000 0,-27610 22390,-50000 50000,-50000z"/>
  </g>
  <path class="fil1" d="M639900 1627310c60740,0 67750,-15870 89960,-15870"/>
  <g id="_2540783103312">
   <path class="fil0 str0" d="M1176630 2530150c71290,44710 36030,20270 105490,73760 -91570,35590 -45420,29870 -137930,20840 -26120,-8960 -40040,-37400 -31080,-63520 8960,-26120 37400,-40040 63520,-31080z"/>
  </g>
  <path class="fil1" d="M1160410 2577450c50360,17270 68740,26460 121710,26460"/>
  <g id="_2540783102928">
   <path class="fil0 str0" d="M1719870 2720550c40480,12810 28910,1090 73610,-8440 34080,54890 -15370,90610 -63970,107980 -27490,2660 -51930,-17460 -54590,-44950 -2660,-27490 17460,-51930 44950,-54590z"/>
  </g>
  <path class="fil1" d="M1724690 2770320c39170,-3800 57240,-24830 68790,-58210"/>
  <g id="_2540783100944">
   <path class="fil0 str0" d="M2215660 2595270c81490,-84060 35010,-51020 138740,-100120 -24470,98310 -7330,58930 -41180,122120 -6080,26940 -32840,43860 -59780,37780 -26940,-6080 -43860,-32840 -37780,-59780z"/>
  </g>
  <path class="fil1" d="M2264440 2606270c1840,-8160 77340,-89860 89960,-111120"/>
  <g id="_2540783101456">
   <path class="fil0 str0" d="M841840 2100050c-15180,32900 -22360,29710 -12960,58210 -29260,57760 -76530,-26210 -87040,-58210 0,-27610 22390,-50000 50000,-50000 27610,0 50000,22390 50000,50000z"/>
  </g>
  <path class="fil1" d="M791840 2100050c0,21870 5870,60670 37040,58210"/>
  <g id="_2540783100560">
   <path class="fil0 str0" d="M1224330 1403450c-22190,49830 -5380,26860 -55260,65110 -39360,-46480 -26480,-24540 -44680,-61890 -890,-27600 20760,-50690 48360,-51580 27600,-890 50690,20760 51580,48360z"/>
  </g>
  <path class="fil1" d="M1174360 1405060c530,16500 -5290,37040 -5290,63500"/>
  <g id="_2540783101136">
   <path class="fil0 str0" d="M1677070 1211640c-4250,-1070 -59320,-12890 -67020,-19330 2020,-5080 7280,-9310 5300,-16180l-580 -140c-7150,12330 -2350,20050 -23210,21190l-9740 -9080c1390,-13520 2570,-8480 190,-15610 -4100,-250 -5410,3160 -8070,6150 -21990,-39610 94530,-64710 103130,-67000 27610,0 50000,22390 50000,50000 0,27610 -22390,50000 -50000,50000z"/>
  </g>
  <path class="fil1" d="M1677070 1161640c-128390,0 -59780,18280 -95250,26460"/>
  <g id="_2540783098896">
   <path class="fil0 str0" d="M2173840 1381050c14980,-26980 -71530,-68230 -25820,-81820 22370,8030 76130,-34640 122360,55760 7200,26660 -8580,54100 -35240,61300 -26660,7200 -54100,-8580 -61300,-35240z"/>
  </g>
  <path class="fil1" d="M2222110 1368020c-14190,-52430 -78890,-40830 -74090,-68790"/>
  <g id="_2540783099504">
   <path class="fil0 str0" d="M2198120 1882870c40060,-25180 20550,-11720 61030,-49180 45770,40200 40280,48110 18690,109560 -16670,22010 -48040,26340 -70050,9670 -22010,-16670 -26340,-48040 -9670,-70050z"/>
  </g>
  <path class="fil1" d="M2237980 1913060c26280,-34710 21170,-40510 21170,-79370"/>
  <g id="_2540783099024">
   <path class="fil0 str0" d="M1691950 2315770c93560,-21850 77320,7430 101530,4750 34010,11800 -35300,63510 -46630,78830 -23080,15160 -54080,8740 -69240,-14340 -15160,-23080 -8740,-54080 14340,-69240z"/>
  </g>
  <path class="fil1" d="M1719400 2357560c26520,-17420 75380,-20610 74080,-37040"/>
  <g id="_2540783097584">
   <path class="fil0 str0" d="M1250820 1992440c-16890,43120 -12180,15430 -2380,68790 -57250,32970 -85020,-19450 -97620,-68790 0,-27610 22390,-50000 50000,-50000 27610,0 50000,22390 50000,50000z"/>
  </g>
  <path class="fil1" d="M1200820 1992440c0,34840 10580,55970 47620,68790"/>
  <g id="_2540783097904">
   <path class="fil0 str0" d="M1518670 1609610c-29170,30350 -11810,13450 -53270,49450 -46390,-43040 -32680,-16910 -42690,-77550 7760,-26500 35530,-41690 62030,-33930 26500,7760 41690,35530 33930,62030z"/>
  </g>
  <path class="fil1" d="M1470690 1595560c-7820,26700 -5290,37610 -5290,63500"/>
  <g id="_2540783096944">
   <path class="fil0 str0" d="M1753950 1910770c26640,6620 77590,14050 108320,12880 45390,36860 -89430,81980 -113920,86960 -27570,-1550 -48670,-25150 -47120,-52720 1550,-27570 25150,-48670 52720,-47120z"/>
  </g>
  <path class="fil1" d="M1751150 1960690c20650,1150 105880,-6450 111120,-37040"/>
  <g id="_2540783094416">
   <path class="fil0 str0" d="M1948360 1613320c10810,-7780 29020,-22720 18880,-37690l-2260 -310c-1260,1270 -12590,28320 -16620,38000zm-10 40l-1410 3370c-80590,5340 -75980,-81330 -11930,-102480 27370,-3670 52530,15550 56200,42920 3670,27350 -15520,52500 -42860,56190z"/>
  </g>
  <path class="fil1" d="M1941650 1563810c-31180,4300 -360,46680 5290,52920"/>
 </g>
</svg>
