<?xml version="1.0" encoding="UTF-8"?>
<!DOCTYPE svg PUBLIC "-//W3C//DTD SVG 1.1//EN" "http://www.w3.org/Graphics/SVG/1.1/DTD/svg11.dtd">
<!-- Creator: CorelDRAW 2017 -->
<svg xmlns="http://www.w3.org/2000/svg" xml:space="preserve" width="34mm" height="34mm" version="1.1" style="shape-rendering:geometricPrecision; text-rendering:geometricPrecision; image-rendering:optimizeQuality; fill-rule:evenodd; clip-rule:evenodd"
viewBox="0 0 3400000 3400000"
 xmlns:xlink="http://www.w3.org/1999/xlink">
 <defs>
  <style type="text/css">
   <![CDATA[
    .fil0 {fill:#FEFEFE}
   ]]>
  </style>
 </defs>
 <g id="Слой_x0020_1">
  <metadata id="CorelCorpID_0Corel-Layer"/>
  <path class="fil0" d="M2143020 993290c-39390,-110060 -160550,-167340 -270610,-127940 -110050,39400 -167340,160560 -127940,270610l34070 -12190c-32660,-91240 14830,-191690 106070,-224350 91240,-32660 191680,14830 224340,106070l34070 -12200z"/>
  <path class="fil0" d="M2633860 1581180c66170,-119920 22580,-270780 -97340,-336940 -119930,-66160 -270780,-22580 -336950,97350l37130 20480c54850,-99420 179910,-135550 279330,-80700 99430,54850 135560,179910 80710,279330l37120 20480z"/>
  <path class="fil0" d="M1424820 909640c-82420,-46190 -186690,-16820 -232880,65610 -46190,82420 -16820,186690 65610,232880l14300 -25510c-68340,-38300 -92690,-124740 -54390,-193070 38290,-68330 124730,-92690 193060,-54390l14300 -25520z"/>
  <path class="fil0" d="M1746290 1417650c-38690,86210 -160,187450 86040,226130 86210,38690 187450,160 226130,-86040l-26680 -11980c-32070,71470 -116000,103410 -187470,71340 -71470,-32070 -103400,-116000 -71340,-187470l-26680 -11980z"/>
  <path class="fil0" d="M1684890 2129330c-61050,136040 -250,295810 135790,356860 136040,61040 295810,250 356860,-135790l-42120 -18900c-50610,112780 -183060,163180 -295840,112570 -112790,-50610 -163190,-183060 -112580,-295840l-42110 -18900z"/>
  <path class="fil0" d="M737570 1862990c68300,132550 231130,184620 363670,116320 132540,-68310 184620,-231130 116320,-363680l-41030 21150c56620,109880 13450,244870 -96440,301490 -109880,56630 -244860,13460 -301490,-96430l-41030 21150z"/>
  <path class="fil0" d="M1415760 2532920c10540,-79150 -45090,-151860 -124240,-162400 -79150,-10530 -151860,45090 -162390,124240l24500 3270c8730,-65620 69010,-111740 134630,-103000 65620,8730 111730,69010 103000,134630l24500 3260z"/>
  <path class="fil0" d="M2567000 2094100c14790,-111100 -63290,-213160 -174390,-227950 -111100,-14790 -213160,63290 -227950,174390l34400 4580c12260,-92110 96870,-156830 188970,-144570 92110,12260 156840,96870 144580,188970l34390 4580z"/>
  <path class="fil0" d="M913450 1641180c64250,-47420 77890,-137940 30470,-202180 -47420,-64250 -137940,-77890 -202190,-30480l14680 19890c53270,-39310 128310,-28000 167620,25260 39310,53270 28000,128310 -25260,167620l14680 19890z"/>
 </g>
</svg>
