<?xml version="1.0" encoding="UTF-8"?>
<!DOCTYPE svg PUBLIC "-//W3C//DTD SVG 1.1//EN" "http://www.w3.org/Graphics/SVG/1.1/DTD/svg11.dtd">
<!-- Creator: CorelDRAW 2017 -->
<svg xmlns="http://www.w3.org/2000/svg" xml:space="preserve" width="34mm" height="34mm" version="1.1" style="shape-rendering:geometricPrecision; text-rendering:geometricPrecision; image-rendering:optimizeQuality; fill-rule:evenodd; clip-rule:evenodd"
viewBox="0 0 3400000 3400000"
 xmlns:xlink="http://www.w3.org/1999/xlink">
 <defs>
  <style type="text/css">
   <![CDATA[
    .fil1 {fill:#DD4726}
    .fil0 {fill:#F47822}
   ]]>
  </style>
 </defs>
 <g id="Слой_x0020_1">
  <metadata id="CorelCorpID_0Corel-Layer"/>
  <g id="_2540702616256">
   <path class="fil0" d="M1343200 2348970l-221070 153210c-84620,-122090 -54240,-289670 67850,-374290 122100,-84620 289670,-54240 374290,67860l-221070 153220z"/>
   <path class="fil1" d="M1499890 2193670c-73920,-74740 -192980,-87930 -282340,-26000 -89360,61930 -118800,178050 -74770,273500l357110 -247500z"/>
   <polygon class="fil0" points="1343200,2348970 1366640,2279450 1390080,2209930 1293320,2277000 1196560,2344060 1269890,2346510 "/>
  </g>
  <g id="_2540702617632">
   <path class="fil0" d="M2330520 2060500l-246700 -107190c59200,-136250 217630,-198710 353880,-139510 136250,59190 198710,217630 139520,353880l-246700 -107180z"/>
   <path class="fil1" d="M2545070 2111860c24580,-102200 -26930,-210350 -126650,-253680 -99720,-43320 -213930,-7170 -271860,80540l398510 173140z"/>
   <polygon class="fil0" points="2330520,2060500 2401950,2043800 2473390,2027100 2365410,1980180 2257430,1933270 2293980,1996890 "/>
  </g>
  <g id="_2540702614272">
   <path class="fil0" d="M1930230 2400560l263170 -55570c30700,145340 -62250,288050 -207590,318740 -145350,30700 -288060,-62250 -318750,-207590l263170 -55580z"/>
   <path class="fil1" d="M1725610 2483010c39170,97540 143820,155840 250200,133370 106380,-22460 178510,-118090 174910,-223150l-425110 89780z"/>
   <polygon class="fil0" points="1930230,2400560 1881690,2455560 1833130,2510560 1948320,2486240 2063520,2461910 1996870,2431240 "/>
  </g>
  <g id="_2540702615456">
   <path class="fil0" d="M1688260 1516920l262470 58820c-32480,144960 -176320,236130 -321280,203650 -144960,-32480 -236140,-176320 -203650,-321280l262460 58810z"/>
   <path class="fil1" d="M1467880 1506880c-4900,105000 66060,201510 172150,225290 106100,23770 211450,-33240 251830,-130290l-423980 -95000z"/>
   <polygon class="fil0" points="1688260,1516920 1621260,1546770 1554230,1576630 1669120,1602370 1784000,1628110 1736120,1572510 "/>
  </g>
  <g id="_2540702612320">
   <path class="fil0" d="M797170 1692360l81780 -256240c141520,45160 219630,196500 174470,338020 -45170,141520 -196500,219630 -338020,174460l81770 -256240z"/>
   <path class="fil1" d="M767690 1910990c104160,14160 206570,-47990 239620,-151570 33060,-103570 -14410,-213550 -107520,-262350l-132100 413920z"/>
   <polygon class="fil0" points="797170,1692360 820990,1761740 844800,1831140 880590,1718980 916390,1606820 856780,1649600 "/>
  </g>
  <g id="_2540702612768">
   <path class="fil0" d="M2354630 1289790l-110350 -245300c135480,-60940 294710,-520 355650,134960 60940,135470 510,294700 -134960,355640l-110340 -245300z"/>
   <path class="fil1" d="M2478750 1472160c86960,-59050 121640,-173710 77040,-272860 -44600,-99160 -153400,-149280 -255280,-123380l178240 396240z"/>
   <polygon class="fil0" points="2354620,1289790 2418700,1325510 2482780,1361240 2434480,1253870 2386190,1146490 2370410,1218150 "/>
  </g>
  <g id="_2540702610784">
   <path class="fil0" d="M1895190 987680l-223340 149900c-82790,-123350 -49900,-290450 73440,-373230 123350,-82790 290450,-49910 373240,73440l-223340 149890z"/>
   <path class="fil1" d="M2054180 834750c-72790,-75840 -191640,-90810 -281920,-30220 -90270,60590 -121450,176250 -78850,272340l360770 -242120z"/>
   <polygon class="fil0" points="1895190,987690 1919660,918530 1944150,849370 1846390,914980 1748630,980580 1821920,984130 "/>
  </g>
  <g id="_2540702610656">
   <path class="fil0" d="M1226810 1050280l195730 184500c-101900,108100 -272130,113130 -380230,11230 -108090,-101900 -113120,-272130 -11220,-380230l195720 184500z"/>
   <path class="fil1" d="M1042400 929200c-57790,87810 -46010,207010 33110,281590 79110,74580 198810,79310 283050,16440l-316160 -298030z"/>
   <polygon class="fil0" points="1226810,1050280 1153950,1041770 1081080,1033250 1166750,1114000 1252420,1194760 1239610,1122520 "/>
  </g>
 </g>
</svg>
