<?xml version="1.0" encoding="UTF-8"?>
<!DOCTYPE svg PUBLIC "-//W3C//DTD SVG 1.1//EN" "http://www.w3.org/Graphics/SVG/1.1/DTD/svg11.dtd">
<!-- Creator: CorelDRAW 2017 -->
<svg xmlns="http://www.w3.org/2000/svg" xml:space="preserve" width="34mm" height="34mm" version="1.1" style="shape-rendering:geometricPrecision; text-rendering:geometricPrecision; image-rendering:optimizeQuality; fill-rule:evenodd; clip-rule:evenodd"
viewBox="0 0 3400000 3400000"
 xmlns:xlink="http://www.w3.org/1999/xlink">
 <defs>
  <style type="text/css">
   <![CDATA[
    .fil0 {fill:#E0C2B8}
   ]]>
  </style>
 </defs>
 <g id="Слой_x0020_1">
  <metadata id="CorelCorpID_0Corel-Layer"/>
  <g id="_2540698403504">
   <rect class="fil0" x="874740" y="2183510" width="134520" height="134520"/>
   <rect class="fil0" x="909964" y="2216071" width="134520" height="134520"/>
   <rect class="fil0" x="942000" y="2250770" width="134520" height="134520"/>
  </g>
  <g id="_2540698401904">
   <rect class="fil0" transform="matrix(0.360102 -0.5638 0.659199 0.421033 1.35976E+06 2.67364E+06)" width="201080" height="171980"/>
   <rect class="fil0" transform="matrix(0.360102 -0.5638 0.659199 0.421033 1.40616E+06 2.66148E+06)" width="201080" height="171980"/>
   <rect class="fil0" transform="matrix(0.360102 -0.5638 0.659199 0.421033 1.45265E+06 2.65316E+06)" width="201080" height="171980"/>
  </g>
  <g id="_2540698402224">
   <rect class="fil0" transform="matrix(0.0446533 -0.667496 0.78044 0.0522089 2.08664E+06 2.56292E+06)" width="201080" height="171980"/>
   <rect class="fil0" transform="matrix(0.0446533 -0.667496 0.78044 0.0522089 2.12148E+06 2.52994E+06)" width="201080" height="171980"/>
   <rect class="fil0" transform="matrix(0.0446533 -0.667496 0.78044 0.0522089 2.15824E+06 2.50029E+06)" width="201080" height="171980"/>
  </g>
  <g id="_2540698399504">
   <rect class="fil0" transform="matrix(0.0996518 -0.661524 0.773457 0.116513 2.42683E+06 2.02115E+06)" width="201080" height="171980"/>
   <rect class="fil0" transform="matrix(0.0996518 -0.661524 0.773457 0.116513 2.46428E+06 1.99117E+06)" width="201080" height="171980"/>
   <rect class="fil0" transform="matrix(0.0996518 -0.661524 0.773457 0.116513 2.50336E+06 1.96466E+06)" width="201080" height="171980"/>
  </g>
  <g id="_2540777417744">
   <rect class="fil0" transform="matrix(-0.642572 -0.186134 0.217629 -0.751299 2.65534E+06 1.36406E+06)" width="201080" height="171980"/>
   <rect class="fil0" transform="matrix(-0.642572 -0.186134 0.217629 -0.751299 2.63056E+06 1.32298E+06)" width="201080" height="171980"/>
   <rect class="fil0" transform="matrix(-0.642572 -0.186134 0.217629 -0.751299 2.60945E+06 1.28074E+06)" width="201080" height="171980"/>
  </g>
  <g id="_2540777413808">
   <rect class="fil0" transform="matrix(0.65228 -0.148576 0.173715 0.76265 2.03041E+06 1.65521E+06)" width="201080" height="171980"/>
   <rect class="fil0" transform="matrix(0.65228 -0.148576 0.173715 0.76265 2.07199E+06 1.67914E+06)" width="201080" height="171980"/>
   <rect class="fil0" transform="matrix(0.65228 -0.148576 0.173715 0.76265 2.11093E+06 1.70585E+06)" width="201080" height="171980"/>
  </g>
  <g id="_2540777411504">
   <rect class="fil0" transform="matrix(-0.402732 -0.534183 0.62457 -0.470876 1.74077E+06 2.35215E+06)" width="201080" height="171980"/>
   <rect class="fil0" transform="matrix(-0.402732 -0.534183 0.62457 -0.470876 1.74556E+06 2.30442E+06)" width="201080" height="171980"/>
   <rect class="fil0" transform="matrix(-0.402732 -0.534183 0.62457 -0.470876 1.75399E+06 2.25795E+06)" width="201080" height="171980"/>
  </g>
  <g id="_2540777405104">
   <rect class="fil0" transform="matrix(0.0474716 -0.667301 0.780212 0.0555041 1.20783E+06 1.97509E+06)" width="201080" height="171980"/>
   <rect class="fil0" transform="matrix(0.0474716 -0.667301 0.780212 0.0555041 1.2428E+06 1.94227E+06)" width="201080" height="171980"/>
   <rect class="fil0" transform="matrix(0.0474716 -0.667301 0.780212 0.0555041 1.27969E+06 1.91278E+06)" width="201080" height="171980"/>
  </g>
  <g id="_2540777378576">
   <rect class="fil0" transform="matrix(0.360102 -0.5638 0.659199 0.421033 609166 1.74855E+06)" width="201080" height="171980"/>
   <rect class="fil0" transform="matrix(0.360102 -0.5638 0.659199 0.421033 655568 1.73639E+06)" width="201080" height="171980"/>
   <rect class="fil0" transform="matrix(0.360102 -0.5638 0.659199 0.421033 702055 1.72807E+06)" width="201080" height="171980"/>
  </g>
  <g id="_2540777376496">
   <rect class="fil0" transform="matrix(0.663661 -0.0842538 0.09851 0.775956 1.39622E+06 1.38108E+06)" width="201080" height="171980"/>
   <rect class="fil0" transform="matrix(0.663661 -0.0842538 0.09851 0.775956 1.43526E+06 1.40894E+06)" width="201080" height="171980"/>
   <rect class="fil0" transform="matrix(0.663661 -0.0842538 0.09851 0.775956 1.47141E+06 1.43933E+06)" width="201080" height="171980"/>
  </g>
  <g id="_2540777432272">
   <rect class="fil0" transform="matrix(-0.171079 -0.646743 0.756175 -0.200026 1.88052E+06 1.36729E+06)" width="201080" height="171980"/>
   <rect class="fil0" transform="matrix(-0.171079 -0.646743 0.756175 -0.200026 1.90299E+06 1.32491E+06)" width="201080" height="171980"/>
   <rect class="fil0" transform="matrix(-0.171079 -0.646743 0.756175 -0.200026 1.92834E+06 1.28506E+06)" width="201080" height="171980"/>
  </g>
  <g id="_2540777429392">
   <rect class="fil0" transform="matrix(0.513078 -0.429296 0.501936 0.599894 1.52655E+06 683818)" width="201080" height="171980"/>
   <rect class="fil0" transform="matrix(0.513078 -0.429296 0.501936 0.599894 1.57446E+06 686187)" width="201080" height="171980"/>
   <rect class="fil0" transform="matrix(0.513078 -0.429296 0.501936 0.599894 1.6213E+06 692241)" width="201080" height="171980"/>
  </g>
  <g id="_2540777430960">
   <rect class="fil0" transform="matrix(0.360102 -0.5638 0.659199 0.421033 2.10786E+06 889030)" width="201080" height="171980"/>
   <rect class="fil0" transform="matrix(0.360102 -0.5638 0.659199 0.421033 2.15426E+06 876871)" width="201080" height="171980"/>
   <rect class="fil0" transform="matrix(0.360102 -0.5638 0.659199 0.421033 2.20075E+06 868550)" width="201080" height="171980"/>
  </g>
  <g id="_2540777427440">
   <rect class="fil0" transform="matrix(-0.068787 0.665442 -0.778038 -0.0804261 1.49858E+06 920431)" width="201080" height="171980"/>
   <rect class="fil0" transform="matrix(-0.068787 0.665442 -0.778038 -0.0804261 1.46257E+06 952120)" width="201080" height="171980"/>
   <rect class="fil0" transform="matrix(-0.068787 0.665442 -0.778038 -0.0804261 1.42476E+06 980418)" width="201080" height="171980"/>
  </g>
  <g id="_2540777427856">
   <rect class="fil0" transform="matrix(0.169804 0.647079 -0.756568 0.198536 996270 1.05351E+06)" width="201080" height="171980"/>
   <rect class="fil0" transform="matrix(0.169804 0.647079 -0.756568 0.198536 973717 1.09585E+06)" width="201080" height="171980"/>
   <rect class="fil0" transform="matrix(0.169804 0.647079 -0.756568 0.198536 948285 1.13564E+06)" width="201080" height="171980"/>
  </g>
 </g>
</svg>
