<?xml version="1.0" encoding="UTF-8"?>
<!DOCTYPE svg PUBLIC "-//W3C//DTD SVG 1.1//EN" "http://www.w3.org/Graphics/SVG/1.1/DTD/svg11.dtd">
<!-- Creator: CorelDRAW 2017 -->
<svg xmlns="http://www.w3.org/2000/svg" xml:space="preserve" width="34mm" height="34mm" version="1.1" style="shape-rendering:geometricPrecision; text-rendering:geometricPrecision; image-rendering:optimizeQuality; fill-rule:evenodd; clip-rule:evenodd"
viewBox="0 0 3400000 3400000"
 xmlns:xlink="http://www.w3.org/1999/xlink">
 <defs>
  <style type="text/css">
   <![CDATA[
    .str0 {stroke:#AD4C34;stroke-width:7620;stroke-miterlimit:22.9256}
    .fil0 {fill:#AD4C34}
   ]]>
  </style>
 </defs>
 <g id="Слой_x0020_1">
  <metadata id="CorelCorpID_0Corel-Layer"/>
  <g id="_2540707744400">
   <rect class="fil0 str0" transform="matrix(0.550226 -0.44837 0.434347 0.533018 1.24172E+06 2.08416E+06)" width="205050" height="211670"/>
   <rect class="fil0 str0" transform="matrix(0.694361 -0.14713 0.142528 0.672645 1.56333E+06 2.61106E+06)" width="205050" height="211670"/>
   <rect class="fil0 str0" transform="matrix(0.659818 0.261582 -0.253401 0.639182 2.44067E+06 2.03549E+06)" width="205050" height="211670"/>
   <rect class="fil0 str0" transform="matrix(0.496679 0.507046 -0.491188 0.481145 2.65599E+06 1.46262E+06)" width="205050" height="211670"/>
   <rect class="fil0 str0" transform="matrix(0.606871 0.368093 -0.356581 0.587891 2.104E+06 1.58796E+06)" width="205050" height="211670"/>
   <rect class="fil0 str0" transform="matrix(-0.0803254 0.705218 -0.683162 -0.0778132 1.21488E+06 1.51353E+06)" width="205050" height="211670"/>
   <rect class="fil0 str0" transform="matrix(0.341084 0.622452 -0.602985 0.330416 1.35693E+06 649866)" width="205050" height="211670"/>
   <rect class="fil0 str0" transform="matrix(0.69525 0.142871 -0.138402 0.673506 1.80783E+06 1.1224E+06)" width="205050" height="211670"/>
   <rect class="fil0 str0" transform="matrix(0.189859 0.683914 -0.662525 0.183921 2.29348E+06 684574)" width="205050" height="211670"/>
   <rect class="fil0 str0" transform="matrix(0.647817 0.290031 -0.28096 0.627557 703301 1.6612E+06)" width="205050" height="211670"/>
   <rect class="fil0 str0" transform="matrix(-0.319177 0.633965 -0.614137 -0.309194 1.03636E+06 1.13459E+06)" width="205050" height="211670"/>
   <rect class="fil0 str0" transform="matrix(0.189782 -0.683935 0.662545 0.183847 1.66185E+06 2.19501E+06)" width="205050" height="211670"/>
   <rect class="fil0 str0" transform="matrix(0.597004 0.38389 -0.371884 0.578332 2.36458E+06 1.13757E+06)" width="205050" height="211670"/>
   <rect class="fil0 str0" transform="matrix(0.659136 -0.263296 0.255061 0.638521 1.38565E+06 1.10494E+06)" width="205050" height="211670"/>
   <rect class="fil0 str0" transform="matrix(0.709511 -0.0194635 0.0188548 0.687321 2.04403E+06 2.22082E+06)" width="205050" height="211670"/>
   <rect class="fil0 str0" transform="matrix(0.0861303 -0.704533 0.682499 0.0834365 932646 2.33971E+06)" width="205050" height="211670"/>
   <rect class="fil0 str0" transform="matrix(0.674105 0.222189 -0.21524 0.653022 1.56204E+06 1.59454E+06)" width="205050" height="211670"/>
   <rect class="fil0 str0" transform="matrix(0.70872 -0.0387382 0.0375267 0.686555 1.71917E+06 695323)" width="205050" height="211670"/>
   <rect class="fil0 str0" transform="matrix(0.658986 -0.263671 0.255424 0.638376 2.28328E+06 2.43666E+06)" width="205050" height="211670"/>
   <rect class="fil0 str0" transform="matrix(0.709418 -0.022595 0.0218884 0.687231 1.20481E+06 2.47954E+06)" width="205050" height="211670"/>
  </g>
 </g>
</svg>
