<?xml version="1.0" encoding="UTF-8"?>
<!DOCTYPE svg PUBLIC "-//W3C//DTD SVG 1.1//EN" "http://www.w3.org/Graphics/SVG/1.1/DTD/svg11.dtd">
<!-- Creator: CorelDRAW 2017 -->
<svg xmlns="http://www.w3.org/2000/svg" xml:space="preserve" width="34mm" height="34mm" version="1.1" style="shape-rendering:geometricPrecision; text-rendering:geometricPrecision; image-rendering:optimizeQuality; fill-rule:evenodd; clip-rule:evenodd"
viewBox="0 0 3400000 3400000"
 xmlns:xlink="http://www.w3.org/1999/xlink">
 <defs>
  <style type="text/css">
   <![CDATA[
    .fil0 {fill:#9D9E9E}
    .fil1 {fill:#EBECEC}
   ]]>
  </style>
 </defs>
 <g id="Слой_x0020_1">
  <metadata id="CorelCorpID_0Corel-Layer"/>
  <path class="fil0" d="M2384070 2039070c-6390,6620 -11060,14260 -14020,22380l120 -190 120 -180 110 -190 120 -180 120 -190 130 -180 70 -120 50 -70 120 -180 120 -190 130 -180 120 -180 130 -190 120 -180 100 -140 30 -40 130 -180 120 -190 130 -180 130 -180 130 -180 130 -180 120 -170 10 -10 140 -180 130 -180 130 -180 140 -180 130 -170 140 -180 130 -180 20 -20 120 -160 140 -170 140 -180 270 -350 150 -180 140 -170 40 -60 100 -120 140 -170 140 -170 150 -180 140 -170 150 -170 140 -180 70 -80 80 -90 150 -170 150 -170 150 -170 150 -170 150 -170 150 -170 100 -110 50 -60 150 -170 160 -170 150 -160 150 -170 160 -170 160 -160 120 -140 30 -30 160 -170 160 -160 160 -170 160 -160 160 -160 160 -170 160 -160c24820,-24910 65140,-24980 90050,-150l840 850 310 320 510 550 600 650 210 230 780 890 90 100 670 800 370 440 380 470 620 790 100 130 710 930 160 210 530 730 400 570 270 380 630 930 10 30 630 970 570 910 40 60 430 710 160 280 570 990 50 90 500 920 250 460 290 550 420 840 90 170 490 1030 100 210 380 820 260 600 190 440 410 990 30 50 410 1050 130 340 270 720 260 730 120 330 350 1060 30 70 310 1010 140 470 180 600 250 880 50 200 280 1090 50 190 210 900 140 600 110 490 200 1010 20 80 200 1100 60 330 130 770 110 740 50 370 150 1100 0 50 120 1060 50 460 60 650 70 870 10 240 70 1110 10 180 40 930 20 590 10 530 10 1000 0 110 -10 1120 -10 300 -20 810 -30 720 -20 390 -70 1110 0 20 -90 1090 -30 440 -70 670 -100 850 -30 260 -140 1110 -20 140 -150 960 -90 560 -90 540 -180 970 -30 130 -220 1100 -50 270 -190 820 -160 670 -100 420 -280 1070 0 10 -300 1080 -110 400 -210 680 -250 790 -90 280 -360 1070 -40 110 -340 950 0 -10c15640,-24960 12270,-58290 -9760,-79570 -25300,-24430 -65620,-23720 -90050,1570z"/>
  <path class="fil0" d="M2659040 1810620c-25030,-6280 -50410,8910 -56700,33940 -6280,25030 8910,50410 33940,56700 25030,6280 50410,-8910 56700,-33940 6280,-25030 -8910,-50410 -33940,-56700z"/>
  <path class="fil0" d="M2366400 1882960c-7080,7330 -11280,16380 -12630,25750 2260,-5400 5590,-10460 9980,-14860 18220,-18280 47810,-18330 66080,-120 10870,10840 15300,25700 13260,39810 7260,-17260 3660,-37950 -10620,-51730 -18560,-17930 -48150,-17410 -66070,1150z"/>
  <path class="fil0" d="M2249990 1621140c-11210,23250 -1450,51180 21790,62390 23250,11210 51180,1450 62390,-21790 11210,-23250 1450,-51180 -21790,-62390 -23250,-11210 -51180,-1450 -62390,21790z"/>
  <path class="fil0" d="M2351670 1351070c-7280,15090 -950,33240 14150,40510 15090,7280 33230,950 40510,-14150 7280,-15090 950,-33240 -14150,-40510 -15090,-7280 -33230,-950 -40510,14150z"/>
  <path class="fil0" d="M2716690 1329940c20210,-28790 13250,-68500 -15540,-88700 -28790,-20210 -68500,-13250 -88700,15540 -20210,28790 -13250,68500 15540,88700 28790,20210 68500,13250 88700,-15540z"/>
  <path class="fil0" d="M2357550 902680c14820,-21120 9710,-50270 -11410,-65090 -21120,-14820 -50260,-9720 -65090,11410 -14820,21120 -9710,50260 11410,65080 21120,14830 50260,9720 65090,-11400z"/>
  <path class="fil0" d="M2552390 1538170c9630,-13720 6310,-32640 -7410,-42270 -13720,-9630 -32640,-6310 -42270,7410 -9630,13720 -6310,32640 7410,42270 13720,9630 32640,6310 42270,-7410z"/>
  <path class="fil0" d="M2446810 1041290c14820,-21120 9710,-50260 -11410,-65090 -21120,-14820 -50260,-9710 -65090,11410 -14820,21120 -9710,50260 11410,65090 21120,14820 50260,9710 65090,-11410z"/>
  <path class="fil0" d="M2490620 1149570c-17690,-18780 -47270,-19660 -66050,-1970 -18780,17690 -19660,47270 -1970,66050 17690,18780 47270,19660 66050,1970 18780,-17690 19660,-47270 1970,-66050z"/>
  <path class="fil0" d="M2696020 1652060c-11490,-12200 -30700,-12770 -42900,-1280 -12200,11490 -12770,30700 -1280,42900 11490,12200 30700,12770 42900,1280 12200,-11490 12770,-30700 1280,-42900z"/>
  <path class="fil0" d="M2110940 707560c-2650,25670 16020,48630 41690,51270 25660,2650 48620,-16010 51270,-41680 2650,-25670 -16020,-48620 -41690,-51270 -25660,-2650 -48620,16010 -51270,41680z"/>
  <path class="fil0" d="M2107650 1044660c13600,9800 32560,6720 42370,-6870 9800,-13600 6720,-32560 -6870,-42370 -13600,-9800 -32560,-6720 -42370,6870 -9800,13600 -6720,32560 6870,42370z"/>
  <path class="fil0" d="M1736520 1049550c24610,7780 50860,-5870 58630,-30470 7780,-24610 -5870,-50860 -30470,-58630 -24610,-7780 -50860,5870 -58630,30470 -7780,24610 5870,50860 30470,58630z"/>
  <path class="fil0" d="M1540580 895950c15980,5050 33030,-3810 38080,-19800 5050,-15980 -3820,-33030 -19800,-38080 -15980,-5050 -33030,3820 -38080,19800 -5050,15980 3820,33030 19800,38080z"/>
  <path class="fil0" d="M1525270 612340c-31370,-15880 -69690,-3330 -85570,28050 -15890,31380 -3330,69690 28050,85580 31370,15880 69690,3320 85570,-28050 15890,-31380 3330,-69690 -28050,-85580z"/>
  <path class="fil0" d="M986060 898150c-23020,-11650 -51140,-2440 -62790,20580 -11660,23030 -2440,51140 20580,62800 23020,11650 51130,2440 62790,-20580 11660,-23030 2440,-51140 -20580,-62800z"/>
  <path class="fil0" d="M1754830 745230c-14950,-7570 -33210,-1580 -40780,13370 -7570,14950 -1590,33210 13360,40780 14950,7570 33210,1590 40780,-13360 7570,-14960 1590,-33220 -13360,-40790z"/>
  <path class="fil0" d="M1110510 790020c-23030,-11650 -51140,-2440 -62800,20590 -11650,23020 -2440,51130 20580,62790 23030,11650 51140,2440 62800,-20580 11650,-23030 2440,-51140 -20580,-62800z"/>
  <path class="fil0" d="M1211420 731200c-16060,20190 -12710,49590 7480,65650 20200,16070 49590,12720 65660,-7480 16060,-20190 12710,-49590 -7480,-65650 -20200,-16060 -49590,-12710 -65660,7480z"/>
  <path class="fil0" d="M1894310 687700c-10430,13120 -8260,32210 4860,42640 13110,10440 32210,8260 42640,-4860 10430,-13110 8260,-32200 -4860,-42640 -13110,-10430 -32210,-8250 -42640,4860z"/>
  <path class="fil0" d="M1191260 1126910c24430,-25300 23720,-65620 -1570,-90050 -25300,-24430 -65620,-23720 -90050,1570 -24430,25300 -23720,65620 1570,90050 25300,24430 65620,23720 90050,-1570z"/>
  <path class="fil0" d="M910510 1255850c25030,6280 50420,-8910 56700,-33940 6290,-25030 -8910,-50410 -33940,-56700 -25020,-6280 -50410,8910 -56690,33940 -6290,25030 8910,50410 33930,56700z"/>
  <path class="fil0" d="M1208940 1283020c17930,-18560 17410,-48150 -1150,-66070 -18560,-17930 -48150,-17410 -66070,1150 -17930,18560 -17410,48150 1150,66070 18560,17930 48150,17410 66070,-1150z"/>
  <path class="fil0" d="M1116020 1486050c15270,-31680 1980,-69740 -29700,-85020 -31680,-15270 -69740,-1980 -85020,29700 -15270,31680 -1980,69740 29700,85020 31680,15270 69740,1980 85020,-29700z"/>
  <path class="fil0" d="M1415370 1139310c11210,-23250 1450,-51180 -21790,-62390 -23250,-11210 -51180,-1450 -62390,21790 -11210,23250 -1450,51180 21790,62390 23250,11210 51180,1450 62390,-21790z"/>
  <path class="fil0" d="M567450 1558090c-20210,28790 -13250,68500 15540,88700 28790,20210 68500,13250 88710,-15540 20200,-28790 13240,-68500 -15550,-88700 -28780,-20210 -68500,-13250 -88700,15540z"/>
  <path class="fil0" d="M2149130 1937690c-14820,21120 -9710,50260 11410,65090 21120,14820 50260,9710 65090,-11410 14820,-21120 9710,-50260 -11410,-65090 -21120,-14820 -50260,-9710 -65090,11410z"/>
  <path class="fil0" d="M759600 1405750c-9630,13720 -6310,32640 7410,42270 13710,9630 32640,6310 42270,-7410 9630,-13720 6310,-32640 -7410,-42270 -13720,-9630 -32640,-6310 -42270,7410z"/>
  <path class="fil0" d="M849670 1754540c-14820,21120 -9710,50260 11410,65090 21120,14820 50260,9710 65080,-11410 14830,-21120 9720,-50260 -11400,-65090 -21120,-14820 -50270,-9710 -65090,11410z"/>
  <path class="fil0" d="M805860 1646250c17690,18780 47270,19660 66050,1970 18780,-17690 19660,-47270 1970,-66050 -17700,-18780 -47270,-19660 -66050,-1970 -18780,17690 -19670,47270 -1970,66050z"/>
  <path class="fil0" d="M634040 1297890c17690,18780 47270,19660 66050,1970 18780,-17690 19660,-47270 1970,-66050 -17700,-18780 -47270,-19660 -66050,-1970 -18780,17690 -19670,47270 -1970,66050z"/>
  <path class="fil0" d="M1766870 2444300c-28520,-20570 -68330,-14120 -88890,14410 -20570,28520 -14120,68330 14410,88890 28520,20570 68330,14120 88890,-14410 20570,-28520 14120,-68330 -14410,-88890z"/>
  <path class="fil0" d="M1766950 2796630c2650,-25660 -16020,-48620 -41690,-51270 -25660,-2650 -48620,16020 -51270,41690 -2650,25660 16020,48620 41690,51270 25660,2650 48620,-16020 51270,-41690z"/>
  <path class="fil0" d="M1918860 2404510c-20930,-15090 -50140,-10360 -65230,10570 -15090,20930 -10360,50140 10570,65230 20930,15090 50140,10360 65230,-10570 15090,-20930 10360,-50140 -10570,-65230z"/>
  <path class="fil0" d="M2079300 2128700c-22780,-7200 -46570,-920 -62830,14340 15910,-10970 36600,-14600 56340,-8020 33360,11120 51390,47190 40270,80550 -1350,4040 -3070,7850 -5100,11420 1020,190 2040,410 3060,670 4210,-5600 7560,-11990 9790,-19050 10600,-33540 -8000,-69310 -41530,-79910z"/>
  <path class="fil0" d="M2113670 2228410c-24610,-7780 -50860,5870 -58630,30470 -7780,24610 5870,50860 30470,58630 24610,7780 50860,-5870 58630,-30470 7780,-24610 -5870,-50860 -30470,-58630z"/>
  <path class="fil0" d="M2276600 2542060c-24610,-7780 -50860,5870 -58630,30470 -7780,24610 5870,50860 30470,58630 24610,7780 50860,-5870 58630,-30470 7780,-24610 -5870,-50860 -30470,-58630z"/>
  <path class="fil0" d="M2050060 2553640c31370,15890 69690,3330 85570,-28050 15890,-31370 3330,-69690 -28050,-85570 -31370,-15890 -69690,-3330 -85570,28050 -15890,31370 -3330,69690 28050,85570z"/>
  <path class="fil0" d="M2589270 2267830c23030,11650 51140,2440 62800,-20580 11650,-23030 2440,-51140 -20580,-62800 -23030,-11650 -51140,-2440 -62800,20580 -11650,23030 -2440,51140 20580,62800z"/>
  <path class="fil0" d="M2279260 2263640c14950,7570 33210,1590 40780,-13360 7570,-14950 1590,-33210 -13360,-40780 -14950,-7570 -33210,-1590 -40780,13360 -7570,14950 -1590,33210 13360,40780z"/>
  <path class="fil0" d="M2464820 2375960c23030,11650 51140,2440 62800,-20580 11650,-23030 2440,-51140 -20580,-62800 -23030,-11650 -51140,-2440 -62800,20580 -11650,23030 -2440,51140 20580,62800z"/>
  <path class="fil0" d="M2363910 2434780c16060,-20200 12710,-49590 -7480,-65660 -20200,-16060 -49590,-12710 -65660,7480 -16060,20200 -12710,49590 7480,65660 20200,16060 49590,12710 65660,-7480z"/>
  <path class="fil0" d="M1950870 2648010c10430,-13110 8260,-32210 -4860,-42640 -13110,-10430 -32210,-8260 -42640,4860 -10430,13110 -8260,32210 4860,42640 13110,10430 32210,8260 42640,-4860z"/>
  <path class="fil0" d="M2472080 1784640c31370,15890 69690,3330 85570,-28050 15890,-31370 3330,-69690 -28050,-85570 -31370,-15890 -69690,-3330 -85570,28050 -15890,31370 -3330,69690 28050,85570z"/>
  <path class="fil0" d="M2013630 885220c9630,-13720 6310,-32650 -7410,-42280 -13720,-9620 -32640,-6310 -42270,7410 -9630,13720 -6310,32650 7410,42280 13720,9620 32640,6310 42270,-7410z"/>
  <path class="fil0" d="M1577470 1517960c24430,-25300 23720,-65620 -1570,-90050 -25300,-24430 -65620,-23720 -90050,1570 -24430,25300 -23720,65620 1570,90050 25300,24430 65620,23720 90050,-1570z"/>
  <path class="fil0" d="M619920 1891880c25020,6280 50410,-8910 56690,-33940 6290,-25030 -8910,-50410 -33930,-56700 -25030,-6280 -50420,8910 -56700,33940 -6290,25030 8910,50410 33940,56700z"/>
  <path class="fil0" d="M1595140 1674070c17930,-18560 17410,-48150 -1150,-66070 -18560,-17930 -48150,-17410 -66070,1150 -17930,18560 -17410,48150 1150,66070 18560,17930 48150,17410 66070,-1150z"/>
  <path class="fil0" d="M1757160 1748490c11210,-23250 1450,-51180 -21790,-62390 -23250,-11210 -51180,-1450 -62390,21790 -11210,23250 -1450,51180 21790,62390 23250,11210 51180,1450 62390,-21790z"/>
  <path class="fil0" d="M1848240 2326280c14820,-21120 9710,-50260 -11410,-65090 -21120,-14820 -50260,-9710 -65090,11410 -14820,21120 -9710,50260 11410,65090 21120,14820 50260,9710 65090,-11410z"/>
  <path class="fil0" d="M1950050 1826570c-28520,-20570 -68330,-14120 -88890,14410 -20570,28520 -14120,68330 14410,88890 28520,20570 68330,14120 88890,-14410 20570,-28520 14120,-68330 -14410,-88890z"/>
  <path class="fil0" d="M1936690 1239310c-2650,25660 16020,48620 41690,51270 25660,2650 48620,-16020 51270,-41690 2650,-25660 -16020,-48620 -41690,-51270 -25660,-2650 -48620,16020 -51270,41690z"/>
  <path class="fil0" d="M2102040 1786780c-20930,-15090 -50140,-10360 -65230,10570 -15090,20930 -10360,50140 10570,65230 20930,15090 50140,10360 65230,-10570 15090,-20930 10360,-50140 -10570,-65230z"/>
  <path class="fil0" d="M2105390 1516050c33540,10600 69310,-8000 79910,-41530 10600,-33540 -8000,-69310 -41530,-79910 -33540,-10600 -69310,8000 -79910,41530 -10600,33540 8000,69310 41530,79910z"/>
  <path class="fil0" d="M1383070 1363940c15980,5050 33030,-3820 38080,-19800 5050,-15980 -3820,-33030 -19800,-38080 -15980,-5050 -33030,3820 -38080,19800 -5050,15980 3820,33030 19800,38080z"/>
  <path class="fil0" d="M1596070 1131410c-31370,-15890 -69690,-3330 -85570,28050 -15890,31370 -3330,69690 28050,85570 31370,15890 69690,3330 85570,-28050 15890,-31370 3330,-69690 -28050,-85570z"/>
  <path class="fil0" d="M1114370 1768110c-23030,-11650 -51140,-2440 -62800,20580 -11650,23030 -2440,51140 20580,62800 23030,11650 51140,2440 62800,-20580 11650,-23030 2440,-51140 -20580,-62800z"/>
  <path class="fil0" d="M1946390 1539340c-14950,-7570 -33210,-1590 -40780,13360 -7570,14950 -1590,33210 13360,40780 14950,7570 33210,1590 40780,-13360 7570,-14950 1590,-33210 -13360,-40780z"/>
  <path class="fil0" d="M1238820 1659980c-23030,-11650 -51140,-2440 -62800,20580 -11650,23030 -2440,51140 20580,62800 23030,11650 51140,2440 62800,-20580 11650,-23030 2440,-51140 -20580,-62800z"/>
  <path class="fil0" d="M1339730 1601160c-16060,20200 -12710,49590 7480,65660 20200,16060 49590,12710 65660,-7480 16060,-20200 12710,-49590 -7480,-65660 -20200,-16060 -49590,-12710 -65660,7480z"/>
  <path class="fil0" d="M1700250 1313410c-16060,20200 -12710,49590 7480,65660 20200,16060 49590,12710 65660,-7480 16060,-20200 12710,-49590 -7480,-65660 -20200,-16060 -49590,-12710 -65660,7480z"/>
  <path class="fil0" d="M1804500 2012370c-31370,-15890 -69690,-3330 -85570,28050 -15890,31370 -3330,69690 28050,85570 31370,15890 69690,3330 85570,-28050 15890,-31370 3330,-69690 -28050,-85570z"/>
  <path class="fil0" d="M2764000 1994470c-24610,-7780 -50860,5870 -58630,30470 -7780,24610 5870,50860 30470,58630 24610,7780 50860,-5870 58630,-30470 7780,-24610 -5870,-50860 -30470,-58630z"/>
  <path class="fil0" d="M1480740 2792270c31370,15890 69690,3330 85570,-28050 15890,-31370 3330,-69690 -28050,-85570 -31370,-15890 -69690,-3330 -85570,28050 -15890,31370 -3330,69690 28050,85570z"/>
  <path class="fil0" d="M1298070 2795010c23030,11650 51140,2440 62800,-20580 11650,-23030 2440,-51140 -20580,-62800 -23030,-11650 -51140,-2440 -62800,20580 -11650,23030 -2440,51140 20580,62800z"/>
  <path class="fil0" d="M834210 2372070c-9580,-33840 10090,-69040 43930,-78620 33830,-9580 69030,10090 78610,43920 9580,33840 -10080,69040 -43920,78620 -33840,9580 -69040,-10090 -78620,-43920z"/>
  <path class="fil0" d="M1240650 2525000c-25030,-6280 -50410,8910 -56700,33940 -6280,25030 8910,50410 33940,56700 25030,6280 50410,-8910 56700,-33940 6280,-25030 -8910,-50410 -33940,-56700z"/>
  <path class="fil0" d="M958990 2555070c17920,-18560 17410,-48150 -1160,-66070 -18560,-17930 -48140,-17410 -66070,1150 -17920,18560 -17410,48150 1160,66070 18560,17930 48140,17410 66070,-1150z"/>
  <path class="fil0" d="M1138750 2275010c-11210,23250 -1450,51180 21790,62390 23250,11210 51180,1450 62390,-21790 11210,-23250 1450,-51180 -21790,-62390 -23250,-11210 -51180,-1450 -62390,21790z"/>
  <path class="fil0" d="M1012890 2605800c-11210,23250 -1450,51180 21790,62390 23250,11210 51180,1450 62390,-21790 11210,-23250 1450,-51180 -21790,-62390 -23250,-11210 -51180,-1450 -62390,21790z"/>
  <path class="fil0" d="M1583720 2222760c20210,-28790 13250,-68500 -15540,-88700 -28790,-20210 -68500,-13250 -88700,15540 -20210,28790 -13250,68500 15540,88700 28790,20210 68500,13250 88700,-15540z"/>
  <path class="fil0" d="M1389310 1850330c9630,-13720 6310,-32640 -7410,-42270 -13720,-9630 -32640,-6310 -42270,7410 -9630,13720 -6310,32640 7410,42270 13720,9630 32640,6310 42270,-7410z"/>
  <path class="fil0" d="M1301500 2026320c14820,-21120 9710,-50260 -11410,-65090 -21120,-14820 -50260,-9710 -65090,11410 -14820,21120 -9710,50260 11410,65090 21120,14820 50260,9710 65090,-11410z"/>
  <path class="fil0" d="M1345310 2134600c-17690,-18780 -47270,-19660 -66050,-1970 -18780,17690 -19660,47270 -1970,66050 17690,18780 47270,19660 66050,1970 18780,-17690 19660,-47270 1970,-66050z"/>
  <path class="fil0" d="M1535800 2408220c-17690,-18780 -47270,-19660 -66050,-1970 -18780,17690 -19660,47270 -1970,66050 17690,18780 47270,19660 66050,1970 18780,-17690 19660,-47270 1970,-66050z"/>
  <path class="fil0" d="M1570840 1864170c-25030,-6280 -50410,8910 -56700,33940 -6280,25030 8910,50410 33940,56700 25030,6280 50410,-8910 56700,-33940 6280,-25030 -8910,-50410 -33940,-56700z"/>
  <path class="fil0" d="M696910 1988510c-24600,-7780 -50850,5870 -58630,30470 -7770,24610 5870,50860 30480,58630 24600,7780 50850,-5870 58630,-30470 7770,-24610 -5870,-50860 -30480,-58630z"/>
  <path class="fil0" d="M1036800 2012740c23030,11650 51140,2440 62800,-20580 11650,-23030 2440,-51140 -20580,-62800 -23030,-11650 -51140,-2440 -62800,20580 -11650,23030 -2440,51140 20580,62800z"/>
  <path class="fil0" d="M916850 2183260c21890,-27520 17330,-67580 -10200,-89480 -27520,-21890 -67580,-17320 -89470,10200 -21900,27520 -17330,67580 10190,89480 27520,21890 67590,17320 89480,-10200z"/>
  <path class="fil0" d="M751700 2318510c9630,-13720 6310,-32640 -7410,-42270 -13710,-9630 -32640,-6310 -42270,7410 -9630,13720 -6310,32640 7410,42270 13720,9630 32640,6310 42270,-7410z"/>
  <path class="fil0" d="M762520 1037200c-15980,-5050 -33030,3820 -38080,19800 -5050,15980 3810,33030 19790,38080 15980,5050 33030,-3820 38080,-19800 5050,-15980 -3810,-33030 -19790,-38080z"/>
  <path class="fil1" d="M2378980 2050220c-24830,24910 -24760,65230 150,90050 24910,24830 65230,24760 90050,-150 24830,-24910 24760,-65230 -150,-90050 -24910,-24830 -65230,-24760 -90050,150z"/>
  <path class="fil1" d="M2657500 1826120c-24920,-6680 -50540,8110 -57220,33040 -6680,24920 8110,50540 33040,57220 24920,6680 50540,-8110 57220,-33040 6680,-24920 -8110,-50540 -33040,-57220z"/>
  <path class="fil1" d="M2363750 1893850c-18210,18270 -18160,47860 120,66080 18270,18210 47860,18160 66080,-120 18210,-18270 18160,-47860 -120,-66080 -18270,-18210 -47860,-18160 -66080,120z"/>
  <path class="fil1" d="M2251500 1630220c-11580,23070 -2260,51150 20800,62720 23070,11580 51150,2260 62720,-20800 11580,-23070 2260,-51150 -20800,-62720 -23070,-11580 -51150,-2260 -62720,20800z"/>
  <path class="fil1" d="M2357420 1361780c-7520,14980 -1470,33220 13510,40730 14980,7520 33220,1470 40730,-13510 7520,-14980 1470,-33220 -13510,-40730 -14980,-7520 -33220,-1470 -40730,13510z"/>
  <path class="fil1" d="M2722730 1346420c20650,-28470 14320,-68290 -14140,-88940 -28470,-20660 -68290,-14320 -88940,14140 -20650,28470 -14320,68290 14140,88940 28470,20660 68290,14320 88940,-14140z"/>
  <path class="fil1" d="M2370360 913540c15150,-20890 10510,-50100 -10380,-65260 -20890,-15150 -50100,-10510 -65260,10380 -15150,20890 -10510,50100 10380,65260 20890,15150 50100,10510 65260,-10380z"/>
  <path class="fil1" d="M2555160 1552030c9840,-13560 6830,-32540 -6740,-42380 -13560,-9840 -32540,-6830 -42380,6740 -9840,13560 -6830,32540 6740,42380 13560,9840 32540,6830 42380,-6740z"/>
  <path class="fil1" d="M2457420 1053540c15150,-20890 10510,-50100 -10380,-65260 -20890,-15150 -50100,-10510 -65260,10380 -15150,20890 -10510,50100 10380,65260 20890,15150 50100,10510 65260,-10380z"/>
  <path class="fil1" d="M2499520 1162500c-17400,-19060 -46950,-20410 -66010,-3010 -19060,17400 -20410,46950 -3010,66010 17400,19060 46950,20410 66010,3010 19060,-17400 20410,-46950 3010,-66010z"/>
  <path class="fil1" d="M2696970 1668160c-11290,-12380 -30490,-13250 -42870,-1950 -12380,11290 -13250,30490 -1950,42870 11290,12380 30490,13250 42870,1950 12380,-11290 13250,-30490 1950,-42870z"/>
  <path class="fil1" d="M2126850 714560c-3050,25630 15250,48870 40870,51930 25630,3050 48880,-15250 51930,-40880 3050,-25620 -15250,-48870 -40870,-51920 -25630,-3050 -48880,15250 -51930,40870z"/>
  <path class="fil1" d="M2118260 1051560c13430,10020 32450,7240 42460,-6200 10020,-13430 7240,-32450 -6200,-42460 -13430,-10020 -32450,-7240 -42460,6200 -10020,13430 -7240,32450 6200,42460z"/>
  <path class="fil1" d="M1747090 1050620c24480,8160 50940,-5070 59110,-29550 8160,-24480 -5070,-50940 -29550,-59110 -24480,-8160 -50940,5070 -59110,29550 -8160,24480 5070,50940 29550,59110z"/>
  <path class="fil1" d="M1553600 893940c15900,5300 33090,-3300 38390,-19190 5300,-15900 -3290,-33090 -19190,-38390 -15900,-5300 -33090,3290 -38390,19190 -5300,15900 3290,33080 19190,38390z"/>
  <path class="fil1" d="M1542770 610120c-31130,-16380 -69640,-4420 -86010,26700 -16380,31120 -4430,69630 26690,86010 31130,16380 69640,4420 86010,-26700 16380,-31120 4430,-69630 -26690,-86010z"/>
  <path class="fil1" d="M999110 887400c-22830,-12020 -51090,-3250 -63110,19590 -12010,22840 -3240,51090 19590,63110 22840,12020 51090,3250 63110,-19590 12020,-22840 3250,-51090 -19590,-63110z"/>
  <path class="fil1" d="M1770200 746620c-14830,-7810 -33180,-2110 -40990,12720 -7800,14830 -2100,33180 12730,40990 14830,7800 33180,2110 40990,-12720 7800,-14840 2100,-33190 -12730,-40990z"/>
  <path class="fil1" d="M1125250 781250c-22840,-12020 -51090,-3250 -63110,19590 -12020,22830 -3250,51090 19590,63100 22840,12020 51090,3250 63110,-19580 12020,-22840 3250,-51100 -19590,-63110z"/>
  <path class="fil1" d="M1227090 724020c-16380,19940 -13500,49380 6440,65760 19940,16380 49380,13500 65760,-6440 16380,-19940 13500,-49380 -6440,-65760 -19940,-16380 -49380,-13500 -65760,6440z"/>
  <path class="fil1" d="M1910560 691290c-10640,12950 -8760,32070 4190,42710 12950,10640 32070,8770 42710,-4180 10640,-12950 8760,-32080 -4190,-42720 -12950,-10630 -32070,-8760 -42710,4190z"/>
  <path class="fil1" d="M1200680 1119360c24830,-24910 24760,-65230 -150,-90050 -24910,-24830 -65230,-24760 -90050,150 -24830,24910 -24760,65230 150,90050 24910,24830 65230,24760 90050,-150z"/>
  <path class="fil1" d="M917940 1243860c24920,6680 50550,-8110 57220,-33040 6680,-24920 -8110,-50540 -33030,-57220 -24930,-6680 -50550,8110 -57230,33040 -6680,24920 8110,50540 33040,57220z"/>
  <path class="fil1" d="M1215900 1275730c18210,-18270 18160,-47860 -120,-66080 -18270,-18210 -47860,-18160 -66080,120 -18210,18270 -18160,47860 120,66080 18270,18210 47860,18160 66080,-120z"/>
  <path class="fil1" d="M1119790 1477270c15770,-31430 3070,-69700 -28360,-85480 -31430,-15770 -69700,-3070 -85480,28360 -15770,31430 -3070,69700 28360,85480 31430,15770 69700,3070 85480,-28360z"/>
  <path class="fil1" d="M1424560 1135290c11580,-23070 2260,-51150 -20800,-62720 -23070,-11580 -51150,-2260 -62720,20800 -11580,23070 -2260,51150 20800,62720 23070,11580 51150,2260 62720,-20800z"/>
  <path class="fil1" d="M570150 1540660c-20650,28470 -14320,68290 14140,88940 28470,20660 68290,14320 88940,-14140 20660,-28470 14320,-68290 -14140,-88940 -28460,-20660 -68290,-14320 -88940,14140z"/>
  <path class="fil1" d="M2145660 1945140c-15150,20890 -10510,50100 10380,65260 20890,15150 50100,10510 65260,-10380 15150,-20890 10510,-50100 -10380,-65260 -20890,-15150 -50100,-10510 -65260,10380z"/>
  <path class="fil1" d="M764680 1391370c-9840,13560 -6820,32540 6740,42380 13570,9840 32540,6830 42390,-6740 9840,-13560 6820,-32540 -6750,-42380 -13560,-9840 -32540,-6830 -42380,6740z"/>
  <path class="fil1" d="M849250 1741530c-15160,20890 -10510,50100 10370,65260 20890,15150 50110,10510 65260,-10380 15160,-20890 10510,-50100 -10380,-65260 -20880,-15150 -50100,-10510 -65250,10380z"/>
  <path class="fil1" d="M807140 1632570c17400,19060 46960,20410 66010,3010 19060,-17400 20410,-46950 3010,-66010 -17390,-19060 -46950,-20410 -66010,-3010 -19050,17400 -20400,46950 -3010,66010z"/>
  <path class="fil1" d="M640840 1281540c17390,19060 46950,20410 66010,3010 19050,-17400 20400,-46950 3010,-66010 -17400,-19060 -46960,-20410 -66010,-3010 -19060,17400 -20410,46950 -3010,66010z"/>
  <path class="fil1" d="M1755460 2445650c-28200,-21020 -68100,-15190 -89110,13010 -21020,28200 -15190,68100 13010,89110 28200,21020 68100,15190 89110,-13010 21020,-28200 15190,-68100 -13010,-89110z"/>
  <path class="fil1" d="M1749990 2797960c3050,-25630 -15250,-48880 -40870,-51930 -25630,-3050 -48880,15250 -51930,40870 -3050,25630 15250,48880 40870,51930 25630,3050 48880,-15250 51930,-40870z"/>
  <path class="fil1" d="M1908050 2408260c-20690,-15410 -49970,-11140 -65390,9550 -15410,20690 -11140,49970 9550,65390 20690,15410 49970,11140 65390,-9550 15410,-20690 11140,-49970 -9550,-65390z"/>
  <path class="fil1" d="M2072810 2135020c-33360,-11120 -69430,6910 -80550,40270 -11120,33360 6910,69430 40270,80550 33360,11120 69430,-6910 80550,-40270 11120,-33360 -6910,-69430 -40270,-80550z"/>
  <path class="fil1" d="M2105620 2235260c-24480,-8160 -50940,5070 -59110,29550 -8160,24480 5070,50940 29550,59110 24480,8160 50940,-5070 59110,-29550 8160,-24480 -5070,-50940 -29550,-59110z"/>
  <path class="fil1" d="M2263590 2551440c-24480,-8160 -50940,5070 -59110,29550 -8160,24480 5070,50940 29550,59110 24480,8160 50940,-5070 59110,-29550 8160,-24480 -5070,-50940 -29550,-59110z"/>
  <path class="fil1" d="M2036880 2559450c31130,16380 69640,4430 86010,-26690 16380,-31130 4430,-69640 -26690,-86010 -31130,-16380 -69640,-4430 -86010,26690 -16380,31130 -4430,69640 26690,86010z"/>
  <path class="fil1" d="M2580540 2282170c22840,12020 51090,3250 63110,-19590 12020,-22840 3250,-51090 -19590,-63110 -22840,-12020 -51090,-3250 -63110,19590 -12020,22840 -3250,51090 19590,63110z"/>
  <path class="fil1" d="M2270640 2273110c14830,7800 33180,2100 40990,-12730 7800,-14830 2100,-33180 -12730,-40990 -14830,-7800 -33180,-2100 -40990,12730 -7800,14830 -2100,33180 12730,40990z"/>
  <path class="fil1" d="M2454410 2388330c22840,12020 51090,3250 63110,-19590 12020,-22840 3250,-51090 -19590,-63110 -22840,-12020 -51090,-3250 -63110,19590 -12020,22840 -3250,51090 19590,63110z"/>
  <path class="fil1" d="M2352570 2445550c16380,-19940 13500,-49380 -6440,-65760 -19940,-16380 -49380,-13500 -65760,6440 -16380,19940 -13500,49380 6440,65760 19940,16380 49380,13500 65760,-6440z"/>
  <path class="fil1" d="M1936230 2652250c10640,-12950 8760,-32070 -4190,-42710 -12950,-10640 -32070,-8760 -42710,4190 -10640,12950 -8760,32070 4190,42710 12950,10640 32070,8760 42710,-4190z"/>
  <path class="fil1" d="M2470970 1797200c31130,16380 69640,4430 86010,-26690 16380,-31130 4430,-69640 -26690,-86010 -31130,-16380 -69640,-4430 -86010,26690 -16380,31130 -4430,69640 26690,86010z"/>
  <path class="fil1" d="M2026760 890660c9840,-13560 6830,-32540 -6740,-42380 -13560,-9840 -32540,-6830 -42380,6740 -9840,13560 -6830,32540 6740,42380 13560,9840 32540,6830 42380,-6740z"/>
  <path class="fil1" d="M1580670 1516450c24830,-24910 24760,-65230 -150,-90050 -24910,-24830 -65230,-24760 -90050,150 -24830,24910 -24760,65230 150,90050 24910,24830 65230,24760 90050,-150z"/>
  <path class="fil1" d="M617350 1875230c24930,6680 50550,-8110 57230,-33040 6680,-24920 -8110,-50540 -33040,-57220 -24920,-6680 -50550,8110 -57230,33040 -6670,24920 8120,50540 33040,57220z"/>
  <path class="fil1" d="M1595900 1672820c18210,-18270 18160,-47860 -120,-66080 -18270,-18210 -47860,-18160 -66080,120 -18210,18270 -18160,47860 120,66080 18270,18210 47860,18160 66080,-120z"/>
  <path class="fil1" d="M1756710 1749790c11580,-23070 2260,-51150 -20800,-62720 -23070,-11580 -51150,-2260 -62720,20800 -11580,23070 -2260,51150 20800,62720 23070,11580 51150,2260 62720,-20800z"/>
  <path class="fil1" d="M1838670 2328940c15150,-20890 10510,-50100 -10380,-65260 -20890,-15150 -50100,-10510 -65260,10380 -15150,20890 -10510,50100 10380,65260 20890,15150 50100,10510 65260,-10380z"/>
  <path class="fil1" d="M1948350 1830890c-28200,-21020 -68100,-15190 -89110,13010 -21020,28200 -15190,68100 13010,89110 28200,21020 68100,15190 89110,-13010 21020,-28200 15190,-68100 -13010,-89110z"/>
  <path class="fil1" d="M1944250 1243490c-3050,25630 15250,48880 40870,51930 25630,3050 48880,-15250 51930,-40870 3050,-25630 -15250,-48880 -40870,-51930 -25630,-3050 -48880,15250 -51930,40870z"/>
  <path class="fil1" d="M2100950 1793500c-20690,-15410 -49970,-11140 -65390,9550 -15410,20690 -11140,49970 9550,65390 20690,15410 49970,11140 65390,-9550 15410,-20690 11140,-49970 -9550,-65390z"/>
  <path class="fil1" d="M2108570 1522860c33360,11120 69430,-6910 80550,-40270 11120,-33360 -6910,-69430 -40270,-80550 -33360,-11120 -69430,6910 -80550,40270 -11120,33360 6910,69430 40270,80550z"/>
  <path class="fil1" d="M1388730 1359390c15900,5300 33090,-3290 38390,-19190 5300,-15900 -3290,-33090 -19190,-38390 -15900,-5300 -33090,3290 -38390,19190 -5300,15900 3290,33090 19190,38390z"/>
  <path class="fil1" d="M1605380 1130240c-31130,-16380 -69640,-4430 -86010,26690 -16380,31130 -4430,69640 26690,86010 31130,16380 69640,4430 86010,-26690 16380,-31130 4430,-69640 -26690,-86010z"/>
  <path class="fil1" d="M1113690 1759270c-22840,-12020 -51090,-3250 -63110,19590 -12020,22840 -3250,51090 19590,63110 22840,12020 51090,3250 63110,-19590 12020,-22840 3250,-51090 -19590,-63110z"/>
  <path class="fil1" d="M1949210 1543630c-14830,-7800 -33180,-2100 -40990,12730 -7800,14830 -2100,33180 12730,40990 14830,7800 33180,2100 40990,-12730 7800,-14830 2100,-33180 -12730,-40990z"/>
  <path class="fil1" d="M1239830 1653120c-22840,-12020 -51090,-3250 -63110,19590 -12020,22840 -3250,51090 19590,63110 22840,12020 51090,3250 63110,-19590 12020,-22840 3250,-51090 -19590,-63110z"/>
  <path class="fil1" d="M1341660 1595890c-16380,19940 -13500,49380 6440,65760 19940,16380 49380,13500 65760,-6440 16380,-19940 13500,-49380 -6440,-65760 -19940,-16380 -49380,-13500 -65760,6440z"/>
  <path class="fil1" d="M1706670 1313860c-16380,19940 -13500,49380 6440,65760 19940,16380 49380,13500 65760,-6440 16380,-19940 13500,-49380 -6440,-65760 -19940,-16380 -49380,-13500 -65760,6440z"/>
  <path class="fil1" d="M1799900 2014380c-31130,-16380 -69640,-4430 -86010,26690 -16380,31130 -4430,69640 26690,86010 31130,16380 69640,4430 86010,-26690 16380,-31130 4430,-69640 -26690,-86010z"/>
  <path class="fil1" d="M2759560 2011600c-24480,-8160 -50940,5070 -59110,29550 -8160,24480 5070,50940 29550,59110 24480,8160 50940,-5070 59110,-29550 8160,-24480 -5070,-50940 -29550,-59110z"/>
  <path class="fil1" d="M1463870 2789080c31130,16380 69640,4430 86010,-26690 16380,-31130 4430,-69640 -26690,-86010 -31130,-16380 -69640,-4430 -86010,26690 -16380,31130 -4430,69640 26690,86010z"/>
  <path class="fil1" d="M1281190 2788930c22840,12020 51090,3250 63110,-19590 12020,-22840 3250,-51090 -19590,-63110 -22840,-12020 -51090,-3250 -63110,19590 -12020,22840 -3250,51090 19590,63110z"/>
  <path class="fil1" d="M824050 2358730c-9040,-33990 11180,-68870 45160,-77920 33990,-9040 68870,11180 77920,45160 9040,33990 -11180,68870 -45160,77920 -33990,9040 -68870,-11180 -77920,-45160z"/>
  <path class="fil1" d="M1228030 2518070c-24920,-6680 -50540,8110 -57220,33040 -6680,24920 8110,50540 33040,57220 24920,6680 50540,-8110 57220,-33040 6680,-24920 -8110,-50540 -33040,-57220z"/>
  <path class="fil1" d="M945930 2543680c18220,-18270 18160,-47860 -110,-66080 -18280,-18210 -47870,-18160 -66080,120 -18220,18270 -18170,47860 110,66080 18280,18210 47860,18160 66080,-120z"/>
  <path class="fil1" d="M1130090 2266490c-11580,23070 -2260,51150 20800,62720 23070,11580 51150,2260 62720,-20800 11580,-23070 2260,-51150 -20800,-62720 -23070,-11580 -51150,-2260 -62720,20800z"/>
  <path class="fil1" d="M999030 2595250c-11580,23070 -2260,51150 20800,62720 23070,11580 51150,2260 62720,-20800 11580,-23070 2260,-51150 -20800,-62720 -23070,-11580 -51150,-2260 -62720,20800z"/>
  <path class="fil1" d="M1575820 2221270c20650,-28470 14320,-68290 -14140,-88940 -28470,-20660 -68290,-14320 -88940,14140 -20650,28470 -14320,68290 14140,88940 28470,20660 68290,14320 88940,-14140z"/>
  <path class="fil1" d="M1387300 1845810c9840,-13560 6830,-32540 -6740,-42380 -13560,-9840 -32540,-6830 -42380,6740 -9840,13560 -6830,32540 6740,42380 13560,9840 32540,6830 42380,-6740z"/>
  <path class="fil1" d="M1296730 2020400c15150,-20890 10510,-50100 -10380,-65260 -20890,-15150 -50100,-10510 -65260,10380 -15150,20890 -10510,50100 10380,65260 20890,15150 50100,10510 65260,-10380z"/>
  <path class="fil1" d="M1338830 2129360c-17400,-19060 -46950,-20410 -66010,-3010 -19060,17400 -20410,46950 -3010,66010 17400,19060 46950,20410 66010,3010 19060,-17400 20410,-46950 3010,-66010z"/>
  <path class="fil1" d="M1524980 2405940c-17400,-19060 -46950,-20410 -66010,-3010 -19060,17400 -20410,46950 -3010,66010 17400,19060 46950,20410 66010,3010 19060,-17400 20410,-46950 3010,-66010z"/>
  <path class="fil1" d="M1568600 1862510c-24920,-6680 -50540,8110 -57220,33040 -6680,24920 8110,50540 33040,57220 24920,6680 50540,-8110 57220,-33040 6680,-24920 -8110,-50540 -33040,-57220z"/>
  <path class="fil1" d="M692820 1973050c-24480,-8160 -50940,5070 -59110,29550 -8160,24480 5070,50940 29550,59110 24480,8160 50940,-5070 59110,-29550 8160,-24480 -5070,-50940 -29550,-59110z"/>
  <path class="fil1" d="M1032280 2002650c22840,12020 51090,3250 63110,-19590 12020,-22840 3250,-51090 -19590,-63110 -22840,-12020 -51090,-3250 -63110,19590 -12020,22840 -3250,51090 19590,63110z"/>
  <path class="fil1" d="M909660 2171260c22320,-27170 18390,-67300 -8790,-89630 -27170,-22320 -67300,-18390 -89620,8790 -22330,27170 -18390,67300 8780,89630 27170,22320 67300,18390 89630,-8790z"/>
  <path class="fil1" d="M742400 2303890c9840,-13560 6820,-32540 -6740,-42380 -13570,-9840 -32540,-6830 -42390,6740 -9840,13560 -6820,32540 6750,42380 13560,9840 32540,6830 42380,-6740z"/>
  <path class="fil1" d="M773410 1022910c-15900,-5300 -33090,3290 -38390,19190 -5300,15900 3290,33090 19190,38390 15900,5300 33090,-3290 38390,-19190 5300,-15900 -3290,-33090 -19190,-38390z"/>
 </g>
</svg>
