<?xml version="1.0" encoding="UTF-8"?>
<!DOCTYPE svg PUBLIC "-//W3C//DTD SVG 1.1//EN" "http://www.w3.org/Graphics/SVG/1.1/DTD/svg11.dtd">
<!-- Creator: CorelDRAW 2017 -->
<svg xmlns="http://www.w3.org/2000/svg" xml:space="preserve" width="34mm" height="34mm" version="1.1" style="shape-rendering:geometricPrecision; text-rendering:geometricPrecision; image-rendering:optimizeQuality; fill-rule:evenodd; clip-rule:evenodd"
viewBox="0 0 3400000 3400000"
 xmlns:xlink="http://www.w3.org/1999/xlink">
 <defs>
  <style type="text/css">
   <![CDATA[
    .str0 {stroke:#F9C34F;stroke-width:20000;stroke-miterlimit:22.9256}
    .fil0 {fill:#F9C34F}
   ]]>
  </style>
 </defs>
 <g id="Слой_x0020_1">
  <metadata id="CorelCorpID_0Corel-Layer"/>
  <g id="_2540702213712">
   <ellipse class="fil0 str0" transform="matrix(0.202079 -0.351383 0.314938 0.18112 1.50636E+06 2.50774E+06)" rx="157100" ry="175280"/>
   <circle class="fil0 str0" cx="1779925" cy="2663575" r="46725"/>
   <ellipse class="fil0 str0" transform="matrix(0.0963011 -0.167452 0.150084 0.0863127 1.60425E+06 2.48674E+06)" rx="157100" ry="175280"/>
   <ellipse class="fil0 str0" transform="matrix(0.148275 -0.257826 0.231085 0.132896 1.66191E+06 2.43787E+06)" rx="157100" ry="175280"/>
   <ellipse class="fil0 str0" transform="matrix(0.0818361 -0.397 0.355823 0.0733481 1.8535E+06 2.18741E+06)" rx="157100" ry="175280"/>
   <ellipse class="fil0 str0" transform="matrix(0.060047 -0.291297 0.261084 0.0538189 1.90135E+06 2.26646E+06)" rx="157100" ry="175280"/>
   <ellipse class="fil0 str0" transform="matrix(0.038999 -0.189191 0.169568 0.0349541 2.19137E+06 2.28325E+06)" rx="157100" ry="175280"/>
   <ellipse class="fil0 str0" transform="matrix(0.060047 -0.291297 0.261084 0.0538189 2.23082E+06 2.21878E+06)" rx="157100" ry="175280"/>
   <ellipse class="fil0 str0" transform="matrix(-0.145023 0.378516 -0.339256 -0.129982 2.32968E+06 2.54296E+06)" rx="157100" ry="175280"/>
   <ellipse class="fil0 str0" transform="matrix(-0.106411 0.277735 -0.248928 -0.0953737 2.65053E+06 2.10639E+06)" rx="157100" ry="175280"/>
   <ellipse class="fil0 str0" transform="matrix(-0.0691111 0.180382 -0.161673 -0.0619429 2.07577E+06 2.46544E+06)" rx="157100" ry="175280"/>
   <ellipse class="fil0 str0" transform="matrix(-0.106411 0.277735 -0.248928 -0.0953737 2.53784E+06 2.22672E+06)" rx="157100" ry="175280"/>
   <ellipse class="fil0 str0" transform="matrix(0.341442 0.218456 -0.195798 0.306028 2.47835E+06 2.29764E+06)" rx="157100" ry="175280"/>
   <ellipse class="fil0 str0" transform="matrix(0.250532 0.160292 -0.143666 0.224547 2.38741E+06 2.31404E+06)" rx="157100" ry="175280"/>
   <ellipse class="fil0 str0" transform="matrix(0.162715 0.104106 -0.0933077 0.145838 1.96388E+06 2.64447E+06)" rx="157100" ry="175280"/>
   <ellipse class="fil0 str0" transform="matrix(0.250532 0.160292 -0.143666 0.224547 2.00997E+06 2.70437E+06)" rx="157100" ry="175280"/>
   <ellipse class="fil0 str0" transform="matrix(-0.376634 -0.149843 0.134301 -0.33757 2.49821E+06 2.04734E+06)" rx="157100" ry="175280"/>
   <ellipse class="fil0 str0" transform="matrix(-0.0424625 -0.294375 0.263843 -0.0380583 2.76966E+06 1.90957E+06)" rx="157100" ry="175280"/>
   <ellipse class="fil0 str0" transform="matrix(-0.179485 -0.0714077 0.0640013 -0.160869 2.46345E+06 1.95345E+06)" rx="157100" ry="175280"/>
   <ellipse class="fil0 str0" transform="matrix(-0.276354 -0.109947 0.098543 -0.247691 2.40685E+06 1.90336E+06)" rx="157100" ry="175280"/>
   <ellipse class="fil0 str0" transform="matrix(-0.404617 -0.0243186 0.0217963 -0.36265 2.31533E+06 1.64492E+06)" rx="157100" ry="175280"/>
   <ellipse class="fil0 str0" transform="matrix(-0.296886 -0.0178437 0.015993 -0.266093 2.38674E+06 1.58627E+06)" rx="157100" ry="175280"/>
   <ellipse class="fil0 str0" transform="matrix(-0.19282 -0.0115891 0.0103871 -0.172821 2.47165E+06 1.35784E+06)" rx="157100" ry="175280"/>
   <ellipse class="fil0 str0" transform="matrix(-0.296886 -0.0178437 0.015993 -0.266093 2.40221E+06 1.328E+06)" rx="157100" ry="175280"/>
   <ellipse class="fil0 str0" transform="matrix(0.395343 0.0894977 -0.080215 0.354338 2.65059E+06 1.25804E+06)" rx="157100" ry="175280"/>
   <ellipse class="fil0 str0" transform="matrix(0.290082 0.0656687 -0.0588575 0.259995 2.25859E+06 808419)" rx="157100" ry="175280"/>
   <ellipse class="fil0 str0" transform="matrix(0.188401 0.0426502 -0.0382265 0.16886 2.61012E+06 1.52041E+06)" rx="157100" ry="175280"/>
   <ellipse class="fil0 str0" transform="matrix(0.290082 0.0656687 -0.0588575 0.259995 2.39377E+06 902783)" rx="157100" ry="175280"/>
   <ellipse class="fil0 str0" transform="matrix(0.167471 -0.369133 0.330847 0.150101 2.47246E+06 951535)" rx="157100" ry="175280"/>
   <ellipse class="fil0 str0" transform="matrix(0.122881 -0.270851 0.242758 0.110136 2.50167E+06 1.0392E+06)" rx="157100" ry="175280"/>
   <ellipse class="fil0 str0" transform="matrix(0.0798085 -0.175911 0.157665 0.0715308 2.71695E+06 1.67601E+06)" rx="157100" ry="175280"/>
   <ellipse class="fil0 str0" transform="matrix(0.122881 -0.270851 0.242758 0.110136 2.76966E+06 1.62184E+06)" rx="157100" ry="175280"/>
   <ellipse class="fil0 str0" transform="matrix(-0.202079 0.351383 -0.314938 -0.18112 2.16402E+06 1.01827E+06)" rx="157100" ry="175280"/>
   <circle class="fil0 str0" cx="1985565" cy="832585" r="46725"/>
   <ellipse class="fil0 str0" transform="matrix(-0.0963011 0.167452 -0.150084 -0.0863127 2.06613E+06 1.03927E+06)" rx="157100" ry="175280"/>
   <ellipse class="fil0 str0" transform="matrix(-0.148275 0.257826 -0.231085 -0.132896 2.00847E+06 1.08814E+06)" rx="157100" ry="175280"/>
   <ellipse class="fil0 str0" transform="matrix(-0.0818361 0.397 -0.355823 -0.0733481 1.77848E+06 1.0256E+06)" rx="157100" ry="175280"/>
   <ellipse class="fil0 str0" transform="matrix(-0.060047 0.291297 -0.261084 -0.0538189 1.73063E+06 946546)" rx="157100" ry="175280"/>
   <ellipse class="fil0 str0" transform="matrix(-0.038999 0.189191 -0.169568 -0.0349541 2.22372E+06 1.18362E+06)" rx="157100" ry="175280"/>
   <ellipse class="fil0 str0" transform="matrix(-0.060047 0.291297 -0.261084 -0.0538189 2.18427E+06 1.24809E+06)" rx="157100" ry="175280"/>
   <ellipse class="fil0 str0" transform="matrix(0.145023 -0.378516 0.339256 0.129982 1.53935E+06 632930)" rx="157100" ry="175280"/>
   <ellipse class="fil0 str0" transform="matrix(0.106411 -0.277735 0.248928 0.0953737 1.5625E+06 2.24361E+06)" rx="157100" ry="175280"/>
   <ellipse class="fil0 str0" transform="matrix(0.0691111 -0.180382 0.161673 0.0619429 1.74584E+06 751065)" rx="157100" ry="175280"/>
   <ellipse class="fil0 str0" transform="matrix(0.106411 -0.277735 0.248928 0.0953737 1.42363E+06 938671)" rx="157100" ry="175280"/>
   <ellipse class="fil0 str0" transform="matrix(-0.341442 -0.218456 0.195798 -0.306028 1.48312E+06 867752)" rx="157100" ry="175280"/>
   <ellipse class="fil0 str0" transform="matrix(-0.250532 -0.160292 0.143666 -0.224547 1.57406E+06 851352)" rx="157100" ry="175280"/>
   <ellipse class="fil0 str0" transform="matrix(-0.162715 -0.104106 0.0933077 -0.145838 1.91617E+06 659764)" rx="157100" ry="175280"/>
   <ellipse class="fil0 str0" transform="matrix(-0.250532 -0.160292 0.143666 -0.224547 1.87008E+06 599859)" rx="157100" ry="175280"/>
   <ellipse class="fil0 str0" transform="matrix(0.376634 0.149843 -0.134301 0.33757 935592 1.92908E+06)" rx="157100" ry="175280"/>
   <ellipse class="fil0 str0" transform="matrix(0.0424625 0.294375 -0.263843 0.0380583 646378 1.99226E+06)" rx="157100" ry="175280"/>
   <ellipse class="fil0 str0" transform="matrix(0.179485 0.0714077 -0.0640013 0.160869 970351 2.02297E+06)" rx="157100" ry="175280"/>
   <ellipse class="fil0 str0" transform="matrix(0.276354 0.109947 -0.098543 0.247691 1.02695E+06 2.07306E+06)" rx="157100" ry="175280"/>
   <ellipse class="fil0 str0" transform="matrix(0.404617 0.0243186 -0.0217963 0.36265 1.31338E+06 2.17494E+06)" rx="157100" ry="175280"/>
   <ellipse class="fil0 str0" transform="matrix(0.296886 0.0178437 -0.015993 0.266093 1.24197E+06 2.23359E+06)" rx="157100" ry="175280"/>
   <ellipse class="fil0 str0" transform="matrix(0.19282 0.0115891 -0.0103871 0.172821 908008 2.43816E+06)" rx="157100" ry="175280"/>
   <ellipse class="fil0 str0" transform="matrix(0.296886 0.0178437 -0.015993 0.266093 977451 2.468E+06)" rx="157100" ry="175280"/>
   <ellipse class="fil0 str0" transform="matrix(-0.395343 -0.0894977 0.080215 -0.354338 1.01979E+06 2.26797E+06)" rx="157100" ry="175280"/>
   <ellipse class="fil0 str0" transform="matrix(-0.290082 -0.0656687 0.0588575 -0.259995 1.41179E+06 2.71759E+06)" rx="157100" ry="175280"/>
   <ellipse class="fil0 str0" transform="matrix(-0.188401 -0.0426502 0.0382265 -0.16886 1.32437E+06 2.41228E+06)" rx="157100" ry="175280"/>
   <ellipse class="fil0 str0" transform="matrix(-0.290082 -0.0656687 0.0588575 -0.259995 1.27661E+06 2.62323E+06)" rx="157100" ry="175280"/>
   <ellipse class="fil0 str0" transform="matrix(-0.167471 0.369133 -0.330847 -0.150101 1.19792E+06 2.57447E+06)" rx="157100" ry="175280"/>
   <ellipse class="fil0 str0" transform="matrix(-0.122881 0.270851 -0.242758 -0.110136 1.16871E+06 2.48681E+06)" rx="157100" ry="175280"/>
   <ellipse class="fil0 str0" transform="matrix(-0.0798085 0.175911 -0.157665 -0.0715308 854527 2.15306E+06)" rx="157100" ry="175280"/>
   <ellipse class="fil0 str0" transform="matrix(-0.122881 0.270851 -0.242758 -0.110136 801816 2.20723E+06)" rx="157100" ry="175280"/>
   <ellipse class="fil0 str0" transform="matrix(-0.395343 -0.0894977 0.080215 -0.354338 1.86842E+06 2.48998E+06)" rx="157100" ry="175280"/>
   <ellipse class="fil0 str0" transform="matrix(-0.0691111 0.180382 -0.161673 -0.0619429 2.57784E+06 1.78387E+06)" rx="157100" ry="175280"/>
   <ellipse class="fil0 str0" transform="matrix(-0.202079 0.351383 -0.314938 -0.18112 1.87881E+06 1.48809E+06)" rx="157100" ry="175280"/>
   <circle class="fil0 str0" cx="1297905" cy="705655" r="46725"/>
   <ellipse class="fil0 str0" transform="matrix(-0.0963011 0.167452 -0.150084 -0.0863127 1.78092E+06 1.50909E+06)" rx="157100" ry="175280"/>
   <ellipse class="fil0 str0" transform="matrix(-0.148275 0.257826 -0.231085 -0.132896 1.72326E+06 1.55796E+06)" rx="157100" ry="175280"/>
   <ellipse class="fil0 str0" transform="matrix(-0.0818361 0.397 -0.355823 -0.0733481 1.72453E+06 1.80701E+06)" rx="157100" ry="175280"/>
   <ellipse class="fil0 str0" transform="matrix(-0.060047 0.291297 -0.261084 -0.0538189 1.67668E+06 1.72796E+06)" rx="157100" ry="175280"/>
   <ellipse class="fil0 str0" transform="matrix(-0.106411 0.277735 -0.248928 -0.0953737 1.14575E+06 1.95915E+06)" rx="157100" ry="175280"/>
   <ellipse class="fil0 str0" transform="matrix(0.376634 0.149843 -0.134301 0.33757 1.57933E+06 1.95629E+06)" rx="157100" ry="175280"/>
   <ellipse class="fil0 str0" transform="matrix(-0.0424625 -0.294375 0.263843 -0.0380583 2.21149E+06 1.87008E+06)" rx="157100" ry="175280"/>
   <ellipse class="fil0 str0" transform="matrix(0.179485 0.0714077 -0.0640013 0.160869 1.61409E+06 2.05018E+06)" rx="157100" ry="175280"/>
   <ellipse class="fil0 str0" transform="matrix(0.276354 0.109947 -0.098543 0.247691 1.67069E+06 2.10027E+06)" rx="157100" ry="175280"/>
   <ellipse class="fil0 str0" transform="matrix(-0.404617 -0.0243186 0.0217963 -0.36265 2.04107E+06 2.05868E+06)" rx="157100" ry="175280"/>
   <ellipse class="fil0 str0" transform="matrix(-0.296886 -0.0178437 0.015993 -0.266093 2.11248E+06 2.00003E+06)" rx="157100" ry="175280"/>
   <ellipse class="fil0 str0" transform="matrix(-0.19282 -0.0115891 0.0103871 -0.172821 1.97939E+06 1.31906E+06)" rx="157100" ry="175280"/>
   <ellipse class="fil0 str0" transform="matrix(-0.296886 -0.0178437 0.015993 -0.266093 1.90995E+06 1.28922E+06)" rx="157100" ry="175280"/>
   <ellipse class="fil0 str0" transform="matrix(0.395343 0.0894977 -0.080215 0.354338 2.1644E+06 1.45313E+06)" rx="157100" ry="175280"/>
   <ellipse class="fil0 str0" transform="matrix(0.290082 0.0656687 -0.0588575 0.259995 1.44608E+06 1.14475E+06)" rx="157100" ry="175280"/>
   <ellipse class="fil0 str0" transform="matrix(0.188401 0.0426502 -0.0382265 0.16886 1.88659E+06 1.89961E+06)" rx="157100" ry="175280"/>
   <ellipse class="fil0 str0" transform="matrix(0.290082 0.0656687 -0.0588575 0.259995 1.58126E+06 1.23911E+06)" rx="157100" ry="175280"/>
   <ellipse class="fil0 str0" transform="matrix(0.167471 -0.369133 0.330847 0.150101 1.65995E+06 1.28787E+06)" rx="157100" ry="175280"/>
   <ellipse class="fil0 str0" transform="matrix(0.122881 -0.270851 0.242758 0.110136 1.68916E+06 1.37553E+06)" rx="157100" ry="175280"/>
   <ellipse class="fil0 str0" transform="matrix(0.0798085 -0.175911 0.157665 0.0715308 2.00334E+06 1.70928E+06)" rx="157100" ry="175280"/>
   <ellipse class="fil0 str0" transform="matrix(0.122881 -0.270851 0.242758 0.110136 2.05605E+06 1.65511E+06)" rx="157100" ry="175280"/>
   <ellipse class="fil0 str0" transform="matrix(0.395343 0.0894977 -0.080215 0.354338 1.36073E+06 1.86985E+06)" rx="157100" ry="175280"/>
   <ellipse class="fil0 str0" transform="matrix(0.19282 0.0115891 -0.0103871 0.172821 1.55782E+06 2.77751E+06)" rx="157100" ry="175280"/>
   <ellipse class="fil0 str0" transform="matrix(0.296886 0.0178437 -0.015993 0.266093 1.62726E+06 2.80735E+06)" rx="157100" ry="175280"/>
   <ellipse class="fil0 str0" transform="matrix(-0.395343 -0.0894977 0.080215 -0.354338 649678 1.77391E+06)" rx="157100" ry="175280"/>
   <ellipse class="fil0 str0" transform="matrix(-0.290082 -0.0656687 0.0588575 -0.259995 586001 1.59367E+06)" rx="157100" ry="175280"/>
   <ellipse class="fil0 str0" transform="matrix(-0.202079 -0.351383 -0.314938 0.18112 869402 1.08565E+06)" rx="157100" ry="175280"/>
   <circle class="fil0 str0" cx="741585" cy="1461905" r="46725"/>
   <ellipse class="fil0 str0" transform="matrix(-0.0963011 0.167452 -0.150084 -0.0863127 771508 1.10667E+06)" rx="157100" ry="175280"/>
   <ellipse class="fil0 str0" transform="matrix(-0.148275 0.257826 -0.231085 -0.132896 713847 1.15554E+06)" rx="157100" ry="175280"/>
   <ellipse class="fil0 str0" transform="matrix(0.0818361 -0.397 0.355823 0.0733481 948673 1.26889E+06)" rx="157100" ry="175280"/>
   <ellipse class="fil0 str0" transform="matrix(0.060047 -0.291297 0.261084 0.0538189 996523 1.34794E+06)" rx="157100" ry="175280"/>
   <ellipse class="fil0 str0" transform="matrix(0.038999 -0.189191 0.169568 0.0349541 605592 1.37091E+06)" rx="157100" ry="175280"/>
   <ellipse class="fil0 str0" transform="matrix(0.060047 -0.291297 0.261084 0.0538189 645042 1.30644E+06)" rx="157100" ry="175280"/>
   <ellipse class="fil0 str0" transform="matrix(-0.145023 0.378516 -0.339256 -0.129982 1.1878E+06 1.66156E+06)" rx="157100" ry="175280"/>
   <ellipse class="fil0 str0" transform="matrix(-0.0691111 0.180382 -0.161673 -0.0619429 1.48973E+06 1.41341E+06)" rx="157100" ry="175280"/>
   <ellipse class="fil0 str0" transform="matrix(-0.106411 0.277735 -0.248928 -0.0953737 1.30352E+06 1.35582E+06)" rx="157100" ry="175280"/>
   <ellipse class="fil0 str0" transform="matrix(0.341442 0.218456 -0.195798 0.306028 1.24403E+06 1.42674E+06)" rx="157100" ry="175280"/>
   <ellipse class="fil0 str0" transform="matrix(0.250532 0.160292 -0.143666 0.224547 1.15309E+06 1.44314E+06)" rx="157100" ry="175280"/>
   <ellipse class="fil0 str0" transform="matrix(0.162715 0.104106 -0.0933077 0.145838 888020 1.63463E+06)" rx="157100" ry="175280"/>
   <ellipse class="fil0 str0" transform="matrix(0.250532 0.160292 -0.143666 0.224547 934109 1.69453E+06)" rx="157100" ry="175280"/>
   <circle class="fil0 str0" cx="1462945" cy="1621195" r="46725"/>
   <ellipse class="fil0 str0" transform="matrix(0.19282 0.0115891 -0.0103871 0.172821 1.06014E+06 771223)" rx="157100" ry="175280"/>
   <ellipse class="fil0 str0" transform="matrix(0.296886 0.0178437 -0.015993 0.266093 1.12958E+06 801064)" rx="157100" ry="175280"/>
   <ellipse class="fil0 str0" transform="matrix(-0.290082 -0.0656687 0.0588575 -0.259995 1.28107E+06 1.14974E+06)" rx="157100" ry="175280"/>
   <ellipse class="fil0 str0" transform="matrix(-0.290082 -0.0656687 0.0588575 -0.259995 1.14589E+06 1.05538E+06)" rx="157100" ry="175280"/>
   <ellipse class="fil0 str0" transform="matrix(-0.167471 0.369133 -0.330847 -0.150101 1.0672E+06 1.00662E+06)" rx="157100" ry="175280"/>
   <ellipse class="fil0 str0" transform="matrix(-0.0691111 0.180382 -0.161673 -0.0619429 880354 909045)" rx="157100" ry="175280"/>
   <ellipse class="fil0 str0" transform="matrix(0.19282 0.0115891 -0.0103871 0.172821 2.08456E+06 633973)" rx="157100" ry="175280"/>
   <ellipse class="fil0 str0" transform="matrix(0.296886 0.0178437 -0.015993 0.266093 2.154E+06 663814)" rx="157100" ry="175280"/>
  </g>
 </g>
</svg>
