<?xml version="1.0" encoding="UTF-8"?>
<!DOCTYPE svg PUBLIC "-//W3C//DTD SVG 1.1//EN" "http://www.w3.org/Graphics/SVG/1.1/DTD/svg11.dtd">
<!-- Creator: CorelDRAW 2017 -->
<svg xmlns="http://www.w3.org/2000/svg" xml:space="preserve" width="34mm" height="34mm" version="1.1" style="shape-rendering:geometricPrecision; text-rendering:geometricPrecision; image-rendering:optimizeQuality; fill-rule:evenodd; clip-rule:evenodd"
viewBox="0 0 3400000 3400000"
 xmlns:xlink="http://www.w3.org/1999/xlink">
 <defs>
  <style type="text/css">
   <![CDATA[
    .fil1 {fill:none}
    .fil0 {fill:#CD974E;fill-rule:nonzero}
   ]]>
  </style>
 </defs>
 <g id="Слой_x0020_1">
  <metadata id="CorelCorpID_0Corel-Layer"/>
  <g id="_2540734077648">
   <g>
    <path class="fil0" d="M1487250 2696290c20,-130 610,33910 30480,36050 27520,2040 77880,-21550 101050,-36570 3570,-2300 7160,-5140 10530,-7740 16960,-8090 43880,-13770 66830,-24680 12420,-6380 23280,-12940 33080,-23000 1160,-890 6150,-7000 6650,-8620 1720,-5530 1190,-8300 1780,-13590 -1200,-38250 -27000,-19640 -49560,-25940 -2280,-530 -10630,-5490 -12950,-6950 -1250,-790 -2470,-1650 -3700,-2450 -6180,-3680 -13290,-5350 -20280,-6600 -1880,-1040 -11570,-2930 -14050,-3350 10,0 -3820,3770 -4810,5480 -9780,16540 -20750,30380 -34220,44100 -290,580 -7930,6340 -9160,7150 -19130,12620 -38290,24650 -57970,36430 -5570,3440 -42550,31380 -43700,30280z"/>
   </g>
   <path class="fil1" d="M1484670 2675820c26830,-3380 222200,-37940 222200,-83320"/>
   <g>
    <path class="fil0" d="M1878180 2170910c-110,-60 31630,12240 44890,-14600 12290,-24720 9460,-80260 4300,-107390 -790,-4170 -2060,-8560 -3200,-12670 -1080,-18760 3820,-45830 2390,-71200 -1220,-13910 -3190,-26440 -8810,-39320 -380,-1410 -4150,-8330 -5470,-9410 -4470,-3680 -7240,-4230 -11910,-6780 -35870,-13330 -28380,17580 -42740,36090 -1350,1920 -9100,7780 -11320,9370 -1200,860 -2460,1660 -3670,2510 -5730,4320 -9970,10280 -13770,16280 -1670,1350 -7080,9600 -8400,11750 0,-20 2040,4950 3250,6520 11630,15300 20300,30690 27920,48330 430,490 2870,9750 3160,11180 4460,22490 8370,44770 11840,67440 1080,6450 12990,51250 11540,51900z"/>
   </g>
   <path class="fil1" d="M1858250 2165570c7010,-26120 48770,-220080 6760,-237210"/>
   <path class="fil1" d="M1175990 2274530c26830,-3380 222200,-37940 222200,-83320"/>
   <g>
    <path class="fil0" d="M1878180 2170910c-110,-60 31630,12240 44890,-14600 12290,-24720 9460,-80260 4300,-107390 -790,-4170 -2060,-8560 -3200,-12670 -1080,-18760 3820,-45830 2390,-71200 -1220,-13910 -3190,-26440 -8810,-39320 -380,-1410 -4150,-8330 -5470,-9410 -4470,-3680 -7240,-4230 -11910,-6780 -35870,-13330 -28380,17580 -42740,36090 -1350,1920 -9100,7780 -11320,9370 -1200,860 -2460,1660 -3670,2510 -5730,4320 -9970,10280 -13770,16280 -1670,1350 -7080,9600 -8400,11750 0,-20 2040,4950 3250,6520 11630,15300 20300,30690 27920,48330 430,490 2870,9750 3160,11180 4460,22490 8370,44770 11840,67440 1080,6450 12990,51250 11540,51900z"/>
   </g>
   <path class="fil1" d="M1858250 2165570c7010,-26120 48770,-220080 6760,-237210"/>
   <g>
    <path class="fil0" d="M1715630 2368760c-110,60 28840,-17860 15410,-44620 -12330,-24700 -58350,-55910 -83110,-68140 -3800,-1890 -8070,-3530 -12040,-5090 -15620,-10440 -34270,-30670 -55380,-44820 -11830,-7410 -23020,-13390 -36680,-16660 -1350,-550 -9150,-1710 -10810,-1310 -5630,1350 -7740,3220 -12590,5420 -32250,20590 -3070,33240 3050,55850 720,2230 720,11950 650,14690 -30,1470 -160,2960 -210,4430 0,7190 2200,14160 4700,20810 60,2140 3390,11430 4300,13780 0,-10 5190,1350 7170,1330 19220,-50 36720,2300 55400,6850 650,-40 9500,3580 10820,4220 20630,9990 40770,20310 60950,31190 5810,3030 48730,20530 48370,22070z"/>
   </g>
   <path class="fil1" d="M1699360 2381450c-16620,-21330 -146230,-171550 -185220,-148350"/>
   <path class="fil1" d="M2506410 1774050c-26520,5250 -218990,53440 -215810,98710"/>
   <g>
    <path class="fil0" d="M2087560 2349420c110,50 -32410,-10000 -43760,17720 -10520,25510 -3800,80720 3250,107420 1080,4100 2650,8400 4080,12420 2400,18630 -600,45980 2610,71190 2190,13790 5040,26150 11550,38600 480,1380 4730,8020 6110,9010 4720,3350 7520,3710 12370,5920 36710,10790 27070,-19530 40090,-39000 1210,-2000 8530,-8390 10640,-10140 1130,-940 2340,-1830 3480,-2760 5420,-4720 9230,-10960 12590,-17210 1580,-1460 6400,-10070 7570,-12300 -10,10 -2390,-4800 -3710,-6280 -12670,-14450 -22410,-29190 -31240,-46260 -460,-460 -3550,-9520 -3930,-10930 -6030,-22110 -11490,-44070 -16550,-66440 -1530,-6360 -16550,-50210 -15150,-50960z"/>
   </g>
   <path class="fil1" d="M2107810 2353350c-5150,26540 -33210,222960 9910,237100"/>
   <g>
    <path class="fil0" d="M2235820 2140650c110,-60 -27510,19840 -12230,45590 14020,23770 62130,51680 87680,62150 3920,1610 8300,2940 12370,4230 16310,9310 36330,28190 58380,40820 12320,6560 23910,11740 37770,14050 1380,450 9250,1060 10870,550 5520,-1750 7490,-3770 12180,-6300 30730,-22790 730,-33370 -6970,-55500 -860,-2170 -1550,-11860 -1670,-14600 -70,-1470 -50,-2970 -110,-4440 -490,-7160 -3180,-13970 -6140,-20420 -210,-2140 -4190,-11170 -5260,-13450 10,10 -5270,-990 -7250,-830 -19160,1410 -36790,290 -55740,-2940 -640,90 -9730,-2910 -11090,-3450 -21280,-8520 -42090,-17400 -62990,-26840 -6000,-2610 -50040,-17060 -49800,-18620z"/>
   </g>
   <path class="fil1" d="M2251160 2126850c18080,20110 157910,160870 195180,134990"/>
   <g>
    <path class="fil0" d="M2772910 1862970c-130,-10 33910,-600 36060,-30470 2040,-27520 -21550,-77890 -36560,-101060 -2300,-3560 -5140,-7150 -7740,-10530 -8090,-16960 -13770,-43880 -24670,-66830 -6370,-12420 -12940,-23280 -23000,-33090 -880,-1160 -6990,-6140 -8620,-6650 -5530,-1710 -8300,-1180 -13590,-1780 -38240,1190 -19640,27000 -25940,49560 -530,2280 -5500,10630 -6960,12950 -780,1240 -1650,2470 -2440,3700 -3680,6170 -5360,13290 -6610,20280 -1040,1880 -2930,11560 -3350,14050 0,-20 3770,3810 5480,4810 16540,9780 30380,20750 44100,34220 580,290 6330,7940 7140,9160 12620,19140 24650,38300 36420,57980 3440,5560 31380,42550 30280,43700z"/>
   </g>
   <path class="fil1" d="M2752440 1865550c-3370,-26830 -37910,-222210 -83290,-222220"/>
   <g>
    <path class="fil0" d="M2247580 1471970c-50,110 12250,-31630 -14590,-44900 -24720,-12280 -80260,-9460 -107380,-4310 -4180,790 -8570,2060 -12680,3200 -18760,1080 -45830,-3830 -71200,-2400 -13910,1210 -26440,3190 -39320,8800 -1410,380 -8330,4160 -9410,5470 -3680,4470 -4240,7240 -6780,11910 -13340,35870 17580,28390 36090,42740 1910,1350 7770,9100 9360,11330 860,1200 1660,2460 2510,3660 4320,5740 10280,9980 16280,13780 1350,1670 9600,7080 11740,8400 -10,0 4960,-2040 6530,-3250 15300,-11620 30690,-20300 48340,-27910 480,-430 9740,-2870 11170,-3160 22490,-4460 44770,-8360 67440,-11830 6460,-1080 51260,-12980 51900,-11530z"/>
   </g>
   <path class="fil1" d="M2242240 1491890c-26120,-7010 -220070,-48800 -237210,-6780"/>
   <g>
    <path class="fil0" d="M2445420 1634540c50,120 -17860,-28830 -44630,-15410 -24700,12320 -55920,58350 -68150,83100 -1890,3800 -3520,8070 -5090,12040 -10440,15620 -30670,34260 -44820,55370 -7420,11830 -13400,23020 -16680,36680 -540,1350 -1700,9150 -1310,10810 1360,5630 3230,7740 5430,12590 20580,32260 33240,3080 55850,-3040 2230,-720 11940,-720 14680,-650 1470,30 2970,160 4430,210 7190,0 14160,-2190 20810,-4700 2150,-60 11440,-3390 13780,-4300 -10,10 1360,-5190 1340,-7170 -50,-19210 2300,-36720 6860,-55390 -50,-650 3580,-9510 4220,-10820 9990,-20630 20310,-40770 31200,-60950 3030,-5800 20530,-48720 22080,-48370z"/>
   </g>
   <path class="fil1" d="M2458100 1650820c-21340,16610 -171580,146200 -148380,185200"/>
   <g>
    <path class="fil0" d="M2426120 1262620c60,-120 -10000,32410 17710,43760 25520,10520 80730,3810 107420,-3240 4110,-1080 8410,-2650 12430,-4070 18630,-2400 45980,600 71190,-2610 13790,-2180 26150,-5030 38600,-11540 1380,-480 8020,-4730 9010,-6110 3350,-4720 3710,-7520 5930,-12360 10780,-36720 -19530,-27080 -39000,-40100 -2000,-1220 -8390,-8540 -10140,-10650 -940,-1130 -1830,-2340 -2760,-3480 -4710,-5420 -10950,-9230 -17210,-12590 -1450,-1580 -10070,-6400 -12300,-7570 10,10 -4800,2390 -6280,3710 -14440,12670 -29190,22400 -46260,31230 -460,460 -9520,3550 -10930,3930 -22120,6030 -44070,11490 -66440,16540 -6360,1530 -50220,16550 -50970,15150z"/>
   </g>
   <path class="fil1" d="M2430050 1242360c26550,5160 222960,33240 237110,-9870"/>
   <g>
    <path class="fil0" d="M2217370 1114320c-60,-110 19840,27510 45600,12240 23770,-14020 51690,-62120 62160,-87670 1610,-3920 2940,-8300 4230,-12370 9320,-16310 28190,-36330 40820,-58380 6570,-12320 11750,-23900 14060,-37760 450,-1380 1060,-9250 550,-10870 -1750,-5520 -3760,-7500 -6290,-12180 -22790,-30730 -33380,-740 -55500,6950 -2180,870 -11870,1560 -14610,1680 -1470,70 -2960,50 -4430,100 -7170,500 -13970,3180 -20430,6140 -2130,220 -11170,4190 -13450,5260 10,-10 -980,5270 -820,7250 1400,19160 280,36790 -2960,55740 90,640 -2910,9730 -3450,11090 -8520,21280 -17400,42090 -26850,62980 -2610,6000 -17060,50050 -18630,49800z"/>
   </g>
   <path class="fil1" d="M2203580 1098980c20120,-18080 160890,-157880 135020,-195160"/>
   <path class="fil1" d="M1215300 1868270c26690,4360 223850,26550 236700,-16960"/>
   <g>
    <path class="fil0" d="M1735720 1495510c-90,-90 26860,20700 47190,-1290 18780,-20220 31800,-74290 34530,-101770 430,-4220 460,-8790 530,-13060 4270,-18290 16640,-42870 22450,-67610 2780,-13680 4440,-26260 2690,-40200 40,-1460 -1620,-9170 -2570,-10580 -3250,-4790 -5750,-6100 -9510,-9870 -30620,-22950 -32200,8820 -51210,22510 -1830,1450 -10920,4880 -13510,5770 -1390,490 -2830,900 -4230,1370 -6720,2530 -12480,7040 -17820,11720 -1980,810 -9510,7200 -11380,8880 0,-10 550,5330 1270,7180 6820,17960 10780,35180 13090,54260 270,590 -10,10160 -140,11620 -2090,22820 -4660,45300 -7750,68030 -790,6490 -2060,52830 -3630,53040z"/>
   </g>
   <path class="fil1" d="M1718120 1484740c14110,-23060 109110,-197250 73670,-225580"/>
   <path class="fil1" d="M1504580 1646770c-9900,-25160 -91640,-205950 -135610,-194740"/>
   <path class="fil1" d="M1699840 1796160c-26120,-7010 -220070,-48800 -237210,-6780"/>
   <g>
    <path class="fil0" d="M1620170 1735530c40,-120 -4980,33550 24130,40580 26810,6540 80370,-8440 105690,-19440 3900,-1690 7910,-3890 11670,-5910 18050,-5190 45540,-6360 69970,-13340 13310,-4240 25100,-8930 36420,-17240 1290,-680 7210,-5890 7980,-7410 2600,-5170 2530,-7990 3990,-13110 5110,-37920 -23400,-23820 -44610,-33740 -2170,-900 -9590,-7170 -11630,-8990 -1100,-980 -2170,-2040 -3250,-3030 -5490,-4640 -12230,-7460 -18920,-9840 -1680,-1340 -10930,-4800 -13310,-5620 20,0 -4380,3090 -5640,4610 -12370,14710 -25470,26560 -41010,37870 -380,530 -8870,4950 -10210,5540 -20950,9300 -41830,18010 -63180,26390 -6060,2480 -47140,23950 -48090,22680z"/>
   </g>
   <path class="fil1" d="M1621000 1714910c27020,1090 225410,-850 232880,-45600"/>
   <g>
    <path class="fil0" d="M1387500 2424770c50,120 -17860,-28830 -44630,-15410 -24700,12320 -55920,58350 -68150,83100 -1890,3800 -3520,8070 -5090,12040 -10440,15620 -30670,34260 -44820,55370 -7420,11830 -13400,23020 -16680,36680 -540,1350 -1700,9150 -1310,10810 1360,5630 3230,7740 5430,12590 20580,32260 33240,3080 55850,-3040 2230,-720 11940,-720 14680,-650 1470,30 2970,160 4430,210 7190,0 14160,-2190 20810,-4700 2150,-60 11440,-3390 13780,-4300 -10,10 1360,-5190 1340,-7170 -50,-19210 2300,-36720 6860,-55390 -50,-650 3580,-9510 4220,-10820 9990,-20630 20310,-40770 31200,-60950 3030,-5800 20530,-48720 22080,-48370z"/>
   </g>
   <path class="fil1" d="M1400180 2441050c-21340,16610 -171580,146200 -148380,185200"/>
   <path class="fil1" d="M1892290 625880c-5150,26540 -33210,222960 9910,237100"/>
   <path class="fil1" d="M1266220 2111290c20120,-18080 160890,-157880 135020,-195160"/>
   <g>
    <path class="fil0" d="M622940 1831980c20,-130 610,33910 30480,36050 27520,2040 77880,-21550 101050,-36570 3570,-2300 7160,-5140 10530,-7740 16960,-8090 43880,-13770 66830,-24680 12420,-6380 23280,-12940 33080,-23000 1160,-890 6150,-7000 6650,-8620 1720,-5530 1190,-8300 1780,-13590 -1200,-38250 -27000,-19640 -49560,-25940 -2280,-530 -10630,-5490 -12950,-6950 -1250,-790 -2470,-1650 -3700,-2450 -6180,-3680 -13290,-5350 -20280,-6600 -1880,-1040 -11570,-2930 -14050,-3350 10,0 -3820,3770 -4810,5480 -9780,16540 -20750,30380 -34220,44100 -290,580 -7930,6340 -9160,7150 -19130,12620 -38290,24650 -57970,36430 -5570,3440 -42550,31380 -43700,30280z"/>
   </g>
   <path class="fil1" d="M620360 1811510c26830,-3380 222200,-37940 222200,-83320"/>
   <g>
    <path class="fil0" d="M1013870 1306600c-110,-60 31630,12240 44890,-14600 12290,-24720 9460,-80260 4300,-107390 -790,-4170 -2060,-8560 -3200,-12670 -1080,-18760 3820,-45830 2390,-71200 -1220,-13910 -3190,-26440 -8810,-39320 -380,-1410 -4150,-8330 -5470,-9410 -4470,-3680 -7240,-4230 -11910,-6780 -35870,-13330 -28380,17580 -42740,36090 -1350,1920 -9100,7780 -11320,9370 -1200,860 -2460,1660 -3670,2510 -5730,4320 -9970,10280 -13770,16280 -1670,1350 -7080,9600 -8400,11750 0,-20 2040,4950 3250,6520 11630,15300 20300,30690 27920,48330 430,490 2870,9750 3160,11180 4460,22490 8370,44770 11840,67440 1080,6450 12990,51250 11540,51900z"/>
   </g>
   <path class="fil1" d="M993940 1301260c7010,-26120 48770,-220080 6760,-237210"/>
   <g>
    <path class="fil0" d="M1013870 1306600c-110,-60 31630,12240 44890,-14600 12290,-24720 9460,-80260 4300,-107390 -790,-4170 -2060,-8560 -3200,-12670 -1080,-18760 3820,-45830 2390,-71200 -1220,-13910 -3190,-26440 -8810,-39320 -380,-1410 -4150,-8330 -5470,-9410 -4470,-3680 -7240,-4230 -11910,-6780 -35870,-13330 -28380,17580 -42740,36090 -1350,1920 -9100,7780 -11320,9370 -1200,860 -2460,1660 -3670,2510 -5730,4320 -9970,10280 -13770,16280 -1670,1350 -7080,9600 -8400,11750 0,-20 2040,4950 3250,6520 11630,15300 20300,30690 27920,48330 430,490 2870,9750 3160,11180 4460,22490 8370,44770 11840,67440 1080,6450 12990,51250 11540,51900z"/>
   </g>
   <path class="fil1" d="M993940 1301260c7010,-26120 48770,-220080 6760,-237210"/>
   <g>
    <path class="fil0" d="M851320 1504450c-110,60 28840,-17860 15410,-44620 -12330,-24700 -58350,-55910 -83110,-68140 -3800,-1890 -8070,-3530 -12040,-5090 -15620,-10440 -34270,-30670 -55380,-44820 -11830,-7410 -23020,-13390 -36680,-16660 -1350,-550 -9150,-1710 -10810,-1310 -5630,1350 -7740,3220 -12590,5420 -32250,20590 -3070,33240 3050,55850 720,2230 720,11950 650,14690 -30,1470 -160,2960 -210,4430 0,7190 2200,14160 4700,20810 60,2140 3390,11430 4300,13780 0,-10 5190,1350 7170,1330 19220,-50 36720,2300 55400,6850 650,-40 9500,3580 10820,4220 20630,9990 40770,20310 60950,31190 5810,3030 48730,20530 48370,22070z"/>
   </g>
   <path class="fil1" d="M835050 1517140c-16620,-21330 -146230,-171550 -185220,-148350"/>
   <path class="fil1" d="M1642100 909740c-26520,5250 -218990,53440 -215810,98710"/>
   <g>
    <path class="fil0" d="M1223250 1485110c110,50 -32410,-10000 -43760,17720 -10520,25510 -3800,80720 3250,107420 1080,4100 2650,8400 4080,12420 2400,18630 -600,45980 2610,71190 2190,13790 5040,26150 11550,38600 480,1380 4730,8020 6110,9010 4720,3350 7520,3710 12370,5920 36710,10790 27070,-19530 40090,-39000 1210,-2000 8530,-8390 10640,-10140 1130,-940 2340,-1830 3480,-2760 5420,-4720 9230,-10960 12590,-17210 1580,-1460 6400,-10070 7570,-12300 -10,10 -2390,-4800 -3710,-6280 -12670,-14450 -22410,-29190 -31240,-46260 -460,-460 -3550,-9520 -3930,-10930 -6030,-22110 -11490,-44070 -16550,-66440 -1530,-6360 -16550,-50210 -15150,-50960z"/>
   </g>
   <path class="fil1" d="M1243500 1489040c-5150,26540 -33210,222960 9910,237100"/>
   <g>
    <path class="fil0" d="M1371510 1276340c110,-60 -27510,19840 -12230,45590 14020,23770 62130,51680 87680,62150 3920,1610 8300,2940 12370,4230 16310,9310 36330,28190 58380,40820 12320,6560 23910,11740 37770,14050 1380,450 9250,1060 10870,550 5520,-1750 7490,-3770 12180,-6300 30730,-22790 730,-33370 -6970,-55500 -860,-2170 -1550,-11860 -1670,-14600 -70,-1470 -50,-2970 -110,-4440 -490,-7160 -3180,-13970 -6140,-20420 -210,-2140 -4190,-11170 -5260,-13450 10,10 -5270,-990 -7250,-830 -19160,1410 -36790,290 -55740,-2940 -640,90 -9730,-2910 -11090,-3450 -21280,-8520 -42090,-17400 -62990,-26840 -6000,-2610 -50040,-17060 -49800,-18620z"/>
   </g>
   <path class="fil1" d="M1386850 1262540c18080,20110 157910,160870 195180,134990"/>
   <g>
    <path class="fil0" d="M1908600 998660c-130,-10 33910,-600 36060,-30470 2040,-27520 -21550,-77890 -36560,-101060 -2300,-3560 -5140,-7150 -7740,-10530 -8090,-16960 -13770,-43880 -24670,-66830 -6370,-12420 -12940,-23280 -23000,-33090 -880,-1160 -6990,-6140 -8620,-6650 -5530,-1710 -8300,-1180 -13590,-1780 -38240,1190 -19640,27000 -25940,49560 -530,2280 -5500,10630 -6960,12950 -780,1240 -1650,2470 -2440,3700 -3680,6170 -5360,13290 -6610,20280 -1040,1880 -2930,11560 -3350,14050 0,-20 3770,3810 5480,4810 16540,9780 30380,20750 44100,34220 580,290 6330,7940 7140,9160 12620,19140 24650,38300 36420,57980 3440,5560 31380,42550 30280,43700z"/>
   </g>
   <path class="fil1" d="M1888130 1001240c-3370,-26830 -37910,-222210 -83290,-222220"/>
   <g>
    <path class="fil0" d="M1439460 1127600c-50,110 12250,-31630 -14590,-44900 -24720,-12280 -80260,-9460 -107380,-4310 -4180,790 -8570,2060 -12680,3200 -18760,1080 -45830,-3830 -71200,-2400 -13910,1210 -26440,3190 -39320,8800 -1410,380 -8330,4160 -9410,5470 -3680,4470 -4240,7240 -6780,11910 -13340,35870 17580,28390 36090,42740 1910,1350 7770,9100 9360,11330 860,1200 1660,2460 2510,3660 4320,5740 10280,9980 16280,13780 1350,1670 9600,7080 11740,8400 -10,0 4960,-2040 6530,-3250 15300,-11620 30690,-20300 48340,-27910 480,-430 9740,-2870 11170,-3160 22490,-4460 44770,-8360 67440,-11830 6460,-1080 51260,-12980 51900,-11530z"/>
   </g>
   <path class="fil1" d="M1434120 1147520c-26120,-7010 -220070,-48800 -237210,-6780"/>
   <g>
    <path class="fil0" d="M1581110 770230c50,120 -17860,-28830 -44630,-15410 -24700,12320 -55920,58350 -68150,83100 -1890,3800 -3520,8070 -5090,12040 -10440,15620 -30670,34260 -44820,55370 -7420,11830 -13400,23020 -16680,36680 -540,1350 -1700,9150 -1310,10810 1360,5630 3230,7740 5430,12590 20580,32260 33240,3080 55850,-3040 2230,-720 11940,-720 14680,-650 1470,30 2970,160 4430,210 7190,0 14160,-2190 20810,-4700 2150,-60 11440,-3390 13780,-4300 -10,10 1360,-5190 1340,-7170 -50,-19210 2300,-36720 6860,-55390 -50,-650 3580,-9510 4220,-10820 9990,-20630 20310,-40770 31200,-60950 3030,-5800 20530,-48720 22080,-48370z"/>
   </g>
   <path class="fil1" d="M1593790 786510c-21340,16610 -171580,146200 -148380,185200"/>
   <g>
    <path class="fil0" d="M1981530 736260c60,-120 -10000,32410 17710,43760 25520,10520 80730,3810 107420,-3240 4110,-1080 8410,-2650 12430,-4070 18630,-2400 45980,600 71190,-2610 13790,-2180 26150,-5030 38600,-11540 1380,-480 8020,-4730 9010,-6110 3350,-4720 3710,-7520 5930,-12360 10780,-36720 -19530,-27080 -39000,-40100 -2000,-1220 -8390,-8540 -10140,-10650 -940,-1130 -1830,-2340 -2760,-3480 -4710,-5420 -10950,-9230 -17210,-12590 -1450,-1580 -10070,-6400 -12300,-7570 10,10 -4800,2390 -6280,3710 -14440,12670 -29190,22400 -46260,31230 -460,460 -9520,3550 -10930,3930 -22120,6030 -44070,11490 -66440,16540 -6360,1530 -50220,16550 -50970,15150z"/>
   </g>
   <path class="fil1" d="M1985460 716000c26550,5160 222960,33240 237110,-9870"/>
   <g>
    <path class="fil0" d="M923070 2208980c-60,-110 19840,27510 45600,12240 23770,-14020 51680,-62120 62160,-87670 1610,-3920 2930,-8300 4230,-12370 9320,-16310 28190,-36330 40820,-58380 6600,-12350 11730,-23860 14050,-37750 450,-1410 1070,-9240 560,-10880 -1750,-5500 -3760,-7500 -6280,-12170 -22870,-30730 -33330,-780 -55530,6940 -2180,870 -11840,1550 -14600,1670 -1460,70 -2950,60 -4430,100 -7850,840 -13210,2810 -20430,6160 -2150,210 -11160,4180 -13440,5250 0,0 -990,5280 -820,7250 1380,19250 300,36730 -2960,55750 80,640 -2920,9730 -3450,11080 -8520,21280 -17400,42090 -26850,62980 -2610,6000 -17060,50050 -18630,49800z"/>
   </g>
   <path class="fil1" d="M909280 2193640c20120,-18080 160890,-157880 135020,-195160"/>
   <g>
    <path class="fil0" d="M2554190 2214440c-90,-90 26860,20700 47190,-1290 18780,-20220 31800,-74290 34530,-101770 430,-4220 460,-8790 530,-13060 4270,-18290 16640,-42870 22450,-67610 2780,-13680 4440,-26260 2690,-40200 40,-1460 -1620,-9170 -2570,-10580 -3250,-4790 -5750,-6100 -9510,-9870 -30620,-22950 -32200,8820 -51210,22510 -1830,1450 -10920,4880 -13510,5770 -1390,490 -2830,900 -4230,1370 -6720,2530 -12480,7040 -17820,11720 -1980,810 -9510,7200 -11380,8880 0,-10 550,5330 1270,7180 6820,17960 10780,35180 13090,54260 270,590 -10,10160 -140,11620 -2090,22820 -4660,45300 -7750,68030 -790,6490 -2060,52830 -3630,53040z"/>
   </g>
   <path class="fil1" d="M2536590 2203670c14110,-23060 109110,-197250 73670,-225580"/>
   <path class="fil1" d="M835530 931850c-26120,-7010 -220070,-48800 -237210,-6780"/>
   <g>
    <path class="fil0" d="M1063750 822220c40,-120 -4980,33550 24130,40580 26810,6540 80370,-8440 105690,-19440 3900,-1690 7910,-3890 11670,-5910 18050,-5190 45540,-6360 69970,-13340 13310,-4240 25100,-8930 36420,-17240 1290,-680 7210,-5890 7980,-7410 2600,-5170 2530,-7990 3990,-13110 5110,-37920 -23400,-23820 -44610,-33740 -2170,-900 -9590,-7170 -11630,-8990 -1100,-980 -2170,-2040 -3250,-3030 -5490,-4640 -12230,-7460 -18920,-9840 -1680,-1340 -10930,-4800 -13310,-5620 20,0 -4380,3090 -5640,4610 -12370,14710 -25470,26560 -41010,37870 -380,530 -8870,4950 -10210,5540 -20950,9300 -41830,18010 -63180,26390 -6060,2480 -47140,23950 -48090,22680z"/>
   </g>
   <path class="fil1" d="M1064580 801600c27020,1090 225410,-850 232880,-45600"/>
   <g>
    <path class="fil0" d="M1478440 1816710c50,120 -17860,-28830 -44630,-15410 -24700,12320 -55920,58350 -68150,83100 -1890,3800 -3520,8070 -5090,12040 -10440,15620 -30670,34260 -44820,55370 -7420,11830 -13400,23020 -16680,36680 -540,1350 -1700,9150 -1310,10810 1360,5630 3230,7740 5430,12590 20580,32260 33240,3080 55850,-3040 2230,-720 11940,-720 14680,-650 1470,30 2970,160 4430,210 7190,0 14160,-2190 20810,-4700 2150,-60 11440,-3390 13780,-4300 -10,10 1360,-5190 1340,-7170 -50,-19210 2300,-36720 6860,-55390 -50,-650 3580,-9510 4220,-10820 9990,-20630 20310,-40770 31200,-60950 3030,-5800 20530,-48720 22080,-48370z"/>
   </g>
   <path class="fil1" d="M1491120 1832990c-21340,16610 -171580,146200 -148380,185200"/>
   <g>
    <path class="fil0" d="M926650 2320020c120,-20 -32740,8880 -27510,38360 4750,27190 39940,70240 60170,89050 3110,2890 6740,5660 10090,8320 11990,14460 24080,39170 40270,58760 9240,10520 18200,19380 30390,26440 1150,920 8270,4250 9980,4360 5770,290 8340,-890 13600,-1600 36820,-10590 12470,-30920 13060,-54420 -50,-2350 2720,-11620 3570,-14250 460,-1390 990,-2790 1470,-4180 1980,-7650 2020,-13360 1430,-21290 560,-2090 20,-11920 -190,-14430 0,0 -4580,-2790 -6490,-3320 -18500,-5480 -34480,-12650 -51140,-22400 -620,-150 -8070,-6150 -9150,-7130 -16920,-15470 -33270,-31100 -49500,-47300 -4700,-4560 -40830,-33590 -40050,-34970z"/>
   </g>
   <path class="fil1" d="M945870 2312510c9830,25190 91120,206180 135120,195080"/>
   <g>
    <path class="fil0" d="M1864590 639750c-50,110 12250,-31630 -14590,-44900 -24720,-12280 -80260,-9460 -107380,-4310 -4180,790 -8570,2060 -12680,3200 -18760,1080 -45830,-3830 -71200,-2400 -13910,1210 -26440,3190 -39320,8800 -1410,380 -8330,4160 -9410,5470 -3680,4470 -4240,7240 -6780,11910 -13340,35870 17580,28390 36090,42740 1910,1350 7770,9100 9360,11330 860,1200 1660,2460 2510,3660 4320,5740 10280,9980 16280,13780 1350,1670 9600,7080 11740,8400 -10,0 4960,-2040 6530,-3250 15300,-11620 30690,-20300 48340,-27910 480,-430 9740,-2870 11170,-3160 22490,-4460 44770,-8360 67440,-11830 6460,-1080 51260,-12980 51900,-11530z"/>
   </g>
   <path class="fil1" d="M1859250 659670c-26120,-7010 -220070,-48800 -237210,-6780"/>
   <g>
    <path class="fil0" d="M2411400 2513900c-50,110 12250,-31630 -14590,-44900 -24720,-12280 -80260,-9460 -107380,-4310 -4180,790 -8570,2060 -12680,3200 -18760,1080 -45830,-3830 -71200,-2400 -13910,1210 -26440,3190 -39320,8800 -1410,380 -8330,4160 -9410,5470 -3680,4470 -4240,7240 -6780,11910 -13340,35870 17580,28390 36090,42740 1910,1350 7770,9100 9360,11330 860,1200 1660,2460 2510,3660 4320,5740 10280,9980 16280,13780 1350,1670 9600,7080 11740,8400 -10,0 4960,-2040 6530,-3250 15300,-11620 30690,-20300 48340,-27910 480,-430 9740,-2870 11170,-3160 22490,-4460 44770,-8360 67440,-11830 6460,-1080 51260,-12980 51900,-11530z"/>
   </g>
   <path class="fil1" d="M2406060 2533820c-26120,-7010 -220070,-48800 -237210,-6780"/>
  </g>
 </g>
</svg>
