<?xml version="1.0" encoding="UTF-8"?>
<!DOCTYPE svg PUBLIC "-//W3C//DTD SVG 1.1//EN" "http://www.w3.org/Graphics/SVG/1.1/DTD/svg11.dtd">
<!-- Creator: CorelDRAW 2017 -->
<svg xmlns="http://www.w3.org/2000/svg" xml:space="preserve" width="34mm" height="34mm" version="1.1" style="shape-rendering:geometricPrecision; text-rendering:geometricPrecision; image-rendering:optimizeQuality; fill-rule:evenodd; clip-rule:evenodd"
viewBox="0 0 3400000 3400000"
 xmlns:xlink="http://www.w3.org/1999/xlink">
 <defs>
  <style type="text/css">
   <![CDATA[
    .fil0 {fill:#F4AFA7}
   ]]>
  </style>
 </defs>
 <g id="Слой_x0020_1">
  <metadata id="CorelCorpID_0Corel-Layer"/>
  <path class="fil0" d="M1886180 1049470l-71390 -243950c134730,-39430 275910,37830 315340,172560l-243950 71390z"/>
  <path class="fil0" d="M1210050 1054060l150560 -204790c113100,83160 137380,242260 54220,355360l-204780 -150570z"/>
  <path class="fil0" d="M2628560 1575960l-253980 -9890c5450,-140270 123590,-249560 263870,-244100l-9890 253990z"/>
  <path class="fil0" d="M2388210 2102020l248560 53130c-29340,137280 -164410,224780 -301690,195440l53130 -248570z"/>
  <path class="fil0" d="M1660760 2149930l-180940 -178520c98600,-99930 259530,-101010 359460,-2410l-178520 180930z"/>
  <path class="fil0" d="M1929390 2480490l106670 230720c-127420,58910 -278470,3370 -337380,-124050l230710 -106670z"/>
  <path class="fil0" d="M1197920 2195100l7890 254050c-140320,4360 -257590,-105850 -261950,-246170l254060 -7880z"/>
  <path class="fil0" d="M1055100 1615000l-132040 217190c-119960,-72920 -158080,-229280 -85160,-349230l217200 132040z"/>
  <path class="fil0" d="M2008700 1411750l-4440 254140c-140360,-2450 -252160,-118220 -249700,-258580l254140 4440z"/>
 </g>
</svg>
