<?xml version="1.0" encoding="UTF-8"?>
<!DOCTYPE svg PUBLIC "-//W3C//DTD SVG 1.1//EN" "http://www.w3.org/Graphics/SVG/1.1/DTD/svg11.dtd">
<!-- Creator: CorelDRAW 2017 -->
<svg xmlns="http://www.w3.org/2000/svg" xml:space="preserve" width="16.0866mm" height="4.2332mm" version="1.1" style="shape-rendering:geometricPrecision; text-rendering:geometricPrecision; image-rendering:optimizeQuality; fill-rule:evenodd; clip-rule:evenodd"
viewBox="0 0 160866 42332"
 xmlns:xlink="http://www.w3.org/1999/xlink">
 <defs>
  <style type="text/css">
   <![CDATA[
    .str0 {stroke:#2B2A29;stroke-width:1693;stroke-miterlimit:22.9256}
    .str1 {stroke:#2B2A29;stroke-width:1269;stroke-miterlimit:22.9256}
    .fil0 {fill:none}
   ]]>
  </style>
 </defs>
 <g id="Слой_x0020_1">
  <metadata id="CorelCorpID_0Corel-Layer"/>
  <ellipse class="fil0 str0" cx="7090" cy="37256" rx="3059" ry="3006"/>
  <circle class="fil0 str0" cx="18344" cy="37256" r="3006"/>
  <path class="fil0 str0" d="M39963 6972c-1430,656 -3311,1572 -4741,2228m-4908 5898l-3387 14982m-3862 4170l-21202 0"/>
  <rect class="fil0 str0" x="2314" y="29335" width="20618" height="2457"/>
  <path class="fil0 str0" d="M23065 34250c973,0 1946,0 2620,-835 676,-833 1053,-2501 1241,-3335 189,-834 189,-834 189,-834"/>
  <path class="fil0 str0" d="M30238 15433c332,-1468 664,-2935 1520,-3986 856,-1050 2235,-1684 3615,-2316"/>
  <rect class="fil0 str0" x="2314" y="24420" width="20618" height="2457"/>
  <rect class="fil0 str0" x="2314" y="19506" width="20618" height="2457"/>
  <ellipse class="fil0 str1" cx="80432" cy="30918" rx="19050" ry="9380"/>
  <ellipse class="fil0 str1" cx="80432" cy="30918" rx="16698" ry="7571"/>
  <ellipse class="fil0 str1" cx="70436" cy="13183" rx="787" ry="756"/>
  <ellipse class="fil0 str1" cx="66813" cy="11166" rx="1638" ry="1701"/>
  <ellipse class="fil0 str1" cx="66591" cy="16081" rx="945" ry="882"/>
  <path class="fil0 str1" d="M72421 12049l-1631 -1486c762,-835 2109,-848 3010,-28 900,821 1012,2163 251,2999l-1630 -1485z"/>
  <path class="fil0 str1" d="M74226 16153c179,-410 683,-967 1250,-1213 568,-247 1197,-184 1648,-21 452,163 726,425 699,599 -26,173 -352,257 -746,315 -393,57 -856,89 -1255,220 -399,131 -735,362 -971,551 -236,189 -373,336 -514,278 -142,-57 -289,-320 -111,-729z"/>
  <path class="fil0 str1" d="M75711 16341c-77,231 96,599 277,794 181,194 370,215 533,136 163,-78 299,-257 282,-500 -17,-242 -188,-548 -273,-701 -86,-153 -86,-153 -86,-153 0,0 0,0 -164,48 -164,48 -492,144 -569,376z"/>
  <path class="fil0 str1" d="M67879 31394c179,-282 682,-665 1249,-834 568,-170 1197,-127 1648,-15 452,113 726,293 699,412 -26,119 -352,177 -746,217 -393,39 -856,61 -1255,152 -398,90 -734,248 -971,378 -236,130 -372,231 -514,191 -142,-39 -289,-220 -110,-501z"/>
  <path class="fil0 str1" d="M69363 31523c-77,159 96,412 277,546 182,133 371,148 533,94 163,-54 299,-177 282,-344 -17,-167 -188,-377 -273,-482 -85,-105 -85,-105 -85,-105 0,0 0,0 -165,33 -164,33 -491,99 -569,258z"/>
  <path class="fil0 str1" d="M88645 26691c407,105 957,397 1196,722 240,325 169,683 0,939 -169,257 -435,411 -608,394 -173,-16 -253,-202 -306,-427 -52,-225 -78,-489 -204,-717 -125,-229 -352,-422 -538,-558 -186,-136 -331,-215 -271,-295 60,-80 324,-162 731,-58z"/>
  <path class="fil0 str1" d="M88438 27536c-231,-46 -601,50 -798,152 -197,102 -220,210 -143,303 76,93 253,172 496,164 242,-8 550,-103 704,-150 155,-48 155,-48 155,-48 0,0 0,0 -46,-94 -46,-93 -138,-281 -368,-327z"/>
  <ellipse class="fil0 str1" cx="75856" cy="25000" rx="1638" ry="850"/>
  <ellipse class="fil0 str1" cx="69240" cy="27174" rx="1638" ry="850"/>
  <ellipse class="fil0 str1" cx="73084" cy="34357" rx="1638" ry="850"/>
  <ellipse class="fil0 str1" cx="77251" cy="29506" rx="1638" ry="850"/>
  <ellipse class="fil0 str1" cx="85370" cy="25159" rx="1638" ry="850"/>
  <ellipse class="fil0 str1" cx="93057" cy="29190" rx="1638" ry="850"/>
  <ellipse class="fil0 str1" cx="87828" cy="34105" rx="1638" ry="850"/>
  <ellipse class="fil0 str1" cx="80832" cy="36941" rx="1638" ry="850"/>
  <path class="fil0 str1" d="M80559 27361l-1630 -874c761,-491 2108,-499 3009,-16 900,482 1013,1272 251,1763l-1630 -873z"/>
  <path class="fil0 str1" d="M92900 32094l1934 -696c544,651 119,1490 -949,1875 -1069,384 -2375,168 -2918,-483l1933 -696z"/>
  <path class="fil0 str1" d="M84076 32091l-1770 803c-674,-554 -429,-1363 549,-1806 978,-444 2317,-354 2991,200l-1770 803z"/>
  <path class="fil0 str1" d="M80568 33994c-179,-313 -682,-739 -1249,-928 -568,-189 -1197,-141 -1649,-16 -451,125 -725,325 -698,458 26,132 352,197 746,241 393,44 855,69 1255,169 398,100 734,277 971,421 236,145 372,257 514,213 142,-44 289,-245 110,-558z"/>
  <path class="fil0 str1" d="M79084 34138c77,177 -96,458 -277,607 -182,148 -371,164 -533,104 -163,-60 -300,-197 -282,-382 17,-185 187,-419 273,-536 85,-118 85,-118 85,-118 0,0 0,0 165,37 164,37 491,110 569,288z"/>
  <ellipse class="fil0 str1" cx="96544" cy="7852" rx="787" ry="756"/>
  <ellipse class="fil0 str1" cx="75064" cy="6376" rx="1638" ry="1701"/>
  <ellipse class="fil0 str1" cx="77527" cy="11409" rx="945" ry="882"/>
  <path class="fil0 str1" d="M94559 6718l1631 -1485c-762,-836 -2109,-849 -3010,-28 -900,820 -1012,2163 -251,2999l1630 -1486z"/>
  <path class="fil0 str1" d="M92754 10823c-179,-410 -683,-967 -1250,-1213 -568,-247 -1197,-185 -1648,-22 -452,163 -726,426 -699,599 26,173 352,258 746,316 393,57 856,89 1255,220 399,131 735,362 971,551 236,189 373,336 514,278 142,-58 289,-320 111,-729z"/>
  <path class="fil0 str1" d="M91269 11010c77,232 -96,600 -277,794 -181,195 -370,215 -533,137 -163,-79 -299,-258 -282,-500 17,-243 188,-548 273,-701 86,-153 86,-153 86,-153 0,0 0,0 164,48 164,48 492,144 569,375z"/>
  <ellipse class="fil0 str1" cx="95261" cy="13811" rx="1638" ry="1701"/>
  <ellipse class="fil0 str1" cx="84360" cy="13686" rx="1638" ry="1701"/>
  <path class="fil0 str1" d="M85430 8141l-1630 -1485c762,-836 2109,-849 3009,-29 901,821 1013,2163 252,2999l-1631 -1485z"/>
  <ellipse class="fil0 str1" cx="90031" cy="5054" rx="787" ry="756"/>
  <ellipse class="fil0 str1" cx="82217" cy="9654" rx="787" ry="756"/>
  <path class="fil0 str1" d="M79428 4993c179,-410 682,-967 1249,-1214 568,-246 1198,-184 1649,-21 451,163 725,425 698,599 -26,173 -352,258 -746,316 -393,57 -855,89 -1255,220 -398,131 -734,362 -970,551 -237,189 -373,336 -515,278 -142,-58 -289,-320 -110,-729z"/>
  <path class="fil0 str1" d="M80912 5180c-77,232 96,600 277,794 182,194 371,215 533,136 163,-78 300,-257 282,-499 -17,-243 -187,-548 -273,-702 -85,-153 -85,-153 -85,-153 0,0 0,0 -165,48 -164,48 -491,144 -569,376z"/>
  <path class="fil0 str1" d="M69291 5674c-180,-410 -683,-967 -1250,-1213 -568,-247 -1197,-185 -1648,-22 -452,163 -726,426 -699,599 26,173 352,258 746,316 393,57 856,89 1255,220 398,131 734,362 971,551 236,189 372,336 514,278 142,-58 289,-320 111,-729z"/>
  <path class="fil0 str1" d="M67806 5861c77,232 -96,600 -277,794 -182,195 -371,215 -533,137 -163,-79 -299,-258 -282,-500 17,-243 188,-548 273,-701 85,-153 85,-153 85,-153 0,0 0,0 165,48 164,48 491,144 569,375z"/>
  <path class="fil0 str0" d="M139438 14232l10658 0c0,1871 -492,3709 -1428,5329 -2943,5099 -9461,6845 -14559,3901 -5098,-2943 -6845,-9460 -3901,-14559 2943,-5098 9461,-6844 14559,-3901l-5329 9230z"/>
  <path class="fil0 str0" d="M139438 14232l7631 0c0,1340 -352,2656 -1022,3816 -2108,3651 -6775,4901 -10425,2794 -3650,-2108 -4901,-6775 -2793,-10425 2107,-3651 6775,-4901 10425,-2794l-3816 6609z"/>
  <path class="fil0 str0" d="M144608 11376l5329 -9230c3297,1904 5328,5422 5328,9230l-10657 0z"/>
  <path class="fil0 str0" d="M144608 11376l3626 -6280c2243,1295 3625,3689 3625,6280l-7251 0z"/>
  <line class="fil0 str0" x1="131620" y1="29754" x2="148278" y2= "29754" />
  <line class="fil0 str0" x1="131620" y1="33251" x2="148278" y2= "33251" />
  <line class="fil0 str0" x1="131620" y1="33251" x2="148278" y2= "33251" />
  <line class="fil0 str0" x1="131620" y1="36748" x2="148278" y2= "36748" />
  <line class="fil0 str0" x1="131620" y1="36748" x2="148278" y2= "36748" />
  <line class="fil0 str0" x1="131620" y1="40245" x2="148278" y2= "40245" />
 </g>
</svg>
