<?xml version="1.0" encoding="UTF-8"?>
<!DOCTYPE svg PUBLIC "-//W3C//DTD SVG 1.1//EN" "http://www.w3.org/Graphics/SVG/1.1/DTD/svg11.dtd">
<!-- Creator: CorelDRAW 2017 -->
<svg xmlns="http://www.w3.org/2000/svg" xml:space="preserve" width="34mm" height="34mm" version="1.1" style="shape-rendering:geometricPrecision; text-rendering:geometricPrecision; image-rendering:optimizeQuality; fill-rule:evenodd; clip-rule:evenodd"
viewBox="0 0 3400000 3400000"
 xmlns:xlink="http://www.w3.org/1999/xlink">
 <defs>
  <style type="text/css">
   <![CDATA[
    .str0 {stroke:#78B23F;stroke-width:33860;stroke-miterlimit:22.9256}
    .fil0 {fill:none}
   ]]>
  </style>
 </defs>
 <g id="Слой_x0020_1">
  <metadata id="CorelCorpID_0Corel-Layer"/>
  <g id="_2540701988176">
   <path class="fil0 str0" d="M1127670 2178410c-3880,10080 -10400,19300 -19410,26570 -27340,22020 -67360,17720 -89380,-9620 -14900,-18480 -17760,-42780 -9580,-63380 -1960,-1870 -3820,-3890 -5560,-6060 -22030,-27330 -17720,-67350 9610,-89380 27340,-22020 67360,-17720 89390,9620 1740,2160 3320,4410 4730,6720 21870,-3610 45000,4340 59900,22830 22020,27340 17720,67360 -9620,89380 -9010,7270 -19410,11670 -30080,13320z"/>
  </g>
  <g id="_2540701987888">
   <path class="fil0 str0" d="M845330 1192580c-8970,6000 -19600,9800 -31160,10560 -35030,2290 -65280,-24250 -67580,-59280 -1540,-23700 10090,-45210 28630,-57360 -520,-2660 -880,-5380 -1060,-8150 -2290,-35030 24260,-65290 59290,-67580 35030,-2290 65280,24250 67570,59290 190,2770 180,5510 20,8220 19960,9630 34300,29440 35850,53130 2290,35030 -24250,65290 -59290,67580 -11550,760 -22590,-1630 -32270,-6410z"/>
  </g>
  <g id="_2540701986640">
   <path class="fil0 str0" d="M2341380 2532740c-7530,7730 -17150,13650 -28300,16780 -33790,9500 -68890,-10190 -78390,-43990 -6430,-22860 500,-46310 16120,-62040 -1060,-2490 -1970,-5080 -2730,-7760 -9500,-33790 10200,-68890 44000,-78390 33790,-9500 68890,10200 78390,43990 760,2680 1320,5360 1720,8040 21520,5290 39660,21700 46080,44560 9500,33790 -10200,68890 -43990,78390 -11150,3140 -22440,3090 -32900,420z"/>
  </g>
  <g id="_2540701983408">
   <path class="fil0 str0" d="M2464330 1727140c-7930,-7320 -14100,-16780 -17530,-27840 -10390,-33530 8370,-69140 41910,-79530 22680,-7030 46310,-720 62440,14470 2470,-1120 5030,-2100 7680,-2930 33530,-10390 69140,8370 79530,41910 10400,33530 -8370,69140 -41900,79530 -2650,820 -5320,1460 -7990,1930 -4710,21650 -20640,40220 -43320,47240 -33530,10390 -69140,-8370 -79530,-41900 -3430,-11060 -3690,-22350 -1290,-32880z"/>
  </g>
  <g id="_2540701982160">
   <path class="fil0 str0" d="M1924770 704120c-910,-10760 920,-21910 5850,-32380 14950,-31760 52830,-45390 84590,-30430 21480,10110 34670,30710 36320,52810 2580,840 5130,1840 7650,3020 31760,14960 45390,52830 30430,84590 -14960,31760 -52830,45390 -84590,30430 -2510,-1180 -4910,-2510 -7200,-3970 -18090,12810 -42370,15760 -63850,5650 -31760,-14960 -45390,-52830 -30430,-84590 4930,-10470 12360,-18980 21230,-25130z"/>
  </g>
  <g id="_2540701982608">
   <path class="fil0 str0" d="M1806750 1594360c-10280,-3300 -19870,-9270 -27640,-17850 -23560,-26020 -21570,-66220 4450,-89790 17600,-15930 41690,-20180 62730,-13210 1760,-2060 3670,-4030 5730,-5900 26020,-23560 66220,-21570 89780,4460 23570,26020 21570,66220 -4450,89780 -2060,1870 -4210,3570 -6430,5120 4860,21620 -1750,45170 -19350,61110 -26020,23560 -66230,21570 -89790,-4450 -7770,-8580 -12760,-18710 -15030,-29270z"/>
  </g>
  <g id="_2540701981392">
   <path class="fil0 str0" d="M1500770 2535250c2210,-10570 7160,-20730 14880,-29350 23440,-26140 63630,-28330 89770,-4900 17680,15850 24410,39370 19650,61010 2230,1540 4390,3230 6460,5090 26140,23430 28340,63620 4910,89760 -23440,26140 -63630,28340 -89770,4900 -2070,-1850 -3980,-3810 -5750,-5860 -21010,7080 -45110,2950 -62790,-12900 -26140,-23430 -28340,-63620 -4910,-89760 7730,-8620 17290,-14640 27550,-17990z"/>
  </g>
 </g>
</svg>
