<?xml version="1.0" encoding="UTF-8"?>
<!DOCTYPE svg PUBLIC "-//W3C//DTD SVG 1.1//EN" "http://www.w3.org/Graphics/SVG/1.1/DTD/svg11.dtd">
<!-- Creator: CorelDRAW 2017 -->
<svg xmlns="http://www.w3.org/2000/svg" xml:space="preserve" width="34mm" height="34mm" version="1.1" style="shape-rendering:geometricPrecision; text-rendering:geometricPrecision; image-rendering:optimizeQuality; fill-rule:evenodd; clip-rule:evenodd"
viewBox="0 0 3400000 3400000"
 xmlns:xlink="http://www.w3.org/1999/xlink">
 <defs>
  <style type="text/css">
   <![CDATA[
    .str0 {stroke:#E1A561;stroke-width:20000;stroke-miterlimit:22.9256}
    .fil0 {fill:#E1A561}
   ]]>
  </style>
 </defs>
 <g id="Слой_x0020_1">
  <metadata id="CorelCorpID_0Corel-Layer"/>
  <g id="_2540734154272">
   <path class="fil0 str0" d="M1632530 2102420c-2680,2860 -9560,7030 -13080,12980 -30,60 -9850,7000 -13720,11760 -4480,5490 -12270,14340 -6690,21620 4690,6120 -3030,15680 2030,25570 770,1510 -1860,8640 7950,24920 3600,5970 -1590,4020 9530,13500 4720,4010 6700,10290 13000,13150 6020,2720 -1900,1970 9980,1970 9820,0 12740,13780 24550,9870 30,-10 3030,-2110 8160,-3820 8740,-2890 16650,-1950 25870,-8580 8810,-6340 12140,-4130 16680,-7870 3700,-3050 -1190,-10890 9820,-19960 760,-640 17530,-28950 13390,-31650 -7580,-4940 1180,-30400 -14520,-42020 -1590,-1170 0,-9130 -11760,-16590 -8950,-5670 -22860,-90 -32820,-12780 -2330,-2970 -25810,-5990 -32970,-910 -4570,3240 -12200,5440 -15400,8840z"/>
   <path class="fil0 str0" d="M1418240 1508610c-2680,2860 -9560,7030 -13080,12980 -30,60 -9850,7000 -13720,11760 -4480,5490 -12270,14340 -6690,21620 4690,6120 -3030,15680 2030,25570 770,1510 -1860,8640 7950,24920 3600,5970 -1590,4020 9530,13500 4720,4010 6700,10290 13000,13150 6020,2720 -1900,1970 9980,1970 9820,0 12740,13780 24550,9870 30,-10 3030,-2110 8160,-3820 8740,-2890 16650,-1950 25870,-8580 8810,-6340 12140,-4130 16680,-7870 3700,-3050 -1190,-10890 9820,-19960 760,-640 17530,-28950 13390,-31650 -7580,-4940 1180,-30400 -14520,-42020 -1590,-1170 0,-9130 -11760,-16590 -8950,-5670 -22860,-90 -32820,-12780 -2330,-2970 -25810,-5990 -32970,-910 -4570,3240 -12200,5440 -15400,8840z"/>
   <path class="fil0 str0" d="M978370 2113850c-2680,2860 -9560,7030 -13080,12980 -30,60 -9850,7000 -13720,11760 -4480,5490 -12270,14340 -6690,21620 4690,6120 -3030,15680 2030,25570 770,1510 -1860,8640 7950,24920 3600,5970 -1590,4020 9530,13500 4720,4010 6700,10290 13000,13150 6020,2720 -1900,1970 9980,1970 9820,0 12740,13780 24550,9870 30,-10 3030,-2110 8160,-3820 8740,-2890 16650,-1950 25870,-8580 8810,-6340 12140,-4130 16680,-7870 3700,-3050 -1190,-10890 9820,-19960 760,-640 17530,-28950 13390,-31650 -7580,-4940 1180,-30400 -14520,-42020 -1590,-1170 0,-9130 -11760,-16590 -8950,-5670 -22860,-90 -32820,-12780 -2330,-2970 -25810,-5990 -32970,-910 -4570,3240 -12200,5440 -15400,8840z"/>
   <path class="fil0 str0" d="M813000 1230800c-2680,2860 -9560,7030 -13080,12980 -30,60 -9850,7000 -13720,11760 -4480,5490 -12270,14340 -6690,21620 4690,6120 -3030,15680 2030,25570 770,1510 -1860,8640 7950,24920 3600,5970 -1590,4020 9530,13500 4720,4010 6700,10290 13000,13150 6020,2720 -1900,1970 9980,1970 9820,0 12740,13780 24550,9870 30,-10 3030,-2110 8160,-3820 8740,-2890 16650,-1950 25870,-8580 8810,-6340 12140,-4130 16680,-7870 3700,-3050 -1190,-10890 9820,-19960 760,-640 17530,-28950 13390,-31650 -7580,-4940 1180,-30400 -14520,-42020 -1590,-1170 0,-9130 -11760,-16590 -8950,-5670 -22860,-90 -32820,-12780 -2330,-2970 -25810,-5990 -32970,-910 -4570,3240 -12200,5440 -15400,8840z"/>
   <path class="fil0 str0" d="M1644030 2556630c-2680,2860 -9560,7030 -13080,12980 -30,60 -9850,7000 -13720,11760 -4480,5490 -12270,14340 -6690,21620 4690,6120 -3030,15680 2030,25570 770,1510 -1860,8640 7950,24920 3600,5970 -1590,4020 9530,13500 4720,4010 6700,10290 13000,13150 6020,2720 -1900,1970 9980,1970 9820,0 12740,13780 24550,9870 30,-10 3030,-2110 8160,-3820 8740,-2890 16650,-1950 25870,-8580 8810,-6340 12140,-4130 16680,-7870 3700,-3050 -1190,-10890 9820,-19960 760,-640 17530,-28950 13390,-31650 -7580,-4940 1180,-30400 -14520,-42020 -1590,-1170 0,-9130 -11760,-16590 -8950,-5670 -22860,-90 -32820,-12780 -2330,-2970 -25810,-5990 -32970,-910 -4570,3240 -12200,5440 -15400,8840z"/>
   <path class="fil0 str0" d="M2314520 2216380c-2680,2860 -9560,7030 -13080,12980 -30,60 -9850,7000 -13720,11760 -4480,5490 -12270,14340 -6690,21620 4690,6120 -3030,15680 2030,25570 770,1510 -1860,8640 7950,24920 3600,5970 -1590,4020 9530,13500 4720,4010 6700,10290 13000,13150 6020,2720 -1900,1970 9980,1970 9820,0 12740,13780 24550,9870 30,-10 3030,-2110 8160,-3820 8740,-2890 16650,-1950 25870,-8580 8810,-6340 12140,-4130 16680,-7870 3700,-3050 -1190,-10890 9820,-19960 760,-640 17530,-28950 13390,-31650 -7580,-4940 1180,-30400 -14520,-42020 -1590,-1170 0,-9130 -11760,-16590 -8950,-5670 -22860,-90 -32820,-12780 -2330,-2970 -25810,-5990 -32970,-910 -4570,3240 -12200,5440 -15400,8840z"/>
   <path class="fil0 str0" d="M2046630 1654140c-2680,2860 -9560,7030 -13080,12980 -30,60 -9850,7000 -13720,11760 -4480,5490 -12270,14340 -6690,21620 4690,6120 -3030,15680 2030,25570 770,1510 -1860,8640 7950,24920 3600,5970 -1590,4020 9530,13500 4720,4010 6700,10290 13000,13150 6020,2720 -1900,1970 9980,1970 9820,0 12740,13780 24550,9870 30,-10 3030,-2110 8160,-3820 8740,-2890 16650,-1950 25870,-8580 8810,-6340 12140,-4130 16680,-7870 3700,-3050 -1190,-10890 9820,-19960 760,-640 17530,-28950 13390,-31650 -7580,-4940 1180,-30400 -14520,-42020 -1590,-1170 0,-9130 -11760,-16590 -8950,-5670 -22860,-90 -32820,-12780 -2330,-2970 -25810,-5990 -32970,-910 -4570,3240 -12200,5440 -15400,8840z"/>
   <path class="fil0 str0" d="M2552650 1330020c-2680,2860 -9560,7030 -13080,12980 -30,60 -9850,7000 -13720,11760 -4480,5490 -12270,14340 -6690,21620 4690,6120 -3030,15680 2030,25570 770,1510 -1860,8640 7950,24920 3600,5970 -1590,4020 9530,13500 4720,4010 6700,10290 13000,13150 6020,2720 -1900,1970 9980,1970 9820,0 12740,13780 24550,9870 30,-10 3030,-2110 8160,-3820 8740,-2890 16650,-1950 25870,-8580 8810,-6340 12140,-4130 16680,-7870 3700,-3050 -1190,-10890 9820,-19960 760,-640 17530,-28950 13390,-31650 -7580,-4940 1180,-30400 -14520,-42020 -1590,-1170 0,-9130 -11760,-16590 -8950,-5670 -22860,-90 -32820,-12780 -2330,-2970 -25810,-5990 -32970,-910 -4570,3240 -12200,5440 -15400,8840z"/>
   <path class="fil0 str0" d="M2020170 933140c-2680,2860 -9560,7030 -13080,12980 -30,60 -9850,7000 -13720,11760 -4480,5490 -12270,14340 -6690,21620 4690,6120 -3030,15680 2030,25570 770,1510 -1860,8640 7950,24920 3600,5970 -1590,4020 9530,13500 4720,4010 6700,10290 13000,13150 6020,2720 -1900,1970 9980,1970 9820,0 12740,13780 24550,9870 30,-10 3030,-2110 8160,-3820 8740,-2890 16650,-1950 25870,-8580 8810,-6340 12140,-4130 16680,-7870 3700,-3050 -1190,-10890 9820,-19960 760,-640 17530,-28950 13390,-31650 -7580,-4940 1180,-30400 -14520,-42020 -1590,-1170 0,-9130 -11760,-16590 -8950,-5670 -22860,-90 -32820,-12780 -2330,-2970 -25810,-5990 -32970,-910 -4570,3240 -12200,5440 -15400,8840z"/>
   <path class="fil0 str0" d="M1434780 804160c-2680,2860 -9560,7030 -13080,12980 -30,60 -9850,7000 -13720,11760 -4480,5490 -12270,14340 -6690,21620 4690,6120 -3030,15680 2030,25570 770,1510 -1860,8640 7950,24920 3600,5970 -1590,4020 9530,13500 4720,4010 6700,10290 13000,13150 6020,2720 -1900,1970 9980,1970 9820,0 12740,13780 24550,9870 30,-10 3030,-2110 8160,-3820 8740,-2890 16650,-1950 25870,-8580 8810,-6340 12140,-4130 16680,-7870 3700,-3050 -1190,-10890 9820,-19960 760,-640 17530,-28950 13390,-31650 -7580,-4940 1180,-30400 -14520,-42020 -1590,-1170 0,-9130 -11760,-16590 -8950,-5670 -22860,-90 -32820,-12780 -2330,-2970 -25810,-5990 -32970,-910 -4570,3240 -12200,5440 -15400,8840z"/>
  </g>
 </g>
</svg>
