<?xml version="1.0" encoding="UTF-8"?>
<!DOCTYPE svg PUBLIC "-//W3C//DTD SVG 1.1//EN" "http://www.w3.org/Graphics/SVG/1.1/DTD/svg11.dtd">
<!-- Creator: CorelDRAW 2017 -->
<svg xmlns="http://www.w3.org/2000/svg" xml:space="preserve" width="34mm" height="34mm" version="1.1" style="shape-rendering:geometricPrecision; text-rendering:geometricPrecision; image-rendering:optimizeQuality; fill-rule:evenodd; clip-rule:evenodd"
viewBox="0 0 340000 340000"
 xmlns:xlink="http://www.w3.org/1999/xlink">
 <defs>
  <style type="text/css">
   <![CDATA[
    .fil0 {fill:#FAF7B4}
   ]]>
  </style>
 </defs>
 <g id="Слой_x0020_1">
  <metadata id="CorelCorpID_0Corel-Layer"/>
  <path class="fil0" d="M216963 241427c-513,170 -990,401 -1425,679 -130,-767 -453,-1513 -978,-2160 -463,-571 -1033,-1004 -1657,-1294 38,-130 72,-260 100,-395 304,-1474 -124,-2930 -1034,-3990 1312,-562 2353,-1525 3021,-2699 1082,258 2224,231 3306,-93 95,49 192,96 291,139 295,128 595,223 898,286l28 166c-2271,-124 -4352,1427 -4825,3723 -490,2378 921,4705 3195,5406 -308,54 -615,131 -920,232zm-111576 37820c169,1952 1561,3663 3570,4143 1491,356 2986,-46 4080,-958 117,0 232,-6 347,-15 -305,1586 689,3146 2275,3525 1630,389 3267,-617 3657,-2247 388,-1625 -611,-3257 -2232,-3653 214,-383 377,-802 479,-1251 242,-1069 96,-2136 -344,-3053 488,140 994,198 1497,176l90 62c-604,1934 108,4112 1883,5286 2151,1425 5051,835 6475,-1317 875,-1320 990,-2923 451,-4293 133,-664 35,-1337 -249,-1921 1303,1875 3820,2559 5923,1508 950,-474 1667,-1229 2102,-2114 472,373 1006,684 1593,918 3268,1300 6971,-295 8271,-3563 437,-1099 548,-2248 376,-3338 209,10 419,-3 624,-36 839,517 1847,774 2904,670l271 -34 -6 26c-1304,487 -2458,1403 -3230,2689 -1086,1809 -1167,3941 -407,5748 -1655,162 -3172,1204 -3860,2845 -998,2379 122,5118 2502,6116 1536,644 3222,406 4492,-485 862,139 1772,38 2629,-342 1918,-849 2982,-2833 2750,-4813 1132,-516 2127,-1369 2816,-2517 342,-570 586,-1172 733,-1787 615,-229 1181,-550 1685,-944l217 -32c-204,313 -382,650 -532,1007 -639,1522 -641,3151 -129,4593 -272,593 -425,1253 -425,1948 0,2580 2092,4672 4672,4672 1964,0 3645,-1213 4336,-2930 1433,-636 2636,-1797 3290,-3357 322,-767 482,-1561 496,-2345 500,477 1165,785 1909,829 333,20 657,-14 963,-96 449,391 978,701 1568,900 153,828 524,1584 1056,2201 -798,1163 -1011,2609 -638,3922 -62,-76 -131,-152 -202,-224 -1182,-1188 -3104,-1193 -4292,-12 -280,279 -493,598 -642,940 -2533,-461 -5201,651 -6604,2990 -1809,3015 -831,6927 2185,8737 3015,1809 6927,831 8737,-2185 529,-882 820,-1840 891,-2800 593,16 1177,-145 1677,-453 -165,235 -310,488 -433,759 -1066,2349 -25,5119 2325,6185 2349,1066 5119,25 6185,-2325 1066,-2349 25,-5119 -2325,-6185 -1604,-728 -3404,-472 -4724,510 51,-87 98,-178 141,-272 384,-846 347,-1776 -22,-2554 1085,394 2287,373 3360,-64 331,451 750,852 1250,1172 2173,1391 5063,756 6454,-1418 861,-1345 946,-2966 369,-4335 298,-549 489,-1165 545,-1821l170 43c1635,370 3260,-655 3630,-2290 370,-1635 -655,-3260 -2290,-3630 -1423,-322 -2839,414 -3426,1688 -730,-529 -1622,-854 -2592,-884 -586,-19 -1151,72 -1674,253 -219,-820 -657,-1556 -1250,-2137 202,-171 396,-356 580,-556 382,-416 699,-868 950,-1345 365,-603 593,-1286 658,-1998 118,-773 93,-1563 -73,-2327 1868,353 3840,-462 4875,-2188l133 -237c252,434 571,828 950,1164 -1476,1314 -2008,3478 -1164,5383 1044,2359 3804,3425 6164,2380 84,-37 166,-78 247,-119 55,699 227,1400 527,2077 1424,3216 5186,4669 8401,3245 1971,-873 3278,-2623 3669,-4587 1572,1068 3706,1106 5343,-63 244,-174 466,-368 665,-576 114,52 231,101 350,147 3284,1259 6966,-384 8224,-3668 106,-277 192,-558 258,-839l25 36c1499,2100 4417,2587 6517,1087 2100,-1499 2587,-4417 1087,-6517 -292,-410 -639,-758 -1023,-1042 -79,-234 -186,-458 -320,-667 237,161 492,302 765,420 170,74 342,136 516,188 300,1003 1112,1825 2204,2086 523,125 1047,106 1530,-31 -929,2306 118,4959 2405,5997 2349,1066 5119,25 6185,-2325l106 -252c506,484 1100,893 1774,1199 3203,1453 6977,35 8430,-3168 890,-1963 703,-4140 -313,-5866 1625,-214 3052,-1277 3699,-2823 1925,1095 4418,692 5889,-1068 1656,-1979 1393,-4926 -587,-6581 -1872,-1566 -4609,-1416 -6301,281 -14,-1626 -656,-3188 -1775,-4356l193 -188c1325,-1353 1924,-3147 1802,-4899 243,-186 474,-392 692,-616 361,17 722,-7 1075,-72 -185,352 -326,733 -418,1139 -570,2517 1009,5019 3525,5589 2284,517 4555,-735 5382,-2852 160,87 327,165 501,234 2399,952 5115,-221 6067,-2619 650,-1637 310,-3421 -733,-4692 88,45 180,87 275,125 1129,448 2366,171 3197,-609 171,30 346,50 523,61 2575,155 4789,-1808 4944,-4384 106,-1759 -777,-3349 -2168,-4230 101,16 203,28 307,34 1673,101 3111,-1174 3211,-2847 101,-1673 -1174,-3111 -2847,-3211 -1673,-101 -3111,1174 -3211,2847 -63,1049 414,2004 1191,2597 -279,-71 -569,-116 -867,-134 -615,-37 -1210,47 -1760,231 561,-1853 -83,-3914 -1695,-5106 608,-498 1098,-1154 1399,-1940 423,-1105 399,-2270 17,-3298 -46,-1759 -1090,-3415 -2803,-4162 1127,-75 2149,-552 2919,-1291 -490,2169 631,4443 2753,5333 837,351 1719,440 2553,304 1489,526 3154,-184 3791,-1656 318,-732 325,-1521 78,-2219 22,-136 37,-273 47,-408 132,74 269,141 411,203 2368,1026 5119,-61 6146,-2428 1026,-2368 -61,-5119 -2428,-6146 -238,-103 -481,-184 -725,-246 279,-1424 -123,-2918 -1101,-4012 377,-499 658,-1081 813,-1727 516,-2160 -559,-4328 -2469,-5273 23,-361 5,-731 -60,-1103 -224,-1288 -956,-2362 -1953,-3049 -93,-986 -497,-1919 -1150,-2660 7,-997 -223,-2011 -712,-2958 -1029,-1991 -2962,-3210 -5038,-3416 36,-1014 -261,-1981 -803,-2781 739,-163 1407,-599 1849,-1240 147,70 298,134 452,193 448,172 902,289 1358,356l236 86c-11,317 10,637 67,961 442,2543 2861,4245 5403,3803 2543,-442 4245,-2861 3803,-5403 -274,-1574 -1304,-2826 -2653,-3446l10 -25c102,-267 185,-537 250,-807 81,132 169,260 265,385 1566,2050 4499,2442 6549,875 2050,-1566 2442,-4499 875,-6549l-157 -194c373,-34 748,-113 1118,-242 2251,-783 3523,-3116 3035,-5388 122,-189 232,-390 328,-602 980,-2159 180,-4673 -1780,-5893 11,-359 -43,-726 -168,-1085 -550,-1583 -2280,-2420 -3863,-1869 -1552,539 -2388,2213 -1900,3771 -320,352 -592,759 -799,1216 -429,946 -516,1961 -314,2905 -278,432 -485,908 -609,1408 -1187,-36 -2335,631 -2857,1780 -604,1333 -165,2873 972,3704 -493,485 -858,1061 -1091,1679 -667,-1473 -1892,-2694 -3522,-3318 -3284,-1259 -6966,384 -8224,3668 -438,1143 -525,2332 -313,3453 -799,290 -1475,912 -1803,1768 -257,671 -260,1377 -56,2012 -110,-8 -220,-12 -329,-12 -16,-2076 -1046,-4103 -2923,-5310 -675,-434 -1401,-724 -2142,-879l115 -233c2234,635 4737,20 6422,-1802 821,-888 1341,-1948 1565,-3053 181,-126 352,-274 508,-443 712,-773 945,-1816 717,-2766 172,231 367,449 587,651 1899,1747 4855,1623 6602,-276 1747,-1899 1623,-4855 -276,-6602 -1899,-1747 -4855,-1623 -6602,276 -1192,1296 -1512,3085 -992,4645 -66,-75 -139,-147 -214,-216 -405,-373 -885,-615 -1386,-727 -32,-411 -103,-826 -219,-1238 -41,-148 -88,-292 -139,-435 2296,-1034 3367,-3716 2391,-6056 -99,-237 -215,-462 -346,-673 131,-83 257,-172 378,-266 416,538 1015,941 1731,1103 1635,370 3260,-655 3630,-2290 370,-1635 -655,-3260 -2290,-3630 -480,-109 -959,-97 -1406,15 -501,-2041 -2342,-3555 -4537,-3555 -1697,0 -3183,906 -4001,2260 -1071,116 -2097,601 -2874,1415 -724,-1 -1460,167 -2148,522 -1307,675 -2161,1882 -2434,3220 -744,189 -1419,556 -1974,1056 -113,-55 -228,-106 -345,-153 325,-234 610,-536 829,-902 862,-1437 396,-3301 -1041,-4163 -1437,-862 -3301,-396 -4163,1041 -827,1378 -432,3149 869,4052l-189 83c-2272,195 -4117,2031 -4258,4375l-2 38c-678,-242 -1377,-317 -2051,-247l-42 -3c-397,-24 -788,-10 -1169,37 -156,-131 -324,-255 -501,-367 -336,-507 -778,-955 -1317,-1311l-127 -81c-1377,-1504 -3451,-2322 -5621,-2005 -747,109 -1444,344 -2074,679 -474,-693 -1093,-1302 -1847,-1778 -140,-399 -359,-756 -637,-1055 302,-393 563,-827 772,-1300 1461,-766 2618,-2092 3132,-3764 1073,2854 4077,4603 7171,4004 348,-68 684,-163 1006,-282 1576,559 3368,502 4982,-306 2231,-1117 3521,-3369 3518,-5706 1215,252 2509,-263 3197,-1380 768,-1244 527,-2827 -495,-3794 397,-104 786,-261 1153,-474 51,122 106,243 168,363 390,756 957,1360 1626,1788 134,585 385,1154 756,1673 1502,2098 4421,2581 6519,1079 2098,-1502 2581,-4421 1079,-6519 -53,-75 -110,-146 -166,-217 673,-195 1325,-507 1927,-938 1786,-1279 2714,-3313 2659,-5355l68 -110c1809,-3015 831,-6927 -2185,-8737 -743,-446 -1540,-721 -2347,-840 592,-215 1162,-523 1689,-926 2077,-1588 2905,-4204 2316,-6590 2797,-739 4821,-3326 4733,-6341 -101,-3515 -3034,-6283 -6549,-6181 -398,11 -787,60 -1163,141 -472,-798 -1183,-1465 -2091,-1877 -83,-38 -167,-72 -252,-105 485,-506 894,-1101 1200,-1776 1453,-3202 35,-6977 -3168,-8430 -1963,-891 -4141,-701 -5867,315l-4 -34c306,-1002 277,-2113 -158,-3156 -992,-2382 -3728,-3509 -6110,-2516 -433,180 -824,418 -1169,701 90,-1070 -392,-2156 -1352,-2790 -1398,-923 -3281,-538 -4204,860 -924,1399 -539,3281 860,4205 875,578 1941,643 2843,268 -200,206 -384,433 -548,681 -1091,1652 -996,3744 81,5270 106,1159 642,2279 1590,3102 1505,1308 3609,1479 5269,591 486,1755 1719,3291 3507,4102 520,236 1055,396 1593,485 -109,175 -208,359 -296,552 -124,273 -218,552 -287,833 -1049,165 -2049,687 -2799,1552l-102 122c-1894,-1444 -4611,-1237 -6261,547 -136,147 -259,299 -373,458l-11 -2c-300,-488 -671,-942 -1113,-1349 -193,-178 -395,-340 -603,-490 -277,-1267 -942,-2462 -1984,-3390 -1196,-1065 -2683,-1596 -4168,-1612 -310,-352 -679,-663 -1103,-917 -1057,-634 -2263,-802 -3380,-563 165,-893 73,-1843 -323,-2736 -901,-2037 -3082,-3109 -5179,-2693 220,-236 419,-498 592,-786 1327,-2212 610,-5083 -1603,-6410 -2213,-1328 -5083,-610 -6411,1602 -192,320 -340,655 -449,996 -480,41 -951,156 -1395,340 -170,-469 -459,-902 -862,-1252 -725,-629 -1663,-852 -2539,-692 -179,-348 -400,-667 -655,-954 2453,-823 4255,-3102 4341,-5840 102,-3296 -2317,-6085 -5517,-6511 147,-936 -146,-1927 -875,-2640 -750,-735 -1785,-1001 -2741,-803 236,-165 460,-353 669,-566 1806,-1843 1775,-4802 -69,-6607 -1836,-1799 -4779,-1775 -6586,47 -282,-1045 -831,-2025 -1633,-2829 565,-1938 202,-4113 -1166,-5800 -2204,-2717 -6184,-3145 -8915,-968 -949,-45 -1829,356 -2422,1031 88,-272 152,-557 190,-851 327,-2559 -1483,-4900 -4043,-5227 -2559,-327 -4900,1483 -5227,4043 -327,2559 1483,4900 4043,5227 1746,223 3390,-550 4363,-1875 -22,97 -40,197 -53,298 -117,910 183,1778 751,2412 16,1384 481,2773 1421,3932 137,168 280,328 430,479 -702,2398 57,5080 2103,6737 -2254,-666 -4698,457 -5628,2675 -41,98 -77,196 -111,294 -775,-1661 -2488,-2760 -4397,-2693 22,-712 -120,-1421 -413,-2071l-1 -12c-120,-1228 -582,-2339 -1282,-3251 -350,-894 -1118,-1608 -2122,-1848 -77,-18 -154,-34 -231,-46 -668,-314 -1396,-514 -2157,-579 287,-2330 -1215,-4554 -3552,-5112 -125,-30 -250,-53 -375,-73 887,-385 1662,-1048 2183,-1949 1290,-2235 524,-5092 -1711,-6383 -1107,-639 -2367,-773 -3514,-474 -794,-309 -1680,-404 -2578,-230 -1729,335 -3049,1584 -3557,3148 -9,-99 -24,-201 -43,-301 -319,-1645 -1911,-2721 -3557,-2402 -1645,319 -2720,1912 -2401,3557 319,1645 1911,2721 3557,2402 1030,-200 1837,-899 2217,-1798 1,287 29,578 86,870 491,2533 2943,4189 5476,3698 98,-19 195,-41 290,-66 319,124 646,211 975,262 -722,315 -1360,810 -1845,1442 -770,-11 -1535,119 -2257,379 -257,-141 -525,-267 -807,-375 -3284,-1259 -6966,384 -8224,3668 -44,114 -84,228 -121,343 -448,45 -897,155 -1334,337 -530,221 -997,528 -1393,898 -1151,-1536 -3186,-2261 -5124,-1659 -2465,765 -3842,3383 -3077,5847 45,144 96,283 152,420 -93,-110 -191,-216 -296,-319 -1000,-980 -2330,-1418 -3625,-1320 -46,-1202 -433,-2406 -1186,-3457 -220,-307 -462,-589 -722,-844 2387,-564 3950,-2899 3524,-5347 -442,-2542 -2861,-4245 -5403,-3803 -1117,194 -2073,771 -2755,1572 -1143,-392 -2437,-343 -3604,240 -1576,788 -2512,2347 -2580,3991 -36,-95 -77,-189 -123,-281 -749,-1499 -2572,-2107 -4071,-1357 -1499,749 -2107,2572 -1357,4071 749,1499 2572,2107 4071,1358 160,-80 310,-173 450,-276 -410,745 -601,1575 -575,2398 -1175,-587 -2541,-818 -3935,-576 -1207,210 -2276,748 -3130,1505 204,-623 317,-1288 318,-1980 6,-3517 -2840,-6373 -6357,-6379 -3449,-6 -6263,2733 -6375,6155 -423,-204 -882,-347 -1366,-417 1234,-904 1612,-2612 828,-3966 -841,-1450 -2698,-1944 -4148,-1104 -908,526 -1441,1451 -1506,2424 -96,-270 -217,-535 -366,-792 -1294,-2233 -4154,-2994 -6386,-1700 -2233,1294 -2994,4153 -1700,6386 1294,2232 4154,2993 6386,1699 1524,-883 2362,-2494 2330,-4138 41,91 87,180 138,268 389,671 996,1137 1680,1361 -1470,731 -2511,2217 -2591,3974 -43,944 197,1834 645,2590 -250,-208 -519,-400 -807,-573 -3015,-1809 -6927,-831 -8737,2184 -1809,3016 -831,6928 2185,8737 1792,1076 3902,1166 5698,429l57 98c422,707 1002,1263 1667,1648 -228,241 -440,503 -634,786 -321,468 -570,964 -751,1475 -663,664 -1009,1625 -851,2622 107,671 425,1254 877,1695l15 39c-438,-19 -872,24 -1292,125 -431,-1142 -1305,-2114 -2512,-2637 -2368,-1027 -5119,61 -6146,2428 -394,909 -475,1875 -294,2777l-57 16c-191,54 -375,118 -553,193 -353,-129 -718,-215 -1087,-256 1009,-2171 209,-4791 -1903,-6011 -554,-320 -1146,-513 -1742,-589 -902,-3007 -3912,-4958 -7098,-4452 -3473,552 -5841,3816 -5289,7289 236,1488 971,2773 2006,3712 -146,132 -287,271 -423,419 -1459,1586 -1961,3713 -1535,5670 -1868,-353 -3839,464 -4874,2189 -1328,2212 -610,5083 1602,6410 2213,1328 5083,610 6411,-1602 463,-772 676,-1624 665,-2463 2395,983 5250,435 7105,-1581 379,-413 694,-861 945,-1335 183,917 637,1743 1279,2385l4 26c-580,470 -1056,1086 -1365,1823 -41,97 -77,196 -111,294 -2707,632 -4777,2998 -4910,5911 -13,291 -6,578 18,860 -852,-42 -1719,148 -2499,583 -579,-1259 -1708,-2250 -3160,-2597 -2510,-599 -5031,949 -5631,3459 -300,1254 -62,2512 564,3531 -362,278 -698,598 -1000,958 -1017,293 -1852,1110 -2116,2213 -197,827 -36,1656 385,2323l-27 84c-1849,-930 -4113,-943 -6041,166 -3049,1753 -4099,5646 -2346,8695 1753,3048 5646,4098 8695,2345 1004,-578 1792,-1387 2333,-2323 -38,127 -70,255 -97,386 -228,1106 -45,2201 446,3127 -1054,-280 -2224,20 -3014,878 -710,772 -944,1814 -717,2763 -172,-230 -367,-448 -586,-649 -1844,-1696 -4684,-1629 -6447,115 -668,-159 -1374,-213 -2096,-142 -3500,343 -6059,3459 -5716,6959 341,3477 3418,6027 6890,5723 236,1231 959,2296 1964,2980 -472,65 -937,242 -1352,539 -853,611 -1295,1582 -1267,2558 -121,-260 -267,-512 -440,-754 -1502,-2098 -4421,-2581 -6519,-1079 -660,473 -1161,1085 -1490,1769 -227,-240 -474,-464 -742,-670 525,-1293 100,-2823 -1099,-3644 -382,-262 -803,-423 -1232,-492 58,-175 108,-356 146,-542 521,-2527 -1105,-4998 -3632,-5519 -1093,-225 -2175,-49 -3094,428 168,-466 224,-980 141,-1504 -263,-1655 -1819,-2783 -3474,-2520 -1655,263 -2783,1818 -2520,3474 263,1655 1818,2783 3473,2520 156,-25 308,-61 454,-108 -229,409 -400,859 -500,1343 -356,1726 290,3425 1540,4495 -96,-31 -195,-56 -296,-77 -1642,-339 -3247,718 -3585,2359 -135,658 -47,1310 213,1877 -488,1855 206,3898 1880,5044 623,426 1312,680 2012,775 538,1070 1381,2001 2494,2646 1716,995 3704,1098 5427,454 248,1042 844,1948 1659,2590 16,751 311,1496 883,2071 322,323 699,559 1100,707 120,1056 791,2019 1842,2459 453,190 926,262 1384,230 21,273 59,543 115,811 -861,1583 -716,3492 283,4915 -516,126 -1001,340 -1436,624 -1387,-845 -3207,-447 -4109,920 -924,1398 -539,3281 860,4204 448,296 946,458 1447,495 139,355 321,689 539,997 -200,412 -333,842 -404,1278 -793,-322 -1717,-309 -2537,115 -724,374 -1233,1000 -1478,1715 -1097,-371 -2234,-426 -3305,-206l-82 -19c-932,-211 -1862,-205 -2738,-17 -35,-328 -104,-657 -212,-983 -813,-2449 -3457,-3776 -5906,-2964 -2449,813 -3776,3457 -2964,5906 555,1671 1963,2820 3579,3123 -98,22 -195,49 -292,81 -1591,527 -2453,2245 -1925,3836 527,1590 2245,2452 3836,1924 222,-73 429,-170 621,-286 834,871 1925,1516 3189,1802 911,206 1821,205 2680,29 1725,416 3504,82 4937,-839 1334,2104 4103,2799 6280,1541 719,-415 1286,-992 1681,-1659 -120,313 -216,639 -287,978 -643,3076 1051,6097 3875,7219 -223,140 -437,294 -642,461 -780,-649 -1868,-894 -2902,-551 -1590,529 -2451,2247 -1922,3837 331,996 1128,1705 2068,1967 -284,38 -569,104 -851,198 -132,44 -261,94 -386,148 -1310,142 -2552,833 -3354,2005 -1458,2129 -913,5037 1216,6495l230 148c-565,415 -1072,929 -1490,1540 -1987,2902 -1245,6865 1656,8852 457,313 941,558 1439,738 -792,471 -1453,1181 -1863,2084 -1067,2349 -26,5119 2324,6185 2350,1066 5120,25 6186,-2325 229,-505 361,-1029 403,-1551l204 92c514,215 1043,332 1570,359 -989,1051 -1113,2690 -222,3888 1000,1345 2901,1624 4246,624 1345,-1000 1624,-2901 624,-4246 -434,-585 -1038,-968 -1693,-1132 683,-487 1244,-1165 1592,-1995 549,-1308 456,-2724 -133,-3901 -151,-413 -364,-813 -640,-1184 -360,-484 -795,-879 -1277,-1179 66,-791 -15,-1609 -265,-2414 -165,-530 -393,-1024 -673,-1475 1579,38 3140,-726 4054,-2154 715,-1118 894,-2425 604,-3620 340,-41 672,-119 991,-231l201 136c133,1063 825,2023 1890,2447 975,387 2031,235 2837,-316 -153,242 -287,502 -396,778 -772,1940 -153,4090 1383,5345 -1369,1888 -1141,4546 615,6169 71,66 144,129 219,190l-43 81c-260,-304 -564,-579 -910,-816 -2129,-1458 -5038,-914 -6496,1215 -1458,2129 -913,5037 1216,6495l230 148c-565,414 -1072,929 -1490,1540 -88,129 -172,261 -249,394 -821,99 -1626,417 -2323,966 -2028,1597 -2378,4534 -782,6562 1376,1749 3751,2250 5679,1331 844,438 1753,670 2660,708 16,1439 523,2827 1417,3934 -16,965 265,1942 869,2788 373,522 832,944 1346,1260 -18,118 -31,236 -40,353 -781,-1192 -2097,-2014 -3630,-2106 -1758,-106 -3347,775 -4228,2165 16,-99 27,-200 33,-303 101,-1673 -1174,-3111 -2847,-3211 -1673,-101 -3111,1174 -3211,2847 -101,1673 1174,3111 2847,3211 1048,63 2003,-413 2596,-1189 -70,278 -116,567 -134,864 -155,2575 1808,4789 4384,4944 2556,154 4755,-1778 4940,-4325 630,965 1615,1699 2824,1988 1713,409 3431,-182 4540,-1397 -33,95 -61,192 -85,292 -389,1630 616,3267 2246,3657 464,111 929,107 1366,10 435,517 988,949 1645,1247 83,38 167,73 251,105 -485,506 -893,1101 -1199,1775 -1453,3203 -35,6977 3168,8430 936,425 1920,603 2881,565zm135905 -5038c-1437,-862 -3301,-396 -4163,1041 -862,1437 -396,3301 1041,4163 1437,862 3301,396 4163,-1041 862,-1437 396,-3301 -1041,-4163zm-16595 -16398c-108,-30 -216,-55 -325,-79 -25,-297 -94,-589 -203,-866 231,-180 436,-391 607,-630 -63,281 -100,572 -109,870 -8,239 2,475 30,705zm4600 5047c-56,-320 -136,-636 -240,-944l24 2c161,408 378,793 648,1142 -88,-49 -179,-95 -274,-136l-158 -64zm-20530 19173c-599,2510 949,5031 3459,5631 488,116 976,151 1450,114 834,870 1924,1514 3187,1800 331,75 662,122 990,144 314,228 675,398 1075,494 1595,381 3196,-574 3630,-2142 932,-847 1623,-1979 1922,-3301 776,-3430 -1375,-6840 -4805,-7617 -2034,-460 -4061,109 -5537,1364 -2422,-437 -4792,1090 -5371,3513zm-18645 -86281c-23,128 -39,255 -51,383 -80,78 -158,159 -235,242 -322,350 -598,727 -827,1122 -443,94 -876,236 -1290,421 -1973,-1112 -4462,-641 -5893,1095 -278,37 -556,93 -832,168 -311,-337 -662,-645 -1054,-916 717,-638 1299,-1447 1678,-2399 661,-1662 573,-3436 -103,-4950 710,-37 1417,-191 2092,-470 -65,1681 782,3339 2341,4235 1419,818 3090,804 4449,113 -123,302 -216,622 -275,956zm36676 23288l-16 -138c1592,-316 2661,-1838 2404,-3454 -263,-1655 -1819,-2783 -3474,-2520 -1152,183 -2048,993 -2398,2026 -270,-69 -544,-113 -820,-134 -161,-217 -336,-425 -524,-621 467,-1424 209,-2931 -588,-4096l111 7c780,47 1537,-49 2243,-265 180,102 369,192 567,271 1636,650 3420,312 4693,-731 -46,89 -88,181 -126,276 -619,1557 141,3322 1698,3942 1557,619 3322,-141 3942,-1698 619,-1557 -141,-3322 -1698,-3942 -975,-387 -2031,-235 -2836,315 153,-242 286,-501 396,-777 311,-783 395,-1600 285,-2379 761,-812 1188,-1851 1251,-2918 1450,136 2943,-405 3970,-1589 191,-220 358,-451 500,-694 900,1228 2241,2139 3849,2471 406,84 811,126 1211,131 -722,669 -1240,1571 -1425,2616 -165,937 -39,1859 315,2671 -2131,1007 -3205,3480 -2413,5757 56,160 120,315 191,465l-70 49c-113,81 -224,165 -330,252l-186 -78c-3268,-1300 -6971,295 -8271,3563 -1300,3268 295,6971 3563,8271 351,140 707,246 1064,320 20,302 85,595 189,872 -1100,473 -2019,1367 -2496,2568 -788,1985 -120,4186 1491,5426 -135,-18 -272,-31 -410,-37 -710,-32 -1391,96 -2006,352 -94,-146 -196,-289 -308,-427 -604,-745 -1390,-1255 -2242,-1519 691,-1133 898,-2550 447,-3907 -520,-1563 -1786,-2669 -3272,-3052 -30,-203 -73,-403 -129,-598 703,-634 1275,-1436 1648,-2376 619,-1562 577,-3221 10,-4671zm-35622 -3865c-130,-253 -295,-490 -495,-701 839,-620 1535,-1455 1996,-2466 176,79 355,148 534,210 -736,771 -1213,1796 -1282,2943 -6,92 -7,183 -8,274 -241,-101 -489,-188 -745,-260zm81132 22641c-242,-153 -502,-287 -778,-396 -2399,-952 -5115,221 -6067,2619l-7 18c-367,-198 -766,-350 -1193,-447 -638,-144 -1275,-151 -1880,-39 470,-894 623,-1884 488,-2828 769,-781 1331,-1754 1619,-2823 1973,349 4029,-252 5504,-1658 1049,422 2192,439 3224,94 -103,341 -169,700 -191,1072l-8 221c-447,326 -810,778 -1030,1331 -387,975 -233,2030 319,2836zm-32588 -8951l-124 -167c151,23 302,35 453,35 -111,41 -221,86 -329,132zm-547 35041c-494,-540 -901,-1173 -1192,-1887l-222 -63 -45 106 -102 219c352,602 499,1325 370,2057 376,-197 776,-343 1191,-432zm2571 -10295c899,-320 1824,-425 2717,-342 -191,-1094 -98,-2253 329,-3366 356,-930 907,-1728 1588,-2366 -464,-484 -837,-1023 -1119,-1595l-186 201c-1545,1578 -3935,1828 -5748,735 -166,607 -424,1199 -781,1756 -1895,2962 -5834,3827 -8796,1932 -624,-399 -1155,-889 -1586,-1441l-140 235c-409,640 -948,1146 -1561,1507 -79,486 -216,970 -415,1444 -213,507 -483,972 -801,1391 72,275 106,565 97,863 -3,103 -10,204 -24,304 841,-1414 2403,-2341 4164,-2286 1923,60 3538,1272 4202,2953 375,21 751,87 1122,202 851,-2110 3139,-3336 5418,-2792 558,134 1069,362 1520,665zm29384 -58590c-83,843 5,1685 246,2475 -431,-318 -910,-587 -1431,-794 -1015,-404 -2072,-528 -3086,-410 55,-408 55,-816 3,-1215 284,275 628,498 1020,648 1161,444 2427,128 3248,-704zm2554 5747c147,109 301,212 460,309 -95,181 -183,368 -261,559 -46,-294 -112,-585 -199,-868zm-68150 -116693c749,-17 1455,-312 1990,-807 309,1444 1297,2717 2762,3332 161,68 324,125 487,174 524,609 1156,1109 1857,1478 -53,1687 564,3367 1776,4623 -587,-553 -1325,-961 -2168,-1152 -874,-198 -1745,-136 -2535,133 54,-1350 -474,-2715 -1563,-3683 -1581,-1407 -3853,-1543 -5565,-483 -52,-494 -224,-972 -505,-1388 931,-275 1746,-833 2339,-1580 385,-171 759,-385 1115,-639l10 -8zm4780 96029l198 -42 1 24c-103,117 -202,237 -297,362 36,-114 69,-229 98,-344zm5163 -6387c-33,-1556 -639,-3054 -1696,-4196 -164,-3009 -2455,-5566 -5552,-5962 -235,-30 -470,-47 -701,-51 189,-397 342,-819 449,-1262 1077,47 2175,-277 3089,-996 283,-223 532,-471 749,-740 303,503 681,972 1134,1391 1606,1485 3770,1985 5753,1530 3,374 51,743 141,1101 -259,170 -505,370 -733,597 -221,219 -414,455 -582,704 -932,182 -1766,796 -2188,1726 -692,1526 -16,3325 1510,4018 440,199 902,285 1355,270l87 79c-633,302 -1227,713 -1752,1235 -144,143 -279,291 -406,444 -223,26 -441,64 -657,112zm-42776 41923c-94,-360 -233,-709 -412,-1040 1347,-1221 1912,-3174 1277,-5000 -49,-139 -103,-274 -163,-406l47 -6c1438,726 3053,858 4530,458 793,861 1798,1473 2891,1794 113,325 251,641 415,945 -1163,1476 -1362,3575 -341,5285 563,943 1406,1616 2359,1976 -110,410 -181,838 -207,1278 -31,521 1,1031 90,1522l-168 62c-385,-1221 -1267,-2279 -2525,-2850 -920,-418 -1904,-512 -2825,-331 -408,-511 -927,-942 -1540,-1251 -179,-936 -794,-1774 -1728,-2198 -553,-251 -1141,-322 -1700,-238zm-8705 13470c343,605 788,1162 1333,1640 -407,637 -707,1358 -869,2143 -710,3445 1507,6813 4951,7523 560,115 1118,153 1662,121 -68,195 -124,396 -167,604 -36,175 -62,351 -78,525l-62 -38c-2213,-1327 -5083,-610 -6411,1603 -150,250 -273,507 -372,771 -1756,-717 -3847,-315 -5207,1163 -179,195 -337,401 -478,615 -565,-713 -1289,-1313 -2146,-1739 507,101 1041,119 1582,41 642,-93 1234,-312 1756,-628 498,-84 982,-294 1402,-635 351,-284 621,-630 809,-1010 137,-84 270,-176 400,-275 2050,-1566 2442,-4499 875,-6549 -1523,-1994 -4338,-2419 -6378,-999l-3 -2c1205,-1060 1831,-2712 1504,-4401 -188,-969 -663,-1809 -1319,-2450 911,-2382 -259,-5064 -2637,-6010 -552,-219 -1120,-326 -1680,-331 685,-426 1286,-978 1767,-1628 589,-51 1170,-214 1707,-486 154,316 336,624 547,920 268,376 570,713 898,1012 -1016,2806 59,6030 2715,7624 1219,732 2585,1007 3899,876zm16950 4264c195,-705 215,-1426 83,-2112 139,-511 141,-1048 10,-1557 175,228 374,442 597,640 653,581 1423,945 2224,1097 129,69 262,133 400,191 225,94 454,171 683,228 -393,665 -624,1434 -643,2258 -1041,-558 -2204,-807 -3354,-745zm9297 6245c-105,-53 -212,-105 -323,-151 -199,-84 -402,-152 -605,-207l158 0c583,-10 1139,-126 1650,-329 -326,197 -620,428 -880,687zm-40636 -17887l0 -4 5 0 -5 4zm-7725 -72670l4 -18 209 -151c549,331 1156,585 1813,742l24 5c-473,151 -931,359 -1365,623 -261,-254 -542,-483 -840,-686 61,-167 113,-338 155,-515zm-9083 -2198l-7 26c-70,295 -111,589 -124,881 -104,-334 -233,-658 -388,-967 172,30 345,50 519,60zm150 2720c124,337 285,656 481,955 -191,208 -366,429 -526,659 -27,-86 -55,-172 -87,-257 62,-297 102,-602 121,-913 9,-149 13,-296 11,-444zm14383 -77l300 -105c205,146 421,282 647,406 -309,-126 -625,-226 -947,-301zm31378 -1119c360,535 837,1003 1421,1364 173,107 350,202 530,283 418,418 912,755 1458,990 -101,0 -202,5 -305,15 -1668,163 -2888,1648 -2724,3316 163,1668 1648,2888 3316,2724 823,-80 1537,-483 2029,-1070 51,322 126,639 225,948 -375,361 -709,775 -995,1238 -360,582 -613,1200 -768,1830 -242,-50 -492,-80 -746,-91 -14,-127 -33,-254 -58,-381 -476,-2458 -2798,-4089 -5248,-3737 -895,-966 -2115,-1473 -3349,-1494 590,-1380 699,-2973 188,-4510 -107,-323 -238,-631 -389,-924 525,60 1061,33 1587,-90 374,123 769,200 1180,225 963,58 1875,-180 2648,-636zm6925 -6153c-183,-157 -382,-304 -594,-435l-241 -139c-214,-338 -499,-640 -850,-880 -199,-136 -409,-246 -624,-329 210,-338 391,-701 539,-1087l58 -158c255,187 533,350 833,486 2349,1066 5119,25 6185,-2325 324,-713 453,-1465 411,-2196 356,958 1029,1807 1974,2374 278,167 567,301 861,405 25,753 329,1499 910,2068 123,121 255,228 392,324 -133,331 -236,671 -311,1013 -1996,-1898 -5077,-2343 -7580,-892 -797,462 -1456,1070 -1963,1771zm-1366 9160c-17,176 -19,353 -5,528 -211,-213 -453,-394 -717,-536 237,22 477,24 722,8zm-59085 12330c1459,46 2784,-583 3673,-1605 558,48 1126,-4 1675,-160 -379,1094 -441,2226 -234,3292 -284,281 -547,593 -781,935 -136,198 -259,402 -369,609 -886,-1093 -2253,-1775 -3767,-1732 -952,28 -1828,339 -2553,850 375,-885 457,-1845 272,-2752 621,338 1329,540 2084,563zm-3903 -7003c-373,646 -596,1390 -621,2187 -12,371 21,734 92,1082 -1006,-548 -2142,-690 -3202,-464 -135,-335 -312,-659 -531,-965 -267,-374 -579,-697 -923,-966l-18 -193c339,-448 624,-948 842,-1496 55,-139 105,-279 150,-420 1326,-408 2457,-1399 2992,-2795 204,-533 304,-1082 310,-1621 60,262 136,519 228,768l-52 287c-569,655 -854,1546 -708,2469 147,923 696,1682 1441,2127zm108623 16324c1027,466 2154,532 3184,244 189,148 387,286 596,415 2363,1456 5304,1182 7346,-469 -254,1255 6,2608 830,3716 1051,1414 2749,2062 4379,1842 -86,51 -171,109 -253,170 -1150,855 -1521,2369 -979,3631 -625,81 -1213,287 -1737,591 -773,-1975 -2828,-3234 -5018,-2918 -1884,272 -3342,1633 -3830,3353 -461,-204 -962,-287 -1454,-250 300,-265 570,-574 801,-924 1269,-1921 933,-4435 -683,-5965 -72,-77 -148,-151 -227,-224 -1182,-1087 -2773,-1449 -4227,-1110 706,-492 1163,-1263 1272,-2102zm-63447 -2095l-92 203 -162 -104c62,-82 120,-165 176,-249l78 150zm2221 8083c135,89 275,174 419,254 -856,716 -1395,1682 -1590,2710 -632,515 -1139,1201 -1438,2023 -104,287 -179,577 -225,868 -375,-157 -771,-281 -1184,-366 -1587,-327 -3158,-32 -4459,717 71,-1205 -205,-2376 -754,-3393 1557,983 3525,1287 5409,662 1777,-589 3121,-1887 3822,-3475zm9326 -7911c-68,-153 -142,-303 -222,-450 405,-838 631,-1770 636,-2736l110 -161c649,701 1512,1202 2486,1402 -62,181 -112,368 -152,560 -97,470 -119,937 -76,1391 -41,193 -73,385 -95,578 -181,-101 -369,-192 -566,-270 -697,-277 -1421,-375 -2121,-314zm-8663 22674c-107,-33 -214,-61 -322,-85 130,-248 243,-506 341,-774 -26,288 -32,574 -19,859zm-5828 5803c36,121 76,241 122,360 -70,-71 -144,-140 -223,-206l-77 -62 59 -110 119 18zm36170 90803c448,-2541 -1249,-4964 -3791,-5413 -2541,-448 -4964,1249 -5413,3791 -448,2541 1249,4964 3791,5413 2541,448 4964,-1249 5413,-3791zm-113332 -131911c-480,250 -900,632 -1199,1130 -161,268 -275,550 -346,838 -540,-5 -1068,83 -1564,254 728,-989 1067,-2263 840,-3569 -19,-110 -42,-218 -68,-324l88 115c601,760 1391,1284 2249,1556zm81038 -60387c-1473,626 -2712,1804 -3380,3396 -98,233 -181,469 -249,706 -334,-429 -748,-807 -1238,-1109 -1499,-924 -3316,-899 -4749,-92 61,-80 118,-163 171,-250 754,-1223 536,-2771 -440,-3742 -292,-773 -720,-1459 -1249,-2037 86,-91 167,-188 242,-290 500,621 1166,1122 1964,1428 2410,924 5112,-282 6035,-2691 228,-596 327,-1211 308,-1812 289,-178 563,-379 820,-599 564,40 1128,5 1679,-103 -237,291 -432,603 -588,927 -1390,1891 -1169,4565 595,6196l79 72zm73985 14467l-231 -148c142,-105 282,-216 417,-333 220,143 452,268 694,372 -100,0 -201,5 -303,15 -192,19 -378,55 -557,108l-20 -14zm-17272 10780c320,-278 587,-627 772,-1037 208,2268 1632,4351 3879,5294 1063,446 2178,581 3246,448 -605,1576 -300,3282 664,4531 213,793 732,1439 1404,1831 -161,120 -312,258 -451,414 -156,176 -288,365 -397,563 -242,29 -483,78 -722,146 -468,-989 -1282,-1819 -2364,-2289 -2368,-1026 -5119,61 -6146,2428 -184,425 -299,863 -352,1300 -368,411 -665,890 -871,1425 -397,-587 -891,-1104 -1458,-1530 1643,-954 2603,-2861 2258,-4842 -310,-1783 -1591,-3152 -3206,-3659 1782,-354 3270,-1738 3665,-3629 98,-470 121,-939 79,-1394zm28467 -1829c-37,2145 1415,4103 3587,4622 145,35 289,61 434,82 -873,275 -1642,801 -2214,1498l-108 -76c-1529,-1047 -3460,-1062 -4967,-197 986,-2393 407,-5064 -1297,-6838 934,92 1889,-99 2727,-565 469,630 1098,1143 1838,1474zm6074 4535c786,-248 1497,-700 2053,-1310 -33,94 -61,191 -85,291 -156,656 -87,1313 158,1889 -609,-451 -1334,-759 -2126,-870zm2087 -7567c-238,-267 -507,-508 -804,-717 930,-325 1766,-945 2351,-1830 154,-233 285,-474 392,-722 143,463 341,916 596,1347 -758,235 -1466,666 -2043,1291 -185,200 -348,410 -492,631zm-119164 171695c30,-1297 -478,-2601 -1508,-3549 -708,-651 -1562,-1041 -2446,-1178 69,-137 131,-279 187,-426 923,-2410 -282,-5112 -2691,-6035 -2410,-923 -5112,282 -6035,2691 -178,463 -276,938 -303,1408 -372,-204 -778,-359 -1212,-457 -2517,-570 -5019,1009 -5589,3525 -570,2517 1009,5019 3525,5589 2517,570 5019,-1009 5589,-3525 58,-257 93,-515 108,-770 182,100 374,189 573,265 315,121 635,205 955,255 -913,1817 -558,4090 1013,5536 1300,1196 3097,1514 4661,987 462,960 1415,1648 2554,1716 1048,63 2003,-413 2596,-1189 -70,278 -116,567 -134,864 -155,2575 1808,4789 4384,4944 1340,81 2582,-412 3487,-1266 763,327 1623,455 2505,328 2554,-369 4326,-2738 3958,-5292 -369,-2554 -2738,-4326 -5292,-3958 -991,143 -1865,588 -2541,1227 -481,-206 -1005,-334 -1557,-367 -1758,-106 -3347,775 -4228,2165 16,-99 27,-200 33,-303 96,-1587 -1046,-2963 -2592,-3185zm48447 -29064c-256,-250 -544,-475 -864,-667 -121,-72 -244,-139 -368,-199 763,-776 1260,-1822 1331,-2994 16,-261 10,-519 -17,-771 241,-273 464,-569 662,-890 1385,-2244 1211,-5010 -224,-7033 1085,309 2299,-2 3100,-900l56 -66c278,-9 557,-41 834,-101 -769,174 -1470,644 -1916,1367 -881,1426 -438,3296 988,4176 1426,881 3296,438 4176,-988 211,-343 347,-712 410,-1085 344,283 714,528 1105,732 -459,69 -909,244 -1312,532 -1363,974 -1680,2870 -706,4234 974,1363 2870,1680 4234,706 1363,-974 1680,-2870 706,-4234 -61,-85 -125,-166 -193,-243 376,167 774,302 1191,396 1860,421 3714,-18 5145,-1056 680,347 1438,523 2203,511 271,474 606,917 1001,1315 -2575,-155 -4789,1808 -4944,4384 -83,1380 442,2657 1345,3568 -79,-68 -163,-132 -251,-192 -1383,-947 -3272,-593 -4219,789 -154,225 -274,463 -360,709 -522,-23 -1048,40 -1552,191 77,-65 152,-134 224,-207 1173,-1197 1153,-3118 -45,-4291 -1197,-1173 -3118,-1153 -4291,45 -249,254 -444,540 -585,845 -357,-88 -730,-134 -1114,-134 -231,0 -457,17 -679,50l-254 -2c-241,-194 -516,-354 -820,-471 -1565,-599 -3320,183 -3920,1748 -29,75 -54,150 -77,226zm-6602 66l-114 119 34 -159 80 40zm-73228 -37004c-112,99 -216,208 -313,324 -5,-265 -45,-529 -119,-784 132,161 276,316 432,460zm-1012 2325c26,1183 747,2293 1916,2758 105,42 211,77 317,106 -317,470 -574,985 -758,1535 -655,-767 -1678,-1191 -2749,-1035 -1659,242 -2807,1783 -2565,3441 118,809 546,1496 1144,1960 -688,599 -1201,1398 -1446,2312 -111,-176 -236,-346 -374,-510 -1135,-1348 -2870,-1892 -4484,-1574 83,-57 165,-119 244,-186 641,-540 1003,-1289 1069,-2064 661,-191 1270,-524 1783,-972 1905,-865 3265,-2625 3632,-4675 846,-18 1679,-388 2264,-1087l7 -9zm50805 35129c146,-148 282,-307 409,-476 655,1344 1933,2321 3447,2567 -346,410 -636,857 -864,1329 -462,-1252 -1319,-2371 -2528,-3149 -152,-98 -308,-188 -464,-271zm-5162 -18087c-1398,-341 -2830,-189 -4084,366 -2223,3 -4192,1597 -4591,3862 -256,1463 195,2884 1109,3914 41,126 85,249 133,372l16 139c-545,-51 -1110,46 -1635,309 -732,367 -1251,989 -1504,1705 -159,-128 -326,-245 -498,-350l-8 -35c609,-1606 570,-3453 -260,-5110 -896,-1791 -2523,-2975 -4339,-3371 -110,-409 -276,-802 -492,-1167 312,-27 618,-85 916,-172 113,54 229,103 348,149 2410,923 5112,-282 6035,-2691 166,-432 262,-874 296,-1314 915,-1353 1094,-3146 312,-4711l-130 -241c695,-87 1388,-292 2050,-623 561,-281 1062,-633 1499,-1041 280,321 604,601 957,834 -553,485 -973,1085 -1242,1745 -1177,198 -2175,1086 -2455,2323 -370,1635 655,3260 2290,3630 84,19 168,34 252,46 986,1111 2636,1343 3887,553 332,349 717,646 1138,879zm-26680 -999c182,221 387,429 615,619 167,140 341,266 521,379 -389,137 -760,326 -1101,560 124,-515 110,-1053 -35,-1558zm3354 18340c-348,-157 -721,-274 -1114,-343 -2541,-448 -4964,1249 -5413,3791 -333,1890 521,3713 2025,4709 -272,569 -427,1191 -453,1825 -36,-95 -77,-188 -123,-281 -291,-581 -742,-1028 -1275,-1314 -510,-678 -1210,-1225 -2060,-1551l-62 -23c-508,-873 -1301,-1590 -2313,-1991l-37 -14c-137,-1940 -1156,-3793 -2920,-4921l-196 -121c1041,24 2068,-491 2654,-1442 301,-487 447,-1026 452,-1560 36,-104 66,-211 91,-320 61,-268 83,-537 72,-799 1174,965 2676,1497 4232,1452 780,308 1634,467 2525,441 1051,-30 2035,-314 2895,-790 -355,1176 38,2475 1020,3252zm-14305 -11070c715,-232 1395,-591 2003,-1077 -722,1424 -912,3119 -402,4765l113 332c-142,-56 -290,-101 -443,-136 -448,-101 -895,-98 -1316,-6 591,-1254 577,-2669 45,-3878zm-50022 -71475c1078,-264 2068,-910 2744,-1898l25 -37c580,-166 1138,-414 1654,-740 131,356 303,689 510,995 -188,173 -357,373 -501,598 -550,860 -612,1892 -258,2772 -51,969 118,1963 538,2910l97 209c-1183,182 -2195,1059 -2490,2295 -390,1630 616,3267 2246,3657 469,112 939,107 1379,7 -135,550 -119,1144 81,1719 45,129 97,252 157,371 -422,-225 -887,-389 -1384,-477 -2542,-448 -4965,1249 -5413,3791 -53,298 -76,594 -71,886 -642,509 -1189,1143 -1599,1876 438,-1242 351,-2662 -359,-3892 -1088,-1884 -3289,-2725 -5292,-2169 -51,-188 -110,-373 -178,-555 110,-42 218,-90 325,-145 561,-290 993,-730 1273,-1247 160,141 332,273 515,394 2154,1422 5052,829 6474,-1324 1093,-1655 996,-3751 -86,-5277 258,-533 417,-1124 455,-1752 66,-1099 -253,-2131 -842,-2967zm30786 82636l-59 148c-737,22 -1432,315 -1962,802 117,-262 212,-538 281,-827 480,-2012 -419,-4031 -2088,-5062l17 -124c681,-638 1233,-1437 1589,-2367 1171,-3056 -171,-6456 -3008,-7927 374,-595 656,-1261 820,-1985 391,-1730 38,-3453 -848,-4838 293,-205 566,-446 814,-724 1717,-1926 1547,-4880 -379,-6597l-157 -133c185,-336 324,-689 420,-1052 802,516 1687,832 2591,953 -774,1100 -744,2623 162,3700 676,803 1680,1168 2651,1062 -250,141 -490,307 -718,499 -896,754 -1437,1773 -1606,2845 -178,164 -339,352 -478,563 -245,370 -397,774 -464,1185 -831,1541 -1027,3416 -384,5192 688,1901 2187,3274 3966,3870 292,457 668,868 1122,1210 -397,182 -760,453 -1059,810 -755,903 -895,2115 -467,3129 -333,727 -485,1548 -401,2401 65,669 269,1291 580,1841 -386,402 -706,881 -935,1426zm-4694 -49253c593,885 1489,1570 2583,1886 123,223 264,436 423,637 -1098,427 -2037,1267 -2562,2425 -184,406 -306,825 -368,1245 -683,440 -1292,1019 -1783,1728 -471,-534 -1071,-968 -1777,-1249 -1636,-651 -3421,-311 -4693,732 47,-89 88,-182 126,-277 44,-111 81,-223 112,-335 214,-146 413,-320 591,-525 739,-851 919,-1997 573,-2991 177,-975 43,-1993 -399,-2895 2151,1306 4965,1261 7108,-332l66 -49zm9284 -23136c180,23 359,37 537,40 -329,955 -436,2003 -267,3071 61,384 155,754 279,1108 -209,217 -401,457 -570,720 -487,757 -727,1601 -742,2439 -1230,-549 -2596,-688 -3894,-420 -1170,-563 -2616,-327 -3543,676 -657,710 -909,1649 -769,2535l-118 230c-998,265 -1918,769 -2676,1462 -1745,-388 -3641,-46 -5188,1104 -340,253 -647,534 -921,835 -116,-347 -294,-666 -520,-945 1957,-783 3202,-2826 2887,-5005 -232,-1607 -1255,-2904 -2618,-3554 800,-485 1464,-1212 1864,-2136 1027,-2368 -61,-5119 -2428,-6146 -145,-63 -292,-118 -440,-165 -31,-311 -92,-618 -183,-917 341,-597 582,-1247 716,-1922 98,67 199,130 302,188 322,1039 913,2010 1771,2799 1586,1459 3713,1961 5670,1535 -353,1868 463,3840 2188,4875 2213,1327 5083,610 6411,-1603l128 -228c744,-20 1473,-219 2124,-576zm14851 -7688c179,-750 218,-1500 132,-2223 167,88 341,168 522,237 2293,878 4851,-170 5889,-2349 -47,1868 1038,3660 2865,4426 136,57 273,107 411,151 -1060,2511 -416,5521 1784,7360 489,409 1022,731 1579,970 -1007,413 -1868,1176 -2388,2200 -774,-508 -1674,-767 -2579,-764 -550,-624 -1214,-1130 -1951,-1495 75,-98 147,-200 215,-306 1146,-1782 928,-4050 -388,-5578 -1263,-2080 -3941,-2857 -6137,-1722 -110,57 -216,117 -320,181 152,-345 275,-708 366,-1088zm-2343 -6553c-683,-520 -1483,-909 -2371,-1121l-239 -52c-352,-434 -766,-829 -1241,-1169 1534,-6 3034,-766 3923,-2155 390,-609 621,-1274 703,-1947l62 43c1655,1133 3778,1056 5328,-33 -121,286 -215,588 -277,900 -184,367 -317,750 -397,1138 -2165,-390 -4370,800 -5185,2928 -185,483 -285,978 -306,1468zm-6999 -26434l-198 -56c-132,-240 -288,-471 -466,-691 -539,-665 -1223,-1143 -1969,-1425 -231,-262 -488,-492 -761,-689 -244,-467 -613,-875 -1093,-1171 -1426,-881 -3296,-438 -4176,988l-48 81c-86,57 -170,117 -253,180 -74,56 -145,114 -214,174l-122 -75c823,-597 1482,-1379 1934,-2268 738,-60 1461,-247 2136,-554 760,1434 2247,2431 3985,2485 1603,50 3044,-714 3923,-1919 1225,1290 3135,1818 4924,1196 87,-30 172,-63 256,-98 -3,701 111,1414 355,2114l73 199c-1313,-180 -2625,212 -3618,1035 -1606,-449 -3269,-239 -4668,494zm-37122 2225c1460,38 2784,-598 3668,-1627l-4 92c-47,1496 426,2887 1256,4000 -1428,162 -2712,979 -3462,2206 -1874,-28 -3599,1080 -4349,2804 -999,-345 -2092,-341 -3089,10 976,-1020 1419,-2413 1261,-3770 50,87 105,171 164,254 976,1363 2871,1677 4234,702 1363,-976 1677,-2872 701,-4234 -115,-160 -242,-306 -380,-437zm84588 -71899c-260,502 -423,1041 -488,1588 -330,-219 -685,-410 -1063,-568 -1951,-819 -4079,-592 -5761,424 -395,-406 -861,-737 -1375,-978 34,-343 31,-690 -11,-1035 2513,938 5275,183 6979,-1732 143,419 349,825 620,1204 312,437 685,803 1099,1097zm8006 -495c-196,-285 -427,-552 -692,-796 -148,-136 -302,-259 -461,-373 57,-111 110,-224 158,-338 473,487 1017,888 1608,1198 -210,92 -415,195 -613,309zm-44226 31522c-127,-150 -265,-295 -414,-432l-32 -28c-256,-1624 -1364,-3064 -3018,-3666l-76 -27c-87,-931 -454,-1817 -1047,-2538 89,47 183,89 279,127 288,114 583,181 876,205l61 199c621,1871 2311,3087 4167,3195 -10,108 -15,219 -13,331 17,1050 565,1967 1384,2498 -283,-49 -574,-73 -872,-68 -451,8 -885,78 -1295,204zm-19183 2867l-1 37 -153 -48 122 9 32 2zm8269 6253c877,-274 1704,-741 2414,-1398 106,430 258,849 453,1252 -37,111 -72,223 -103,337 -889,216 -1718,621 -2431,1178l-42 -277c-66,-379 -164,-743 -291,-1092zm-19778 5760c-538,-322 -1114,-524 -1698,-613 -17,-97 -38,-194 -62,-291 431,-812 683,-1710 736,-2631 523,522 1148,959 1860,1282 1963,890 4139,703 5866,-314 212,1612 1262,3031 2791,3685 1405,1286 3371,1930 5393,1579 1072,-187 2034,-631 2834,-1258 159,1226 673,2370 1455,3296 -1053,-546 -2315,-695 -3537,-315 -354,110 -685,258 -992,439 -622,-664 -1425,-1133 -2306,-1349 -155,-247 -349,-477 -581,-678 -509,-442 -1123,-684 -1747,-733 -612,-521 -1364,-890 -2212,-1040 -2541,-448 -4965,1249 -5413,3791 -41,233 -64,465 -70,695l-176 -115 -79 -47c619,-2007 -180,-4253 -2062,-5383zm42542 -30712c1006,-2141 719,-4617 -620,-6455 1074,45 2139,-484 2731,-1471 670,-1117 538,-2491 -229,-3453l107 -62c470,572 1060,1009 1709,1297 602,586 1330,1062 2164,1381 1201,460 2456,534 3625,279 857,1799 2810,2913 4886,2614l92 -15c386,939 995,1786 1791,2456 -178,1367 258,2686 1105,3663 -1329,722 -2324,1877 -2865,3224 -117,-91 -239,-179 -367,-261 -618,-395 -1292,-627 -1975,-706 -184,-318 -398,-624 -643,-914 -2265,-2691 -6282,-3035 -8973,-770l-28 24c-753,-441 -1603,-731 -2510,-831zm2321 33385c139,-226 260,-467 361,-722 162,-408 263,-826 306,-1243 279,191 584,355 912,485 2397,953 5115,-217 6069,-2615 106,-268 186,-538 241,-811 952,-298 1803,-898 2402,-1735 476,377 1015,692 1609,928 1006,399 2053,523 3058,410 -174,959 -50,1980 419,2918 1079,2160 3607,3118 5819,2286 252,347 541,670 863,963 -1667,-354 -3391,235 -4494,1503 -354,-275 -755,-503 -1196,-672 -2410,-923 -5112,282 -6035,2691 -211,550 -311,1114 -311,1669 -63,492 -45,983 45,1456 -2178,-475 -4498,228 -6042,1908 165,-679 222,-1396 150,-2131 -204,-2082 -1390,-3831 -3054,-4834 -126,-917 -521,-1770 -1122,-2454zm914 -11144c-1165,43 -2253,760 -2712,1914 -113,284 -180,577 -204,866 -175,402 -296,833 -352,1283 -735,-621 -1624,-1085 -2624,-1324 -1755,-419 -3514,-68 -4922,836 -87,-532 -242,-1047 -456,-1534 1360,-836 2255,-2346 2227,-4057 -2,-117 -7,-233 -18,-347 227,135 467,252 722,350 1896,726 3973,134 5222,-1324 -45,1247 688,2444 1915,2932 402,159 817,227 1223,213l-21 192zm38084 18125c-81,-2364 -1483,-4576 -3758,-5595 521,-1855 -153,-3895 -1773,-5057 1243,-900 2168,-2249 2502,-3870 110,-535 150,-1068 125,-1589 1127,120 2301,-167 3282,-897l87 -66c173,358 380,702 621,1025 -1082,629 -1910,1690 -2208,3007 -570,2517 1009,5019 3525,5589 157,35 312,63 469,82 -70,1042 208,2113 863,3028 376,525 840,949 1358,1265 -2067,120 -3997,1250 -5093,3078zm15738 -16587c493,121 1001,160 1502,118 -140,155 -264,327 -372,515 -523,910 -521,1977 -91,2854 -218,-186 -457,-356 -715,-504l-53 -30c-161,-230 -336,-447 -523,-651 223,-743 309,-1524 252,-2302zm4020 -878c243,-193 471,-415 678,-663 339,-405 598,-852 778,-1319 468,669 1105,1208 1849,1557 -380,1755 7,3589 1033,5037 -993,845 -1738,2002 -2064,3367 -166,697 -210,1394 -148,2070 -1346,-119 -2732,345 -3751,1386 -67,68 -131,138 -193,210 -14,-454 -75,-908 -187,-1354l30 -51c878,-1526 798,-3342 -53,-4749 82,59 167,113 256,164 1453,835 3308,335 4144,-1118 835,-1453 335,-3308 -1118,-4144 -398,-229 -825,-357 -1254,-393zm-12928 -23879c455,260 962,448 1508,544 428,76 853,90 1266,50 239,381 521,742 847,1074 -2104,455 -3680,2326 -3680,4566 0,257 21,509 61,755 -427,-273 -907,-479 -1428,-604l-204 -44c317,-678 386,-1474 131,-2241 -350,-1056 -1226,-1791 -2241,-2011 120,-803 28,-1628 -265,-2387 71,72 145,141 224,207 1107,925 2679,927 3781,91zm30695 20879c265,-227 513,-478 744,-754l132 -164c-45,380 -56,758 -34,1129 -195,-68 -397,-125 -605,-168l-237 -43zm-5989 125457c-120,12 -239,27 -358,46 93,-111 183,-226 269,-344 26,100 56,200 89,298zm-10795 -947c-35,141 -63,284 -84,426 -440,40 -879,143 -1306,313 466,-282 879,-642 1220,-1064 53,110 110,218 170,325zm38266 -48958c1226,850 2922,687 3960,-441 72,-78 139,-159 201,-242 304,302 649,561 1024,769 8,248 35,499 84,751 113,583 330,1120 628,1595 -841,721 -1499,1666 -1875,2766l-75 -67c-1287,-1118 -3013,-1406 -4523,-911 -345,-445 -776,-834 -1288,-1141 -464,-278 -955,-465 -1456,-569 204,-38 407,-91 609,-158 1229,-408 2176,-1278 2711,-2352zm-23935 8996c-177,-239 -378,-467 -605,-676 -527,-485 -1137,-826 -1778,-1024 121,-1117 -171,-2228 -787,-3134 87,-122 172,-247 252,-377l158 -272c2115,388 4376,-304 5911,-2027 223,-251 423,-515 600,-788 59,-64 116,-133 170,-204 366,276 768,517 1203,714 1460,663 3040,728 4463,300 -1088,1096 -1767,2574 -1848,4166 -314,161 -619,348 -912,566 -2822,2099 -3408,6088 -1310,8910 81,110 166,216 253,319 -151,94 -299,196 -442,309 -592,468 -1039,1050 -1338,1690 -594,731 -973,1649 -1034,2661 -18,292 -8,579 27,859 -939,-117 -1919,-26 -2874,306 -570,198 -1093,469 -1564,799 -434,-227 -899,-408 -1393,-533 791,-925 1205,-2141 1112,-3386 442,67 901,71 1366,4 2554,-369 4326,-2738 3958,-5292 -284,-1969 -1758,-3473 -3588,-3890zm-5985 -25167c-1155,513 -2169,1375 -2869,2541 -69,116 -134,232 -195,351 -479,62 -950,239 -1370,539 -300,214 -549,473 -745,761 -443,-1626 -1523,-3032 -3010,-3872l23 -318 144 91c883,544 1847,847 2815,926 1363,444 2914,256 4169,-643 376,-269 699,-584 969,-931 41,106 85,212 132,316l-63 239zm54213 51956l7 -18c650,-1637 310,-3422 -734,-4693 89,45 181,88 276,126 720,286 1484,276 2159,30l78 78c-799,749 -1163,1907 -846,3035 176,627 536,1154 1006,1535 -642,-171 -1306,-198 -1946,-93zm-1834 -5689c-242,-153 -502,-287 -778,-396 -1799,-714 -3776,-233 -5054,1063 88,-1409 -290,-2856 -1174,-4094 -227,-318 -478,-609 -749,-872 255,-369 455,-773 596,-1198 879,1308 2222,2251 3755,2632 821,912 1850,1533 2954,1852 87,362 240,706 450,1013zm4544 -26095l-137 195 -86 -199 223 4zm-571 4545c136,333 310,651 520,945 -280,213 -529,452 -746,711 -440,-161 -912,-218 -1377,-167 251,-141 492,-308 720,-500 349,-293 643,-628 883,-989zm-60890 -43450c-128,-770 -396,-1510 -788,-2182 917,-110 1775,-637 2271,-1500 316,-550 441,-1156 395,-1744 252,108 508,199 767,273 491,1376 1455,2592 2821,3378 1331,765 2822,997 4226,761l119 47 127 47c-588,160 -1153,437 -1662,837 -375,295 -691,636 -950,1009 -362,-157 -744,-285 -1143,-375 -1492,-338 -2980,-121 -4249,513 -158,0 -315,13 -470,38 -406,-455 -902,-832 -1464,-1102zm-36580 -24281c117,161 245,313 384,459 -453,140 -879,389 -1238,746 -163,162 -304,340 -423,526 -132,-739 -441,-1438 -901,-2035 88,49 179,94 273,135 624,271 1290,315 1905,169zm-50094 7304c-343,-363 -745,-669 -1190,-907 567,-652 946,-1452 1088,-2308 551,524 1234,922 2015,1129l-8 13c-144,233 -265,474 -363,720 -621,338 -1143,804 -1542,1353zm54611 8436c78,166 166,329 259,489 -850,351 -1588,871 -2189,1505 -123,-137 -253,-268 -390,-395 890,-356 1681,-906 2320,-1599zm-11355 21094c256,301 553,573 885,804 -397,23 -798,98 -1194,230 -1330,442 -2329,1423 -2835,2621 -692,-230 -1397,-335 -2092,-325 295,-909 298,-1878 34,-2771l0 -92c-26,-1622 -1319,-2926 -2921,-2984 -831,-294 -1716,-341 -2552,-159 -5,-182 -18,-364 -39,-544 226,-510 353,-1044 388,-1580 973,1003 2356,1522 3752,1402 1073,2088 3264,3502 5771,3461 272,-4 540,-26 803,-63zm-4187 -16250l-69 68c-131,-85 -263,-164 -397,-238 155,63 309,120 466,170zm-3410 32115c183,222 388,430 617,621 306,256 635,466 979,631 -257,1322 -82,2633 428,3785 -315,139 -619,315 -902,526 -121,-468 -352,-907 -684,-1274 -155,-352 -358,-692 -608,-1009 -133,-169 -276,-325 -427,-471l12 -14c673,-806 857,-1857 585,-2795zm101148 -52218c-327,1116 -221,2310 274,3341l-14 32c-62,-50 -126,-97 -192,-143 -812,-556 -1799,-664 -2668,-377 -330,-492 -807,-893 -1399,-1128l-42 -16c-39,-175 -87,-348 -145,-517 1499,107 2982,-323 4186,-1192zm-24152 -36445l-230 -148c565,-414 1071,-928 1489,-1539l130 -199c398,762 1011,1424 1812,1885 618,355 1282,554 1949,607 -16,414 23,826 114,1226 -244,-208 -507,-400 -788,-573 -1254,-774 -2671,-1061 -4030,-913 -140,-123 -289,-238 -446,-346zm-6108 724c-138,153 -267,317 -387,492 -277,404 -482,837 -617,1282 -8,-1206 -487,-2343 -1295,-3190 249,239 520,460 814,661 471,323 971,574 1485,755zm-5254 -16827c-594,60 -1171,234 -1697,508 -269,-1103 -1150,-2010 -2336,-2254l-175 -31c-124,-227 -262,-449 -416,-664 -685,-961 -1590,-1673 -2595,-2119 120,-197 226,-404 318,-623 782,-1865 263,-3951 -1144,-5246 1707,617 3597,469 5179,-380 1049,221 2162,-130 2893,-954 91,107 186,210 288,310 389,381 827,679 1294,897 -1518,733 -2586,2264 -2642,4065 -58,1846 964,3475 2496,4282 -9,420 69,842 236,1239 -627,239 -1197,569 -1699,970zm1702 44488c71,-377 94,-753 74,-1121 36,-298 45,-600 24,-899 192,-372 338,-776 427,-1206 19,-90 34,-179 47,-269 601,361 1272,628 1997,778 546,113 1089,151 1621,123 -1310,595 -2330,1785 -2646,3301 -301,1442 99,2867 966,3923 -580,-25 -1129,115 -1603,378 -187,-431 -424,-846 -710,-1235 449,-1179 423,-2535 -186,-3753l-11 -20zm47808 37438c181,89 368,166 561,231 -130,715 -139,1460 -11,2207 -289,-275 -609,-526 -957,-749 -452,-289 -926,-514 -1413,-677 692,-200 1309,-552 1820,-1012zm-33762 -4242c-226,1130 -135,2291 239,3360 -521,245 -995,586 -1395,1004 -277,-213 -584,-397 -916,-548 -599,-272 -1225,-406 -1843,-417 391,-1618 136,-3356 -747,-4807 69,-203 124,-409 165,-617 962,1429 2680,2268 4497,2025zm-113366 117179c73,261 169,519 288,767l-259 -67c-878,-199 -1755,-136 -2548,137 37,-514 12,-1025 -74,-1525 826,422 1711,648 2593,688zm52674 -17563l79 -129c2575,688 5377,-307 6915,-2583 256,632 611,1215 1047,1729 -580,232 -1134,553 -1644,967 -1075,872 -1791,2022 -2130,3263 -597,119 -1171,322 -1704,600 -118,-1692 -1134,-3126 -2563,-3847zm-34271 -29880c-1502,645 -2757,1863 -3407,3502 -387,974 -516,1987 -421,2963 -1635,206 -3111,1273 -3762,2913 -34,85 -65,171 -93,257l-104 -88c-305,-922 -874,-1689 -1598,-2242 -61,-688 -231,-1347 -496,-1957 838,-408 1582,-997 2173,-1728l162 -1c1675,-48 2994,-1445 2945,-3121 -10,-329 -72,-643 -177,-937 1514,401 3142,10 4310,-1036 96,515 255,1009 468,1475zm-17307 -8636c-389,-157 -794,-258 -1203,-306 58,-787 -29,-1589 -273,-2366 648,94 1321,88 2000,-30 650,-113 1259,-321 1817,-607 2086,-7 3962,-1419 4501,-3495 201,-67 396,-147 586,-241 471,229 977,405 1513,515 2665,549 5284,-653 6662,-2821 175,790 552,1534 1113,2146l-136 69c-2069,1070 -3305,3116 -3435,5284 -1401,-1867 -4008,-2433 -6077,-1234 -328,190 -624,415 -886,665 -540,-112 -1110,-132 -1688,-40 -1227,195 -2265,852 -2968,1764 -368,55 -732,179 -1074,377 -163,94 -313,202 -452,320zm-6276 5470c47,188 104,372 175,554 -70,-71 -144,-140 -223,-206 -123,-103 -252,-194 -385,-275 145,-19 289,-44 433,-73zm-1009 27679c207,213 434,408 680,580 -483,1364 -296,2863 457,4056 -78,103 -153,210 -224,321 -352,550 -574,1147 -675,1753 -182,-25 -365,-43 -549,-52 -334,-1489 -1367,-2683 -2709,-3263 100,0 201,-5 303,-15 1668,-163 2888,-1648 2724,-3316l-7 -64zm-57765 -98607c-133,-79 -269,-151 -406,-216 380,16 753,-14 1114,-86l1 25c-241,78 -478,171 -709,277zm19042 70081l-205 -147c-267,-183 -544,-342 -827,-480 343,-252 646,-548 904,-876 28,529 145,1051 347,1542l-219 -39zm-6227 -56070l-78 -34 29 -28 49 62zm18123 -2613c-360,489 -630,1056 -780,1683 -59,248 -97,496 -116,743 -1933,-903 -4212,-777 -6035,347 -257,-387 -553,-742 -881,-1059 1290,-244 2431,-1026 3120,-2155 224,3 448,-8 667,-37 948,604 2115,869 3309,661 247,-43 486,-104 716,-183zm13942 -7770c-210,-73 -425,-137 -646,-190 -623,-149 -1246,-200 -1854,-165 47,-1080 -279,-2181 -1001,-3096 -491,-621 -1108,-1084 -1786,-1381 -80,-787 -357,-1531 -793,-2168 766,669 1754,1093 2838,1146 -96,880 57,1799 494,2645 689,1334 1931,2196 3301,2450 -205,241 -389,495 -553,759zm-38439 -30618c-384,-551 -886,-1018 -1469,-1361 852,-486 1385,-1330 1504,-2246 78,275 184,548 317,814 498,995 1303,1736 2243,2163 -917,-48 -1818,178 -2595,630zm-5101 -1829c-1911,537 -3338,2264 -3404,4353 -75,2427 1714,4480 4075,4780 95,1512 922,2949 2334,3761 2237,1287 5094,516 6380,-1721 244,-424 414,-871 514,-1326 827,-508 1505,-1276 1893,-2246 99,-248 177,-499 231,-752 696,-221 1315,-695 1708,-1379 836,-1453 336,-3308 -1117,-4144 -229,-131 -467,-230 -710,-296 2175,-1207 3031,-3926 1908,-6172 -1154,-2308 -3961,-3244 -6269,-2090 -1575,787 -2510,2344 -2579,3988 -35,-94 -77,-187 -123,-279 -750,-1499 -2572,-2107 -4072,-1357 -1499,749 -2106,2572 -1357,4071 154,309 354,580 588,809zm87165 -64385c-139,100 -273,208 -402,324 115,-263 191,-541 228,-826 48,169 106,337 174,502zm-73902 48120c-325,298 -615,647 -853,1045 -1211,2018 -720,4581 1052,6025 251,354 541,686 872,992 2582,2387 6611,2229 8999,-353 1564,-1692 2035,-4005 1448,-6070l38 -94c489,-1277 59,-2680 -966,-3479 429,-1236 339,-2647 -367,-3869 -1290,-2235 -4148,-3001 -6383,-1710 -1997,1153 -2819,3556 -2052,5649 -383,263 -742,572 -1070,927 -273,295 -511,609 -718,937zm48609 -35048c-150,-871 -479,-1707 -973,-2451 725,544 1615,884 2589,928 1760,81 3336,-823 4197,-2225 -15,99 -24,200 -29,303 -76,1674 1220,3093 2894,3170 1674,76 3093,-1219 3170,-2894 13,-289 -15,-569 -78,-837 1009,-251 1923,-743 2677,-1412 -318,962 -410,2014 -224,3083 309,1775 1325,3250 2708,4185 -43,223 -71,448 -81,673 -624,81 -1211,287 -1736,592 -181,-289 -397,-562 -648,-814 -1820,-1830 -4779,-1838 -6608,-18 -323,321 -587,678 -797,1057 -768,105 -1519,350 -2212,733 -79,-618 -283,-1231 -623,-1800 -913,-1529 -2563,-2348 -4226,-2273zm333 30771c-243,-154 -503,-287 -780,-397 -1047,-415 -2154,-426 -3149,-107l6 -107c52,-1675 -1263,-3075 -2939,-3127 -439,-14 -857,66 -1239,222 -376,-415 -825,-763 -1330,-1022 -31,-135 -67,-267 -109,-397 612,-613 1043,-1388 1242,-2232 18,98 40,197 68,296 453,1613 2128,2555 3742,2102 853,-239 1518,-820 1888,-1552 1261,-400 2345,-1331 2897,-2647 281,-669 393,-1367 358,-2046 286,55 579,83 880,83 572,0 1120,-104 1627,-292 151,1055 663,2066 1521,2830 481,428 1027,738 1601,933 -483,505 -890,1099 -1195,1771 -233,514 -392,1042 -482,1574l-146 79c-244,-207 -527,-378 -841,-503 -1557,-618 -3321,143 -3940,1701 -387,976 -232,2033 320,2838zm57143 -12421l-194 12 140 -143 54 131zm-12120 -20419c-60,340 -80,677 -67,1008 -1051,-77 -2134,197 -3058,857l-167 126 -39 -230c780,-1283 884,-2859 318,-4219 812,954 1983,1548 3237,1636 -97,262 -174,537 -224,822zm35159 20150c-187,-1554 -942,-3043 -2237,-4126 -202,-169 -412,-323 -628,-463 197,-685 239,-1425 94,-2173 -17,-90 -37,-178 -60,-266 693,102 1414,91 2141,-50l123 -25c132,25 266,44 404,52 848,51 1636,-252 2220,-781 69,190 149,378 237,563 -58,1544 644,2949 1777,3843 -356,241 -665,560 -900,952 -292,487 -432,1024 -433,1554 -865,263 -1623,770 -2195,1441 -166,-188 -348,-361 -543,-521zm-90060 117327c1507,-1540 2075,-3649 1711,-5618 1856,411 3852,-345 4941,-2036 292,-454 496,-939 615,-1436 1262,67 2503,-246 3570,-873 35,188 78,377 131,565l93 302c-1198,8 -2329,731 -2800,1913 -236,594 -272,1217 -139,1796l-47 94c-567,422 -1047,978 -1383,1646 -1659,1413 -2550,3641 -2150,5944 49,279 114,549 196,812 -1346,-195 -2763,38 -4036,756 -226,-817 -673,-1567 -1299,-2157 -30,-342 -97,-683 -203,-1016 281,-205 549,-436 800,-692zm37091 -1656c-179,103 -354,218 -522,347 -146,112 -284,230 -413,355l-37 -195c232,-247 436,-518 609,-808 118,106 239,205 363,301zm-5058 -14862c-91,216 -164,436 -220,661 -168,-157 -348,-302 -540,-434 260,-54 514,-130 760,-227zm19040 -12998l10 -43c471,-5 947,-82 1418,-238 88,-29 173,-62 258,-95 -13,701 91,1416 324,2119 118,356 265,696 436,1015 -596,-377 -1266,-661 -1994,-826 -287,-65 -574,-109 -859,-134 228,-592 362,-1196 407,-1798zm40745 52362c793,-1568 634,-3468 -416,-4885 389,-759 630,-1610 685,-2516 34,-570 -8,-1128 -117,-1662 202,40 410,66 621,79 480,29 948,-15 1392,-124 551,889 1319,1642 2248,2173 -1614,1377 -2130,3730 -1114,5697 98,190 208,372 327,542 -1261,-82 -2483,215 -3535,809l-91 -113zm-26702 -71013c-105,524 -119,1064 -42,1595l-70 68c-32,-562 -162,-1097 -375,-1589 162,-18 324,-43 487,-74zm96279 25467c934,125 1881,40 2770,-241 403,1239 1316,2277 2533,2821 -474,1267 -545,2680 -147,4029l-221 -95c-1367,-523 -2878,7 -3639,1193 -309,-360 -707,-652 -1178,-840 -975,-387 -2031,-235 -2836,315 153,-242 286,-501 396,-777 797,-2004 109,-4231 -1538,-5466 1400,111 2741,-243 3860,-939zm-23662 44848c293,-152 566,-354 801,-602 31,187 74,372 128,554 -311,-7 -622,10 -929,48zm-85995 -124098c-118,699 -74,1411 120,2081 -183,139 -356,291 -517,456 -460,-355 -977,-654 -1544,-880 -410,-163 -827,-281 -1245,-355 427,-49 856,-143 1280,-284 709,-236 1349,-584 1906,-1018zm-27443 37056c179,-85 354,-178 525,-280 -109,436 -153,882 -134,1323 -36,-129 -76,-257 -121,-385 -79,-227 -169,-446 -270,-658zm109604 -69309c-38,273 -52,545 -43,814 -96,297 -164,603 -199,916 -456,-379 -1014,-613 -1596,-680 274,-83 546,-191 810,-328 383,-198 727,-443 1028,-722zm9073 2091c50,-158 93,-319 128,-485 430,-2059 -568,-4085 -2319,-5049 608,-785 820,-1851 469,-2859 -550,-1583 -2280,-2420 -3863,-1870 -1583,551 -2420,2281 -1869,3864 128,369 321,698 561,978 -261,160 -503,346 -729,554 131,-928 -15,-1904 -479,-2800 -232,-447 -525,-841 -865,-1176 54,-240 89,-488 104,-741 155,-2576 -1808,-4790 -4384,-4945 -1758,-105 -3347,777 -4228,2166 16,-100 27,-201 33,-304 101,-1673 -1174,-3110 -2847,-3211 -1673,-100 -3111,1174 -3211,2847 -101,1673 1174,3111 2847,3212 1048,63 2003,-414 2596,-1190 -70,278 -116,567 -134,864 -84,1399 457,2691 1381,3605 -233,1035 -117,2156 410,3172 810,1564 2382,2477 4026,2522 -93,37 -185,79 -276,126 -1488,771 -2069,2603 -1299,4091 771,1488 2603,2069 4091,1298 712,-369 1216,-981 1464,-1681 216,284 461,540 731,764 -452,2452 1110,4845 3563,5401 2517,570 5019,-1009 5589,-3525 401,-1770 -261,-3534 -1565,-4622 61,-329 87,-666 75,-1006zm16674 35803c-308,488 -544,1011 -709,1554 -349,-796 -923,-1504 -1701,-2019l-35 -22 170 -174c70,-76 136,-154 200,-232 626,478 1340,774 2075,893zm28160 29940c538,-620 935,-1314 1193,-2043 477,-593 815,-1310 956,-2112 427,-2430 -1105,-4751 -3460,-5342 -1402,-924 -3072,-1229 -4647,-941 1697,-812 3020,-2364 3468,-4341 776,-3430 -1375,-6840 -4805,-7617 -3430,-776 -6840,1375 -7617,4805 -776,3430 1375,6840 4805,7617 863,196 1726,205 2545,56 -764,365 -1466,888 -2056,1568 -2281,2629 -2027,6595 553,8912 -58,162 -103,330 -134,504 -290,1651 812,3225 2462,3516 1651,290 3225,-812 3516,-2462l20 -134c1201,-313 2325,-978 3201,-1986zm-48403 30232l70 56 -108 67 38 -123zm11090 20081l-278 -5c-180,-682 -513,-1313 -967,-1846 278,-43 552,-124 811,-244 -20,729 134,1446 434,2095zm7392 22072c26,-417 11,-836 -45,-1251 457,74 933,81 1416,12 1424,-206 2605,-1033 3307,-2167 669,141 1343,170 1999,97 -82,325 -131,663 -142,1012 -62,1965 1099,3684 2797,4427 -1705,119 -3282,1171 -3988,2855 -148,352 -249,712 -307,1074 -248,28 -498,75 -746,145 -288,81 -562,187 -821,316 264,-585 409,-1233 409,-1915 0,-2310 -1677,-4228 -3879,-4605zm-153783 -41669c85,88 173,172 266,254 -132,-12 -265,-21 -397,-25l131 -229zm20799 -26980l1 4 -1 0 0 -4zm-48130 -10760c265,109 545,195 836,255 209,43 417,70 624,85 -262,350 -484,724 -666,1112 -125,-550 -403,-1053 -794,-1452zm133656 -454l150 85c-17,228 -17,459 0,693 -147,-51 -297,-96 -452,-133l-44 -10c128,-206 244,-418 346,-635zm-44056 58099c-114,213 -217,435 -309,665l-70 186c31,-323 35,-645 16,-962 118,41 239,79 363,111zm25350 -8263c400,-572 712,-1219 909,-1923l54 78c92,129 192,249 300,359 -246,894 -299,1844 -135,2782 -1118,504 -2102,1336 -2794,2458 -239,387 -432,790 -580,1202 -393,-206 -838,-328 -1311,-343 -266,-8 -525,18 -773,75 -159,-122 -329,-234 -507,-337 -608,-349 -1261,-547 -1917,-605 -56,-428 -203,-841 -429,-1208 236,165 489,311 760,434 2349,1066 5119,25 6185,-2325 97,-213 176,-429 238,-647zm-11585 -3925c-7,158 -9,315 -4,472 -104,-48 -210,-94 -317,-136 116,-104 223,-217 321,-336zm27245 -34902c-539,-896 -1308,-1672 -2279,-2231 -142,-82 -287,-158 -432,-227 82,-537 68,-1070 -29,-1577l74 -11c482,1174 1434,2136 2680,2602 -1,506 57,998 168,1471l-182 -27zm-39277 -75859l67 -2c1157,1504 3170,2208 5088,1612 860,-266 1587,-758 2137,-1391 534,1099 1373,2012 2395,2642 -133,392 -230,796 -286,1208 -1140,-677 -2522,-837 -3784,-442 -1057,-460 -2280,-530 -3433,-119 -204,-78 -411,-140 -621,-188 -83,-554 -240,-1105 -478,-1641 -279,-630 -648,-1192 -1085,-1679zm18062 29570c90,19 180,34 269,47 -57,95 -112,193 -164,291 -512,57 -1016,199 -1490,425 -117,-664 -375,-1279 -741,-1815 586,512 1309,883 2126,1052zm24099 8932c-75,533 -56,1071 51,1590 -492,280 -947,625 -1350,1027 439,-1085 442,-2269 64,-3325 373,297 788,536 1235,708zm80080 78169c-2554,369 -4326,2738 -3958,5292 369,2554 2738,4326 5292,3958 2554,-369 4326,-2738 3958,-5292 -369,-2554 -2738,-4326 -5292,-3958zm-20778 21242c71,-143 137,-290 198,-440 25,161 56,321 93,479 -96,-16 -193,-29 -291,-39zm-62040 57741c200,673 634,1280 1272,1688 373,239 778,385 1189,446 -289,301 -550,634 -778,995 -508,-327 -1057,-542 -1616,-653l2 -21c63,-1049 -414,-2004 -1192,-2597 279,70 569,116 867,134l256 8zm40739 -32730c37,142 82,283 132,421 -39,175 -71,352 -95,532 -981,226 -1910,681 -2699,1353 -337,-37 -677,-38 -1014,-2 -130,-408 -302,-804 -512,-1180 704,-145 1368,-450 1936,-891 772,111 1543,24 2252,-233zm-212609 -56654c-542,2502 1032,4979 3534,5546 2517,570 5020,-1009 5589,-3525 360,-1590 -137,-3175 -1187,-4269 69,-322 106,-655 105,-997 -3,-1761 -980,-3292 -2421,-4086 100,9 201,14 304,14 1676,-3 3032,-1364 3029,-3040 -3,-1676 -1364,-3033 -3040,-3030 -1675,3 -3032,1364 -3029,3040 2,1049 535,1973 1345,2517 -281,-52 -572,-80 -869,-79 -2580,4 -4668,2099 -4664,4680 2,1254 499,2392 1304,3229zm11271 45473c289,-42 568,-109 834,-199 1043,524 2282,660 3484,287 2464,-764 3842,-3383 3077,-5847 -765,-2465 -3383,-3842 -5848,-3077l-114 37c-825,-417 -1782,-593 -2767,-451 -2554,369 -4326,2738 -3958,5292 369,2554 2738,4326 5292,3958zm72396 -109667l8 105 -203 -115 195 10zm34419 5047l269 47c-361,601 -629,1271 -778,1996 -43,207 -74,413 -96,619 -519,270 -1001,611 -1432,1018 -541,-325 -1142,-538 -1765,-625 1409,-602 2603,-1707 3286,-3192 167,55 339,101 516,137zm68768 -4446c-83,1440 328,2862 1146,4029 -231,216 -423,463 -573,732 -579,-1446 -1845,-2494 -3335,-2822 -130,-807 -414,-1572 -827,-2260 326,161 676,287 1046,371 412,93 822,128 1225,112 392,38 798,2 1198,-122l120 -40zm-21142 123821c-48,-434 -141,-859 -275,-1268 264,281 553,536 861,763 -208,151 -405,320 -586,505zm14346 -178517c48,1676 1445,2995 3121,2946 1675,-48 2994,-1446 2945,-3121 -48,-1675 -1445,-2994 -3121,-2946 -1675,49 -2994,1446 -2945,3121zm-8230 47562l58 174 -96 -74 38 -100zm11792 85584c-786,-173 -1617,-199 -2459,-53 -252,44 -497,102 -736,173 311,-313 593,-662 838,-1044 683,11 1364,-89 2014,-292 39,276 102,551 193,824 45,134 95,264 150,392zm-55383 18049c-87,30 -172,64 -255,98 1,-436 -42,-877 -134,-1317 409,-297 736,-692 953,-1145 -12,286 2,578 45,871 66,449 193,873 372,1266 -328,39 -656,114 -981,227zm-84386 -51560l-101 -133 72 6 29 127zm160820 -42318c116,187 241,369 376,543 -217,-223 -468,-413 -742,-561 121,11 243,17 366,18zm-113135 -65029c1055,1301 2966,1501 4268,445 1302,-1055 1502,-2966 446,-4268 -1055,-1302 -2966,-1501 -4268,-446 -1302,1056 -1502,2967 -446,4269zm33239 3773c1422,-2153 829,-5052 -1324,-6474 -1470,-971 -3287,-1002 -4745,-240 63,-78 123,-159 180,-245 924,-1399 539,-3281 -860,-4205 -1398,-923 -3281,-538 -4204,860 -924,1399 -539,3282 860,4205 875,578 1941,644 2843,268 -200,206 -384,433 -548,681 -1422,2154 -829,5052 1324,6474 2153,1422 5052,829 6474,-1324zm-68025 13474c-1928,-1715 -4882,-1542 -6597,386 -1171,1316 -1461,3110 -914,4662 -68,-74 -141,-145 -218,-213 -1252,-1114 -3170,-1002 -4284,251 -1114,1252 -1001,3170 251,4284 1252,1114 3171,1001 4284,-251 697,-783 915,-1829 672,-2774 175,227 374,441 596,638 1928,1715 4881,1542 6596,-387 1715,-1928 1542,-4881 -386,-6596zm-26011 22242c-1751,1895 -1636,4851 259,6603 1895,1752 4851,1636 6603,-259 1752,-1895 1636,-4851 -259,-6603 -1894,-1752 -4851,-1636 -6603,259zm164063 121147c1055,1302 2966,1502 4268,446 1302,-1055 1502,-2967 446,-4268 -1055,-1302 -2966,-1502 -4268,-446 -1302,1055 -1502,2967 -446,4268zm-38495 38630c82,-42 162,-87 240,-134 29,201 67,402 115,602 -480,-141 -980,-157 -1456,-61 374,-87 744,-222 1101,-407zm-15404 -18825l52 154 -123 -126 71 -28zm23096 2107l17 -1 10 29 -27 -28zm-26379 56651l-44 -8 -13 -74 57 82zm31190 -24976c184,161 380,308 588,440 -86,-14 -173,-24 -261,-31 -95,-144 -204,-281 -327,-409zm-81121 11205c-131,-175 -281,-337 -450,-482 39,-139 68,-281 86,-425 78,276 184,549 317,815l47 92zm-21664 -180333l14 28 -9 27 -5 -55zm14239 -27188l0 1 0 -1z"/>
 </g>
</svg>
