<?xml version="1.0" encoding="UTF-8"?>
<!DOCTYPE svg PUBLIC "-//W3C//DTD SVG 1.1//EN" "http://www.w3.org/Graphics/SVG/1.1/DTD/svg11.dtd">
<!-- Creator: CorelDRAW 2017 -->
<svg xmlns="http://www.w3.org/2000/svg" xml:space="preserve" width="34mm" height="34mm" version="1.1" style="shape-rendering:geometricPrecision; text-rendering:geometricPrecision; image-rendering:optimizeQuality; fill-rule:evenodd; clip-rule:evenodd"
viewBox="0 0 3400000 3400000"
 xmlns:xlink="http://www.w3.org/1999/xlink">
 <defs>
  <style type="text/css">
   <![CDATA[
    .str0 {stroke:#E7AF35;stroke-width:16930;stroke-miterlimit:22.9256}
    .fil0 {fill:none}
   ]]>
  </style>
 </defs>
 <g id="Слой_x0020_1">
  <metadata id="CorelCorpID_0Corel-Layer"/>
  <line class="fil0 str0" x1="1140160" y1="1498950" x2="1611120" y2= "1329610" />
  <line class="fil0 str0" x1="1700000" y1="1700000" x2="2087370" y2= "1435450" />
  <line class="fil0 str0" x1="2373120" y1="1160280" x2="2420740" y2= "1647110" />
  <line class="fil0 str0" x1="2161450" y1="1916990" x2="1843950" y2= "2091620" />
  <line class="fil0 str0" x1="1357120" y1="1975200" x2="1161330" y2= "1657700" />
  <line class="fil0 str0" x1="1785750" y1="1287280" x2="1912750" y2= "1176160" />
  <line class="fil0 str0" x1="1759290" y1="996240" x2="1664040" y2= "826900" />
  <line class="fil0 str0" x1="1425910" y1="911570" x2="1298910" y2= "1038570" />
  <line class="fil0 str0" x1="981410" y1="1234360" x2="880870" y2= "1049150" />
  <line class="fil0 str0" x1="1124290" y1="879820" x2="1373000" y2= "784570" />
  <line class="fil0 str0" x1="1833370" y1="705200" x2="2060910" y2= "858650" />
  <line class="fil0 str0" x1="2214370" y1="826900" x2="2224950" y2= "1075610" />
  <line class="fil0 str0" x1="2484240" y1="1170860" x2="2653580" y2= "1213200" />
  <line class="fil0 str0" x1="2711790" y1="1366660" x2="2627120" y2= "1599490" />
  <line class="fil0 str0" x1="2611240" y1="1832320" x2="2717080" y2= "1901120" />
  <line class="fil0 str0" x1="2769990" y1="1599490" x2="2680040" y2= "1668280" />
  <line class="fil0 str0" x1="2240830" y1="1647110" x2="2336080" y2= "1784700" />
  <line class="fil0 str0" x1="2029160" y1="1689450" x2="1859830" y2= "1811160" />
  <line class="fil0 str0" x1="1531750" y1="1853490" x2="1658750" y2= "2038700" />
  <line class="fil0 str0" x1="1754000" y1="2377370" x2="1928620" y2= "2467330" />
  <line class="fil0 str0" x1="2113830" y1="2223910" x2="2256700" y2= "2038700" />
  <line class="fil0 str0" x1="2468370" y1="2012240" x2="2505410" y2= "2165700" />
  <line class="fil0 str0" x1="2489540" y1="2377370" x2="2261990" y2= "2451450" />
  <line class="fil0 str0" x1="2304330" y1="2091620" x2="2309620" y2= "2234490" />
  <line class="fil0 str0" x1="1833370" y1="2160410" x2="2018580" y2= "2340330" />
  <line class="fil0 str0" x1="2124410" y1="1281990" x2="2187910" y2= "1424860" />
  <line class="fil0 str0" x1="1637580" y1="1477780" x2="1484120" y2= "1604780" />
  <line class="fil0 str0" x1="1330660" y1="1594200" x2="1388870" y2= "1705320" />
  <line class="fil0 str0" x1="1309500" y1="1271410" x2="1500000" y2= "1239660" />
  <line class="fil0 str0" x1="1214250" y1="1202610" x2="1140160" y2= "1345490" />
  <line class="fil0 str0" x1="806790" y1="1350780" x2="896750" y2= "1520110" />
  <line class="fil0 str0" x1="769750" y1="1604780" x2="653330" y2= "1805870" />
  <line class="fil0 str0" x1="880870" y1="1816450" x2="992000" y2= "1890530" />
  <line class="fil0 str0" x1="1145450" y1="1874660" x2="1092540" y2= "2065160" />
  <line class="fil0 str0" x1="785620" y1="2091620" x2="870290" y2= "2192160" />
  <line class="fil0 str0" x1="1150750" y1="2319160" x2="1071370" y2= "2446160" />
  <line class="fil0 str0" x1="1314790" y1="2525530" x2="1494700" y2= "2626080" />
  <line class="fil0 str0" x1="1801620" y1="2657830" x2="2013290" y2= "2557280" />
  <line class="fil0 str0" x1="2230240" y1="2610200" x2="2203790" y2= "2726620" />
  <line class="fil0 str0" x1="1600540" y1="2763660" x2="1637580" y2= "2843030" />
  <line class="fil0 str0" x1="1325370" y1="2774240" x2="1182500" y2= "2578450" />
  <line class="fil0 str0" x1="1357120" y1="2361490" x2="1521160" y2= "2165700" />
  <line class="fil0 str0" x1="1277750" y1="2096910" x2="1298910" y2= "2218620" />
  <line class="fil0 str0" x1="1605830" y1="2324450" x2="1642870" y2= "2472620" />
  <line class="fil0 str0" x1="965540" y1="2308570" x2="859700" y2= "2456740" />
  <line class="fil0 str0" x1="616290" y1="1980490" x2="727410" y2= "1948740" />
  <line class="fil0 str0" x1="595120" y1="1456610" x2="700960" y2= "1509530" />
  <line class="fil0 str0" x1="727410" y1="1181450" x2="780330" y2= "1075610" />
  <line class="fil0 str0" x1="1478830" y1="594070" x2="1679910" y2= "541150" />
  <line class="fil0 str0" x1="1304200" y1="625820" x2="1415330" y2= "689320" />
  <line class="fil0 str0" x1="1023750" y1="789860" x2="1029040" y2= "953900" />
  <line class="fil0 str0" x1="1949790" y1="572900" x2="1817500" y2= "625820" />
  <line class="fil0 str0" x1="1574080" y1="694610" x2="1542330" y2= "858650" />
  <line class="fil0 str0" x1="1933910" y1="943320" x2="2087370" y2= "1086200" />
  <line class="fil0 str0" x1="2373120" y1="858650" x2="2468370" y2= "932740" />
  <line class="fil0 str0" x1="2172040" y1="668150" x2="2124410" y2= "747530" />
  <line class="fil0 str0" x1="2505410" y1="1795280" x2="2420740" y2= "1916990" />
  <line class="fil0 str0" x1="2738240" y1="2091620" x2="2669450" y2= "2250370" />
  <line class="fil0 str0" x1="2097950" y1="2414410" x2="2119120" y2= "2530830" />
  <line class="fil0 str0" x1="1822790" y1="2805990" x2="2045040" y2= "2768950" />
  <line class="fil0 str0" x1="1780450" y1="1811160" x2="1801620" y2= "1980490" />
  <line class="fil0 str0" x1="1584660" y1="1033280" x2="1664040" y2= "1197320" />
  <line class="fil0 str0" x1="1902160" y1="1319030" x2="1854540" y2= "1467200" />
  <line class="fil0 str0" x1="1498950" y1="2259840" x2="1329610" y2= "1788880" />
  <line class="fil0 str0" x1="1700000" y1="1700000" x2="1435450" y2= "1312630" />
  <line class="fil0 str0" x1="1160280" y1="1026880" x2="1647110" y2= "979260" />
  <line class="fil0 str0" x1="1916990" y1="1238550" x2="2091620" y2= "1556050" />
  <line class="fil0 str0" x1="1975200" y1="2042880" x2="1657700" y2= "2238670" />
  <line class="fil0 str0" x1="1287280" y1="1614250" x2="1176160" y2= "1487250" />
  <line class="fil0 str0" x1="996240" y1="1640710" x2="826900" y2= "1735960" />
  <line class="fil0 str0" x1="911570" y1="1974090" x2="1038570" y2= "2101090" />
  <line class="fil0 str0" x1="1234360" y1="2418590" x2="1049150" y2= "2519130" />
  <line class="fil0 str0" x1="879820" y1="2275710" x2="784570" y2= "2027000" />
  <line class="fil0 str0" x1="705200" y1="1566630" x2="858650" y2= "1339090" />
  <line class="fil0 str0" x1="826900" y1="1185630" x2="1075610" y2= "1175050" />
  <line class="fil0 str0" x1="1170860" y1="915760" x2="1213200" y2= "746420" />
  <line class="fil0 str0" x1="1366660" y1="688210" x2="1599490" y2= "772880" />
  <line class="fil0 str0" x1="1832320" y1="788760" x2="1901120" y2= "682920" />
  <line class="fil0 str0" x1="1599490" y1="630010" x2="1668280" y2= "719960" />
  <line class="fil0 str0" x1="1647110" y1="1159170" x2="1784700" y2= "1063920" />
  <line class="fil0 str0" x1="1689450" y1="1370840" x2="1811160" y2= "1540170" />
  <line class="fil0 str0" x1="1853490" y1="1868250" x2="2038700" y2= "1741250" />
  <line class="fil0 str0" x1="2377370" y1="1646000" x2="2467330" y2= "1471380" />
  <line class="fil0 str0" x1="2223910" y1="1286170" x2="2038700" y2= "1143300" />
  <line class="fil0 str0" x1="2012240" y1="931630" x2="2165700" y2= "894590" />
  <line class="fil0 str0" x1="2377370" y1="910460" x2="2451450" y2= "1138010" />
  <line class="fil0 str0" x1="2091620" y1="1095670" x2="2234490" y2= "1090380" />
  <line class="fil0 str0" x1="2160410" y1="1566630" x2="2340330" y2= "1381420" />
  <line class="fil0 str0" x1="1281990" y1="1275590" x2="1424860" y2= "1212090" />
  <line class="fil0 str0" x1="1477780" y1="1762420" x2="1604780" y2= "1915880" />
  <line class="fil0 str0" x1="1594200" y1="2069340" x2="1705320" y2= "2011130" />
  <line class="fil0 str0" x1="1271410" y1="2090500" x2="1239660" y2= "1900000" />
  <line class="fil0 str0" x1="1202610" y1="2185750" x2="1345490" y2= "2259840" />
  <line class="fil0 str0" x1="1350780" y1="2593210" x2="1520110" y2= "2503250" />
  <line class="fil0 str0" x1="1604780" y1="2630250" x2="1805870" y2= "2746670" />
  <line class="fil0 str0" x1="1816450" y1="2519130" x2="1890530" y2= "2408000" />
  <line class="fil0 str0" x1="1874660" y1="2254550" x2="2065160" y2= "2307460" />
  <line class="fil0 str0" x1="2091620" y1="2614380" x2="2192160" y2= "2529710" />
  <line class="fil0 str0" x1="2319160" y1="2249250" x2="2446160" y2= "2328630" />
  <line class="fil0 str0" x1="2525530" y1="2085210" x2="2626080" y2= "1905300" />
  <line class="fil0 str0" x1="2657830" y1="1598380" x2="2557280" y2= "1386710" />
  <line class="fil0 str0" x1="2610200" y1="1169760" x2="2726620" y2= "1196210" />
  <line class="fil0 str0" x1="2763660" y1="1799460" x2="2843030" y2= "1762420" />
  <line class="fil0 str0" x1="2774240" y1="2074630" x2="2578450" y2= "2217500" />
  <line class="fil0 str0" x1="2361490" y1="2042880" x2="2165700" y2= "1878840" />
  <line class="fil0 str0" x1="2096910" y1="2122250" x2="2218620" y2= "2101090" />
  <line class="fil0 str0" x1="2324450" y1="1794170" x2="2472620" y2= "1757130" />
  <line class="fil0 str0" x1="2308570" y1="2434460" x2="2456740" y2= "2540300" />
  <line class="fil0 str0" x1="1980490" y1="2783710" x2="1948740" y2= "2672590" />
  <line class="fil0 str0" x1="1456610" y1="2804880" x2="1509530" y2= "2699040" />
  <line class="fil0 str0" x1="1181450" y1="2672590" x2="1075610" y2= "2619670" />
  <line class="fil0 str0" x1="594070" y1="1921170" x2="541150" y2= "1720090" />
  <line class="fil0 str0" x1="625820" y1="2095800" x2="689320" y2= "1984670" />
  <line class="fil0 str0" x1="789860" y1="2376250" x2="953900" y2= "2370960" />
  <line class="fil0 str0" x1="572900" y1="1450210" x2="625820" y2= "1582500" />
  <line class="fil0 str0" x1="694610" y1="1825920" x2="858650" y2= "1857670" />
  <line class="fil0 str0" x1="943320" y1="1466090" x2="1086200" y2= "1312630" />
  <line class="fil0 str0" x1="858650" y1="1026880" x2="932740" y2= "931630" />
  <line class="fil0 str0" x1="668150" y1="1227960" x2="747530" y2= "1275590" />
  <line class="fil0 str0" x1="1795280" y1="894590" x2="1916990" y2= "979260" />
  <line class="fil0 str0" x1="2091620" y1="661760" x2="2250370" y2= "730550" />
  <line class="fil0 str0" x1="2414410" y1="1302050" x2="2530830" y2= "1280880" />
  <line class="fil0 str0" x1="2805990" y1="1577210" x2="2768950" y2= "1354960" />
  <line class="fil0 str0" x1="1811160" y1="1619550" x2="1980490" y2= "1598380" />
  <line class="fil0 str0" x1="1033280" y1="1815340" x2="1197320" y2= "1735960" />
  <line class="fil0 str0" x1="1319030" y1="1497840" x2="1467200" y2= "1545460" />
  <line class="fil0 str0" x1="1905840" y1="2258090" x2="1473400" y2= "2006170" />
  <line class="fil0 str0" x1="1700000" y1="1700000" x2="1248350" y2= "1573310" />
  <line class="fil0 str0" x1="853880" y1="1531290" x2="1196200" y2= "1181880" />
  <line class="fil0 str0" x1="1569610" y1="1207030" x2="1907470" y2= "1338000" />
  <line class="fil0 str0" x1="2131210" y1="1785770" x2="2013850" y2= "2139840" />
  <line class="fil0 str0" x1="1328720" y1="1899600" x2="1161960" y2= "1873740" />
  <line class="fil0 str0" x1="1122780" y1="2106950" x2="1054280" y2= "2288760" />
  <line class="fil0 str0" x1="1272210" y1="2416760" x2="1451130" y2= "2432410" />
  <line class="fil0 str0" x1="1805200" y1="2549780" x2="1727950" y2= "2745850" />
  <line class="fil0 str0" x1="1441760" y1="2668220" x2="1208930" y2= "2538920" />
  <line class="fil0 str0" x1="852210" y1="2237280" x2="823500" y2= "1964340" />
  <line class="fil0 str0" x1="700540" y1="1867190" x2="884260" y2= "1699220" />
  <line class="fil0 str0" x1="790560" y1="1439360" x2="714140" y2= "1282420" />
  <line class="fil0 str0" x1="794280" y1="1139190" x2="1027060" y2= "1054390" />
  <line class="fil0 str0" x1="1215630" y1="916900" x2="1200300" y2= "791590" />
  <line class="fil0 str0" x1="935230" y1="944950" x2="1045740" y2= "969640" />
  <line class="fil0 str0" x1="1311850" y1="1319700" x2="1356020" y2= "1158290" />
  <line class="fil0 str0" x1="1480340" y1="1454630" x2="1682420" y2= "1506110" />
  <line class="fil0 str0" x1="1925730" y1="1730230" x2="1985970" y2= "1513890" />
  <line class="fil0 str0" x1="2184180" y1="1223230" x2="2140850" y2= "1031640" />
  <line class="fil0 str0" x1="1835330" y1="1046220" x2="1601620" y2= "1055830" />
  <line class="fil0 str0" x1="1445290" y1="910690" x2="1539040" y2= "783670" />
  <line class="fil0 str0" x1="1711390" y1="659770" x2="1914400" y2= "786470" />
  <line class="fil0 str0" x1="1611540" y1="985330" x2="1717590" y2= "889440" />
  <line class="fil0 str0" x1="1966970" y1="1301890" x2="1985740" y2= "1044360" />
  <line class="fil0 str0" x1="1106980" y1="1643570" x2="1175610" y2= "1503100" />
  <line class="fil0 str0" x1="1569890" y1="1890660" x2="1765820" y2= "1926580" />
  <line class="fil0 str0" x1="1856360" y1="2050940" x2="1904070" y2= "1934920" />
  <line class="fil0 str0" x1="1622690" y1="2274630" x2="1475920" y2= "2149110" />
  <line class="fil0 str0" x1="1631210" y1="2391820" x2="1788290" y2= "2356740" />
  <line class="fil0 str0" x1="2006630" y1="2608710" x2="2078520" y2= "2430960" />
  <line class="fil0 str0" x1="2225010" y1="2473820" x2="2453890" y2= "2433740" />
  <line class="fil0 str0" x1="2315730" y1="2252640" x2="2301050" y2= "2119890" />
  <line class="fil0 str0" x1="2190260" y1="2012540" x2="2370200" y2= "1930620" />
  <line class="fil0 str0" x1="2587750" y1="2148730" x2="2610340" y2= "2019240" />
  <line class="fil0 str0" x1="2527360" y1="1722760" x2="2675670" y2= "1701940" />
  <line class="fil0 str0" x1="2580000" y1="1464450" x2="2541380" y2= "1262000" />
  <line class="fil0 str0" x1="2368420" y1="1006470" x2="2155340" y2= "908960" />
  <line class="fil0 str0" x1="2056420" y1="708750" x2="2162610" y2= "654180" />
  <line class="fil0 str0" x1="2578740" y1="1092480" x2="2615730" y2= "1013090" />
  <line class="fil0 str0" x1="2763720" y1="1296480" x2="2705570" y2= "1531770" />
  <line class="fil0 str0" x1="2427130" y1="1537460" x2="2171700" y2= "1537650" />
  <line class="fil0 str0" x1="2275470" y1="1768330" x2="2355100" y2= "1673890" />
  <line class="fil0 str0" x1="2238890" y1="1370750" x2="2328580" y2= "1247130" />
  <line class="fil0 str0" x1="2638290" y1="1871450" x2="2819830" y2= "1857280" />
  <line class="fil0 str0" x1="2611460" y1="2349870" x2="2515710" y2= "2285160" />
  <line class="fil0 str0" x1="2223760" y1="2702840" x2="2196260" y2= "2587740" />
  <line class="fil0 str0" x1="1927940" y1="2778360" x2="1812840" y2= "2805860" />
  <line class="fil0 str0" x1="994970" y1="2580300" x2="825180" y2= "2460280" />
  <line class="fil0 str0" x1="1131550" y1="2693670" x2="1108760" y2= "2567720" />
  <line class="fil0 str0" x1="1437480" y1="2803060" x2="1559740" y2= "2693570" />
  <line class="fil0 str0" x1="676030" y1="2233140" x2="801600" y2= "2300460" />
  <line class="fil0 str0" x1="1010770" y1="2442710" x2="1156840" y2= "2361590" />
  <line class="fil0 str0" x1="970000" y1="2007200" x2="980810" y2= "1797800" />
  <line class="fil0 str0" x1="622820" y1="1725170" x2="618350" y2= "1604580" />
  <line class="fil0 str0" x1="606140" y1="2001660" x2="697560" y2= "1987120" />
  <line class="fil0 str0" x1="1255280" y1="1021780" x2="1402940" y2= "1008400" />
  <line class="fil0 str0" x1="1332630" y1="652930" x2="1498460" y2= "603590" />
  <line class="fil0 str0" x1="1991470" y1="935940" x2="2067050" y2= "844890" />
  <line class="fil0 str0" x1="2468310" y1="895020" x2="2297080" y2= "748580" />
  <line class="fil0 str0" x1="1733440" y1="1566920" x2="1849550" y2= "1441860" />
  <line class="fil0 str0" x1="1263400" y1="2216910" x2="1338040" y2= "2050660" />
  <line class="fil0 str0" x1="1278210" y1="1790020" x2="1422330" y2= "1731260" />
 </g>
</svg>
