<?xml version="1.0" encoding="UTF-8"?>
<!DOCTYPE svg PUBLIC "-//W3C//DTD SVG 1.1//EN" "http://www.w3.org/Graphics/SVG/1.1/DTD/svg11.dtd">
<!-- Creator: CorelDRAW 2017 -->
<svg xmlns="http://www.w3.org/2000/svg" xml:space="preserve" width="34mm" height="34mm" version="1.1" style="shape-rendering:geometricPrecision; text-rendering:geometricPrecision; image-rendering:optimizeQuality; fill-rule:evenodd; clip-rule:evenodd"
viewBox="0 0 3400000 3400000"
 xmlns:xlink="http://www.w3.org/1999/xlink">
 <defs>
  <style type="text/css">
   <![CDATA[
    .str0 {stroke:#D46A42;stroke-width:20000;stroke-miterlimit:22.9256}
    .fil0 {fill:#D46A42}
   ]]>
  </style>
 </defs>
 <g id="Слой_x0020_1">
  <metadata id="CorelCorpID_0Corel-Layer"/>
  <g id="_2540732042448">
   <ellipse class="fil0 str0" cx="2383940" cy="2390540" rx="206353" ry="206350"/>
   <ellipse class="fil0 str0" cx="1971190" cy="2626030" rx="206353" ry="206350"/>
   <ellipse class="fil0 str0" cx="1486990" cy="2639250" rx="206353" ry="206350"/>
   <ellipse class="fil0 str0" cx="1066300" cy="2403770" rx="206353" ry="206350"/>
   <ellipse class="fil0 str0" cx="803720" cy="1996700" rx="206353" ry="206350"/>
   <ellipse class="fil0 str0" cx="1693370" cy="2223860" rx="206353" ry="206350"/>
   <ellipse class="fil0 str0" cx="2640580" cy="1983080" rx="206353" ry="206350"/>
   <ellipse class="fil0 str0" cx="2616820" cy="1433810" rx="206353" ry="206350"/>
   <ellipse class="fil0 str0" cx="2299350" cy="1006800" rx="206353" ry="206350"/>
   <ellipse class="fil0 str0" cx="1868000" cy="776580" rx="206353" ry="206350"/>
   <ellipse class="fil0 str0" cx="1373300" cy="832170" rx="206353" ry="206350"/>
   <ellipse class="fil0 str0" cx="1000160" cy="1115250" rx="206353" ry="206350"/>
   <ellipse class="fil0 str0" cx="780630" cy="1509510" rx="206353" ry="206350"/>
   <ellipse class="fil0 str0" cx="1381160" cy="1443330" rx="206353" ry="206350"/>
   <ellipse class="fil0 str0" cx="1799850" cy="1249740" rx="206353" ry="206350"/>
   <ellipse class="fil0 str0" cx="2180210" cy="1533290" rx="206353" ry="206350"/>
   <ellipse class="fil0 str0" cx="2129940" cy="1996310" rx="206353" ry="206350"/>
   <ellipse class="fil0 str0" cx="1288640" cy="1938130" rx="206353" ry="206350"/>
   <ellipse class="fil0 str0" cx="1733060" cy="1752890" rx="206353" ry="206350"/>
  </g>
 </g>
</svg>
