<?xml version="1.0" encoding="UTF-8"?>
<!DOCTYPE svg PUBLIC "-//W3C//DTD SVG 1.1//EN" "http://www.w3.org/Graphics/SVG/1.1/DTD/svg11.dtd">
<!-- Creator: CorelDRAW 2017 -->
<svg xmlns="http://www.w3.org/2000/svg" xml:space="preserve" width="34mm" height="34mm" version="1.1" style="shape-rendering:geometricPrecision; text-rendering:geometricPrecision; image-rendering:optimizeQuality; fill-rule:evenodd; clip-rule:evenodd"
viewBox="0 0 3400000 3400000"
 xmlns:xlink="http://www.w3.org/1999/xlink">
 <defs>
  <style type="text/css">
   <![CDATA[
    .fil0 {fill:#FDCF09}
   ]]>
  </style>
 </defs>
 <g id="Слой_x0020_1">
  <metadata id="CorelCorpID_0Corel-Layer"/>
  <g id="_2540737286544">
   <polygon class="fil0" points="1146470,1325580 1054850,1318570 1045020,1447020 972210,1340740 896400,1392670 969210,1498950 845880,1461720 819320,1549690 1032240,1613970 1129500,1547340 "/>
   <polygon class="fil0" points="1270880,728800 1293150,817950 1418140,786740 1340260,889370 1413470,944920 1491340,842290 1494930,971060 1586790,968500 1580590,746180 1486670,674910 "/>
   <polygon class="fil0" points="2450150,1329130 2461690,1237960 2333880,1221790 2443640,1154330 2395520,1076040 2285770,1143500 2329060,1022160 2242520,991280 2167770,1200760 2229490,1301200 "/>
   <polygon class="fil0" points="1930020,1429710 1899380,1343070 1777930,1386020 1845700,1276460 1767540,1228120 1699780,1337680 1683960,1209830 1592770,1221110 1620070,1441840 1720330,1503850 "/>
   <polygon class="fil0" points="2622200,1800130 2548510,1745230 2471540,1848530 2466820,1719790 2374990,1723160 2379710,1851900 2295380,1754500 2225910,1814650 2371490,1982800 2489310,1978480 "/>
   <polygon class="fil0" points="2067430,2506880 1985090,2466080 1927900,2581510 1900170,2455710 1810430,2475490 1838160,2601290 1737740,2520600 1680180,2592240 1853560,2731550 1968690,2706170 "/>
   <polygon class="fil0" points="1583930,1850260 1566150,1940420 1692550,1965340 1578410,2025100 1621040,2106510 1735170,2046750 1683640,2164820 1767860,2201580 1856820,1997740 1802140,1893290 "/>
   <polygon class="fil0" points="1137630,2259530 1110170,2171840 987230,2210350 1058930,2103320 982590,2052170 910890,2159200 899730,2030860 808180,2038820 827440,2260400 925390,2326010 "/>
  </g>
 </g>
</svg>
