<?xml version="1.0" encoding="UTF-8"?>
<!DOCTYPE svg PUBLIC "-//W3C//DTD SVG 1.1//EN" "http://www.w3.org/Graphics/SVG/1.1/DTD/svg11.dtd">
<!-- Creator: CorelDRAW 2017 -->
<svg xmlns="http://www.w3.org/2000/svg" xml:space="preserve" width="34mm" height="34mm" version="1.1" style="shape-rendering:geometricPrecision; text-rendering:geometricPrecision; image-rendering:optimizeQuality; fill-rule:evenodd; clip-rule:evenodd"
viewBox="0 0 3400000 3400000"
 xmlns:xlink="http://www.w3.org/1999/xlink">
 <defs>
  <style type="text/css">
   <![CDATA[
    .fil0 {fill:#9FCD51}
   ]]>
  </style>
 </defs>
 <g id="Слой_x0020_1">
  <metadata id="CorelCorpID_0Corel-Layer"/>
  <g id="_2540702628832">
   <path class="fil0" d="M1071180 2215770c169710,53960 262470,35380 290320,259980 -209500,-45440 -285870,-63980 -290320,-259980z"/>
   <path class="fil0" d="M2098650 2344940c-138770,111590 -231990,127760 -176860,347260 178950,-118010 243480,-162880 176860,-347260z"/>
   <path class="fil0" d="M2645510 1661780c-168370,-58010 -231700,-128290 -388110,35290 195200,88590 267550,119300 388110,-35290z"/>
   <path class="fil0" d="M1637400 754240c-176990,-19640 -254210,-74310 -370900,119600 209890,43600 287210,57680 370900,-119600z"/>
   <path class="fil0" d="M1843810 1961460c-127220,-124610 -154300,-215260 -365740,-134570 138350,163750 190530,222520 365740,134570z"/>
   <path class="fil0" d="M2286440 869710c9090,177850 59060,258180 -141440,363140 -31040,-212110 -40500,-290140 141440,-363140z"/>
   <path class="fil0" d="M855080 1750120c91650,-152690 173530,-200080 45930,-386990 -127130,172600 -172170,237000 -45930,386990z"/>
  </g>
 </g>
</svg>
