<?xml version="1.0" encoding="UTF-8"?>
<!DOCTYPE svg PUBLIC "-//W3C//DTD SVG 1.1//EN" "http://www.w3.org/Graphics/SVG/1.1/DTD/svg11.dtd">
<!-- Creator: CorelDRAW 2017 -->
<svg xmlns="http://www.w3.org/2000/svg" xml:space="preserve" width="34mm" height="34mm" version="1.1" style="shape-rendering:geometricPrecision; text-rendering:geometricPrecision; image-rendering:optimizeQuality; fill-rule:evenodd; clip-rule:evenodd"
viewBox="0 0 3400000 3400000"
 xmlns:xlink="http://www.w3.org/1999/xlink">
 <defs>
  <style type="text/css">
   <![CDATA[
    .str0 {stroke:#F5EEE4;stroke-width:7620;stroke-miterlimit:22.9256}
    .fil0 {fill:#F5EEE4}
   ]]>
  </style>
 </defs>
 <g id="Слой_x0020_1">
  <metadata id="CorelCorpID_0Corel-Layer"/>
  <g id="_2540822036992">
   <rect class="fil0 str0" transform="matrix(-0.44837 -0.550226 0.533018 -0.434347 2.08334E+06 2.16076E+06)" width="205050" height="211670"/>
   <rect class="fil0 str0" transform="matrix(-0.14713 -0.694361 0.672645 -0.142528 2.61024E+06 1.83915E+06)" width="205050" height="211670"/>
   <rect class="fil0 str0" transform="matrix(0.261582 -0.659818 0.639182 0.253401 2.03467E+06 961807)" width="205050" height="211670"/>
   <rect class="fil0 str0" transform="matrix(0.507046 -0.496679 0.481145 0.491188 1.4618E+06 746493)" width="205050" height="211670"/>
   <rect class="fil0 str0" transform="matrix(0.368093 -0.606871 0.587891 0.356581 1.58714E+06 1.29848E+06)" width="205050" height="211670"/>
   <rect class="fil0 str0" transform="matrix(0.705218 0.0803254 -0.0778132 0.683162 1.51271E+06 2.1876E+06)" width="205050" height="211670"/>
   <rect class="fil0 str0" transform="matrix(0.622452 -0.341084 0.330416 0.602985 649046 2.04555E+06)" width="205050" height="211670"/>
   <rect class="fil0 str0" transform="matrix(0.142871 -0.69525 0.673506 0.138402 1.12158E+06 1.59465E+06)" width="205050" height="211670"/>
   <rect class="fil0 str0" transform="matrix(0.683914 -0.189859 0.183921 0.662525 683754 1.109E+06)" width="205050" height="211670"/>
   <rect class="fil0 str0" transform="matrix(0.290031 -0.647817 0.627557 0.28096 1.66038E+06 2.69918E+06)" width="205050" height="211670"/>
   <rect class="fil0 str0" transform="matrix(0.633965 0.319177 -0.309194 0.614137 1.13377E+06 2.36612E+06)" width="205050" height="211670"/>
   <rect class="fil0 str0" transform="matrix(-0.683935 -0.189782 0.183847 -0.662545 2.19419E+06 1.74063E+06)" width="205050" height="211670"/>
   <rect class="fil0 str0" transform="matrix(0.38389 -0.597004 0.578332 0.371884 1.13675E+06 1.0379E+06)" width="205050" height="211670"/>
   <rect class="fil0 str0" transform="matrix(-0.263296 -0.659136 0.638521 -0.255061 1.10412E+06 2.01683E+06)" width="205050" height="211670"/>
   <rect class="fil0 str0" transform="matrix(-0.0194635 -0.709511 0.687321 -0.0188548 2.22E+06 1.35845E+06)" width="205050" height="211670"/>
   <rect class="fil0 str0" transform="matrix(-0.704533 -0.0861303 0.0834365 -0.682499 2.33889E+06 2.46983E+06)" width="205050" height="211670"/>
   <rect class="fil0 str0" transform="matrix(0.222189 -0.674105 0.653022 0.21524 1.59372E+06 1.84044E+06)" width="205050" height="211670"/>
   <rect class="fil0 str0" transform="matrix(-0.0387382 -0.70872 0.686555 -0.0375267 694503 1.68331E+06)" width="205050" height="211670"/>
   <rect class="fil0 str0" transform="matrix(-0.263671 -0.658986 0.638376 -0.255424 2.43584E+06 1.1192E+06)" width="205050" height="211670"/>
   <rect class="fil0 str0" transform="matrix(-0.022595 -0.709418 0.687231 -0.0218884 2.47872E+06 2.19767E+06)" width="205050" height="211670"/>
  </g>
 </g>
</svg>
